# Blender v2.77 (sub 0) OBJ File: 'arrow.blend'
# www.blender.org
v 1.190072 -0.026640 0.021850
v 1.121013 -0.026640 0.021839
v 1.155542 0.016268 0.021845
v -1.040212 0.037311 0.021485
v 1.117854 0.061819 0.021839
v 1.117865 -0.060227 -0.048624
v -1.040203 -0.047975 -0.027756
v -1.040220 -0.047975 0.070725
v 1.117842 -0.060227 0.092302
v -1.024341 -0.128400 0.210464
v -1.024279 -0.128400 -0.167489
v -1.024310 0.198915 0.021487
v -1.455561 -0.019295 0.021417
v 1.103076 0.064366 0.025931
v 0.356221 0.064366 0.025808
v 0.356221 0.404398 0.025808
v 1.103076 0.404399 0.025931
v 1.103074 0.064366 0.038059
v 0.356219 0.404398 0.037935
v 0.356219 0.064366 0.037935
v 1.103074 0.404399 0.038059
v 1.103139 -0.036756 -0.357408
v 0.356284 -0.036756 -0.357531
v 0.356228 -0.002308 -0.017498
v 1.103083 -0.002308 -0.017376
v 1.103139 -0.048823 -0.356185
v 0.356228 -0.014374 -0.016276
v 0.356284 -0.048823 -0.356309
v 1.103083 -0.014374 -0.016153
v 1.103071 0.002813 0.061047
v 0.356215 0.002813 0.060925
v 0.356160 -0.031635 0.400957
v 1.103015 -0.031635 0.401080
v 1.103071 -0.009253 0.059824
v 0.356160 -0.043701 0.399735
v 0.356216 -0.009253 0.059702
v 1.103015 -0.043701 0.399857
v -1.040212 0.037311 0.021485
v 1.117854 0.061819 0.021839
v 1.117865 -0.060227 -0.048624
v -1.040203 -0.047975 -0.027756
v -1.040220 -0.047975 0.070725
v 1.117842 -0.060227 0.092302
v -1.024341 -0.128400 0.210464
v -1.024279 -0.128400 -0.167489
v -1.024310 0.198915 0.021487
v -1.455561 -0.019295 0.021417
v 1.103076 0.064366 0.025931
v 0.356221 0.064366 0.025808
v 0.356221 0.404398 0.025808
v 1.103076 0.404399 0.025931
v 1.103074 0.064366 0.038059
v 0.356219 0.404398 0.037935
v 0.356219 0.064366 0.037935
v 1.103074 0.404399 0.038059
v 1.103139 -0.036756 -0.357408
v 0.356284 -0.036756 -0.357531
v 0.356228 -0.002308 -0.017498
v 1.103083 -0.002308 -0.017376
v 1.103139 -0.048823 -0.356185
v 0.356228 -0.014374 -0.016276
v 0.356284 -0.048823 -0.356309
v 1.103083 -0.014374 -0.016153
v 1.103071 0.002813 0.061047
v 0.356215 0.002813 0.060925
v 0.356160 -0.031635 0.400957
v 1.103015 -0.031635 0.401080
v 1.103071 -0.009253 0.059824
v 0.356160 -0.043701 0.399735
v 0.356216 -0.009253 0.059702
v 1.103015 -0.043701 0.399857
v 1.103076 0.064366 0.025931
v 0.356221 0.064366 0.025808
v 0.356221 0.404398 0.025808
v 1.103076 0.404399 0.025931
v 1.103074 0.064366 0.038059
v 0.356219 0.404398 0.037935
v 0.356219 0.064366 0.037935
v 1.103074 0.404399 0.038059
v 1.103139 -0.036756 -0.357408
v 0.356284 -0.036756 -0.357531
v 0.356228 -0.002308 -0.017498
v 1.103083 -0.002308 -0.017376
v 1.103139 -0.048823 -0.356185
v 0.356228 -0.014374 -0.016276
v 0.356284 -0.048823 -0.356309
v 1.103083 -0.014374 -0.016153
v 1.103071 0.002813 0.061047
v 0.356215 0.002813 0.060925
v 0.356160 -0.031635 0.400957
v 1.103015 -0.031635 0.401080
v 1.103071 -0.009253 0.059824
v 0.356160 -0.043701 0.399735
v 0.356216 -0.009253 0.059702
v 1.103015 -0.043701 0.399857
vt 0.7524 0.1650
vt 0.7524 0.0182
vt 0.7433 0.0182
vt 0.7433 0.1650
vt 0.7620 0.1650
vt 0.7718 0.1650
vt 0.7718 0.0182
vt 0.7620 0.0182
vt -0.4582 0.6410
vt -0.4560 0.6372
vt -0.4538 0.6410
vt 0.7575 0.0097
vt 0.6827 0.0552
vt 0.7142 0.0552
vt 0.6985 0.0825
vt 0.6985 0.0182
vt 0.7384 0.0874
vt 0.6585 0.0874
vt 0.1593 0.0131
vt 0.0978 0.0131
vt 0.0978 0.0430
vt 0.1593 0.0430
vt 0.1593 0.0131
vt 0.0978 0.0430
vt 0.0978 0.0131
vt 0.1593 0.0430
vt 0.1595 0.0427
vt 0.0980 0.0427
vt 0.0980 0.0127
vt 0.1595 0.0127
vt 0.1595 0.0427
vt 0.0980 0.0127
vt 0.0980 0.0427
vt 0.1595 0.0127
vt 0.1595 0.0127
vt 0.0980 0.0127
vt 0.0980 0.0427
vt 0.1595 0.0427
vt 0.1595 0.0127
vt 0.0980 0.0427
vt 0.0980 0.0127
vt 0.1595 0.0427
vt 0.7524 0.1650
vt 0.7524 0.0182
vt 0.7433 0.0182
vt 0.7433 0.1650
vt 0.7620 0.1650
vt 0.7718 0.1650
vt 0.7718 0.0182
vt 0.7620 0.0182
vt -0.4582 0.6410
vt -0.4560 0.6372
vt -0.4538 0.6410
vt 0.7575 0.0097
vt 0.6827 0.0552
vt 0.7142 0.0552
vt 0.6985 0.0825
vt 0.6985 0.0182
vt 0.7384 0.0874
vt 0.6585 0.0874
vt 0.1593 0.0131
vt 0.0978 0.0131
vt 0.0978 0.0430
vt 0.1593 0.0430
vt 0.1593 0.0131
vt 0.0978 0.0430
vt 0.0978 0.0131
vt 0.1593 0.0430
vt 0.1595 0.0427
vt 0.0980 0.0427
vt 0.0980 0.0127
vt 0.1595 0.0127
vt 0.1595 0.0427
vt 0.0980 0.0127
vt 0.0980 0.0427
vt 0.1595 0.0127
vt 0.1595 0.0127
vt 0.0980 0.0127
vt 0.0980 0.0427
vt 0.1595 0.0427
vt 0.1595 0.0127
vt 0.0980 0.0427
vt 0.0980 0.0127
vt 0.1595 0.0427
vt 0.1593 0.0131
vt 0.0978 0.0131
vt 0.0978 0.0430
vt 0.1593 0.0430
vt 0.1593 0.0131
vt 0.0978 0.0430
vt 0.0978 0.0131
vt 0.1593 0.0430
vt 0.1595 0.0427
vt 0.0980 0.0427
vt 0.0980 0.0127
vt 0.1595 0.0127
vt 0.1595 0.0427
vt 0.0980 0.0127
vt 0.0980 0.0427
vt 0.1595 0.0127
vt 0.1595 0.0127
vt 0.0980 0.0127
vt 0.0980 0.0427
vt 0.1595 0.0427
vt 0.1595 0.0127
vt 0.0980 0.0427
vt 0.0980 0.0127
vt 0.1595 0.0427
vn -0.0055 0.5000 -0.8660
vn -0.0057 -1.0000 -0.0000
vn -0.0058 0.5000 0.8660
vn -1.0000 0.0000 -0.0002
vn 1.0000 -0.0000 0.0002
vn -0.2453 -0.9695 -0.0000
vn -0.2451 0.4847 -0.8396
vn -0.2454 0.4847 0.8395
vn 0.0002 0.0000 -1.0000
vn -0.0002 -0.0000 1.0000
vn 0.0000 0.9949 -0.1008
vn -0.0000 -0.9949 0.1008
vn -0.0000 0.9949 0.1008
vn 0.0000 -0.9949 -0.1008
s off
f 4/1/1 5/2/1 6/3/1
f 6/3/1 7/4/1 4/1/1
f 8/5/2 7/6/2 6/7/2
f 6/7/2 9/8/2 8/5/2
f 4/1/3 8/5/3 9/8/3
f 9/8/3 5/2/3 4/1/3
f 8/9/4 4/10/4 7/11/4
f 5/2/5 9/8/5 6/12/5
f 10/13/5 11/14/5 12/15/5
f 10/13/6 13/16/6 11/14/6
f 11/14/7 13/17/7 12/15/7
f 12/15/8 13/18/8 10/13/8
f 14/19/9 15/20/9 16/21/9
f 16/21/9 17/22/9 14/19/9
f 18/23/10 19/24/10 20/25/10
f 19/24/10 18/23/10 21/26/10
f 22/27/11 23/28/11 24/29/11
f 24/29/11 25/30/11 22/27/11
f 26/31/12 27/32/12 28/33/12
f 27/32/12 26/31/12 29/34/12
f 30/35/13 31/36/13 32/37/13
f 32/37/13 33/38/13 30/35/13
f 34/39/14 35/40/14 36/41/14
f 35/40/14 34/39/14 37/42/14
f 38/43/1 39/44/1 40/45/1
f 40/45/1 41/46/1 38/43/1
f 42/47/2 41/48/2 40/49/2
f 40/49/2 43/50/2 42/47/2
f 38/43/3 42/47/3 43/50/3
f 43/50/3 39/44/3 38/43/3
f 42/51/4 38/52/4 41/53/4
f 39/44/5 43/50/5 40/54/5
f 44/55/5 45/56/5 46/57/5
f 44/55/6 47/58/6 45/56/6
f 45/56/7 47/59/7 46/57/7
f 46/57/8 47/60/8 44/55/8
f 48/61/9 49/62/9 50/63/9
f 50/63/9 51/64/9 48/61/9
f 52/65/10 53/66/10 54/67/10
f 53/66/10 52/65/10 55/68/10
f 56/69/11 57/70/11 58/71/11
f 58/71/11 59/72/11 56/69/11
f 60/73/12 61/74/12 62/75/12
f 61/74/12 60/73/12 63/76/12
f 64/77/13 65/78/13 66/79/13
f 66/79/13 67/80/13 64/77/13
f 68/81/14 69/82/14 70/83/14
f 69/82/14 68/81/14 71/84/14
f 72/85/9 73/86/9 74/87/9
f 74/87/9 75/88/9 72/85/9
f 76/89/10 77/90/10 78/91/10
f 77/90/10 76/89/10 79/92/10
f 80/93/11 81/94/11 82/95/11
f 82/95/11 83/96/11 80/93/11
f 84/97/12 85/98/12 86/99/12
f 85/98/12 84/97/12 87/100/12
f 88/101/13 89/102/13 90/103/13
f 90/103/13 91/104/13 88/101/13
f 92/105/14 93/106/14 94/107/14
f 93/106/14 92/105/14 95/108/14
l 2 3
l 1 3
l 1 2
