# Blender v2.77 (sub 0) OBJ File: 'SETMESITA.blend'
# www.blender.org
v -0.658089 0.539387 0.491952
v -0.658071 -0.502927 0.638594
v -0.658071 0.539387 0.638594
v 0.461868 0.539387 0.491780
v -0.658089 -0.502927 0.491952
v 0.461886 0.539387 0.638423
v 0.461868 -0.502927 0.491780
v 0.461886 -0.502927 0.638422
v -0.658216 0.539387 -0.504925
v -0.658199 -0.502927 -0.358282
v -0.658199 0.539387 -0.358282
v 0.461741 0.539387 -0.505096
v -0.658216 -0.502927 -0.504925
v 0.461758 0.539387 -0.358453
v 0.461741 -0.502927 -0.505096
v 0.461758 -0.502927 -0.358453
v -0.647625 0.536497 0.527888
v -0.647739 0.478156 -0.367396
v -0.647618 0.476781 0.527808
v 0.451289 0.537913 -0.367385
v -0.647746 0.537872 -0.367316
v 0.451410 0.536539 0.527819
v 0.451296 0.478197 -0.367465
v 0.451417 0.476822 0.527739
v -0.647625 -0.388354 0.527888
v -0.647739 -0.502545 -0.367396
v -0.647618 -0.505235 0.527807
v 0.451289 -0.385583 -0.367385
v -0.647746 -0.385663 -0.367316
v 0.451410 -0.388273 0.527819
v 0.451296 -0.502465 -0.367465
v 0.451417 -0.505155 0.527739
v -0.654111 0.539387 0.502883
v -0.513090 -0.502927 0.502498
v -0.513090 0.539387 0.502498
v -0.656135 0.539387 -0.406246
v -0.654111 -0.502927 0.502882
v -0.515114 0.539387 -0.406632
v -0.656135 -0.502927 -0.406246
v -0.515114 -0.502927 -0.406632
v 0.415665 0.482908 0.514555
v 0.535643 -0.433832 0.514484
v 0.535643 0.482908 0.514484
v 0.415067 0.482908 -0.383019
v 0.415665 -0.433832 0.514555
v 0.535045 0.482908 -0.383089
v 0.415067 -0.433832 -0.383019
v 0.535045 -0.433832 -0.383089
v 0.590156 0.120390 0.322731
v 0.545143 0.112934 0.318912
v 0.590157 0.112934 0.340939
v 0.590159 0.001031 0.369996
v 0.515304 0.014980 0.343099
v 0.522791 0.001031 0.337030
v 0.532866 0.102901 0.328863
v 0.590158 0.102901 0.356898
v 0.590158 -0.011195 0.356898
v 0.532866 -0.011195 0.328863
v 0.522791 0.090676 0.337030
v 0.590159 0.090676 0.369996
v 0.590157 -0.021228 0.340939
v 0.545143 -0.021228 0.318912
v 0.515304 0.076728 0.343099
v 0.590160 0.076728 0.379729
v 0.590156 -0.028683 0.322731
v 0.559150 -0.028683 0.307558
v 0.510694 0.061593 0.346836
v 0.590160 0.061593 0.385722
v 0.590155 -0.033274 0.302974
v 0.574348 -0.033274 0.295239
v 0.509137 0.045854 0.348097
v 0.590160 0.045853 0.387746
v 0.590155 0.124981 0.302974
v 0.590153 0.126531 0.282427
v 0.574348 0.124981 0.295239
v 0.590153 -0.034824 0.282427
v 0.590160 0.030114 0.385722
v 0.510694 0.030114 0.346836
v 0.559150 0.120390 0.307558
v 0.590160 0.014980 0.379729
v 0.551490 0.120390 0.273461
v 0.491062 0.030114 0.259448
v 0.496812 0.014980 0.260781
v 0.534023 0.112934 0.269410
v 0.506148 0.001031 0.262946
v 0.518713 0.102901 0.265860
v 0.518713 -0.011195 0.265860
v 0.506148 0.090676 0.262946
v 0.534023 -0.021228 0.269410
v 0.496812 0.076728 0.260781
v 0.551490 -0.028683 0.273461
v 0.491062 0.061593 0.259448
v 0.570443 -0.033274 0.277856
v 0.489121 0.045854 0.258998
v 0.570443 0.124981 0.277856
v 0.552763 0.090676 0.203532
v 0.548607 0.076728 0.194764
v 0.572944 -0.028683 0.246116
v 0.546048 0.061593 0.189364
v 0.581380 -0.033274 0.263916
v 0.545184 0.045854 0.187541
v 0.581380 0.124981 0.263916
v 0.546048 0.030114 0.189364
v 0.572944 0.120390 0.246116
v 0.548607 0.014980 0.194764
v 0.565170 0.112934 0.229711
v 0.552763 0.001031 0.203532
v 0.558355 0.102901 0.215333
v 0.558355 -0.011194 0.215333
v 0.565170 -0.021228 0.229711
v 0.634246 0.030114 0.189359
v 0.631688 0.014980 0.194759
v 0.607358 0.120390 0.246114
v 0.615130 0.112934 0.229708
v 0.627533 0.001031 0.203528
v 0.621943 0.102901 0.215328
v 0.621943 -0.011194 0.215328
v 0.627533 0.090676 0.203528
v 0.615130 -0.021228 0.229708
v 0.631688 0.076728 0.194759
v 0.607358 -0.028683 0.246114
v 0.634246 0.061593 0.189359
v 0.598924 -0.033274 0.263915
v 0.635110 0.045854 0.187535
v 0.598924 0.124981 0.263915
v 0.646282 -0.021228 0.269403
v 0.628816 -0.028683 0.273456
v 0.689241 0.061593 0.259435
v 0.609863 -0.033274 0.277854
v 0.691183 0.045854 0.258985
v 0.609863 0.124981 0.277854
v 0.689241 0.030114 0.259435
v 0.628816 0.120390 0.273456
v 0.683492 0.014980 0.260769
v 0.646282 0.112934 0.269403
v 0.674156 0.001031 0.262936
v 0.661592 0.102901 0.265851
v 0.661592 -0.011195 0.265851
v 0.674156 0.090676 0.262936
v 0.683492 0.076728 0.260769
v 0.621160 0.120390 0.307554
v 0.635168 0.112934 0.318906
v 0.657523 0.001031 0.337021
v 0.647446 0.102901 0.328856
v 0.647446 -0.011195 0.328856
v 0.657523 0.090676 0.337021
v 0.635168 -0.021228 0.318906
v 0.665010 0.076728 0.343089
v 0.621160 -0.028683 0.307554
v 0.669621 0.061593 0.346825
v 0.605961 -0.033274 0.295237
v 0.671178 0.045854 0.348087
v 0.605961 0.124981 0.295237
v 0.669621 0.030114 0.346825
v 0.665010 0.014980 0.343089
vt 0.0521 0.5641
vt 0.5995 0.6255
vt 0.0521 0.6255
vt 0.0500 0.5661
vt 0.6021 0.8260
vt 0.0500 0.8260
vt 0.0453 0.5703
vt 0.6005 0.6271
vt 0.0453 0.6271
vt 0.0462 0.5641
vt 0.6038 0.8250
vt 0.0470 0.8256
vt 0.6274 0.6320
vt 0.6019 0.8897
vt 0.6018 0.6321
vt 0.6273 0.9561
vt 0.5998 0.6950
vt 0.6269 0.6946
vt 0.0521 0.5641
vt 0.5995 0.6255
vt 0.0521 0.6255
vt 0.0500 0.5661
vt 0.6021 0.8260
vt 0.0500 0.8260
vt 0.0453 0.5703
vt 0.6005 0.6271
vt 0.0453 0.6271
vt 0.0462 0.5641
vt 0.6038 0.8250
vt 0.0470 0.8256
vt 0.6274 0.6320
vt 0.6019 0.8897
vt 0.6018 0.6321
vt 0.6273 0.9561
vt 0.5998 0.6950
vt 0.6269 0.6946
vt 0.0521 0.5641
vt 0.5995 0.6255
vt 0.0521 0.6255
vt 0.0500 0.8260
vt 0.6021 0.5661
vt 0.6021 0.8260
vt 0.0453 0.6271
vt 0.6005 0.5703
vt 0.6005 0.6271
vt 0.0462 0.5641
vt 0.6038 0.8250
vt 0.0470 0.8256
vt 0.6274 0.6320
vt 0.6019 0.8897
vt 0.6018 0.6321
vt 0.6273 0.9561
vt 0.5998 0.6950
vt 0.6269 0.6946
vt 0.0521 0.5641
vt 0.5995 0.6255
vt 0.0521 0.6255
vt 0.0500 0.8260
vt 0.6021 0.5661
vt 0.6021 0.8260
vt 0.0453 0.6271
vt 0.6005 0.5703
vt 0.6005 0.6271
vt 0.0462 0.5641
vt 0.6038 0.8250
vt 0.0470 0.8256
vt 0.6274 0.6320
vt 0.6019 0.8897
vt 0.6018 0.6321
vt 0.6273 0.9561
vt 0.5998 0.6950
vt 0.6269 0.6946
vt 0.0521 0.5641
vt 0.5995 0.6255
vt 0.0521 0.6255
vt 0.0500 0.5661
vt 0.6021 0.8260
vt 0.0500 0.8260
vt 0.0453 0.5703
vt 0.6005 0.6271
vt 0.0453 0.6271
vt 0.0462 0.5641
vt 0.6038 0.8250
vt 0.0470 0.8256
vt 0.6018 0.6321
vt 0.6274 0.8895
vt 0.6019 0.8897
vt 0.6002 0.9564
vt 0.6269 0.6946
vt 0.6273 0.9561
vt 0.0521 0.5641
vt 0.5995 0.6255
vt 0.0521 0.6255
vt 0.0500 0.5661
vt 0.6021 0.8260
vt 0.0500 0.8260
vt 0.0453 0.5703
vt 0.6005 0.6271
vt 0.0453 0.6271
vt 0.0462 0.5641
vt 0.6038 0.8250
vt 0.0470 0.8256
vt 0.6274 0.6320
vt 0.6019 0.8897
vt 0.6018 0.6321
vt 0.6273 0.9561
vt 0.5998 0.6950
vt 0.6269 0.6946
vt 0.4224 0.1527
vt 0.4278 0.1518
vt 0.4229 0.1572
vt 0.4485 0.1644
vt 0.4386 0.1578
vt 0.4393 0.1563
vt 0.4296 0.1542
vt 0.4234 0.1612
vt 0.4481 0.1612
vt 0.4403 0.1543
vt 0.4311 0.1562
vt 0.4237 0.1644
vt 0.4477 0.1572
vt 0.4416 0.1518
vt 0.4321 0.1577
vt 0.4240 0.1668
vt 0.4472 0.1527
vt 0.4430 0.1490
vt 0.4328 0.1586
vt 0.4242 0.1683
vt 0.4466 0.1479
vt 0.4445 0.1460
vt 0.4330 0.1590
vt 0.4242 0.1688
vt 0.4219 0.1479
vt 0.4213 0.1428
vt 0.4236 0.1460
vt 0.4461 0.1428
vt 0.4489 0.1683
vt 0.4379 0.1590
vt 0.4381 0.1587
vt 0.4258 0.1490
vt 0.4487 0.1668
vt 0.4258 0.1406
vt 0.4333 0.1372
vt 0.4340 0.1375
vt 0.4278 0.1396
vt 0.4352 0.1380
vt 0.4296 0.1387
vt 0.4369 0.1388
vt 0.4311 0.1379
vt 0.4388 0.1396
vt 0.4321 0.1374
vt 0.4411 0.1406
vt 0.4328 0.1371
vt 0.4435 0.1417
vt 0.4330 0.1370
vt 0.4236 0.1417
vt 0.4330 0.1371
vt 0.4237 0.1233
vt 0.4240 0.1211
vt 0.4430 0.1339
vt 0.4242 0.1198
vt 0.4445 0.1382
vt 0.4242 0.1194
vt 0.4219 0.1382
vt 0.4381 0.1199
vt 0.4224 0.1338
vt 0.4386 0.1212
vt 0.4229 0.1298
vt 0.4393 0.1234
vt 0.4234 0.1262
vt 0.4403 0.1263
vt 0.4416 0.1298
vt 0.4489 0.1198
vt 0.4487 0.1211
vt 0.4182 0.1339
vt 0.4168 0.1298
vt 0.4485 0.1233
vt 0.4156 0.1263
vt 0.4481 0.1262
vt 0.4146 0.1234
vt 0.4477 0.1298
vt 0.4138 0.1212
vt 0.4472 0.1338
vt 0.4134 0.1199
vt 0.4466 0.1382
vt 0.4132 0.1194
vt 0.4198 0.1382
vt 0.4379 0.1194
vt 0.4526 0.1396
vt 0.4505 0.1406
vt 0.4086 0.1372
vt 0.4484 0.1417
vt 0.4083 0.1371
vt 0.4188 0.1417
vt 0.4577 0.1370
vt 0.4575 0.1371
vt 0.4164 0.1406
vt 0.4569 0.1374
vt 0.4141 0.1396
vt 0.4558 0.1379
vt 0.4121 0.1388
vt 0.4543 0.1387
vt 0.4105 0.1380
vt 0.4093 0.1375
vt 0.4182 0.1490
vt 0.4168 0.1518
vt 0.4558 0.1562
vt 0.4156 0.1543
vt 0.4543 0.1542
vt 0.4146 0.1563
vt 0.4526 0.1518
vt 0.4138 0.1578
vt 0.4505 0.1490
vt 0.4134 0.1587
vt 0.4484 0.1460
vt 0.4132 0.1591
vt 0.4198 0.1460
vt 0.4575 0.1586
vt 0.4569 0.1577
vt 0.4577 0.1590
vt 0.5995 0.5641
vt 0.6021 0.5661
vt 0.6005 0.5703
vt 0.6030 0.5635
vt 0.6274 0.8895
vt 0.6002 0.9564
vt 0.5995 0.5641
vt 0.6021 0.5661
vt 0.6005 0.5703
vt 0.6030 0.5635
vt 0.6274 0.8895
vt 0.6002 0.9564
vt 0.5995 0.5641
vt 0.0500 0.5661
vt 0.0453 0.5703
vt 0.6030 0.5635
vt 0.6274 0.8895
vt 0.6002 0.9564
vt 0.5995 0.5641
vt 0.0500 0.5661
vt 0.0453 0.5703
vt 0.6030 0.5635
vt 0.6274 0.8895
vt 0.6002 0.9564
vt 0.5995 0.5641
vt 0.6021 0.5661
vt 0.6005 0.5703
vt 0.6030 0.5635
vt 0.6274 0.6320
vt 0.5998 0.6950
vt 0.5995 0.5641
vt 0.6021 0.5661
vt 0.6005 0.5703
vt 0.6030 0.5635
vt 0.6274 0.8895
vt 0.6002 0.9564
vt 0.4489 0.1688
vt 0.4489 0.1194
vn -1.0000 -0.0000 0.0001
vn -0.0002 0.0000 -1.0000
vn 1.0000 -0.0000 -0.0001
vn 0.0002 -0.0000 1.0000
vn -0.0000 -1.0000 -0.0000
vn 0.0000 1.0000 0.0000
vn -1.0000 -0.0001 0.0001
vn -0.0000 1.0000 0.0015
vn 1.0000 0.0001 -0.0001
vn 0.0000 -1.0000 -0.0015
vn -0.0001 0.0013 -1.0000
vn 0.0001 -0.0013 1.0000
vn -0.0001 1.0000 0.0030
vn 0.0001 -1.0000 -0.0030
vn -0.0001 0.0007 -1.0000
vn 0.0001 -0.0007 1.0000
vn 0.0027 -0.0000 1.0000
vn -1.0000 -0.0000 0.0022
vn -0.0027 0.0000 -1.0000
vn 1.0000 0.0000 -0.0022
vn 0.0006 -0.0000 1.0000
vn -1.0000 -0.0000 0.0007
vn -0.0006 0.0000 -1.0000
vn 1.0000 -0.0000 -0.0007
vn -0.1823 0.9099 0.3726
vn -0.3724 -0.5311 0.7611
vn -0.2521 0.8192 0.5151
vn -0.2520 0.8192 0.5151
vn -0.3167 -0.6934 0.6472
vn -0.3167 0.6934 0.6472
vn -0.2521 -0.8192 0.5151
vn -0.2520 -0.8192 0.5151
vn -0.3724 0.5311 0.7611
vn -0.1823 -0.9099 0.3726
vn -0.4141 0.3351 0.8463
vn -0.1101 -0.9681 0.2250
vn -0.4366 0.1147 0.8923
vn -0.0368 0.9965 0.0752
vn -0.0368 -0.9965 0.0752
vn -0.4366 -0.1147 0.8923
vn -0.1101 0.9681 0.2250
vn -0.4141 -0.3351 0.8463
vn -0.2472 0.9674 0.0555
vn -0.9205 -0.3315 0.2068
vn -0.4088 0.9080 0.0918
vn -0.8296 -0.5264 0.1864
vn -0.8296 -0.5263 0.1864
vn -0.5641 0.8159 0.1267
vn -0.7072 -0.6889 0.1589
vn -0.7072 0.6889 0.1589
vn -0.7072 0.6890 0.1589
vn -0.5641 -0.8159 0.1267
vn -0.8296 0.5264 0.1864
vn -0.4088 -0.9080 0.0918
vn -0.9205 0.3315 0.2068
vn -0.2472 -0.9674 0.0555
vn -0.9694 0.1133 0.2178
vn -0.0827 0.9964 0.0186
vn -0.0827 -0.9964 0.0186
vn -0.9694 -0.1133 0.2178
vn -0.6679 0.5284 -0.5241
vn -0.6679 0.5284 -0.5240
vn -0.3282 -0.9088 -0.2575
vn -0.7418 0.3331 -0.5820
vn -0.1983 -0.9677 -0.1556
vn -0.7816 0.1139 -0.6132
vn -0.0663 0.9964 -0.0520
vn -0.0663 -0.9964 -0.0520
vn -0.7816 -0.1139 -0.6132
vn -0.1983 0.9677 -0.1556
vn -0.7418 -0.3331 -0.5820
vn -0.3282 0.9088 -0.2575
vn -0.6679 -0.5284 -0.5241
vn -0.6679 -0.5284 -0.5240
vn -0.4532 0.8174 -0.3556
vn -0.5688 -0.6909 -0.4462
vn -0.5688 -0.6909 -0.4463
vn -0.5688 0.6909 -0.4462
vn -0.4532 -0.8174 -0.3556
vn -0.0001 -0.3361 -0.9418
vn -0.0001 -0.3360 -0.9418
vn -0.0000 0.9104 -0.4137
vn -0.0000 -0.5322 -0.8466
vn -0.0001 -0.5322 -0.8466
vn -0.0000 0.8201 -0.5723
vn -0.0000 0.8201 -0.5722
vn -0.0000 -0.6945 -0.7195
vn -0.0001 -0.6945 -0.7195
vn -0.0001 -0.6944 -0.7195
vn -0.0000 0.6945 -0.7195
vn -0.0001 0.6945 -0.7195
vn -0.0000 -0.8201 -0.5723
vn -0.0000 -0.8201 -0.5722
vn -0.0000 0.5322 -0.8466
vn -0.0001 0.5322 -0.8466
vn -0.0000 -0.9104 -0.4137
vn -0.0001 0.3361 -0.9418
vn -0.0001 0.3360 -0.9418
vn -0.0000 -0.9683 -0.2497
vn -0.0001 0.1151 -0.9934
vn -0.0000 0.9965 -0.0835
vn -0.0000 -0.9965 -0.0834
vn -0.0001 -0.1151 -0.9934
vn -0.0000 0.9683 -0.2497
vn 0.3282 -0.9088 -0.2575
vn 0.7418 0.3331 -0.5821
vn 0.1983 -0.9677 -0.1556
vn 0.7815 0.1140 -0.6133
vn 0.0663 0.9964 -0.0521
vn 0.0663 -0.9964 -0.0520
vn 0.7815 -0.1140 -0.6133
vn 0.1983 0.9677 -0.1556
vn 0.7418 -0.3331 -0.5821
vn 0.3282 0.9088 -0.2575
vn 0.6679 -0.5285 -0.5241
vn 0.4532 0.8174 -0.3556
vn 0.5688 -0.6909 -0.4464
vn 0.5687 -0.6909 -0.4463
vn 0.5687 0.6909 -0.4463
vn 0.4532 -0.8174 -0.3556
vn 0.4532 -0.8174 -0.3557
vn 0.6679 0.5285 -0.5241
vn 0.4089 0.9080 0.0918
vn 0.4088 0.9080 0.0918
vn 0.8296 -0.5264 0.1863
vn 0.5641 0.8159 0.1267
vn 0.7072 -0.6889 0.1588
vn 0.7072 0.6890 0.1588
vn 0.5641 -0.8159 0.1267
vn 0.8296 0.5264 0.1863
vn 0.4089 -0.9080 0.0918
vn 0.4088 -0.9080 0.0918
vn 0.9206 0.3315 0.2067
vn 0.9205 0.3315 0.2067
vn 0.2472 -0.9674 0.0555
vn 0.9694 0.1134 0.2176
vn 0.9694 0.1134 0.2177
vn 0.0827 0.9964 0.0186
vn 0.0827 -0.9964 0.0186
vn 0.9694 -0.1134 0.2176
vn 0.9694 -0.1134 0.2177
vn 0.2472 0.9674 0.0555
vn 0.9206 -0.3315 0.2067
vn 0.9205 -0.3315 0.2067
vn 0.4142 0.3351 0.8462
vn 0.1101 -0.9681 0.2250
vn 0.4368 0.1147 0.8922
vn 0.0368 0.9965 0.0752
vn 0.0368 -0.9965 0.0752
vn 0.4368 -0.1147 0.8922
vn 0.1101 0.9681 0.2250
vn 0.4142 -0.3351 0.8462
vn 0.1824 0.9099 0.3725
vn 0.1824 0.9099 0.3726
vn 0.3725 -0.5311 0.7610
vn 0.2521 0.8192 0.5150
vn 0.2521 0.8192 0.5151
vn 0.3168 -0.6934 0.6472
vn 0.3168 0.6934 0.6472
vn 0.2521 -0.8193 0.5150
vn 0.2521 -0.8192 0.5151
vn 0.3725 0.5311 0.7610
vn 0.1824 -0.9099 0.3725
vn -0.8296 0.5263 0.1864
vn 0.4532 0.8174 -0.3557
vn 0.7072 0.6889 0.1588
vn 0.2521 0.8193 0.5150
vn 0.1824 -0.9099 0.3726
s 1
f 1/1/1 2/2/1 3/3/1
f 4/4/2 5/5/2 1/6/2
f 6/7/3 7/8/3 4/9/3
f 3/10/4 8/11/4 6/12/4
f 5/13/5 8/14/5 2/15/5
f 6/16/6 1/17/6 3/18/6
f 9/19/1 10/20/1 11/21/1
f 12/22/2 13/23/2 9/24/2
f 14/25/3 15/26/3 12/27/3
f 11/28/4 16/29/4 14/30/4
f 13/31/5 16/32/5 10/33/5
f 14/34/6 9/35/6 11/36/6
f 17/37/7 18/38/7 19/39/7
f 17/40/8 20/41/8 21/42/8
f 22/43/9 23/44/9 20/45/9
f 19/46/10 23/47/10 24/48/10
f 21/49/11 23/50/11 18/51/11
f 24/52/12 17/53/12 19/54/12
f 25/55/7 26/56/7 27/57/7
f 25/58/13 28/59/13 29/60/13
f 30/61/9 31/62/9 28/63/9
f 27/64/14 31/65/14 32/66/14
f 29/67/15 31/68/15 26/69/15
f 32/70/16 25/71/16 27/72/16
f 33/73/17 34/74/17 35/75/17
f 36/76/18 37/77/18 33/78/18
f 38/79/19 39/80/19 36/81/19
f 35/82/20 40/83/20 38/84/20
f 34/85/5 39/86/5 40/87/5
f 36/88/6 35/89/6 38/90/6
f 41/91/21 42/92/21 43/93/21
f 44/94/22 45/95/22 41/96/22
f 46/97/23 47/98/23 44/99/23
f 43/100/24 48/101/24 46/102/24
f 45/103/5 48/104/5 42/105/5
f 46/106/6 41/107/6 43/108/6
f 49/109/25 50/110/25 51/111/25
f 52/112/26 53/113/26 54/114/26
f 51/111/27 55/115/28 56/116/27
f 57/117/29 54/114/29 58/118/29
f 56/116/30 59/119/30 60/120/30
f 61/121/31 58/118/32 62/122/32
f 60/120/33 63/123/33 64/124/33
f 65/125/34 62/122/34 66/126/34
f 64/124/35 67/127/35 68/128/35
f 69/129/36 66/126/36 70/130/36
f 68/128/37 71/131/37 72/132/37
f 73/133/38 74/134/38 75/135/38
f 76/136/39 69/129/39 70/130/39
f 77/137/40 71/138/40 78/139/40
f 73/133/41 79/140/41 49/109/41
f 80/141/42 78/139/42 53/113/42
f 75/135/43 81/142/43 79/140/43
f 53/113/44 82/143/44 83/144/44
f 79/140/45 84/145/45 50/110/45
f 54/114/46 83/144/46 85/146/47
f 50/110/48 86/147/48 55/115/48
f 58/118/49 85/146/49 87/148/49
f 55/115/50 88/149/51 59/119/50
f 62/122/52 87/148/52 89/150/52
f 59/119/53 90/151/53 63/123/53
f 66/126/54 89/150/54 91/152/54
f 63/123/55 92/153/55 67/127/55
f 70/130/56 91/152/56 93/154/56
f 67/127/57 94/155/57 71/131/57
f 75/135/58 74/134/58 95/156/58
f 76/136/59 70/130/59 93/154/59
f 78/139/60 94/157/60 82/143/60
f 90/151/61 96/158/62 97/159/62
f 89/150/63 98/160/63 91/152/63
f 92/153/64 97/159/64 99/161/64
f 91/152/65 100/162/65 93/154/65
f 94/155/66 99/161/66 101/163/66
f 95/156/67 74/134/67 102/164/67
f 76/136/68 93/154/68 100/162/68
f 94/157/69 103/165/69 82/143/69
f 81/142/70 102/164/70 104/166/70
f 82/143/71 105/167/71 83/144/71
f 84/145/72 104/166/72 106/168/72
f 83/144/73 107/169/74 85/146/73
f 86/147/75 106/168/75 108/170/75
f 85/146/76 109/171/77 87/148/76
f 88/149/78 108/170/78 96/158/78
f 87/148/79 110/172/79 89/150/79
f 105/167/80 111/173/81 112/174/81
f 106/168/82 113/175/82 114/176/82
f 105/167/83 115/177/84 107/169/83
f 106/168/85 116/178/86 108/170/85
f 109/171/87 115/177/88 117/179/89
f 108/170/90 118/180/91 96/158/90
f 110/172/92 117/179/93 119/181/93
f 97/159/94 118/180/95 120/182/95
f 110/172/96 121/183/96 98/160/96
f 97/159/97 122/184/98 99/161/97
f 98/160/99 123/185/99 100/162/99
f 99/161/100 124/186/100 101/163/100
f 102/164/101 74/134/101 125/187/101
f 76/136/102 100/162/102 123/185/102
f 101/188/103 111/173/103 103/165/103
f 102/164/104 113/175/104 104/166/104
f 121/183/105 126/189/105 127/190/105
f 120/182/106 128/191/106 122/184/106
f 123/185/107 127/190/107 129/192/107
f 122/184/108 130/193/108 124/186/108
f 125/187/109 74/134/109 131/194/109
f 76/136/110 123/185/110 129/192/110
f 111/173/111 130/195/111 132/196/111
f 125/187/112 133/197/112 113/175/112
f 112/174/113 132/196/113 134/198/113
f 113/175/114 135/199/114 114/176/114
f 115/177/115 134/198/115 136/200/115
f 114/176/116 137/201/116 116/178/116
f 117/179/117 136/200/118 138/202/118
f 116/178/119 139/203/119 118/180/119
f 119/181/120 138/202/120 126/189/121
f 118/180/122 140/204/122 120/182/122
f 135/199/123 141/205/124 142/206/124
f 134/198/125 143/207/125 136/200/125
f 137/201/126 142/206/126 144/208/126
f 136/200/127 145/209/127 138/202/127
f 139/203/128 144/208/128 146/210/128
f 138/202/129 147/211/129 126/189/129
f 140/204/130 146/210/130 148/212/130
f 126/189/131 149/213/132 127/190/131
f 128/191/133 148/212/134 150/214/134
f 127/190/135 151/215/135 129/192/135
f 130/193/136 150/214/137 152/216/137
f 131/194/138 74/134/138 153/217/138
f 76/136/139 129/192/139 151/215/139
f 130/195/140 154/218/141 132/196/140
f 133/197/142 153/217/142 141/205/142
f 132/196/143 155/219/144 134/198/143
f 150/214/145 64/124/145 68/128/145
f 149/213/146 69/129/146 151/215/146
f 152/216/147 68/128/147 72/132/147
f 153/217/148 74/134/148 73/133/148
f 76/136/149 151/215/149 69/129/149
f 152/220/150 77/137/150 154/218/150
f 141/205/151 73/133/151 49/109/151
f 154/218/152 80/141/152 155/219/152
f 142/206/153 49/109/153 51/111/154
f 155/219/155 52/112/155 143/207/155
f 144/208/156 51/111/157 56/116/157
f 143/207/158 57/117/158 145/209/158
f 146/210/159 56/116/159 60/120/159
f 145/209/160 61/121/161 147/211/160
f 148/212/162 60/120/162 64/124/162
f 147/211/163 65/125/163 149/213/163
f 1/1/1 5/221/1 2/2/1
f 4/4/2 7/222/2 5/5/2
f 6/7/3 8/223/3 7/8/3
f 3/10/4 2/224/4 8/11/4
f 5/13/5 7/225/5 8/14/5
f 6/16/6 4/226/6 1/17/6
f 9/19/1 13/227/1 10/20/1
f 12/22/2 15/228/2 13/23/2
f 14/25/3 16/229/3 15/26/3
f 11/28/4 10/230/4 16/29/4
f 13/31/5 15/231/5 16/32/5
f 14/34/6 12/232/6 9/35/6
f 17/37/7 21/233/7 18/38/7
f 17/40/8 22/234/8 20/41/8
f 22/43/9 24/235/9 23/44/9
f 19/46/10 18/236/10 23/47/10
f 21/49/11 20/237/11 23/50/11
f 24/52/12 22/238/12 17/53/12
f 25/55/7 29/239/7 26/56/7
f 25/58/13 30/240/13 28/59/13
f 30/61/9 32/241/9 31/62/9
f 27/64/14 26/242/14 31/65/14
f 29/67/15 28/243/15 31/68/15
f 32/70/16 30/244/16 25/71/16
f 33/73/17 37/245/17 34/74/17
f 36/76/18 39/246/18 37/77/18
f 38/79/19 40/247/19 39/80/19
f 35/82/20 34/248/20 40/83/20
f 34/85/5 37/249/5 39/86/5
f 36/88/6 33/250/6 35/89/6
f 41/91/21 45/251/21 42/92/21
f 44/94/22 47/252/22 45/95/22
f 46/97/23 48/253/23 47/98/23
f 43/100/24 42/254/24 48/101/24
f 45/103/5 47/255/5 48/104/5
f 46/106/6 44/256/6 41/107/6
f 49/109/25 79/140/25 50/110/25
f 52/112/26 80/141/26 53/113/26
f 51/111/27 50/110/28 55/115/28
f 57/117/29 52/112/29 54/114/29
f 56/116/30 55/115/30 59/119/30
f 61/121/31 57/117/31 58/118/32
f 60/120/33 59/119/33 63/123/33
f 65/125/34 61/121/34 62/122/34
f 64/124/35 63/123/35 67/127/35
f 69/129/36 65/125/36 66/126/36
f 68/128/37 67/127/37 71/131/37
f 77/137/40 72/257/40 71/138/40
f 73/133/41 75/135/41 79/140/41
f 80/141/42 77/137/42 78/139/42
f 75/135/43 95/156/43 81/142/43
f 53/113/44 78/139/44 82/143/44
f 79/140/45 81/142/45 84/145/45
f 54/114/46 53/113/46 83/144/46
f 50/110/48 84/145/48 86/147/48
f 58/118/49 54/114/49 85/146/49
f 55/115/50 86/147/51 88/149/51
f 62/122/52 58/118/52 87/148/52
f 59/119/53 88/149/164 90/151/53
f 66/126/54 62/122/54 89/150/54
f 63/123/55 90/151/55 92/153/55
f 70/130/56 66/126/56 91/152/56
f 67/127/57 92/153/57 94/155/57
f 78/139/60 71/138/60 94/157/60
f 90/151/61 88/149/61 96/158/62
f 89/150/63 110/172/63 98/160/63
f 92/153/64 90/151/64 97/159/64
f 91/152/65 98/160/65 100/162/65
f 94/155/66 92/153/66 99/161/66
f 94/157/69 101/188/69 103/165/69
f 81/142/70 95/156/70 102/164/70
f 82/143/71 103/165/71 105/167/71
f 84/145/72 81/142/72 104/166/72
f 83/144/73 105/167/74 107/169/74
f 86/147/75 84/145/75 106/168/75
f 85/146/76 107/169/77 109/171/77
f 88/149/78 86/147/78 108/170/78
f 87/148/79 109/171/79 110/172/79
f 105/167/80 103/165/80 111/173/81
f 106/168/82 104/166/82 113/175/82
f 105/167/83 112/174/84 115/177/84
f 106/168/85 114/176/86 116/178/86
f 109/171/87 107/169/87 115/177/88
f 108/170/90 116/178/91 118/180/91
f 110/172/92 109/171/92 117/179/93
f 97/159/94 96/158/94 118/180/95
f 110/172/96 119/181/96 121/183/96
f 97/159/97 120/182/98 122/184/98
f 98/160/99 121/183/99 123/185/99
f 99/161/100 122/184/100 124/186/100
f 101/188/103 124/258/103 111/173/103
f 102/164/104 125/187/104 113/175/104
f 121/183/105 119/181/105 126/189/105
f 120/182/106 140/204/106 128/191/106
f 123/185/107 121/183/107 127/190/107
f 122/184/108 128/191/108 130/193/108
f 111/173/111 124/258/111 130/195/111
f 125/187/112 131/194/112 133/197/112
f 112/174/113 111/173/113 132/196/113
f 113/175/114 133/197/114 135/199/114
f 115/177/115 112/174/115 134/198/115
f 114/176/116 135/199/165 137/201/116
f 117/179/117 115/177/117 136/200/118
f 116/178/119 137/201/119 139/203/119
f 119/181/120 117/179/120 138/202/120
f 118/180/122 139/203/122 140/204/122
f 135/199/123 133/197/123 141/205/124
f 134/198/125 155/219/125 143/207/125
f 137/201/126 135/199/126 142/206/126
f 136/200/127 143/207/127 145/209/127
f 139/203/128 137/201/166 144/208/128
f 138/202/129 145/209/129 147/211/129
f 140/204/130 139/203/130 146/210/130
f 126/189/131 147/211/132 149/213/132
f 128/191/133 140/204/133 148/212/134
f 127/190/135 149/213/135 151/215/135
f 130/193/136 128/191/136 150/214/137
f 130/195/140 152/220/141 154/218/141
f 133/197/142 131/194/142 153/217/142
f 132/196/143 154/218/144 155/219/144
f 150/214/145 148/212/145 64/124/145
f 149/213/146 65/125/146 69/129/146
f 152/216/147 150/214/147 68/128/147
f 152/220/150 72/257/150 77/137/150
f 141/205/151 153/217/151 73/133/151
f 154/218/152 77/137/152 80/141/152
f 142/206/153 141/205/153 49/109/153
f 155/219/155 80/141/155 52/112/155
f 144/208/156 142/206/167 51/111/157
f 143/207/158 52/112/158 57/117/158
f 146/210/159 144/208/159 56/116/159
f 145/209/160 57/117/161 61/121/161
f 148/212/162 146/210/162 60/120/162
f 147/211/163 61/121/168 65/125/163
