# Blender v2.77 (sub 0) OBJ File: 'SETBanco.blend'
# www.blender.org
v 0.327810 0.381387 -1.519463
v 0.327810 0.381388 1.674659
v 0.327815 0.237098 -1.519463
v 0.327815 0.237098 1.674659
v -0.473922 0.381290 -1.519463
v -0.473922 0.381290 1.674659
v -0.473916 0.237000 -1.519463
v -0.473916 0.237000 1.674659
v 0.164303 -0.524038 -1.215086
v 0.164302 0.317031 -1.216642
v 0.164306 -0.524000 -1.147481
v 0.164305 0.317069 -1.149037
v -0.328986 -0.524037 -1.215039
v -0.328987 0.317032 -1.216595
v -0.328983 -0.523999 -1.147435
v -0.328984 0.317070 -1.148991
v -0.328984 0.317070 1.369400
v -0.328983 -0.523999 1.370957
v -0.328987 0.317033 1.301796
v -0.328986 -0.524037 1.303352
v 0.164305 0.317069 1.369354
v 0.164306 -0.524000 1.370909
v 0.164302 0.317032 1.301750
v 0.164303 -0.524038 1.303306
vt 0.5878 0.1231
vt 0.5512 0.8535
vt 0.5512 0.1231
vt 0.0500 0.5661
vt 0.6021 0.8260
vt 0.0500 0.8260
vt 0.0453 0.5405
vt 0.6005 0.5651
vt 0.0453 0.5651
vt 0.4374 0.9378
vt 0.1754 0.0606
vt 0.4368 0.0598
vt 0.1779 0.0162
vt 0.4356 0.0492
vt 0.1781 0.0493
vt 0.4390 0.9556
vt 0.1779 0.9831
vt 0.1775 0.9560
vt 0.0521 0.5641
vt 0.5995 0.6255
vt 0.0521 0.6255
vt 0.7804 0.6239
vt 0.8625 0.9878
vt 0.7804 0.9878
vt 0.0453 0.6271
vt 0.6005 0.5703
vt 0.6005 0.6271
vt 0.0462 0.5641
vt 0.6038 0.8250
vt 0.0470 0.8256
vt 0.6274 0.6320
vt 0.6019 0.8897
vt 0.6018 0.6321
vt 0.6273 0.9561
vt 0.5998 0.6950
vt 0.6269 0.6946
vt 0.6274 0.6320
vt 0.6019 0.8897
vt 0.6018 0.6321
vt 0.8622 0.9878
vt 0.7742 0.6263
vt 0.8622 0.6263
vt 0.7212 0.6757
vt 0.7678 0.2608
vt 0.7678 0.6757
vt 0.6273 0.9561
vt 0.5998 0.6950
vt 0.6269 0.6946
vt 0.0462 0.5641
vt 0.6038 0.8250
vt 0.0470 0.8256
vt 0.0453 0.6271
vt 0.6005 0.5703
vt 0.6005 0.6271
vt 0.5878 0.8535
vt 0.6021 0.5661
vt 0.6005 0.5405
vt 0.1760 0.9386
vt 0.4355 0.0161
vt 0.4394 0.9827
vt 0.5995 0.5641
vt 0.8625 0.6239
vt 0.0453 0.5703
vt 0.6030 0.5635
vt 0.6274 0.8895
vt 0.6002 0.9564
vt 0.6274 0.8895
vt 0.7742 0.9878
vt 0.7212 0.2608
vt 0.6002 0.9564
vt 0.6030 0.5635
vt 0.0453 0.5703
vn 1.0000 0.0000 -0.0000
vn 0.0001 -1.0000 0.0000
vn -1.0000 -0.0000 0.0000
vn -0.0001 1.0000 -0.0000
vn -0.0000 0.0000 -1.0000
vn -0.0000 0.0000 1.0000
vn 0.0001 0.0018 1.0000
vn -0.0001 -0.0019 -1.0000
vn -0.0000 -1.0000 0.0006
vn 0.0000 1.0000 -0.0006
vn -0.0001 -0.0018 -1.0000
vn 0.0001 0.0019 1.0000
s off
f 4/1/1 1/2/1 2/3/1
f 8/4/2 3/5/2 4/6/2
f 6/7/3 7/8/3 8/9/3
f 6/10/4 1/11/4 5/12/4
f 3/13/5 5/14/5 1/15/5
f 6/16/6 4/17/6 2/18/6
f 12/19/1 9/20/1 10/21/1
f 12/22/7 15/23/7 11/24/7
f 16/25/3 13/26/3 15/27/3
f 10/28/8 13/29/8 14/30/8
f 11/31/9 13/32/9 9/33/9
f 14/34/10 12/35/10 10/36/10
f 22/37/9 20/38/9 24/39/9
f 21/40/7 18/41/7 22/42/7
f 21/43/1 24/44/1 23/45/1
f 19/46/10 21/47/10 23/48/10
f 23/49/11 20/50/11 19/51/11
f 17/52/3 20/53/3 18/54/3
f 4/1/1 3/55/1 1/2/1
f 8/4/2 7/56/2 3/5/2
f 6/7/3 5/57/3 7/8/3
f 6/10/4 2/58/4 1/11/4
f 3/13/5 7/59/5 5/14/5
f 6/16/6 8/60/6 4/17/6
f 12/19/1 11/61/1 9/20/1
f 12/22/12 16/62/12 15/23/12
f 16/25/3 14/63/3 13/26/3
f 10/28/8 9/64/8 13/29/8
f 11/31/9 15/65/9 13/32/9
f 14/34/10 16/66/10 12/35/10
f 22/37/9 18/67/9 20/38/9
f 21/40/12 17/68/12 18/41/12
f 21/43/1 22/69/1 24/44/1
f 19/46/10 17/70/10 21/47/10
f 23/49/11 24/71/11 20/50/11
f 17/52/3 19/72/3 20/53/3
