# Blender v2.77 (sub 0) OBJ File: 'BOOKS.blend'
# www.blender.org
v -0.921361 -0.536358 0.295977
v 0.886188 -0.536358 0.295977
v -0.921361 -0.126469 0.295977
v 0.886188 -0.097227 0.295977
v -0.921361 -0.126469 -0.152019
v 0.886188 -0.097227 -0.152019
v -0.427897 -0.536358 0.295977
v -0.427897 -0.076927 0.295977
v -0.427897 -0.076927 -0.152019
v -0.431221 -0.536358 0.295977
v -0.431221 -0.126469 0.295977
v -0.431221 -0.126469 -0.152019
v 0.155722 -0.536358 0.295977
v 0.155722 -0.076927 0.295977
v 0.155722 -0.076927 -0.152018
v 0.159456 -0.536358 0.295977
v 0.159456 -0.097227 0.295977
v 0.159456 -0.097227 -0.152018
v -0.832515 0.396907 0.315826
v -0.200692 0.396907 0.315826
v -0.832515 0.856339 0.315826
v -0.200692 0.856339 0.315826
v -0.832515 0.856339 -0.132170
v -0.200692 0.856339 -0.132170
v -0.832515 0.396907 -0.132170
v -0.200692 0.396907 -0.132170
v -0.185809 0.446280 0.315826
v -0.105091 0.408196 0.315826
v 0.090891 0.845050 0.315826
v 0.171609 0.806966 0.315826
v 0.090891 0.845050 -0.132170
v 0.171609 0.806966 -0.132170
v -0.185809 0.446280 -0.132170
v -0.105091 0.408196 -0.132170
v 0.171777 0.396907 0.315826
v 0.928970 0.396907 0.315826
v 0.171777 0.856339 0.315826
v 0.928970 0.856339 0.315826
v 0.171777 0.856339 -0.132170
v 0.928970 0.856339 -0.132170
v 0.171777 0.396907 -0.132170
v 0.928970 0.396907 -0.132170
v -0.851350 -1.361889 0.415755
v -0.274341 -1.361889 0.415755
v -0.851350 -0.902458 0.415755
v -0.274341 -0.902458 0.415755
v -0.851350 -0.902458 -0.032241
v -0.274341 -0.902458 -0.032241
v -0.274341 -1.361889 -0.032241
v 2.322616 -0.532989 0.415755
v 2.899625 -0.532989 0.415755
v 2.322616 -0.073559 0.415755
v 2.899625 -0.073559 0.415755
v 2.322616 -0.073558 -0.032241
v 2.899625 -0.073558 -0.032241
v 2.899625 -0.532989 -0.032241
v 1.146172 0.388432 0.295977
v 2.953721 0.388432 0.295977
v 1.146172 0.798321 0.295977
v 2.953721 0.827564 0.295977
v 2.953721 0.827564 -0.152019
v 1.639636 0.388433 0.295977
v 1.639636 0.847863 0.295977
v 1.639636 0.847863 -0.152019
v 1.636312 0.388433 0.295977
v 1.636312 0.798321 0.295977
v 1.636312 0.798321 -0.152019
v 2.223254 0.388433 0.295977
v 2.223254 0.847863 0.295977
v 2.223254 0.847863 -0.152018
v 2.226989 0.388433 0.295977
v 2.226989 0.827564 0.295977
v 2.226989 0.827564 -0.152018
v 1.158629 -1.374130 0.315826
v 1.790453 -1.374130 0.315826
v 1.158629 -0.914699 0.315826
v 1.790453 -0.914699 0.315826
v 1.158629 -0.914699 -0.132170
v 1.790453 -0.914699 -0.132170
v 1.158629 -1.374130 -0.132170
v 1.790453 -1.374130 -0.132170
v 1.805336 -1.324758 0.315826
v 1.886054 -1.362841 0.315826
v 2.082036 -0.925988 0.315826
v 2.162754 -0.964071 0.315826
v 2.082036 -0.925988 -0.132170
v 2.162754 -0.964071 -0.132170
v 1.805336 -1.324758 -0.132170
v 1.886054 -1.362841 -0.132170
v 2.162922 -1.374130 0.315826
v 2.920114 -1.374130 0.315826
v 2.162922 -0.914699 0.315826
v 2.920114 -0.914699 0.315826
v 2.162922 -0.914699 -0.132170
v 2.920114 -0.914699 -0.132170
v 2.162922 -1.374130 -0.132170
v 2.920114 -1.374130 -0.132170
vt 0.4281 0.6213
vt 0.4783 0.6860
vt 0.4281 0.6860
vt 0.4799 0.6213
vt 0.5534 0.6860
vt 0.4799 0.6860
vt 0.4281 0.5439
vt 0.4783 0.6209
vt 0.4281 0.6209
vt 0.4799 0.6209
vt 0.5534 0.5439
vt 0.5534 0.6209
vt 0.4783 0.6213
vt 0.5534 0.6213
vt 0.4783 0.5434
vt 0.4783 0.5439
vt 0.4799 0.5439
vt 0.5534 0.5434
vt 0.4281 0.4476
vt 0.4281 0.5434
vt 0.4799 0.5434
vt 0.5534 0.4476
vt 0.2771 0.7922
vt 0.3192 0.9856
vt 0.2771 0.9856
vt 0.2140 0.7922
vt 0.2757 0.9856
vt 0.2140 0.9856
vt 0.3205 0.8518
vt 0.3627 0.7922
vt 0.3627 0.8518
vt 0.3616 0.8526
vt 0.4037 0.9122
vt 0.3616 0.9122
vt 0.0100 0.7973
vt 0.0504 0.9895
vt 0.0100 0.9895
vt 0.0517 0.7973
vt 0.1110 0.9895
vt 0.0517 0.9895
vt 0.1124 0.8566
vt 0.1528 0.7973
vt 0.1528 0.8566
vt 0.1518 0.8573
vt 0.1922 0.9166
vt 0.1518 0.9166
vt 0.2742 0.7872
vt 0.3171 0.9910
vt 0.2742 0.9910
vt 0.2099 0.7872
vt 0.2728 0.9910
vt 0.2099 0.9910
vt 0.3184 0.8500
vt 0.3613 0.7872
vt 0.3613 0.8500
vt 0.3602 0.8508
vt 0.4031 0.9137
vt 0.3602 0.9137
vt 0.2781 0.7903
vt 0.3203 0.9854
vt 0.2781 0.9854
vt 0.2150 0.7903
vt 0.2767 0.9854
vt 0.2150 0.9854
vt 0.3216 0.7903
vt 0.3637 0.8505
vt 0.3216 0.8505
vt 0.2781 0.7903
vt 0.3203 0.9854
vt 0.2781 0.9854
vt 0.2150 0.7903
vt 0.2767 0.9854
vt 0.2150 0.9854
vt 0.3216 0.7903
vt 0.3637 0.8505
vt 0.3216 0.8505
vt 0.4281 0.6213
vt 0.4783 0.6860
vt 0.4281 0.6860
vt 0.4281 0.5439
vt 0.4783 0.6209
vt 0.4281 0.6209
vt 0.4799 0.6209
vt 0.5534 0.5439
vt 0.5534 0.6209
vt 0.4783 0.6213
vt 0.4799 0.6213
vt 0.5534 0.6213
vt 0.4783 0.5434
vt 0.4783 0.5439
vt 0.4799 0.5439
vt 0.5534 0.5434
vt 0.4281 0.5434
vt 0.4783 0.4476
vt 0.4799 0.4476
vt 0.5534 0.4476
vt 0.2771 0.7922
vt 0.3192 0.9856
vt 0.2771 0.9856
vt 0.2140 0.7922
vt 0.2757 0.9856
vt 0.2140 0.9856
vt 0.3205 0.7922
vt 0.3627 0.8518
vt 0.3205 0.8518
vt 0.3616 0.9122
vt 0.4037 0.8526
vt 0.4037 0.9122
vt 0.0100 0.7973
vt 0.0504 0.9895
vt 0.0100 0.9895
vt 0.0517 0.7973
vt 0.1110 0.9895
vt 0.0517 0.9895
vt 0.1124 0.7973
vt 0.1528 0.8566
vt 0.1124 0.8566
vt 0.1518 0.8573
vt 0.1922 0.9166
vt 0.1518 0.9166
vt 0.2742 0.7872
vt 0.3171 0.9910
vt 0.2742 0.9910
vt 0.2099 0.7872
vt 0.2728 0.9910
vt 0.2099 0.9910
vt 0.3184 0.7872
vt 0.3613 0.8500
vt 0.3184 0.8500
vt 0.3602 0.9137
vt 0.4031 0.8508
vt 0.4031 0.9137
vt 0.4783 0.4476
vt 0.4799 0.4476
vt 0.3192 0.7922
vt 0.2757 0.7922
vt 0.3205 0.7922
vt 0.4037 0.8526
vt 0.0504 0.7973
vt 0.1110 0.7973
vt 0.1124 0.7973
vt 0.1922 0.8573
vt 0.3171 0.7872
vt 0.2728 0.7872
vt 0.3184 0.7872
vt 0.4031 0.8508
vt 0.3203 0.7903
vt 0.2767 0.7903
vt 0.3637 0.7903
vt 0.3203 0.7903
vt 0.2767 0.7903
vt 0.3637 0.7903
vt 0.4799 0.5434
vt 0.4281 0.4476
vt 0.3192 0.7922
vt 0.2757 0.7922
vt 0.3627 0.7922
vt 0.3616 0.8526
vt 0.0504 0.7973
vt 0.1110 0.7973
vt 0.1528 0.7973
vt 0.1922 0.8573
vt 0.3171 0.7872
vt 0.2728 0.7872
vt 0.3613 0.7872
vt 0.3602 0.8508
vn 0.0000 -0.0000 1.0000
vn 0.0000 0.7376 0.6752
vn 0.0454 0.7160 0.6966
vn 0.0000 1.0000 0.0000
vn -0.0415 0.7008 0.7122
vn 0.0240 0.9997 -0.0000
vn -0.1303 0.9915 0.0005
vn -0.1123 0.9937 0.0002
vn 0.0130 0.7110 0.7030
vn 0.6797 0.1412 0.7197
vn -0.0548 0.9985 0.0000
vn 0.6516 -0.0000 0.7586
vn -0.5222 0.5951 0.6108
vn -0.6521 -0.0000 0.7582
vn 0.5308 0.6251 0.5723
vn -0.6610 0.7504 -0.0001
vn 0.6614 0.7501 0.0000
vn -1.0000 -0.0000 0.0000
vn 0.4267 0.9044 0.0000
vn 0.8216 -0.5701 0.0000
vn -0.8216 0.5701 0.0000
vn 0.5815 -0.0001 0.8135
vn -0.4526 0.6223 0.6387
vn -0.5831 -0.0000 0.8124
vn 0.4698 0.6757 0.5681
vn -0.5911 0.8066 -0.0001
vn 0.5926 0.8055 0.0000
vn 0.6398 -0.0000 0.7685
vn 0.0000 0.6982 0.7159
vn 0.5234 0.6387 0.5640
vn 1.0000 0.0000 0.0000
vn 0.6398 -0.0001 0.7685
vn 0.0333 -0.0000 0.9994
vn -0.1303 0.9915 0.0003
vn -0.0602 0.5101 0.8580
vn -0.5352 0.8447 -0.0000
vn 0.0045 0.7187 0.6953
vn -0.0275 0.9996 0.0000
vn 0.0000 0.7139 0.7002
vn 0.6514 0.0000 0.7587
vn -0.5209 0.5955 0.6116
vn -0.6520 -0.0000 0.7582
vn 0.5297 0.6262 0.5721
vn -0.6609 0.7505 -0.0000
vn 0.5810 0.0001 0.8139
vn -0.4496 0.6232 0.6399
vn -0.5830 -0.0000 0.8125
vn 0.4672 0.6778 0.5678
vn -0.5908 0.8068 -0.0001
vn 0.0000 0.7141 0.7000
vn 0.6498 0.7601 0.0000
vn 0.6614 0.7500 0.0000
vn 0.5927 0.8055 0.0000
s 1
f 10/1/1 3/2/2 1/3/1
f 11/4/3 5/5/4 3/6/2
f 13/7/1 8/8/5 7/9/1
f 8/10/5 15/11/6 9/12/7
f 7/9/1 11/13/3 10/1/1
f 11/4/3 9/12/7 12/14/8
f 13/7/1 17/15/9 14/16/10
f 14/17/10 18/18/11 15/11/6
f 2/19/1 17/15/9 16/20/1
f 17/21/9 6/22/4 18/18/11
f 20/23/12 21/24/13 19/25/14
f 22/26/15 23/27/16 21/28/13
f 20/29/12 24/30/17 22/31/15
f 19/32/14 23/33/16 25/34/18
f 28/35/1 29/36/1 27/37/1
f 30/38/19 31/39/19 29/40/19
f 28/41/20 32/42/20 30/43/20
f 27/44/21 31/45/21 33/46/21
f 36/47/22 37/48/23 35/49/24
f 38/50/25 39/51/26 37/52/23
f 36/53/22 40/54/27 38/55/25
f 35/56/24 39/57/26 41/58/18
f 44/59/28 45/60/29 43/61/1
f 46/62/30 47/63/4 45/64/29
f 49/65/31 46/66/30 44/67/28
f 51/68/32 52/69/29 50/70/1
f 53/71/30 54/72/4 52/73/29
f 56/74/31 53/75/30 51/76/32
f 65/77/1 59/78/33 57/79/1
f 68/80/1 63/81/5 62/82/1
f 63/83/5 70/84/6 64/85/34
f 62/82/1 66/86/35 65/77/1
f 66/87/35 64/85/34 67/88/36
f 68/80/1 72/89/37 69/90/10
f 69/91/10 73/92/38 70/84/6
f 71/93/1 60/94/39 72/89/37
f 73/92/38 60/95/39 61/96/4
f 75/97/40 76/98/41 74/99/42
f 77/100/43 78/101/44 76/102/41
f 81/103/31 77/104/43 75/105/40
f 80/106/18 76/107/41 78/108/44
f 83/109/1 84/110/1 82/111/1
f 85/112/19 86/113/19 84/114/19
f 89/115/20 85/116/20 83/117/20
f 82/118/21 86/119/21 88/120/21
f 91/121/45 92/122/46 90/123/47
f 93/124/48 94/125/49 92/126/46
f 97/127/31 93/128/48 91/129/45
f 96/130/18 92/131/46 94/132/49
f 10/1/1 11/13/3 3/2/2
f 11/4/3 12/14/8 5/5/4
f 13/7/1 14/16/10 8/8/5
f 8/10/5 14/17/10 15/11/6
f 7/9/1 8/8/5 11/13/3
f 11/4/3 8/10/5 9/12/7
f 13/7/1 16/20/1 17/15/9
f 14/17/10 17/21/9 18/18/11
f 2/19/1 4/133/50 17/15/9
f 17/21/9 4/134/50 6/22/4
f 20/23/12 22/135/15 21/24/13
f 22/26/15 24/136/17 23/27/16
f 20/29/12 26/137/31 24/30/17
f 19/32/14 21/138/13 23/33/16
f 28/35/1 30/139/1 29/36/1
f 30/38/19 32/140/19 31/39/19
f 28/41/20 34/141/20 32/42/20
f 27/44/21 29/142/21 31/45/21
f 36/47/22 38/143/25 37/48/23
f 38/50/25 40/144/27 39/51/26
f 36/53/22 42/145/31 40/54/27
f 35/56/24 37/146/23 39/57/26
f 44/59/28 46/147/30 45/60/29
f 46/62/30 48/148/51 47/63/4
f 49/65/31 48/149/51 46/66/30
f 51/68/32 53/150/30 52/69/29
f 53/71/30 55/151/51 54/72/4
f 56/74/31 55/152/51 53/75/30
f 65/77/1 66/86/35 59/78/33
f 68/80/1 69/90/10 63/81/5
f 63/83/5 69/91/10 70/84/6
f 62/82/1 63/81/5 66/86/35
f 66/87/35 63/83/5 64/85/34
f 68/80/1 71/93/1 72/89/37
f 69/91/10 72/153/37 73/92/38
f 71/93/1 58/154/1 60/94/39
f 73/92/38 72/153/37 60/95/39
f 75/97/40 77/155/43 76/98/41
f 77/100/43 79/156/52 78/101/44
f 81/103/31 79/157/52 77/104/43
f 80/106/18 74/158/42 76/107/41
f 83/109/1 85/159/1 84/110/1
f 85/112/19 87/160/19 86/113/19
f 89/115/20 87/161/20 85/116/20
f 82/118/21 84/162/21 86/119/21
f 91/121/45 93/163/48 92/122/46
f 93/124/48 95/164/53 94/125/49
f 97/127/31 95/165/53 93/128/48
f 96/130/18 90/166/47 92/131/46
