# Blender v2.77 (sub 0) OBJ File: 'SETESTANTERIA.blend'
# www.blender.org
v -0.968839 -1.703447 -0.573053
v -0.968839 1.490674 -0.573053
v -0.824549 -1.703447 -0.573061
v -0.824549 1.490674 -0.573061
v -0.968741 -1.703447 0.546904
v -0.968741 1.490674 0.546904
v -0.824451 -1.703447 0.546896
v -0.824451 1.490674 0.546896
v 0.885657 -1.703447 -0.573056
v 0.885657 1.490674 -0.573056
v 1.029947 -1.703447 -0.573064
v 1.029947 1.490674 -0.573064
v 0.885755 -1.703447 0.546901
v 0.885755 1.490674 0.546901
v 1.030045 -1.703447 0.546893
v 1.030045 1.490674 0.546893
v 0.894624 0.284270 -0.527574
v -0.859831 0.281025 -0.527571
v 0.894546 0.425291 -0.527581
v -0.859909 0.422046 -0.527578
v 0.894623 0.284368 0.501418
v -0.859832 0.281122 0.501421
v 0.894544 0.425389 0.501411
v -0.859911 0.422143 0.501414
v 0.894624 -0.699337 -0.527574
v -0.859831 -0.702583 -0.527571
v 0.894546 -0.558316 -0.527581
v -0.859909 -0.561562 -0.527578
v 0.894623 -0.699240 0.501418
v -0.859832 -0.702485 0.501421
v 0.894544 -0.558219 0.501411
v -0.859911 -0.561464 0.501414
v 0.894624 1.303032 -0.562595
v -0.859831 1.298820 -0.562593
v 0.894546 1.486030 -0.562603
v -0.859909 1.481818 -0.562600
v 0.894623 1.303159 0.536440
v -0.859832 1.298947 0.536443
v 0.894544 1.486156 0.536433
v -0.859911 1.481945 0.536435
v 0.894624 -1.702278 -0.562595
v -0.859831 -1.710521 -0.562593
v 0.894546 -1.344099 -0.562603
v -0.859909 -1.352343 -0.562600
v 0.894623 -1.702031 0.536440
v -0.859832 -1.710274 0.536443
v 0.894544 -1.343852 0.536433
v -0.859911 -1.352095 0.536435
v -0.834935 -1.703447 -0.428063
v -0.834935 1.490674 -0.428063
v -0.835305 -1.703447 -0.569084
v -0.835305 1.490674 -0.569084
v 0.933222 -1.703447 -0.429968
v 0.933222 1.490674 -0.429968
v 0.932851 -1.703447 -0.570989
v 0.932851 1.490674 -0.570989
vt 0.0521 0.5641
vt 0.5995 0.6255
vt 0.0521 0.6255
vt 0.0500 0.5661
vt 0.6021 0.8260
vt 0.0500 0.8260
vt 0.0453 0.5703
vt 0.6005 0.6271
vt 0.0453 0.6271
vt 0.0462 0.5641
vt 0.6038 0.8250
vt 0.0470 0.8256
vt 0.6274 0.6320
vt 0.6019 0.8897
vt 0.6018 0.6321
vt 0.6273 0.9561
vt 0.5998 0.6950
vt 0.6269 0.6946
vt 0.0521 0.5641
vt 0.5995 0.6255
vt 0.0521 0.6255
vt 0.0500 0.5661
vt 0.6021 0.8260
vt 0.0500 0.8260
vt 0.0453 0.5703
vt 0.6005 0.6271
vt 0.0453 0.6271
vt 0.0462 0.5641
vt 0.6038 0.8250
vt 0.0470 0.8256
vt 0.6274 0.6320
vt 0.6019 0.8897
vt 0.6018 0.6321
vt 0.6273 0.9561
vt 0.5998 0.6950
vt 0.6269 0.6946
vt 0.0521 0.5641
vt 0.5995 0.6255
vt 0.0521 0.6255
vt 0.0500 0.8260
vt 0.6021 0.5661
vt 0.6021 0.8260
vt 0.0453 0.6271
vt 0.6005 0.5703
vt 0.6005 0.6271
vt 0.0462 0.5641
vt 0.6038 0.8250
vt 0.0470 0.8256
vt 0.6274 0.6320
vt 0.6019 0.8897
vt 0.6018 0.6321
vt 0.6273 0.9561
vt 0.5998 0.6950
vt 0.6269 0.6946
vt 0.0521 0.5641
vt 0.5995 0.6255
vt 0.0521 0.6255
vt 0.0500 0.8260
vt 0.6021 0.5661
vt 0.6021 0.8260
vt 0.0453 0.6271
vt 0.6005 0.5703
vt 0.6005 0.6271
vt 0.0462 0.5641
vt 0.6038 0.8250
vt 0.0470 0.8256
vt 0.6274 0.6320
vt 0.6019 0.8897
vt 0.6018 0.6321
vt 0.6273 0.9561
vt 0.5998 0.6950
vt 0.6269 0.6946
vt 0.0521 0.5641
vt 0.5995 0.6255
vt 0.0521 0.6255
vt 0.0500 0.8260
vt 0.6021 0.5661
vt 0.6021 0.8260
vt 0.0453 0.6271
vt 0.6005 0.5703
vt 0.6005 0.6271
vt 0.0462 0.5641
vt 0.6038 0.8250
vt 0.0470 0.8256
vt 0.6274 0.6320
vt 0.6019 0.8897
vt 0.6018 0.6321
vt 0.6273 0.9561
vt 0.5998 0.6950
vt 0.6269 0.6946
vt 0.0521 0.5641
vt 0.5995 0.6255
vt 0.0521 0.6255
vt 0.0500 0.8260
vt 0.6021 0.5661
vt 0.6021 0.8260
vt 0.0453 0.6271
vt 0.6005 0.5703
vt 0.6005 0.6271
vt 0.0462 0.5641
vt 0.6038 0.8250
vt 0.0470 0.8256
vt 0.6274 0.6320
vt 0.6019 0.8897
vt 0.6018 0.6321
vt 0.6273 0.9561
vt 0.5998 0.6950
vt 0.6269 0.6946
vt 0.0521 0.5641
vt 0.5995 0.6255
vt 0.0521 0.6255
vt 0.0500 0.5661
vt 0.6021 0.8260
vt 0.0500 0.8260
vt 0.0453 0.5703
vt 0.6005 0.6271
vt 0.0453 0.6271
vt 0.0462 0.5641
vt 0.6038 0.8250
vt 0.0470 0.8256
vt 0.6018 0.6321
vt 0.6274 0.8895
vt 0.6019 0.8897
vt 0.6002 0.9564
vt 0.6269 0.6946
vt 0.6273 0.9561
vt 0.5995 0.5641
vt 0.6021 0.5661
vt 0.6005 0.5703
vt 0.6030 0.5635
vt 0.6274 0.8895
vt 0.6002 0.9564
vt 0.5995 0.5641
vt 0.6021 0.5661
vt 0.6005 0.5703
vt 0.6030 0.5635
vt 0.6274 0.8895
vt 0.6002 0.9564
vt 0.5995 0.5641
vt 0.0500 0.5661
vt 0.0453 0.5703
vt 0.6030 0.5635
vt 0.6274 0.8895
vt 0.6002 0.9564
vt 0.5995 0.5641
vt 0.0500 0.5661
vt 0.0453 0.5703
vt 0.6030 0.5635
vt 0.6274 0.8895
vt 0.6002 0.9564
vt 0.5995 0.5641
vt 0.0500 0.5661
vt 0.0453 0.5703
vt 0.6030 0.5635
vt 0.6274 0.8895
vt 0.6002 0.9564
vt 0.5995 0.5641
vt 0.0500 0.5661
vt 0.0453 0.5703
vt 0.6030 0.5635
vt 0.6274 0.8895
vt 0.6002 0.9564
vt 0.5995 0.5641
vt 0.6021 0.5661
vt 0.6005 0.5703
vt 0.6030 0.5635
vt 0.6274 0.6320
vt 0.5998 0.6950
vn -0.0001 0.0000 -1.0000
vn 1.0000 0.0000 -0.0001
vn 0.0001 0.0000 1.0000
vn -1.0000 0.0000 0.0001
vn 0.0000 -1.0000 -0.0000
vn 0.0000 1.0000 0.0000
vn -0.0000 -0.0000 -1.0000
vn -0.0018 1.0000 -0.0001
vn 0.0000 0.0000 1.0000
vn 0.0018 -1.0000 0.0001
vn 1.0000 0.0006 0.0000
vn -1.0000 -0.0006 -0.0000
vn -0.0024 1.0000 -0.0001
vn 0.0024 -1.0000 0.0001
vn 1.0000 0.0004 0.0000
vn -1.0000 -0.0004 -0.0000
vn -0.0047 1.0000 -0.0002
vn 0.0047 -1.0000 0.0002
vn 1.0000 0.0002 0.0000
vn -1.0000 -0.0002 -0.0000
vn -1.0000 0.0000 0.0026
vn -0.0011 0.0000 -1.0000
vn 1.0000 0.0000 -0.0026
vn 0.0011 0.0000 1.0000
s off
f 4/1/1 1/2/1 2/3/1
f 8/4/2 3/5/2 4/6/2
f 6/7/3 7/8/3 8/9/3
f 2/10/4 5/11/4 6/12/4
f 3/13/5 5/14/5 1/15/5
f 6/16/6 4/17/6 2/18/6
f 12/19/1 9/20/1 10/21/1
f 16/22/2 11/23/2 12/24/2
f 14/25/3 15/26/3 16/27/3
f 10/28/4 13/29/4 14/30/4
f 11/31/5 13/32/5 9/33/5
f 14/34/6 12/35/6 10/36/6
f 20/37/7 17/38/7 18/39/7
f 20/40/8 23/41/8 19/42/8
f 24/43/9 21/44/9 23/45/9
f 18/46/10 21/47/10 22/48/10
f 19/49/11 21/50/11 17/51/11
f 22/52/12 20/53/12 18/54/12
f 28/55/7 25/56/7 26/57/7
f 28/58/8 31/59/8 27/60/8
f 32/61/9 29/62/9 31/63/9
f 26/64/10 29/65/10 30/66/10
f 27/67/11 29/68/11 25/69/11
f 30/70/12 28/71/12 26/72/12
f 36/73/7 33/74/7 34/75/7
f 36/76/13 39/77/13 35/78/13
f 40/79/9 37/80/9 39/81/9
f 34/82/14 37/83/14 38/84/14
f 35/85/15 37/86/15 33/87/15
f 38/88/16 36/89/16 34/90/16
f 44/91/7 41/92/7 42/93/7
f 44/94/17 47/95/17 43/96/17
f 48/97/9 45/98/9 47/99/9
f 42/100/18 45/101/18 46/102/18
f 43/103/19 45/104/19 41/105/19
f 46/106/20 44/107/20 42/108/20
f 52/109/21 49/110/21 50/111/21
f 56/112/22 51/113/22 52/114/22
f 54/115/23 55/116/23 56/117/23
f 50/118/24 53/119/24 54/120/24
f 49/121/5 55/122/5 53/123/5
f 56/124/6 50/125/6 54/126/6
f 4/1/1 3/127/1 1/2/1
f 8/4/2 7/128/2 3/5/2
f 6/7/3 5/129/3 7/8/3
f 2/10/4 1/130/4 5/11/4
f 3/13/5 7/131/5 5/14/5
f 6/16/6 8/132/6 4/17/6
f 12/19/1 11/133/1 9/20/1
f 16/22/2 15/134/2 11/23/2
f 14/25/3 13/135/3 15/26/3
f 10/28/4 9/136/4 13/29/4
f 11/31/5 15/137/5 13/32/5
f 14/34/6 16/138/6 12/35/6
f 20/37/7 19/139/7 17/38/7
f 20/40/8 24/140/8 23/41/8
f 24/43/9 22/141/9 21/44/9
f 18/46/10 17/142/10 21/47/10
f 19/49/11 23/143/11 21/50/11
f 22/52/12 24/144/12 20/53/12
f 28/55/7 27/145/7 25/56/7
f 28/58/8 32/146/8 31/59/8
f 32/61/9 30/147/9 29/62/9
f 26/64/10 25/148/10 29/65/10
f 27/67/11 31/149/11 29/68/11
f 30/70/12 32/150/12 28/71/12
f 36/73/7 35/151/7 33/74/7
f 36/76/13 40/152/13 39/77/13
f 40/79/9 38/153/9 37/80/9
f 34/82/14 33/154/14 37/83/14
f 35/85/15 39/155/15 37/86/15
f 38/88/16 40/156/16 36/89/16
f 44/91/7 43/157/7 41/92/7
f 44/94/17 48/158/17 47/95/17
f 48/97/9 46/159/9 45/98/9
f 42/100/18 41/160/18 45/101/18
f 43/103/19 47/161/19 45/104/19
f 46/106/20 48/162/20 44/107/20
f 52/109/21 51/163/21 49/110/21
f 56/112/22 55/164/22 51/113/22
f 54/115/23 53/165/23 55/116/23
f 50/118/24 49/166/24 53/119/24
f 49/121/5 51/167/5 55/122/5
f 56/124/6 52/168/6 50/125/6
