# Blender v2.77 (sub 0) OBJ File: 'SETDOUBLEESTANTERIA.blend'
# www.blender.org
v -0.991803 -1.623594 -0.573053
v -0.991803 1.410821 -0.573053
v -0.847513 -1.623594 -0.573061
v -0.847513 1.410821 -0.573061
v -0.991705 -1.623594 0.546904
v -0.991705 1.410821 0.546904
v -0.847415 -1.623594 0.546896
v -0.847415 1.410821 0.546896
v 0.903554 1.410821 -0.559317
v 0.903554 -1.623594 -0.559317
v 0.903567 1.410821 -0.415027
v 0.903567 -1.623594 -0.415027
v -0.857049 1.410821 -0.559219
v -0.857049 -1.623594 -0.559219
v -0.857037 1.410821 -0.414929
v -0.857037 -1.623594 -0.414929
v 0.894624 0.264738 -0.527574
v -0.859831 0.261654 -0.527571
v 0.894546 0.398707 -0.527581
v -0.859909 0.395624 -0.527578
v 0.894623 0.264830 0.501418
v -0.859832 0.261747 0.501421
v 0.894544 0.398800 0.501411
v -0.859911 0.395717 0.501414
v -0.859911 -1.354412 0.501414
v 0.894544 -1.348251 0.501411
v -0.859832 -1.622153 0.501421
v 0.894623 -1.615991 0.501418
v -0.859909 -1.354598 -0.527578
v 0.894546 -1.348436 -0.527581
v -0.859831 -1.622338 -0.527571
v 0.894624 -1.616176 -0.527574
v -0.859911 1.409599 0.501414
v 0.894544 1.413042 0.501411
v -0.859832 1.260005 0.501421
v 0.894623 1.263448 0.501418
v -0.859909 1.409496 -0.527578
v 0.894546 1.412939 -0.527581
v -0.859831 1.259902 -0.527571
v 0.894624 1.263344 -0.527574
v 0.884530 -1.623594 -0.573053
v 0.884530 1.410821 -0.573053
v 1.028820 -1.623594 -0.573061
v 1.028820 1.410821 -0.573061
v 0.884628 -1.623594 0.546904
v 0.884628 1.410821 0.546904
v 1.028918 -1.623594 0.546896
v 1.028918 1.410821 0.546896
v 0.894624 -0.664009 -0.527574
v -0.859831 -0.667093 -0.527571
v 0.894546 -0.530040 -0.527581
v -0.859909 -0.533123 -0.527578
v 0.894623 -0.663917 0.501418
v -0.859832 -0.667000 0.501421
v 0.894544 -0.529947 0.501411
v -0.859911 -0.533030 0.501414
v 1.025971 -1.623594 -0.573053
v 1.025971 1.410821 -0.573053
v 1.170261 -1.623594 -0.573061
v 1.170261 1.410821 -0.573061
v 1.026069 -1.623594 0.546904
v 1.026069 1.410821 0.546904
v 1.170359 -1.623594 0.546896
v 1.170359 1.410821 0.546896
v 2.921329 1.410821 -0.559317
v 2.921329 -1.623594 -0.559317
v 2.921341 1.410821 -0.415027
v 2.921341 -1.623594 -0.415027
v 1.160726 1.410821 -0.559219
v 1.160726 -1.623594 -0.559219
v 1.160738 1.410821 -0.414929
v 1.160738 -1.623594 -0.414929
v 2.912399 0.264738 -0.527574
v 1.157944 0.261654 -0.527571
v 2.912319 0.398707 -0.527581
v 1.157865 0.395624 -0.527578
v 2.912397 0.264830 0.501418
v 1.157942 0.261747 0.501421
v 2.912318 0.398800 0.501411
v 1.157863 0.395717 0.501414
v 1.157863 -1.354412 0.501414
v 2.912318 -1.348251 0.501411
v 1.157942 -1.622153 0.501421
v 2.912397 -1.615991 0.501418
v 1.157865 -1.354598 -0.527578
v 2.912319 -1.348436 -0.527581
v 1.157944 -1.622338 -0.527571
v 2.912399 -1.616176 -0.527574
v 1.157863 1.409599 0.501414
v 2.912318 1.413042 0.501411
v 1.157942 1.260005 0.501421
v 2.912397 1.263448 0.501418
v 1.157865 1.409496 -0.527578
v 2.912319 1.412939 -0.527581
v 1.157944 1.259902 -0.527571
v 2.912399 1.263344 -0.527574
v 2.902304 -1.623594 -0.573053
v 2.902304 1.410821 -0.573053
v 3.046594 -1.623594 -0.573061
v 3.046594 1.410821 -0.573061
v 2.902402 -1.623594 0.546904
v 2.902402 1.410821 0.546904
v 3.046692 -1.623594 0.546896
v 3.046692 1.410821 0.546896
v 2.912399 -0.664009 -0.527574
v 1.157944 -0.667093 -0.527571
v 2.912319 -0.530040 -0.527581
v 1.157865 -0.533123 -0.527578
v 2.912397 -0.663917 0.501418
v 1.157942 -0.667000 0.501421
v 2.912318 -0.529947 0.501411
v 1.157863 -0.533030 0.501414
vt 0.6125 0.9255
vt 0.6740 0.0954
vt 0.6740 0.9255
vt 0.0448 0.9002
vt 0.3047 0.0939
vt 0.3047 0.9002
vt 0.6120 0.9396
vt 0.6688 0.0817
vt 0.6688 0.9396
vt 0.1735 0.9311
vt 0.4343 0.0524
vt 0.4349 0.9304
vt 0.6274 0.6320
vt 0.6019 0.8897
vt 0.6018 0.6321
vt 0.6273 0.9561
vt 0.5998 0.6950
vt 0.6269 0.6946
vt 0.6018 0.6321
vt 0.6274 0.8895
vt 0.6019 0.8897
vt 0.0448 0.9002
vt 0.3047 0.0939
vt 0.3047 0.9002
vt 0.6125 0.9255
vt 0.6740 0.0954
vt 0.6740 0.9255
vt 0.6002 0.9564
vt 0.6269 0.6946
vt 0.6273 0.9561
vt 0.0482 0.9311
vt 0.5534 0.0524
vt 0.5540 0.9304
vt 0.6120 0.9396
vt 0.6688 0.0817
vt 0.6688 0.9396
vt 0.0521 0.5641
vt 0.5995 0.6255
vt 0.0521 0.6255
vt 0.4476 0.6387
vt 0.1602 0.0866
vt 0.4476 0.0866
vt 0.7528 0.9905
vt 0.7097 0.5695
vt 0.7528 0.5695
vt 0.0462 0.5641
vt 0.6038 0.8250
vt 0.0470 0.8256
vt 0.6274 0.6320
vt 0.6019 0.8897
vt 0.6018 0.6321
vt 0.6273 0.9561
vt 0.5998 0.6950
vt 0.6269 0.6946
vt 0.6274 0.6320
vt 0.6019 0.8897
vt 0.6018 0.6321
vt 0.4476 0.6387
vt 0.1602 0.0866
vt 0.4476 0.0866
vt 0.0521 0.5641
vt 0.5995 0.6255
vt 0.0521 0.6255
vt 0.6273 0.9561
vt 0.5998 0.6950
vt 0.6269 0.6946
vt 0.0462 0.5641
vt 0.6038 0.8250
vt 0.0470 0.8256
vt 0.7254 0.6878
vt 0.6824 0.2668
vt 0.7254 0.2668
vt 0.6274 0.6320
vt 0.6019 0.8897
vt 0.6018 0.6321
vt 0.4476 0.6387
vt 0.1602 0.0866
vt 0.4476 0.0866
vt 0.0521 0.5641
vt 0.5995 0.6255
vt 0.0521 0.6255
vt 0.6273 0.9561
vt 0.5998 0.6950
vt 0.6269 0.6946
vt 0.0462 0.5641
vt 0.6038 0.8250
vt 0.0470 0.8256
vt 0.7528 0.9905
vt 0.7097 0.5695
vt 0.7528 0.5695
vt 0.6125 0.9255
vt 0.6740 0.0954
vt 0.6740 0.9255
vt 0.0448 0.9002
vt 0.3047 0.0939
vt 0.3047 0.9002
vt 0.6120 0.9396
vt 0.6688 0.0817
vt 0.6688 0.9396
vt 0.1735 0.9311
vt 0.4343 0.0524
vt 0.4349 0.9304
vt 0.6274 0.6320
vt 0.6019 0.8897
vt 0.6018 0.6321
vt 0.6273 0.9561
vt 0.5998 0.6950
vt 0.6269 0.6946
vt 0.0521 0.5641
vt 0.5995 0.6255
vt 0.0521 0.6255
vt 0.4476 0.6387
vt 0.1602 0.0866
vt 0.4476 0.0866
vt 0.7430 0.6833
vt 0.7000 0.2623
vt 0.7430 0.2623
vt 0.0462 0.5641
vt 0.6038 0.8250
vt 0.0470 0.8256
vt 0.6274 0.6320
vt 0.6019 0.8897
vt 0.6018 0.6321
vt 0.6273 0.9561
vt 0.5998 0.6950
vt 0.6269 0.6946
vt 0.6125 0.9255
vt 0.6740 0.0954
vt 0.6740 0.9255
vt 0.0448 0.9002
vt 0.3047 0.0939
vt 0.3047 0.9002
vt 0.5534 0.9181
vt 0.5848 0.0603
vt 0.5848 0.9181
vt 0.1735 0.9311
vt 0.4343 0.0524
vt 0.4349 0.9304
vt 0.6274 0.6320
vt 0.6019 0.8897
vt 0.6018 0.6321
vt 0.6273 0.9561
vt 0.5998 0.6950
vt 0.6269 0.6946
vt 0.6018 0.6321
vt 0.6274 0.8895
vt 0.6019 0.8897
vt 0.0448 0.9002
vt 0.3047 0.0939
vt 0.3047 0.9002
vt 0.6125 0.9255
vt 0.6740 0.0954
vt 0.6740 0.9255
vt 0.6002 0.9564
vt 0.6269 0.6946
vt 0.6273 0.9561
vt 0.0482 0.9311
vt 0.5534 0.0524
vt 0.5540 0.9304
vt 0.6120 0.9396
vt 0.6688 0.0817
vt 0.6688 0.9396
vt 0.0521 0.5641
vt 0.5995 0.6255
vt 0.0521 0.6255
vt 0.4476 0.6387
vt 0.1602 0.0866
vt 0.4476 0.0866
vt 0.7528 0.9905
vt 0.7097 0.5695
vt 0.7528 0.5695
vt 0.0462 0.5641
vt 0.6038 0.8250
vt 0.0470 0.8256
vt 0.6274 0.6320
vt 0.6019 0.8897
vt 0.6018 0.6321
vt 0.6273 0.9561
vt 0.5998 0.6950
vt 0.6269 0.6946
vt 0.6274 0.6320
vt 0.6019 0.8897
vt 0.6018 0.6321
vt 0.4476 0.6387
vt 0.1602 0.0866
vt 0.4476 0.0866
vt 0.0521 0.5641
vt 0.5995 0.6255
vt 0.0521 0.6255
vt 0.6273 0.9561
vt 0.5998 0.6950
vt 0.6269 0.6946
vt 0.0462 0.5641
vt 0.6038 0.8250
vt 0.0470 0.8256
vt 0.7254 0.6878
vt 0.6824 0.2668
vt 0.7254 0.2668
vt 0.6274 0.6320
vt 0.6019 0.8897
vt 0.6018 0.6321
vt 0.4476 0.6387
vt 0.1602 0.0866
vt 0.4476 0.0866
vt 0.0521 0.5641
vt 0.5995 0.6255
vt 0.0521 0.6255
vt 0.6273 0.9561
vt 0.5998 0.6950
vt 0.6269 0.6946
vt 0.0462 0.5641
vt 0.6038 0.8250
vt 0.0470 0.8256
vt 0.7528 0.9905
vt 0.7097 0.5695
vt 0.7528 0.5695
vt 0.6125 0.9255
vt 0.6740 0.0954
vt 0.6740 0.9255
vt 0.0448 0.9002
vt 0.3047 0.0939
vt 0.3047 0.9002
vt 0.6120 0.9396
vt 0.6688 0.0817
vt 0.6688 0.9396
vt 0.1735 0.9311
vt 0.4343 0.0524
vt 0.4349 0.9304
vt 0.6274 0.6320
vt 0.6019 0.8897
vt 0.6018 0.6321
vt 0.6273 0.9561
vt 0.5998 0.6950
vt 0.6269 0.6946
vt 0.0521 0.5641
vt 0.5995 0.6255
vt 0.0521 0.6255
vt 0.4476 0.6387
vt 0.1602 0.0866
vt 0.4476 0.0866
vt 0.7430 0.6833
vt 0.7000 0.2623
vt 0.7430 0.2623
vt 0.0462 0.5641
vt 0.6038 0.8250
vt 0.0470 0.8256
vt 0.6274 0.6320
vt 0.6019 0.8897
vt 0.6018 0.6321
vt 0.6273 0.9561
vt 0.5998 0.6950
vt 0.6269 0.6946
vt 0.6125 0.0954
vt 0.0448 0.0939
vt 0.6120 0.0817
vt 0.1729 0.0532
vt 0.6274 0.8895
vt 0.6002 0.9564
vt 0.6274 0.6320
vt 0.0448 0.0939
vt 0.6125 0.0954
vt 0.5998 0.6950
vt 0.0476 0.0532
vt 0.6120 0.0817
vt 0.5995 0.5641
vt 0.1602 0.6387
vt 0.7097 0.9905
vt 0.6030 0.5635
vt 0.6274 0.8895
vt 0.6002 0.9564
vt 0.6274 0.8895
vt 0.1602 0.6387
vt 0.5995 0.5641
vt 0.6002 0.9564
vt 0.6030 0.5635
vt 0.6824 0.6878
vt 0.6274 0.8895
vt 0.1602 0.6387
vt 0.5995 0.5641
vt 0.6002 0.9564
vt 0.6030 0.5635
vt 0.7097 0.9905
vt 0.6125 0.0954
vt 0.0448 0.0939
vt 0.6120 0.0817
vt 0.1729 0.0532
vt 0.6274 0.8895
vt 0.6002 0.9564
vt 0.5995 0.5641
vt 0.1602 0.6387
vt 0.7000 0.6833
vt 0.6030 0.5635
vt 0.6274 0.8895
vt 0.6002 0.9564
vt 0.6125 0.0954
vt 0.0448 0.0939
vt 0.5534 0.0603
vt 0.1729 0.0532
vt 0.6274 0.8895
vt 0.6002 0.9564
vt 0.6274 0.6320
vt 0.0448 0.0939
vt 0.6125 0.0954
vt 0.5998 0.6950
vt 0.0476 0.0532
vt 0.6120 0.0817
vt 0.5995 0.5641
vt 0.1602 0.6387
vt 0.7097 0.9905
vt 0.6030 0.5635
vt 0.6274 0.8895
vt 0.6002 0.9564
vt 0.6274 0.8895
vt 0.1602 0.6387
vt 0.5995 0.5641
vt 0.6002 0.9564
vt 0.6030 0.5635
vt 0.6824 0.6878
vt 0.6274 0.8895
vt 0.1602 0.6387
vt 0.5995 0.5641
vt 0.6002 0.9564
vt 0.6030 0.5635
vt 0.7097 0.9905
vt 0.6125 0.0954
vt 0.0448 0.0939
vt 0.6120 0.0817
vt 0.1729 0.0532
vt 0.6274 0.8895
vt 0.6002 0.9564
vt 0.5995 0.5641
vt 0.1602 0.6387
vt 0.7000 0.6833
vt 0.6030 0.5635
vt 0.6274 0.8895
vt 0.6002 0.9564
vn -0.0001 0.0000 -1.0000
vn 1.0000 0.0000 -0.0001
vn 0.0001 0.0000 1.0000
vn -1.0000 0.0000 0.0001
vn 0.0000 -1.0000 -0.0000
vn 0.0000 1.0000 0.0000
vn -0.0000 -0.0001 -1.0000
vn -0.0018 1.0000 -0.0001
vn 0.0000 0.0001 1.0000
vn 0.0018 -1.0000 0.0001
vn 1.0000 0.0006 0.0000
vn -1.0000 -0.0006 -0.0000
vn 1.0000 0.0003 0.0000
vn -0.0035 1.0000 -0.0002
vn -0.0000 -0.0000 -1.0000
vn -1.0000 -0.0003 -0.0000
vn 0.0035 -1.0000 0.0002
vn 0.0000 0.0000 1.0000
vn 1.0000 0.0005 0.0000
vn -0.0020 1.0000 -0.0001
vn -1.0000 -0.0005 -0.0000
vn 0.0020 -1.0000 0.0001
s off
f 4/1/1 1/2/1 2/3/1
f 8/4/2 3/5/2 4/6/2
f 6/7/3 7/8/3 8/9/3
f 2/10/4 5/11/4 6/12/4
f 3/13/5 5/14/5 1/15/5
f 6/16/6 4/17/6 2/18/6
f 16/19/5 10/20/5 12/21/5
f 9/22/1 14/23/1 13/24/1
f 13/25/4 16/26/4 15/27/4
f 9/28/6 15/29/6 11/30/6
f 15/31/3 12/32/3 11/33/3
f 11/34/2 10/35/2 9/36/2
f 20/37/7 17/38/7 18/39/7
f 20/40/8 23/41/8 19/42/8
f 24/43/9 21/44/9 23/45/9
f 18/46/10 21/47/10 22/48/10
f 19/49/11 21/50/11 17/51/11
f 22/52/12 20/53/12 18/54/12
f 30/55/13 28/56/13 32/57/13
f 29/58/14 26/59/14 30/60/14
f 29/61/15 32/62/15 31/63/15
f 27/64/16 29/65/16 31/66/16
f 31/67/17 28/68/17 27/69/17
f 25/70/18 28/71/18 26/72/18
f 38/73/19 36/74/19 40/75/19
f 37/76/20 34/77/20 38/78/20
f 37/79/15 40/80/15 39/81/15
f 35/82/21 37/83/21 39/84/21
f 39/85/22 36/86/22 35/87/22
f 33/88/18 36/89/18 34/90/18
f 44/91/1 41/92/1 42/93/1
f 48/94/2 43/95/2 44/96/2
f 46/97/3 47/98/3 48/99/3
f 42/100/4 45/101/4 46/102/4
f 43/103/5 45/104/5 41/105/5
f 46/106/6 44/107/6 42/108/6
f 52/109/7 49/110/7 50/111/7
f 52/112/8 55/113/8 51/114/8
f 56/115/9 53/116/9 55/117/9
f 50/118/10 53/119/10 54/120/10
f 51/121/11 53/122/11 49/123/11
f 54/124/12 52/125/12 50/126/12
f 60/127/1 57/128/1 58/129/1
f 64/130/2 59/131/2 60/132/2
f 62/133/3 63/134/3 64/135/3
f 58/136/4 61/137/4 62/138/4
f 59/139/5 61/140/5 57/141/5
f 62/142/6 60/143/6 58/144/6
f 72/145/5 66/146/5 68/147/5
f 65/148/1 70/149/1 69/150/1
f 69/151/4 72/152/4 71/153/4
f 65/154/6 71/155/6 67/156/6
f 71/157/3 68/158/3 67/159/3
f 67/160/2 66/161/2 65/162/2
f 76/163/7 73/164/7 74/165/7
f 76/166/8 79/167/8 75/168/8
f 80/169/9 77/170/9 79/171/9
f 74/172/10 77/173/10 78/174/10
f 75/175/11 77/176/11 73/177/11
f 78/178/12 76/179/12 74/180/12
f 86/181/13 84/182/13 88/183/13
f 85/184/14 82/185/14 86/186/14
f 85/187/15 88/188/15 87/189/15
f 83/190/16 85/191/16 87/192/16
f 87/193/17 84/194/17 83/195/17
f 81/196/18 84/197/18 82/198/18
f 94/199/19 92/200/19 96/201/19
f 93/202/20 90/203/20 94/204/20
f 93/205/15 96/206/15 95/207/15
f 91/208/21 93/209/21 95/210/21
f 95/211/22 92/212/22 91/213/22
f 89/214/18 92/215/18 90/216/18
f 100/217/1 97/218/1 98/219/1
f 104/220/2 99/221/2 100/222/2
f 102/223/3 103/224/3 104/225/3
f 98/226/4 101/227/4 102/228/4
f 99/229/5 101/230/5 97/231/5
f 102/232/6 100/233/6 98/234/6
f 108/235/7 105/236/7 106/237/7
f 108/238/8 111/239/8 107/240/8
f 112/241/9 109/242/9 111/243/9
f 106/244/10 109/245/10 110/246/10
f 107/247/11 109/248/11 105/249/11
f 110/250/12 108/251/12 106/252/12
f 4/1/1 3/253/1 1/2/1
f 8/4/2 7/254/2 3/5/2
f 6/7/3 5/255/3 7/8/3
f 2/10/4 1/256/4 5/11/4
f 3/13/5 7/257/5 5/14/5
f 6/16/6 8/258/6 4/17/6
f 16/19/5 14/259/5 10/20/5
f 9/22/1 10/260/1 14/23/1
f 13/25/4 14/261/4 16/26/4
f 9/28/6 13/262/6 15/29/6
f 15/31/3 16/263/3 12/32/3
f 11/34/2 12/264/2 10/35/2
f 20/37/7 19/265/7 17/38/7
f 20/40/8 24/266/8 23/41/8
f 24/43/9 22/267/9 21/44/9
f 18/46/10 17/268/10 21/47/10
f 19/49/11 23/269/11 21/50/11
f 22/52/12 24/270/12 20/53/12
f 30/55/13 26/271/13 28/56/13
f 29/58/14 25/272/14 26/59/14
f 29/61/15 30/273/15 32/62/15
f 27/64/16 25/274/16 29/65/16
f 31/67/17 32/275/17 28/68/17
f 25/70/18 27/276/18 28/71/18
f 38/73/19 34/277/19 36/74/19
f 37/76/20 33/278/20 34/77/20
f 37/79/15 38/279/15 40/80/15
f 35/82/21 33/280/21 37/83/21
f 39/85/22 40/281/22 36/86/22
f 33/88/18 35/282/18 36/89/18
f 44/91/1 43/283/1 41/92/1
f 48/94/2 47/284/2 43/95/2
f 46/97/3 45/285/3 47/98/3
f 42/100/4 41/286/4 45/101/4
f 43/103/5 47/287/5 45/104/5
f 46/106/6 48/288/6 44/107/6
f 52/109/7 51/289/7 49/110/7
f 52/112/8 56/290/8 55/113/8
f 56/115/9 54/291/9 53/116/9
f 50/118/10 49/292/10 53/119/10
f 51/121/11 55/293/11 53/122/11
f 54/124/12 56/294/12 52/125/12
f 60/127/1 59/295/1 57/128/1
f 64/130/2 63/296/2 59/131/2
f 62/133/3 61/297/3 63/134/3
f 58/136/4 57/298/4 61/137/4
f 59/139/5 63/299/5 61/140/5
f 62/142/6 64/300/6 60/143/6
f 72/145/5 70/301/5 66/146/5
f 65/148/1 66/302/1 70/149/1
f 69/151/4 70/303/4 72/152/4
f 65/154/6 69/304/6 71/155/6
f 71/157/3 72/305/3 68/158/3
f 67/160/2 68/306/2 66/161/2
f 76/163/7 75/307/7 73/164/7
f 76/166/8 80/308/8 79/167/8
f 80/169/9 78/309/9 77/170/9
f 74/172/10 73/310/10 77/173/10
f 75/175/11 79/311/11 77/176/11
f 78/178/12 80/312/12 76/179/12
f 86/181/13 82/313/13 84/182/13
f 85/184/14 81/314/14 82/185/14
f 85/187/15 86/315/15 88/188/15
f 83/190/16 81/316/16 85/191/16
f 87/193/17 88/317/17 84/194/17
f 81/196/18 83/318/18 84/197/18
f 94/199/19 90/319/19 92/200/19
f 93/202/20 89/320/20 90/203/20
f 93/205/15 94/321/15 96/206/15
f 91/208/21 89/322/21 93/209/21
f 95/211/22 96/323/22 92/212/22
f 89/214/18 91/324/18 92/215/18
f 100/217/1 99/325/1 97/218/1
f 104/220/2 103/326/2 99/221/2
f 102/223/3 101/327/3 103/224/3
f 98/226/4 97/328/4 101/227/4
f 99/229/5 103/329/5 101/230/5
f 102/232/6 104/330/6 100/233/6
f 108/235/7 107/331/7 105/236/7
f 108/238/8 112/332/8 111/239/8
f 112/241/9 110/333/9 109/242/9
f 106/244/10 105/334/10 109/245/10
f 107/247/11 111/335/11 109/248/11
f 110/250/12 112/336/12 108/251/12
