# Blender v2.77 (sub 0) OBJ File: 'chestv2.blend'
# www.blender.org
v 0.367230 0.752153 -0.505131
v 0.000000 0.752153 -0.624452
v 0.000000 -1.054406 -0.517817
v 0.000000 1.022598 -0.624452
v 0.304365 -1.054406 -0.418922
v 0.367230 1.022598 -0.505131
v 0.492473 -1.054406 -0.160014
v 0.594191 1.022598 -0.192747
v 0.492473 -1.054406 0.160014
v 0.594191 1.022598 0.193382
v 0.304365 -1.054406 0.418922
v 0.367230 1.022598 0.524987
v -0.000000 -1.054406 0.517817
v -0.000000 1.022598 0.644307
v -0.304365 -1.054406 0.418922
v -0.367230 1.022598 0.528621
v -0.492473 -1.054406 0.160014
v -0.594191 1.022598 0.193382
v -0.492473 -1.054406 -0.160014
v -0.594191 1.022598 -0.192747
v -0.304365 -1.054406 -0.418923
v -0.367230 1.022598 -0.505132
v 0.594191 0.752153 -0.192747
v 0.594191 0.752153 0.193382
v 0.367230 0.752153 0.525589
v -0.000000 0.752153 0.644909
v -0.367230 0.752153 0.525589
v -0.594191 0.752153 0.193382
v -0.594191 0.752153 -0.192747
v -0.367230 0.752153 -0.505132
v 0.367230 0.399126 -0.505131
v 0.594191 0.399126 -0.192747
v 0.594191 0.399126 0.193382
v 0.367230 0.399126 0.525589
v -0.000000 0.399126 0.644909
v -0.367230 0.399126 0.525589
v -0.594191 0.399126 0.193382
v -0.594191 0.399126 -0.192747
v 0.000000 0.399126 -0.624452
v -0.367230 0.399126 -0.505132
v 0.367230 0.012376 -0.505131
v 0.594191 0.012376 -0.192747
v 0.594191 0.012376 0.193382
v 0.367230 0.012376 0.509011
v -0.000000 0.012376 0.628331
v -0.367230 0.012376 0.509011
v -0.594191 0.012376 0.193382
v -0.594191 0.012376 -0.192747
v -0.367230 0.012376 -0.505132
v 0.000000 0.012376 -0.624452
vt 0.1217 0.4182
vt 0.0222 0.2986
vt 0.1217 0.2994
vt 0.2953 0.5244
vt 0.2257 0.4177
vt 0.2953 0.4160
vt 0.4886 0.0000
vt 0.5751 0.0854
vt 0.4886 0.0830
vt 0.2257 0.2989
vt 0.2257 0.5262
vt 0.2953 0.6075
vt 0.8931 0.3103
vt 0.9947 0.1922
vt 1.0000 0.3120
vt 0.1217 0.5267
vt 0.0000 0.4175
vt 0.2257 0.6092
vt 0.5973 0.3114
vt 0.6967 0.1915
vt 0.6967 0.3103
vt 0.8021 0.0836
vt 0.8878 0.1905
vt 0.8007 0.1919
vt 0.0179 0.6089
vt 0.0000 0.5259
vt 0.8007 0.3109
vt 0.8892 0.0821
vt 0.8958 0.0000
vt 0.2953 0.1938
vt 0.3817 0.3102
vt 0.2953 0.3126
vt 0.5751 0.0840
vt 0.5751 0.1924
vt 1.0000 0.0013
vt 0.9961 0.0839
vt 0.3817 0.1914
vt 0.4886 0.3102
vt 0.6967 0.0831
vt 0.8007 0.1921
vt 0.6967 0.0000
vt 0.4886 0.1914
vt 0.5751 0.3126
vt 0.2953 0.0854
vt 0.8007 0.0837
vt 0.2953 0.8674
vt 0.6242 0.7487
vt 0.6242 0.8674
vt 0.3817 0.0830
vt 0.2953 0.0024
vt 0.8060 0.3117
vt 0.5751 0.1938
vt 0.3817 0.0000
vt 0.0000 0.7128
vt 0.2555 0.8050
vt 0.2067 0.8795
vt 0.2953 0.2972
vt 0.2056 0.0013
vt 0.2597 0.0000
vt 0.9012 0.6088
vt 0.8335 0.6100
vt 0.5439 0.6102
vt 0.4767 0.6084
vt 0.3937 0.6084
vt 0.3265 0.6102
vt 0.6999 0.6082
vt 0.7807 0.6087
vt 0.6233 0.6090
vt 0.9842 0.6102
vt 0.1248 0.0017
vt 0.0482 0.0011
vt 0.5751 0.0024
vt 0.1217 0.6098
vt 0.8087 0.0014
vt 0.5844 0.0010
vt 0.8007 0.0006
vt 0.5614 0.9633
vt 0.4597 1.0000
vt 0.3581 0.9633
vt 0.2953 0.7487
vt 0.3581 0.6371
vt 0.4597 0.6102
vt 0.5614 0.6469
vt 0.1278 0.9080
vt 0.0488 0.8795
vt 0.0000 0.8050
vt 0.0488 0.6382
vt 0.1278 0.6098
vt 0.2067 0.6382
vt 0.2555 0.7128
vn 0.8119 0.0000 0.5838
vn 0.8090 0.0000 -0.5878
vn 0.3090 0.0000 -0.9511
vn 1.0000 0.0000 0.0000
vn -0.3088 -0.0407 0.9503
vn 0.8257 0.0000 0.5641
vn -0.8119 0.0000 0.5838
vn 0.3090 0.0000 0.9511
vn 0.8257 0.0013 0.5641
vn -1.0000 0.0000 0.0000
vn -0.3090 0.0000 0.9511
vn 0.3090 0.0021 0.9511
vn -0.8090 0.0000 -0.5878
vn -0.8257 0.0000 0.5641
vn -0.3090 -0.0107 0.9510
vn -0.3090 0.0000 -0.9511
vn 0.0000 1.0000 0.0000
vn 0.3088 -0.0407 0.9503
vn 0.0000 -1.0000 0.0000
vn 0.8054 -0.0947 -0.5851
vn 0.3075 -0.0981 0.9465
vn 0.3076 -0.0946 -0.9468
vn -0.3076 -0.0946 -0.9468
vn -0.8054 -0.0947 -0.5851
vn -0.9955 -0.0949 0.0000
vn -0.8054 -0.0951 0.5851
vn -0.3075 -0.0981 0.9465
vn 0.9955 -0.0949 0.0000
vn 0.8054 -0.0951 0.5851
vn 0.8255 -0.0242 0.5639
vn -0.8255 -0.0242 0.5639
vn 0.8252 0.0000 0.5648
vn -0.3005 0.0021 0.9538
vn -0.8281 -0.0063 0.5606
vn -0.8081 -0.0967 0.5811
vn 0.8081 -0.0967 0.5811
s off
f 33/1/1 44/2/1 43/3/1
f 1/4/2 32/5/2 31/6/2
f 4/7/3 1/8/3 2/9/3
f 32/5/4 43/3/4 42/10/4
f 23/11/4 33/1/4 32/5/4
f 6/12/2 23/11/2 1/4/2
f 45/13/5 36/14/5 46/15/5
f 24/16/6 34/17/6 33/1/6
f 8/18/4 24/16/4 23/11/4
f 46/19/7 37/20/7 47/21/7
f 25/22/8 35/23/8 34/24/8
f 24/16/9 12/25/9 25/26/9
f 37/20/10 48/27/10 47/21/10
f 26/28/11 36/14/11 35/23/11
f 25/22/12 14/29/12 26/28/12
f 38/30/13 49/31/13 48/32/13
f 27/33/14 37/20/14 36/34/14
f 26/28/15 16/35/15 27/36/15
f 40/37/16 50/38/16 49/31/16
f 28/39/10 38/40/10 37/20/10
f 27/33/14 18/41/14 28/39/14
f 39/42/3 41/43/3 50/38/3
f 29/44/13 40/37/13 38/30/13
f 18/41/10 29/45/10 28/39/10
f 20/46/17 10/47/17 8/48/17
f 30/49/16 39/42/16 40/37/16
f 20/50/13 30/49/13 29/44/13
f 34/24/18 45/13/18 44/51/18
f 2/9/3 31/52/3 39/42/3
f 22/53/16 2/9/16 30/49/16
f 9/54/19 19/55/19 21/56/19
f 31/6/2 42/10/2 41/57/2
f 41/57/20 7/58/20 5/59/20
f 44/51/21 13/60/21 11/61/21
f 50/38/22 5/62/22 3/63/22
f 21/64/23 50/38/23 3/63/23
f 19/65/24 49/31/24 21/64/24
f 17/66/25 48/27/25 19/67/25
f 15/68/26 47/21/26 17/66/26
f 13/60/27 46/15/27 15/69/27
f 42/10/28 9/70/28 7/58/28
f 43/3/29 11/71/29 9/70/29
f 33/1/30 34/17/30 44/2/30
f 1/4/2 23/11/2 32/5/2
f 4/7/3 6/72/3 1/8/3
f 32/5/4 33/1/4 43/3/4
f 23/11/4 24/16/4 33/1/4
f 6/12/2 8/18/2 23/11/2
f 45/13/5 35/23/5 36/14/5
f 24/16/6 25/26/6 34/17/6
f 8/18/4 10/73/4 24/16/4
f 46/19/31 36/34/31 37/20/31
f 25/22/8 26/28/8 35/23/8
f 24/16/32 10/73/32 12/25/32
f 37/20/10 38/40/10 48/27/10
f 26/28/11 27/36/11 36/14/11
f 25/22/12 12/74/12 14/29/12
f 38/30/13 40/37/13 49/31/13
f 27/33/14 28/39/14 37/20/14
f 26/28/33 14/29/33 16/35/33
f 40/37/16 39/42/16 50/38/16
f 28/39/10 29/45/10 38/40/10
f 27/33/34 16/75/34 18/41/34
f 39/42/3 31/52/3 41/43/3
f 29/44/13 30/49/13 40/37/13
f 18/41/10 20/76/10 29/45/10
f 8/48/17 6/77/17 4/78/17
f 4/78/17 22/79/17 20/46/17
f 20/46/17 18/80/17 10/47/17
f 16/81/17 14/82/17 18/80/17
f 12/83/17 10/47/17 14/82/17
f 8/48/17 4/78/17 20/46/17
f 18/80/17 14/82/17 10/47/17
f 30/49/16 2/9/16 39/42/16
f 20/50/13 22/53/13 30/49/13
f 34/24/18 35/23/18 45/13/18
f 2/9/3 1/8/3 31/52/3
f 22/53/16 4/7/16 2/9/16
f 21/56/19 3/84/19 5/85/19
f 5/85/19 7/86/19 21/56/19
f 9/54/19 11/87/19 13/88/19
f 13/88/19 15/89/19 17/90/19
f 17/90/19 19/55/19 9/54/19
f 21/56/19 7/86/19 9/54/19
f 9/54/19 13/88/19 17/90/19
f 31/6/2 32/5/2 42/10/2
f 41/57/20 42/10/20 7/58/20
f 44/51/21 45/13/21 13/60/21
f 50/38/22 41/43/22 5/62/22
f 21/64/23 49/31/23 50/38/23
f 19/65/24 48/32/24 49/31/24
f 17/66/25 47/21/25 48/27/25
f 15/68/35 46/19/35 47/21/35
f 13/60/27 45/13/27 46/15/27
f 42/10/28 43/3/28 9/70/28
f 43/3/36 44/2/36 11/71/36
