# Blender v2.77 (sub 0) OBJ File: 'Column.blend'
# www.blender.org
v 0.776920 0.007569 -0.783936
v 0.776920 0.007569 0.783936
v -0.776920 0.007569 0.783936
v -0.776920 0.007569 -0.783937
v 0.604534 0.575501 -0.609993
v 0.604533 0.575501 0.609994
v -0.604534 0.575501 0.609993
v -0.604534 0.575501 -0.609993
v 0.591337 4.159377 -0.591337
v 0.591337 4.159377 0.591338
v -0.591337 4.159377 0.591337
v -0.591337 4.159377 -0.591337
v -0.588117 2.372782 -0.593428
v -0.588117 2.372782 0.593428
v 0.588116 2.372782 0.593428
v 0.588117 2.372782 -0.593428
v 0.681884 0.575501 -0.688041
v 0.776920 0.431709 -0.783936
v 0.776920 0.431709 0.783937
v 0.681883 0.575501 0.688042
v -0.776920 0.431709 0.783936
v -0.681884 0.575501 0.688042
v -0.681884 0.575501 -0.688042
v -0.776920 0.431709 -0.783937
v 0.637572 4.581474 -0.637571
v 0.698370 4.500768 -0.698369
v 0.698369 4.500768 0.698370
v 0.637571 4.581474 0.637572
v -0.698370 4.500768 0.698370
v -0.637572 4.581474 0.637571
v -0.637572 4.581474 -0.637572
v -0.698370 4.500768 -0.698370
v 0.698370 4.219164 -0.698369
v 0.653330 4.159377 -0.653330
v 0.653330 4.159377 0.653331
v 0.698369 4.219164 0.698370
v -0.653330 4.159377 0.653330
v -0.698370 4.219164 0.698370
v -0.698370 4.219164 -0.698370
v -0.653330 4.159377 -0.653330
vt 0.9554 0.8903
vt 0.5537 0.9153
vt 0.5296 0.8903
vt 0.9554 0.8903
vt 0.5537 0.9153
vt 0.5296 0.8903
vt 0.9554 0.8903
vt 0.5537 0.9153
vt 0.5296 0.8903
vt 0.9851 0.8483
vt 0.4999 0.7608
vt 0.9851 0.7608
vt 0.4467 0.9464
vt 0.0320 0.5033
vt 0.4726 0.5033
vt 0.9851 0.8483
vt 0.4999 0.7608
vt 0.9851 0.7608
vt 0.5296 0.8903
vt 0.9312 0.9153
vt 0.5537 0.9153
vt 0.9851 0.8483
vt 0.4999 0.7608
vt 0.9851 0.7608
vt 0.9779 0.5940
vt 0.5009 0.6665
vt 0.5009 0.5940
vt 0.0320 0.5033
vt 0.4467 0.9464
vt 0.0579 0.9464
vt 0.0320 0.5033
vt 0.4467 0.9464
vt 0.0579 0.9464
vt 0.9779 0.5940
vt 0.5009 0.6665
vt 0.5009 0.5940
vt 0.9779 0.5940
vt 0.5009 0.6665
vt 0.5009 0.5940
vt 0.9779 0.5940
vt 0.5009 0.6665
vt 0.5009 0.5940
vt 0.9413 0.5511
vt 0.5162 0.5723
vt 0.5374 0.5511
vt 0.9413 0.5511
vt 0.5162 0.5723
vt 0.5374 0.5511
vt 0.9490 0.4958
vt 0.5298 0.0767
vt 0.9490 0.0767
vt 0.0258 0.0658
vt 0.4788 0.0658
vt 0.4726 0.5033
vt 0.0258 0.0658
vt 0.4788 0.0658
vt 0.4726 0.5033
vt 0.0258 0.0658
vt 0.4788 0.0658
vt 0.4467 0.9464
vt 0.0320 0.5033
vt 0.4726 0.5033
vt 0.0258 0.0658
vt 0.4788 0.0658
vt 0.9554 0.8903
vt 0.4999 0.8483
vt 0.9851 0.8483
vt 0.4999 0.8483
vt 0.4999 0.8483
vt 0.4999 0.7608
vt 0.5216 0.6958
vt 0.9779 0.6665
vt 0.9571 0.6958
vt 0.9571 0.6958
vt 0.5216 0.6958
vt 0.5216 0.6958
vt 0.9779 0.6665
vt 0.9571 0.6958
vt 0.5216 0.6958
vt 0.9779 0.6665
vt 0.9571 0.6958
vt 0.9413 0.5511
vt 0.5162 0.5723
vt 0.5374 0.5511
vt 0.9625 0.5723
vt 0.9625 0.5723
vt 0.9625 0.5723
vt 0.9625 0.5723
vt 0.9413 0.5511
vt 0.5162 0.5723
vt 0.5374 0.5511
vt 0.9312 0.9153
vt 0.9312 0.9153
vt 0.9312 0.9153
vt 0.0579 0.9464
vt 0.4999 0.8483
vt 0.9779 0.6665
vt 0.5298 0.4958
vt 0.0579 0.9464
vt 0.9851 0.7608
vn 0.0000 1.0000 0.0000
vn 1.0000 -0.0000 0.0000
vn -0.0000 0.0012 1.0000
vn -0.0000 0.0052 1.0000
vn -1.0000 0.0000 -0.0000
vn -0.0000 -0.0000 1.0000
vn 0.0000 0.0052 -1.0000
vn 0.0000 0.0012 -1.0000
vn 1.0000 0.0037 0.0000
vn 1.0000 -0.0018 0.0000
vn 0.0000 0.0000 -1.0000
vn 0.0000 -1.0000 0.0000
vn -0.0000 0.0092 1.0000
vn 0.0000 0.0092 -1.0000
vn 1.0000 0.0091 0.0000
vn -1.0000 -0.0018 -0.0000
vn -1.0000 0.0037 -0.0000
vn -1.0000 0.0091 -0.0000
vn 0.8343 0.5514 0.0000
vn 0.0000 0.5548 -0.8320
vn -0.0000 0.5548 0.8320
vn -0.8343 0.5514 -0.0000
vn 0.7987 0.6017 0.0000
vn 0.0000 0.6017 -0.7987
vn -0.0000 0.6017 0.7987
vn -0.7987 0.6017 -0.0000
vn 0.7987 -0.6017 0.0000
vn 0.0000 -0.6017 -0.7987
vn -0.0000 -0.6017 0.7987
vn -0.7987 -0.6017 -0.0000
s 1
f 23/1/1 5/2/1 17/3/1
f 20/4/1 7/5/1 22/6/1
f 22/7/1 8/8/1 23/9/1
f 18/10/2 2/11/2 1/12/2
f 10/13/3 14/14/4 15/15/4
f 21/16/5 4/17/5 3/18/5
f 20/19/1 5/20/1 6/21/1
f 19/22/6 3/23/6 2/24/6
f 38/25/5 32/26/5 39/27/5
f 16/28/7 12/29/8 9/30/8
f 15/31/9 9/32/10 10/33/10
f 36/34/6 29/35/6 38/36/6
f 33/37/2 27/38/2 36/39/2
f 39/40/11 26/41/11 33/42/11
f 12/43/12 34/44/12 9/45/12
f 11/46/12 40/47/12 12/48/12
f 31/49/1 28/50/1 25/51/1
f 15/15/4 7/52/13 6/53/13
f 13/54/7 5/55/14 8/56/14
f 16/57/9 6/58/15 5/59/15
f 11/60/16 13/61/17 14/62/17
f 14/62/17 8/63/18 7/64/18
f 17/65/19 19/66/19 18/10/19
f 24/67/20 17/3/20 18/68/20
f 20/4/21 21/69/21 19/22/21
f 23/9/22 21/16/22 22/7/22
f 1/70/11 24/67/11 18/68/11
f 28/71/23 26/72/23 25/73/23
f 26/41/24 31/74/24 25/75/24
f 30/76/25 27/77/25 28/78/25
f 31/79/26 29/80/26 30/81/26
f 10/82/12 37/83/12 11/84/12
f 36/39/27 34/85/27 33/37/27
f 40/86/28 33/42/28 34/44/28
f 38/36/29 35/87/29 36/34/29
f 38/25/30 40/47/30 37/88/30
f 9/89/12 35/90/12 10/91/12
f 23/1/1 8/92/1 5/2/1
f 20/4/1 6/93/1 7/5/1
f 22/7/1 7/94/1 8/8/1
f 18/10/2 19/66/2 2/11/2
f 10/13/3 11/95/3 14/14/4
f 21/16/5 24/96/5 4/17/5
f 20/19/1 17/65/1 5/20/1
f 19/22/6 21/69/6 3/23/6
f 38/25/5 29/80/5 32/26/5
f 16/28/7 13/54/7 12/29/8
f 15/31/9 16/57/9 9/32/10
f 36/34/6 27/77/6 29/35/6
f 33/37/2 26/72/2 27/38/2
f 39/40/11 32/97/11 26/41/11
f 12/43/12 40/86/12 34/44/12
f 11/46/12 37/88/12 40/47/12
f 31/49/1 30/98/1 28/50/1
f 15/15/4 14/14/4 7/52/13
f 13/54/7 16/28/7 5/55/14
f 16/57/9 15/31/9 6/58/15
f 11/60/16 12/99/16 13/61/17
f 14/62/17 13/61/17 8/63/18
f 17/65/19 20/19/19 19/66/19
f 24/67/20 23/1/20 17/3/20
f 20/4/21 22/6/21 21/69/21
f 23/9/22 24/96/22 21/16/22
f 1/70/11 4/100/11 24/67/11
f 28/71/23 27/38/23 26/72/23
f 26/41/24 32/97/24 31/74/24
f 30/76/25 29/35/25 27/77/25
f 31/79/26 32/26/26 29/80/26
f 10/82/12 35/87/12 37/83/12
f 36/39/27 35/90/27 34/85/27
f 40/86/28 39/40/28 33/42/28
f 38/36/29 37/83/29 35/87/29
f 38/25/30 39/27/30 40/47/30
f 9/89/12 34/85/12 35/90/12
