# Blender v2.78 (sub 0) OBJ File: ''
# www.blender.org
v 0.520000 0.500000 -0.500000
v -0.500000 0.500000 0.500000
v 0.520000 0.500000 0.500000
v -0.500000 0.500000 -0.500000
v 0.520000 -0.500000 -0.500000
v -0.500000 -0.500000 0.500000
v -0.500000 -0.500000 -0.500000
v 0.520000 -0.500000 0.500000
v 0.520000 -0.500000 -0.500000
v 0.520000 0.500000 0.500000
v 0.520000 -0.500000 0.500000
v 0.520000 0.500000 -0.500000
v -0.500000 -0.500000 -0.500000
v -0.500000 0.500000 0.500000
v -0.500000 0.500000 -0.500000
v -0.500000 -0.500000 0.500000
v -0.500000 -0.500000 -0.500000
v 0.520000 0.500000 -0.500000
v 0.520000 -0.500000 -0.500000
v -0.500000 0.500000 -0.500000
v -0.500000 -0.500000 0.500000
v 0.520000 0.500000 0.500000
v -0.500000 0.500000 0.500000
v 0.520000 -0.500000 0.500000
vt 0.6669 0.7515
vt 0.3337 0.9999
vt 0.3337 0.7515
vt 0.6669 0.9999
vt 0.6669 0.2531
vt 0.3337 0.5015
vt 0.6669 0.5015
vt 0.3337 0.2531
vt 0.3304 0.7515
vt -0.0028 0.9999
vt -0.0028 0.7515
vt 0.3304 0.9999
vt 0.6669 0.0070
vt 0.3337 0.2554
vt 0.6669 0.2554
vt 0.3337 0.0070
vt 0.6690 0.4959
vt 0.3358 0.7443
vt 0.3358 0.4959
vt 0.6690 0.7443
vt 1.0034 0.7515
vt 0.6702 0.9999
vt 1.0034 0.9999
vt 0.6702 0.7515
vn 0.0000 1.0000 0.0000
vn 0.0000 -1.0000 -0.0000
vn 1.0000 0.0000 0.0000
vn -1.0000 0.0000 0.0000
vn 0.0000 0.0000 -1.0000
vn 0.0000 -0.0000 1.0000
s 1
f 1/1/1 2/2/1 3/3/1
f 1/1/1 4/4/1 2/2/1
f 5/5/2 6/6/2 7/7/2
f 5/5/2 8/8/2 6/6/2
f 9/9/3 10/10/3 11/11/3
f 9/9/3 12/12/3 10/10/3
f 13/13/4 14/14/4 15/15/4
f 13/13/4 16/16/4 14/14/4
f 17/17/5 18/18/5 19/19/5
f 17/17/5 20/20/5 18/18/5
f 21/21/6 22/22/6 23/23/6
f 21/21/6 24/24/6 22/22/6
