# Blender v2.78 (sub 0) OBJ File: 'DOOR.blend'
# www.blender.org
v 1.158103 0.349371 0.156997
v 1.158103 0.349371 0.393089
v 1.158103 0.585464 0.156997
v 1.158103 0.585464 0.393089
v 1.394195 0.349371 0.156997
v 1.394195 0.349371 0.393089
v 1.394195 0.585464 0.156997
v 1.394195 0.585464 0.393089
v 1.631178 0.198323 0.372740
v 1.543174 0.207869 0.439087
v 1.476169 0.198323 0.351584
v 1.564173 0.188778 0.285237
v 1.522239 0.472816 0.323810
v 1.456023 0.427463 0.399943
v 1.410806 0.363019 0.322226
v 1.477021 0.408372 0.246093
v 1.250110 0.586515 0.272560
v 1.238320 0.518422 0.358943
v 1.247528 0.431238 0.291476
v 1.259318 0.499331 0.205093
v 0.974200 0.472816 0.249012
v 1.017592 0.427463 0.340104
v 1.081982 0.363019 0.277347
v 1.038590 0.408372 0.186254
v 0.856133 0.198323 0.266959
v 0.923139 0.207869 0.354463
v 1.011142 0.198323 0.288115
v 0.944137 0.188778 0.200612
v 0.965072 -0.076170 0.315889
v 1.010290 -0.011725 0.393607
v 1.076506 0.033628 0.317474
v 1.031288 -0.030817 0.239756
v 1.237201 -0.189869 0.367140
v 1.227993 -0.102685 0.434607
v 1.239783 -0.034592 0.348224
v 1.248991 -0.121776 0.280757
v 1.513111 -0.076170 0.390688
v 1.448721 -0.011726 0.453446
v 1.405329 0.033628 0.362353
v 1.469719 -0.030817 0.299595
v -1.492388 -3.174828 -0.231621
v -1.492388 -3.174828 0.259924
v -1.413512 -2.056019 -0.231622
v -1.413512 -2.056019 0.259924
v 1.325737 -3.271744 -0.231621
v 1.325737 -3.271744 0.259924
v 1.492388 -1.941202 -0.231622
v 1.492388 -1.941202 0.259924
v -1.564912 -2.561694 0.259924
v -1.564912 -2.561694 -0.231621
v 1.579899 -2.561694 0.259924
v 1.579899 -2.561694 -0.231621
v -1.929521 3.847079 -0.172872
v 1.929522 3.847079 -0.172872
v 1.929520 -3.847080 -0.172872
v -1.929523 -3.847077 -0.172872
v -1.929520 3.847081 0.172872
v 1.929523 3.847077 0.172872
v 1.929520 -3.847081 0.172872
v -1.929522 -3.847079 0.172872
v -1.929520 2.636248 0.172872
v 1.929523 2.636248 0.172872
v -1.929520 0.969427 0.172872
v 1.929522 0.969427 0.172872
v -1.262511 3.847080 0.172872
v -1.262511 -3.847079 0.172872
v -1.262511 2.636248 0.172872
v -1.262511 0.969427 0.172872
v 1.325932 -3.847081 0.172872
v 1.325932 3.847077 0.172872
v 1.325932 2.636248 0.172872
v 1.325932 0.969427 0.172872
v -1.929521 2.636248 -0.172872
v 1.929522 2.636248 -0.172872
v 1.929521 0.969427 -0.172872
v -1.929521 0.969427 -0.172872
v 1.325932 3.847079 -0.172872
v -1.262511 3.847079 -0.172872
v 1.325932 -3.847079 -0.172872
v -1.262511 -3.847078 -0.172872
v 1.325932 2.636248 -0.172872
v 1.325932 0.969427 -0.172872
v -1.262511 0.969427 -0.172872
v -1.262511 2.636248 -0.172872
v -0.512565 0.904617 0.036951
v -0.437013 0.904617 0.112503
v -0.512565 2.647176 0.036950
v -0.437013 2.647176 0.112503
v -0.437013 0.904617 -0.038602
v -0.361460 0.904617 0.036951
v -0.437013 2.647176 -0.038602
v -0.361460 2.647176 0.036950
v 0.512566 0.904617 0.036951
v 0.437013 0.904617 0.112503
v 0.512566 2.647176 0.036950
v 0.437013 2.647176 0.112503
v 0.437013 0.904617 -0.038602
v 0.361460 0.904617 0.036951
v 0.437013 2.647176 -0.038602
v 0.361460 2.647176 0.036950
v 1.414479 1.715451 0.036951
v 1.414479 1.775896 0.097396
v -1.445101 1.715451 0.036951
v -1.445101 1.775896 0.097396
v 1.414479 1.775896 -0.023495
v 1.414479 1.836341 0.036951
v -1.445101 1.775896 -0.023495
v -1.445101 1.836341 0.036951
v -0.522707 1.775896 0.112503
v -0.598260 1.775896 0.036951
v -0.447154 1.775896 0.036951
v -0.522707 1.775896 -0.038602
v -0.463842 2.211536 0.112503
v -0.463842 2.211536 -0.038602
v -0.539395 2.211536 0.036950
v -0.388289 2.211536 0.036950
v -0.015311 1.713413 0.097396
v -0.015311 1.652968 0.036951
v -0.015311 1.773858 0.036951
v -0.015311 1.713413 -0.023495
v 0.699584 1.728666 0.036951
v 0.699584 1.849557 0.036951
v 0.699584 1.789111 0.097396
v 0.699584 1.789111 -0.023495
vt 0.9936 0.6706
vt 0.9614 0.6384
vt 0.9936 0.6384
vt 0.9292 0.6706
vt 0.9614 0.6706
vt 0.8971 0.6706
vt 0.9292 0.6384
vt 0.9614 0.5741
vt 0.9292 0.6062
vt 0.9292 0.5741
vt 0.9614 0.6062
vt 0.9292 0.5419
vt 0.5598 0.6589
vt 0.6014 0.6776
vt 0.5598 0.6776
vt 0.6014 0.5996
vt 0.5598 0.6199
vt 0.5598 0.5996
vt 0.6014 0.6395
vt 0.5598 0.6395
vt 0.6014 0.6589
vt 0.6414 0.6589
vt 0.6414 0.5996
vt 0.6014 0.6199
vt 0.6414 0.6199
vt 0.6414 0.6395
vt 0.2949 0.6589
vt 0.3400 0.6776
vt 0.2949 0.6776
vt 0.2949 0.5996
vt 0.3400 0.6199
vt 0.2949 0.6199
vt 0.2949 0.6395
vt 0.3400 0.6395
vt 0.3400 0.6589
vt 0.3843 0.6776
vt 0.3843 0.5996
vt 0.3400 0.5996
vt 0.3843 0.6199
vt 0.3843 0.6395
vt 0.4284 0.6589
vt 0.3843 0.6589
vt 0.4284 0.5996
vt 0.4284 0.6199
vt 0.4725 0.6776
vt 0.4284 0.6776
vt 0.4725 0.6199
vt 0.4284 0.6395
vt 0.4725 0.6395
vt 0.5164 0.6589
vt 0.4725 0.6589
vt 0.5164 0.5996
vt 0.4725 0.5996
vt 0.5164 0.6395
vt 0.5164 0.6776
vt 0.5164 0.6199
vt 0.0734 0.9115
vt 0.0516 0.8882
vt 0.0734 0.8882
vt 0.0734 0.6754
vt 0.0516 0.5469
vt 0.0734 0.5469
vt 0.0734 0.7364
vt 0.0516 0.7030
vt 0.0734 0.7030
vt 0.0734 0.8609
vt 0.0516 0.7364
vt 0.1244 0.0544
vt 0.8681 0.2546
vt 0.1244 0.2546
vt 0.8689 0.2520
vt 0.1263 0.4903
vt 0.1263 0.2520
vt 0.8689 0.0573
vt 0.1263 0.0573
vt 0.8681 0.4906
vt 0.1244 0.4906
vt 0.0516 0.6754
vt 0.0516 0.8609
vt 0.8861 0.5223
vt 0.7540 0.5938
vt 0.8861 0.5945
vt 0.8842 0.9787
vt 0.7520 0.6925
vt 0.8842 0.6926
vt 0.2375 0.5206
vt 0.1181 0.5000
vt 0.2358 0.5000
vt 0.0495 0.5000
vt 0.1181 0.4318
vt 0.7506 0.0419
vt 0.8842 0.0213
vt 0.8842 0.0419
vt 0.8842 0.5000
vt 0.9528 0.4274
vt 0.9528 0.5000
vt 0.8842 0.5932
vt 0.7529 0.5206
vt 0.8842 0.5206
vt 0.7525 0.5933
vt 0.8842 0.3288
vt 0.9528 0.3280
vt 0.7505 0.9787
vt 0.2384 0.6920
vt 0.2379 0.5938
vt 0.1181 0.6919
vt 0.1181 0.5939
vt 0.1181 0.9787
vt 0.1181 0.5206
vt 0.7537 0.6921
vt 0.8861 0.6927
vt 0.0495 0.3287
vt 0.1181 0.0419
vt 0.1181 0.3324
vt 0.0495 0.4267
vt 0.9528 0.0419
vt 0.7526 0.9782
vt 0.8861 0.9782
vt 0.7523 0.5000
vt 0.1181 0.0213
vt 0.2404 0.0419
vt 0.2399 0.0213
vt 0.2384 0.5223
vt 0.1210 0.5902
vt 0.2392 0.5908
vt 0.2402 0.6897
vt 0.1210 0.6891
vt 0.2430 0.9782
vt 0.7543 0.5223
vt 0.9448 0.9799
vt 0.9034 0.7802
vt 0.9448 0.7802
vt 0.9806 0.7417
vt 0.9495 0.9744
vt 0.9495 0.7417
vt 0.9553 0.7957
vt 0.9248 0.9428
vt 0.9248 0.7957
vt 0.9443 0.9396
vt 0.9287 0.8230
vt 0.9443 0.8230
vt 0.6233 0.6208
vt 0.7482 0.6400
vt 0.6233 0.6400
vt 0.4985 0.6777
vt 0.2488 0.6588
vt 0.4985 0.6588
vt 0.6233 0.6588
vt 0.6233 0.6018
vt 0.7482 0.6208
vt 0.2488 0.6018
vt 0.7482 0.6208
vt 0.2488 0.6208
vt 0.7482 0.6400
vt 0.2488 0.6588
vt 0.2488 0.6400
vt 0.7482 0.6777
vt 0.2488 0.6777
vt 0.4985 0.6208
vt 0.2488 0.6018
vt 0.4985 0.6018
vt 0.7482 0.6400
vt 0.6233 0.6588
vt 0.6233 0.6400
vt 0.2488 0.6777
vt 0.4985 0.6588
vt 0.4985 0.6777
vt 0.4985 0.6400
vt 0.2488 0.6208
vt 0.4985 0.6018
vt 0.2488 0.6208
vt 0.2488 0.6018
vt 0.2488 0.6400
vt 0.6233 0.6777
vt 0.4985 0.6208
vt 0.7482 0.6588
vt 0.7482 0.6777
vt 0.4985 0.6400
vt 0.6233 0.6208
vt 0.6233 0.6777
vt 0.2488 0.6588
vt 0.2488 0.6400
vt 0.6233 0.6018
vt 0.7482 0.6208
vt 0.7482 0.6018
vt 0.7482 0.6588
vt 0.7482 0.6777
vt 0.8971 0.6384
vt 0.9614 0.5419
vt 0.6414 0.6776
vt 0.0516 0.9115
vt 0.8681 0.0544
vt 0.8689 0.4903
vt 0.7505 0.0213
vt 0.8842 0.4274
vt 0.2399 0.9787
vt 0.0495 0.0419
vt 0.1210 0.5223
vt 0.1210 0.9782
vt 0.9034 0.9799
vt 0.9806 0.9744
vt 0.9553 0.9428
vt 0.9287 0.9396
vt 0.2488 0.6777
vt 0.7482 0.6018
vt 0.7482 0.6018
vt 0.7482 0.6588
vn -1.0000 0.0000 0.0000
vn 0.0000 1.0000 0.0000
vn 1.0000 -0.0000 0.0000
vn 0.0000 -1.0000 0.0000
vn 0.0000 -0.0000 -1.0000
vn 0.0000 0.0000 1.0000
vn 0.5859 0.3618 0.7251
vn -0.7681 -0.1962 0.6096
vn -0.5859 -0.3618 -0.7251
vn 0.7681 0.1962 -0.6096
vn 0.1986 0.7563 0.6233
vn -0.3808 -0.5907 0.7114
vn -0.1986 -0.7563 -0.6233
vn 0.3808 0.5907 -0.7114
vn -0.3584 0.7563 0.5473
vn 0.1762 -0.5907 0.7874
vn 0.3584 -0.7563 -0.5473
vn -0.1762 0.5907 -0.7874
vn -0.7588 0.3618 0.5416
vn 0.5766 -0.1962 0.7931
vn 0.7588 -0.3618 -0.5416
vn -0.5766 0.1962 -0.7931
vn -0.9580 0.2868 0.0000
vn -0.0395 0.9992 0.0000
vn 0.9415 -0.3370 0.0000
vn -0.0344 -0.9994 0.0000
vn 0.9902 0.1397 0.0000
vn -0.9931 -0.1175 0.0000
vn -0.7064 0.0435 0.7064
vn 0.7054 0.0694 -0.7054
vn -0.7064 0.0435 -0.7064
vn 0.7064 -0.0435 0.7064
vn 0.7071 0.0000 0.7071
vn -0.7071 -0.0000 -0.7071
vn 0.7071 -0.0000 -0.7071
vn -0.7071 0.0000 0.7071
vn -0.0309 -0.7068 0.7068
vn 0.0131 0.7070 -0.7070
vn -0.0309 -0.7068 -0.7068
vn 0.0309 0.7068 0.7068
vn 0.7054 0.0694 0.7054
vn -0.7054 -0.0694 -0.7054
vn 0.7039 -0.0951 -0.7039
vn -0.7054 -0.0694 0.7054
vn 0.7064 -0.0435 -0.7064
vn 0.7039 -0.0951 0.7039
vn -0.7039 0.0951 -0.7039
vn -0.7039 0.0951 0.7039
vn -0.0747 0.7051 0.7051
vn 0.0747 -0.7051 -0.7051
vn 0.0309 0.7068 -0.7068
vn 0.0747 -0.7051 0.7051
vn -0.0131 -0.7070 0.7070
vn -0.0131 -0.7070 -0.7070
vn 0.0131 0.7070 0.7070
vn -0.0747 0.7051 -0.7051
s 1
f 2/1/1 3/2/1 1/3/1
f 8/4/2 3/2/2 4/5/2
f 6/6/3 7/7/3 8/4/3
f 2/8/4 5/9/4 6/10/4
f 3/2/5 5/9/5 1/11/5
f 8/12/6 2/8/6 6/10/6
f 9/13/7 14/14/7 10/15/7
f 14/16/8 11/17/8 10/18/8
f 11/17/9 16/19/9 12/20/9
f 9/13/10 16/19/10 13/21/10
f 17/22/11 14/14/11 13/21/11
f 18/23/12 15/24/12 14/16/12
f 19/25/13 16/19/13 15/24/13
f 20/26/14 13/21/14 16/19/14
f 17/27/15 22/28/15 18/29/15
f 18/30/16 23/31/16 19/32/16
f 23/31/17 20/33/17 19/32/17
f 24/34/18 17/27/18 20/33/18
f 21/35/19 26/36/19 22/28/19
f 26/37/20 23/31/20 22/38/20
f 27/39/21 24/34/21 23/31/21
f 28/40/22 21/35/22 24/34/22
f 29/41/8 26/36/8 25/42/8
f 30/43/7 27/39/7 26/37/7
f 31/44/10 28/40/10 27/39/10
f 28/40/9 29/41/9 25/42/9
f 29/41/12 34/45/12 30/46/12
f 30/43/11 35/47/11 31/44/11
f 35/47/14 32/48/14 31/44/14
f 36/49/13 29/41/13 32/48/13
f 37/50/16 34/45/16 33/51/16
f 38/52/15 35/47/15 34/53/15
f 35/47/18 40/54/18 36/49/18
f 40/54/17 33/51/17 36/49/17
f 37/50/20 10/15/20 38/55/20
f 10/18/19 39/56/19 38/52/19
f 39/56/22 12/20/22 40/54/22
f 12/20/21 37/50/21 40/54/21
f 44/57/23 50/58/23 49/59/23
f 48/60/24 43/61/24 44/62/24
f 46/63/25 52/64/25 51/65/25
f 42/66/26 45/67/26 46/63/26
f 43/68/5 52/69/5 50/70/5
f 51/71/6 44/72/6 49/73/6
f 46/74/6 49/73/6 42/75/6
f 50/70/5 45/76/5 41/77/5
f 48/60/27 52/64/27 47/78/27
f 49/59/28 41/79/28 42/66/28
f 53/80/5 84/81/5 73/82/5
f 60/83/6 68/84/6 63/85/6
f 70/86/2 54/87/2 77/88/2
f 58/89/3 74/90/3 54/87/3
f 80/91/4 60/92/4 56/93/4
f 53/94/1 61/95/1 57/96/1
f 61/97/6 65/98/6 57/99/6
f 61/97/6 68/84/6 67/100/6
f 67/100/6 70/86/6 65/98/6
f 61/95/1 76/101/1 63/102/1
f 66/103/6 72/104/6 68/84/6
f 71/105/6 64/106/6 62/107/6
f 72/104/6 59/108/6 64/106/6
f 71/105/6 58/109/6 70/86/6
f 73/82/5 83/110/5 76/111/5
f 64/112/3 55/113/3 75/114/3
f 62/115/3 75/114/3 74/90/3
f 76/101/1 60/116/1 63/102/1
f 76/111/5 80/117/5 56/118/5
f 65/98/2 77/88/2 78/119/2
f 57/99/2 78/119/2 53/94/2
f 59/120/4 79/121/4 55/113/4
f 69/122/4 80/91/4 79/121/4
f 77/123/5 74/124/5 81/125/5
f 74/124/5 82/126/5 81/125/5
f 75/127/5 79/128/5 82/126/5
f 77/123/5 84/81/5 78/129/5
f 68/130/3 84/131/3 67/132/3
f 82/126/5 80/117/5 83/110/5
f 82/133/2 68/134/2 72/135/2
f 81/136/1 72/137/1 71/138/1
f 67/139/4 81/140/4 71/141/4
f 113/142/29 87/143/29 115/144/29
f 111/145/30 89/146/30 112/147/30
f 87/143/31 114/148/31 115/144/31
f 116/149/32 88/150/32 113/142/32
f 93/151/33 96/152/33 94/153/33
f 100/154/34 97/155/34 98/156/34
f 97/155/35 95/157/35 93/158/35
f 98/156/36 96/152/36 100/154/36
f 117/159/37 103/160/37 118/161/37
f 106/162/38 124/163/38 122/164/38
f 103/165/39 120/166/39 118/167/39
f 119/168/40 104/169/40 117/159/40
f 111/170/41 86/171/41 90/172/41
f 85/173/42 112/147/42 89/146/42
f 111/145/43 114/148/43 116/174/43
f 109/175/44 85/173/44 86/171/44
f 116/174/45 91/176/45 92/177/45
f 111/170/46 113/142/46 109/175/46
f 115/144/47 112/147/47 110/178/47
f 109/175/48 115/144/48 110/178/48
f 119/168/49 123/179/49 122/164/49
f 121/180/50 120/166/50 124/163/50
f 119/168/51 107/181/51 108/182/51
f 117/159/52 121/183/52 123/179/52
f 102/184/53 121/183/53 101/185/53
f 121/180/54 105/186/54 101/187/54
f 106/162/55 123/179/55 102/184/55
f 119/168/56 124/163/56 120/166/56
f 2/1/1 4/5/1 3/2/1
f 8/4/2 7/7/2 3/2/2
f 6/6/3 5/188/3 7/7/3
f 2/8/4 1/11/4 5/9/4
f 3/2/5 7/7/5 5/9/5
f 8/12/6 4/189/6 2/8/6
f 9/13/7 13/21/7 14/14/7
f 14/16/8 15/24/8 11/17/8
f 11/17/9 15/24/9 16/19/9
f 9/13/10 12/20/10 16/19/10
f 17/22/11 18/190/11 14/14/11
f 18/23/12 19/25/12 15/24/12
f 19/25/13 20/26/13 16/19/13
f 20/26/14 17/22/14 13/21/14
f 17/27/15 21/35/15 22/28/15
f 18/30/16 22/38/16 23/31/16
f 23/31/17 24/34/17 20/33/17
f 24/34/18 21/35/18 17/27/18
f 21/35/19 25/42/19 26/36/19
f 26/37/20 27/39/20 23/31/20
f 27/39/21 28/40/21 24/34/21
f 28/40/22 25/42/22 21/35/22
f 29/41/8 30/46/8 26/36/8
f 30/43/7 31/44/7 27/39/7
f 31/44/10 32/48/10 28/40/10
f 28/40/9 32/48/9 29/41/9
f 29/41/12 33/51/12 34/45/12
f 30/43/11 34/53/11 35/47/11
f 35/47/14 36/49/14 32/48/14
f 36/49/13 33/51/13 29/41/13
f 37/50/16 38/55/16 34/45/16
f 38/52/15 39/56/15 35/47/15
f 35/47/18 39/56/18 40/54/18
f 40/54/17 37/50/17 33/51/17
f 37/50/20 9/13/20 10/15/20
f 10/18/19 11/17/19 39/56/19
f 39/56/22 11/17/22 12/20/22
f 12/20/21 9/13/21 37/50/21
f 44/57/23 43/191/23 50/58/23
f 48/60/24 47/78/24 43/61/24
f 46/63/25 45/67/25 52/64/25
f 42/66/26 41/79/26 45/67/26
f 43/68/5 47/192/5 52/69/5
f 51/71/6 48/193/6 44/72/6
f 46/74/6 51/71/6 49/73/6
f 50/70/5 52/69/5 45/76/5
f 48/60/27 51/65/27 52/64/27
f 49/59/28 50/58/28 41/79/28
f 53/80/5 78/129/5 84/81/5
f 60/83/6 66/103/6 68/84/6
f 70/86/2 58/109/2 54/87/2
f 58/89/3 62/115/3 74/90/3
f 80/91/4 66/194/4 60/92/4
f 53/94/1 73/195/1 61/95/1
f 61/97/6 67/100/6 65/98/6
f 61/97/6 63/85/6 68/84/6
f 67/100/6 71/105/6 70/86/6
f 61/95/1 73/195/1 76/101/1
f 66/103/6 69/196/6 72/104/6
f 71/105/6 72/104/6 64/106/6
f 72/104/6 69/196/6 59/108/6
f 71/105/6 62/107/6 58/109/6
f 73/82/5 84/81/5 83/110/5
f 64/112/3 59/197/3 55/113/3
f 62/115/3 64/112/3 75/114/3
f 76/101/1 56/93/1 60/116/1
f 76/111/5 83/110/5 80/117/5
f 65/98/2 70/86/2 77/88/2
f 57/99/2 65/98/2 78/119/2
f 59/120/4 69/122/4 79/121/4
f 69/122/4 66/194/4 80/91/4
f 77/123/5 54/198/5 74/124/5
f 74/124/5 75/127/5 82/126/5
f 75/127/5 55/199/5 79/128/5
f 77/123/5 81/125/5 84/81/5
f 68/130/3 83/200/3 84/131/3
f 82/126/5 79/128/5 80/117/5
f 82/133/2 83/201/2 68/134/2
f 81/136/1 82/202/1 72/137/1
f 67/139/4 84/203/4 81/140/4
f 113/142/29 88/150/29 87/143/29
f 111/145/30 90/204/30 89/146/30
f 87/143/31 91/176/31 114/148/31
f 116/149/32 92/205/32 88/150/32
f 93/151/33 95/206/33 96/152/33
f 100/154/34 99/207/34 97/155/34
f 97/155/35 99/207/35 95/157/35
f 98/156/36 94/153/36 96/152/36
f 117/159/37 104/169/37 103/160/37
f 106/162/38 105/186/38 124/163/38
f 103/165/39 107/181/39 120/166/39
f 119/168/40 108/182/40 104/169/40
f 111/170/41 109/175/41 86/171/41
f 85/173/42 110/178/42 112/147/42
f 111/145/43 112/147/43 114/148/43
f 109/175/44 110/178/44 85/173/44
f 116/174/45 114/148/45 91/176/45
f 111/170/46 116/149/46 113/142/46
f 115/144/47 114/148/47 112/147/47
f 109/175/48 113/142/48 115/144/48
f 119/168/49 117/159/49 123/179/49
f 121/180/50 118/167/50 120/166/50
f 119/168/51 120/166/51 107/181/51
f 117/159/52 118/161/52 121/183/52
f 102/184/53 123/179/53 121/183/53
f 121/180/54 124/163/54 105/186/54
f 106/162/55 122/164/55 123/179/55
f 119/168/56 122/164/56 124/163/56
