# Blender v2.77 (sub 0) OBJ File: 'enemyHand.blend'
# www.blender.org
v -0.060833 0.336687 0.036746
v -0.066460 0.309910 -0.029603
v -0.013835 0.191600 -0.075858
v 0.005033 0.262359 -0.059529
v 0.040800 0.265182 -0.052198
v 0.076538 0.194415 -0.018021
v -0.102264 0.214030 -0.023539
v 0.001634 0.324844 0.085021
v 0.037763 0.225103 0.095334
v 0.060983 0.280372 -0.009777
v -0.066712 0.313568 0.070063
v -0.074198 0.235005 0.064635
v 0.004853 0.343549 0.048133
v 0.055786 0.127575 -0.026551
v -0.024608 0.125828 -0.075889
v 0.015376 0.049269 0.080068
v -0.066682 0.045449 0.066777
v -0.078311 0.056778 -0.012986
v -0.074284 -0.070240 -0.025419
v -0.032315 0.061216 -0.062726
v -0.043465 -0.069873 -0.080595
v -0.059634 -0.004034 0.062671
v -0.001550 -0.030698 0.088462
v 0.023747 0.050859 -0.015280
v 0.025766 -0.059419 -0.028969
v -0.070881 -0.038571 0.068565
v 0.141386 -0.345677 -0.094210
v 0.192566 -0.355226 -0.103881
v 0.180512 -0.293531 -0.079800
v 0.119570 -0.307206 -0.073826
v 0.156638 -0.370572 -0.133777
v 0.176326 -0.366641 -0.145097
v 0.201529 -0.356289 -0.125815
v 0.117613 -0.325440 -0.141646
v 0.148563 -0.308042 -0.151863
v 0.188485 -0.290412 -0.112822
v 0.149891 -0.192452 -0.079661
v 0.151426 -0.190577 -0.115789
v 0.109800 -0.208504 -0.155120
v 0.075040 -0.249282 -0.149285
v 0.044748 -0.230241 -0.140513
v -0.113693 -0.342051 -0.077786
v -0.060390 -0.337177 -0.128887
v -0.098311 -0.377421 -0.078988
v -0.109555 -0.284627 -0.045994
v -0.078659 -0.207102 -0.101577
v -0.002878 -0.341671 -0.102981
v -0.021803 -0.231706 -0.119957
v 0.009463 -0.294889 -0.084753
v -0.087324 -0.304343 0.148816
v -0.027592 -0.302815 0.146003
v -0.035608 -0.170505 0.140962
v -0.027653 -0.354503 -0.028438
v -0.021194 -0.196917 0.052062
v -0.022869 -0.341944 0.055142
v -0.124742 -0.282416 0.047498
v -0.144885 -0.334281 0.006429
v 0.058358 -0.260641 -0.092685
v 0.112077 -0.224987 -0.047285
v -0.014922 -0.070699 0.122767
v 0.043908 -0.086344 0.022353
v -0.084227 -0.075163 0.094937
v 0.084379 -0.115084 -0.043049
v -0.089561 -0.361451 -0.037592
v -0.119008 -0.368646 0.011649
v -0.119045 -0.297248 0.093654
v -0.096017 -0.342921 0.060997
v -0.120086 -0.336011 0.102926
v 0.058288 -0.217048 -0.007798
v -0.096255 -0.165857 0.123345
v -0.109651 -0.194401 -0.005651
v 0.013941 -0.112439 -0.125620
v 0.093535 -0.143904 -0.111430
v 0.047721 -0.171234 -0.136024
v 0.122238 -0.158942 -0.048224
v 0.064338 -0.080679 -0.103913
v -0.061051 -0.419765 0.075069
v -0.098367 -0.452186 0.026708
v -0.046562 -0.518694 0.041720
v -0.019353 -0.488997 0.083634
v 0.051380 -0.511551 0.069274
v 0.043262 -0.548427 0.052297
v 0.054905 -0.518124 0.025916
v 0.015638 -0.464403 0.037949
v -0.011384 -0.502964 -0.001732
v -0.015058 -0.410094 0.025874
v -0.053699 -0.435167 -0.019221
v 0.024584 -0.472523 -0.052762
v 0.049788 -0.541081 -0.019835
v 0.056934 -0.543165 -0.064695
v 0.041238 -0.577885 -0.037852
v -0.012326 -0.503357 -0.012442
v -0.028787 -0.542767 -0.050808
v 0.002420 -0.516248 -0.093766
v -0.031815 -0.440269 -0.110899
v 0.003181 -0.424535 -0.059972
v -0.080109 -0.453767 -0.072637
v -0.051984 -0.431539 -0.024959
v -0.052543 -0.409917 0.074985
v -0.052155 -0.384919 0.168000
v -0.093867 -0.419314 0.124404
v -0.041826 -0.483597 0.139648
v -0.018222 -0.448186 0.178294
v 0.031227 -0.473936 0.163454
v 0.021435 -0.508149 0.150227
v 0.035221 -0.483207 0.123755
v 0.009910 -0.425616 0.131746
v -0.012960 -0.467030 0.094460
v -0.009373 -0.389737 0.118566
v 0.068358 0.194756 -0.019555
v 0.036530 0.145832 0.142349
v 0.033378 0.220677 0.089805
v -0.091124 0.144906 0.131235
v -0.069314 0.230180 0.059918
v -0.094025 0.212979 -0.024178
v -0.070088 0.058062 -0.012630
v 0.047905 0.130144 -0.027380
v -0.050731 0.033813 0.106567
v 0.018488 0.049210 0.122611
v -0.003462 -0.026204 0.081714
v 0.018613 -0.055920 -0.031412
v -0.063811 -0.037398 0.064323
v -0.051870 -0.006587 0.064222
v 0.076538 0.194415 -0.018021
v 0.037763 0.225103 0.095334
v 0.043324 0.147849 0.146726
v -0.074198 0.235005 0.064635
v -0.098170 0.147887 0.134529
v -0.102264 0.214030 -0.023539
v -0.078311 0.056778 -0.012986
v 0.055786 0.127575 -0.026551
v -0.055613 0.031284 0.112824
v -0.001550 -0.030698 0.088462
v 0.022301 0.044841 0.128591
v 0.025766 -0.059419 -0.028969
v -0.070881 -0.038571 0.068565
v -0.059634 -0.004034 0.062671
vt 0.4940 0.1271
vt 0.4745 0.1626
vt 0.4501 0.1327
vt 0.5312 0.1295
vt 0.4938 0.1592
vt 0.5868 0.1612
vt 0.5975 0.1316
vt 0.6342 0.1542
vt 0.5335 0.1694
vt 0.5670 0.1601
vt 0.5619 0.1337
vt 0.4550 0.1033
vt 0.4935 0.1008
vt 0.6350 0.0987
vt 0.6342 0.1223
vt 0.5918 0.0734
vt 0.5304 0.0735
vt 0.5615 0.0699
vt 0.4501 0.2099
vt 0.4501 0.1676
vt 0.4779 0.2091
vt 0.4999 0.2039
vt 0.5623 0.1712
vt 0.5938 0.1730
vt 0.5305 0.0223
vt 0.5019 0.0741
vt 0.5061 0.0191
vt 0.5628 0.0507
vt 0.5867 0.0441
vt 0.6256 0.0699
vt 0.4723 0.0254
vt 0.4708 0.0699
vt 0.6275 0.0354
vt 0.5644 0.0371
vt 0.3423 0.3515
vt 0.3575 0.3837
vt 0.3423 0.3840
vt 0.3780 0.3516
vt 0.3665 0.3436
vt 0.3809 0.3443
vt 0.4024 0.3515
vt 0.3883 0.3831
vt 0.3844 0.3515
vt 0.3794 0.3790
vt 0.3754 0.3319
vt 0.3616 0.3515
vt 0.3655 0.3788
vt 0.3606 0.4035
vt 0.3676 0.4014
vt 0.3789 0.4007
vt 0.3888 0.3973
vt 0.3918 0.4052
vt 0.0430 0.5447
vt 0.0281 0.5498
vt 0.0395 0.5376
vt 0.0525 0.5553
vt 0.0426 0.5766
vt 0.0131 0.5639
vt 0.0143 0.5525
vt 0.0986 0.5412
vt 0.1128 0.5410
vt 0.1129 0.5720
vt 0.1529 0.5293
vt 0.1352 0.5668
vt 0.1339 0.5325
vt 0.0739 0.5511
vt 0.0630 0.5429
vt 0.4024 0.3982
vt 0.4024 0.3828
vt 0.3473 0.4031
vt 0.3684 0.3515
vt 0.3328 0.3955
vt 0.1468 0.5980
vt 0.1216 0.6091
vt 0.1166 0.5959
vt 0.0678 0.6091
vt 0.0514 0.6091
vt 0.0986 0.5960
vt 0.0972 0.6091
vt 0.1600 0.6092
vt 0.1635 0.5953
vt 0.0499 0.5375
vt 0.0619 0.5350
vt 0.0840 0.5451
vt 0.0744 0.5358
vt 0.0848 0.5356
vt 0.0269 0.5765
vt 0.0056 0.5745
vt 0.1745 0.5551
vt 0.1586 0.5696
vt 0.1674 0.5437
vt 0.0980 0.5736
vt 0.0666 0.5744
vt 0.1683 0.6225
vt 0.1791 0.6119
vt 0.3725 0.4155
vt 0.3845 0.4147
vt 0.1731 0.5719
vt 0.3574 0.4148
vt 0.1707 0.5323
vt 0.1721 0.6021
vt 0.0311 0.6067
vt 0.0173 0.5973
vt 0.1790 0.5940
vt 0.1716 0.5853
vt 0.0124 0.5850
vt 0.0995 0.5058
vt 0.1121 0.4804
vt 0.1120 0.5066
vt 0.1132 0.4518
vt 0.1003 0.4518
vt 0.1076 0.4409
vt 0.1273 0.4518
vt 0.1273 0.4769
vt 0.1001 0.4821
vt 0.0882 0.4790
vt 0.0734 0.4760
vt 0.0875 0.4518
vt 0.0734 0.5295
vt 0.0734 0.5045
vt 0.0871 0.5059
vt 0.1273 0.5044
vt 0.1199 0.5300
vt 0.1273 0.5277
vt 0.0877 0.5318
vt 0.1091 0.5321
vt 0.0993 0.5281
vt 0.0677 0.4836
vt 0.0525 0.4581
vt 0.0634 0.4581
vt 0.0430 0.4581
vt 0.0487 0.4478
vt 0.0538 0.4838
vt 0.0430 0.4810
vt 0.0305 0.4831
vt 0.0314 0.4581
vt 0.0156 0.4827
vt 0.0306 0.5404
vt 0.0156 0.5362
vt 0.0300 0.5070
vt 0.0677 0.5293
vt 0.0591 0.5243
vt 0.0677 0.5084
vt 0.0430 0.5056
vt 0.0533 0.5083
vt 0.0508 0.5271
vt 0.0156 0.5066
vt 0.0430 0.5257
vt 0.1331 0.5215
vt 0.1456 0.5061
vt 0.1476 0.5260
vt 0.1572 0.5068
vt 0.1680 0.4814
vt 0.1682 0.5053
vt 0.1681 0.4578
vt 0.1572 0.4579
vt 0.1614 0.4471
vt 0.1800 0.4578
vt 0.1800 0.4804
vt 0.1572 0.4811
vt 0.1474 0.4817
vt 0.1358 0.4805
vt 0.1489 0.4578
vt 0.1800 0.5004
vt 0.1736 0.5210
vt 0.1800 0.5182
vt 0.1328 0.5004
vt 0.1678 0.5251
vt 0.1572 0.5266
vt 0.3351 0.6562
vt 0.2903 0.6335
vt 0.2924 0.6572
vt 0.2609 0.6335
vt 0.2612 0.6613
vt 0.2384 0.6680
vt 0.2206 0.6335
vt 0.3438 0.6335
vt 0.2844 0.4127
vt 0.3061 0.4244
vt 0.3056 0.3972
vt 0.3365 0.3752
vt 0.2859 0.3870
vt 0.2780 0.3950
vt 0.3351 0.6562
vt 0.2924 0.6572
vt 0.2903 0.6335
vt 0.2609 0.6335
vt 0.2612 0.6613
vt 0.2384 0.6680
vt 0.2206 0.6335
vt 0.3438 0.6335
vt 0.2844 0.4127
vt 0.3056 0.3972
vt 0.3061 0.4244
vt 0.3365 0.3752
vt 0.2859 0.3870
vt 0.2780 0.3950
vt 0.1886 0.6017
vn 0.5373 -0.1310 -0.8332
vn -0.4248 0.3096 -0.8507
vn 0.8591 0.3498 0.3737
vn -0.9370 0.3489 -0.0152
vn -0.2060 -0.0479 0.9774
vn 0.5225 -0.0852 -0.8484
vn 0.8673 -0.3181 0.3828
vn -0.2682 -0.0494 0.9621
vn -0.9896 -0.0377 0.1389
vn -0.6643 -0.1503 -0.7322
vn 0.3989 0.7865 -0.4714
vn 0.4011 0.8371 -0.3719
vn -0.9728 0.2316 -0.0110
vn -0.1677 0.8851 0.4342
vn 0.8335 0.4600 0.3060
vn 0.8548 0.2006 -0.4785
vn 0.0231 0.7919 -0.6103
vn -0.8649 0.1393 -0.4822
vn -0.9812 -0.1499 0.1218
vn -0.1543 -0.1035 0.9826
vn 0.9767 -0.1981 0.0824
vn 0.5910 0.0594 -0.8045
vn -0.7309 -0.0515 -0.6805
vn 0.4995 -0.3265 -0.8024
vn 0.9240 -0.3749 0.0749
vn -0.9552 0.0712 0.2871
vn 0.9476 0.1441 0.2851
vn 0.9734 -0.0106 0.2290
vn -0.9520 0.2987 -0.0662
vn -0.3345 0.1681 0.9273
vn -0.2933 0.2528 0.9220
vn -0.9783 -0.0507 0.2008
vn 0.1747 -0.3818 0.9076
vn 0.2775 -0.9484 0.1533
vn -0.7612 -0.6393 0.1088
vn -0.1476 -0.2923 -0.9449
vn -0.0624 -0.8554 0.5141
vn 0.9657 0.0942 0.2421
vn 0.9354 0.3489 0.0578
vn -0.2394 0.0655 -0.9687
vn -0.6555 -0.2610 -0.7087
vn -0.8644 -0.0159 -0.5026
vn 0.4145 0.2334 -0.8796
vn 0.0460 0.0408 0.9981
vn 0.9984 -0.0127 -0.0552
vn 0.9984 -0.0103 0.0564
vn -0.8743 0.4607 -0.1529
vn -0.1995 -0.2076 -0.9577
vn -0.6325 -0.7432 0.2181
vn 0.6302 0.2211 -0.7443
vn 0.5545 0.1669 0.8153
vn 0.5543 0.1685 -0.8150
vn -0.4864 -0.3082 0.8176
vn 0.8643 0.1282 0.4864
vn -0.8374 0.2860 -0.4658
vn -0.9518 0.2993 -0.0664
vn 0.6988 0.7047 0.1227
vn -0.6752 -0.2516 -0.6934
vn -0.6639 -0.5729 -0.4807
vn -0.8701 -0.0925 -0.4842
vn 0.1513 -0.4229 -0.8934
vn -0.8612 -0.3858 0.3309
vn -0.5689 -0.7577 -0.3197
vn -0.8497 0.1441 0.5072
vn -0.7014 -0.4434 0.5580
vn 0.5719 -0.7296 0.3751
vn -0.9777 0.2020 0.0568
vn -0.2643 0.1579 0.9514
vn -0.3245 0.6281 0.7073
vn -0.6524 0.4025 -0.6421
vn 0.2382 0.8389 -0.4894
vn 0.9879 0.0652 0.1408
vn -0.8643 0.0365 0.5017
vn -0.9843 0.0712 -0.1616
vn 0.4141 0.5792 -0.7022
vn 0.0943 0.5739 -0.8135
vn -0.2455 0.0858 -0.9656
vn -0.9217 0.2107 -0.3257
vn -0.9859 0.1523 0.0687
vn -0.2417 0.3191 0.9164
vn 0.9652 -0.1627 0.2048
vn 0.5770 -0.1228 0.8074
vn 0.8439 -0.0307 0.5357
vn 0.2000 -0.8715 0.4477
vn 0.6940 -0.0966 0.7135
vn 0.6293 0.7743 0.0669
vn -0.2208 0.2025 -0.9541
vn -0.9776 0.1327 0.1633
vn -0.9362 0.1427 -0.3213
vn 0.2603 -0.7565 0.6000
vn 0.9098 -0.3353 0.2447
vn -0.7444 -0.2122 0.6331
vn -0.8793 -0.1806 0.4407
vn -0.2368 0.1677 -0.9570
vn -0.9005 -0.4338 -0.0283
vn 0.9054 -0.2219 0.3618
vn -0.3489 0.8390 -0.4176
vn -0.5524 0.1264 -0.8239
vn 0.6997 0.6956 0.1628
vn -0.2486 0.0285 -0.9682
vn 0.2585 0.2309 -0.9380
vn 0.9037 0.4242 -0.0578
vn 0.3737 0.2162 0.9020
vn 0.5824 -0.0781 0.8091
vn -0.2957 0.0873 -0.9513
vn 0.1577 -0.2903 0.9439
vn -0.1367 -0.8532 -0.5034
vn -0.6459 -0.3023 0.7010
vn 0.9570 -0.2650 0.1180
vn 0.8045 0.5935 -0.0246
vn 0.3485 0.6875 0.6371
vn -0.3025 -0.6740 0.6739
vn 0.4288 0.4843 -0.7626
vn 0.8001 -0.3166 -0.5096
vn 0.5924 0.4789 0.6479
vn 0.1439 -0.6807 -0.7183
vn 0.7353 -0.1945 0.6492
vn 0.9861 0.1467 -0.0785
vn -0.5635 -0.5178 -0.6437
vn 0.6760 0.2424 -0.6959
vn 0.0474 -0.4263 0.9033
vn -0.2225 -0.8451 -0.4861
vn 0.1622 -0.1636 -0.9731
vn 0.0751 0.2126 0.9742
vn -0.6318 -0.2860 -0.7204
vn -0.8096 -0.2732 0.5196
vn 0.9098 0.3953 0.1266
vn 0.9403 -0.2986 0.1636
vn -0.4083 -0.5435 0.7334
vn 0.4015 0.5122 0.7592
vn 0.0949 -0.6354 -0.7663
vn 0.5751 0.3853 -0.7217
vn 0.4072 -0.0463 -0.9121
vn 0.9068 0.2446 0.3435
vn -0.4986 -0.3983 -0.7699
vn -0.7481 -0.3109 0.5863
vn 0.4745 0.3340 0.8144
vn 0.5431 -0.1341 0.8289
vn 0.7564 0.2004 -0.6226
vn -0.2500 -0.7322 -0.6336
vn -0.1409 -0.4087 0.9017
vn -0.1559 0.0936 0.9833
vn 0.8351 -0.2041 -0.5108
vn -0.5727 -0.2026 -0.7943
vn -0.8196 -0.1494 0.5531
vn -0.0740 -0.2496 -0.9655
vn -0.6191 -0.2089 0.7571
vn 0.9278 -0.3316 0.1708
vn 0.9154 0.4026 -0.0019
vn 0.5032 0.6182 0.6038
vn -0.3473 -0.5760 0.7400
vn 0.5698 0.3534 -0.7420
vn 0.6597 0.5447 0.5178
vn 0.1360 -0.7554 -0.6409
vn 0.7528 -0.0494 0.6564
vn 0.9750 0.2180 -0.0432
vn -0.5620 -0.5879 -0.5818
vn 0.6486 0.1990 -0.7346
vn 0.7272 -0.4649 -0.5050
vn 0.0393 0.2476 0.9681
vn -0.8311 -0.3689 -0.4163
vn -0.7428 -0.1700 0.6476
vn -0.2499 -0.8465 -0.4700
vn 0.0793 -0.3791 0.9219
vn -0.9437 -0.2158 -0.2507
vn 0.1541 -0.6568 -0.7382
vn 0.9032 -0.3868 -0.1863
vn 0.9865 0.1562 0.0500
vn -0.9461 0.3106 -0.0921
vn 0.1054 0.4502 -0.8867
vn -0.8722 0.4037 -0.2762
vn 0.8887 -0.3434 0.3038
vn 0.1589 0.4820 -0.8617
vn 0.9369 0.2378 0.2561
vn -0.0716 0.5489 0.8328
vn -0.8967 0.3995 0.1904
vn -0.9875 -0.1530 -0.0384
vn 0.9460 -0.3070 0.1040
vn -0.1037 -0.4409 0.8916
vn 0.8507 -0.4295 0.3029
vn -0.9494 0.2876 -0.1264
vn -0.1869 -0.4963 0.8478
vn 0.1845 0.1740 -0.9673
vn -0.3453 0.0698 -0.9359
vn -0.2641 0.0041 0.9645
vn 0.5394 -0.0603 -0.8399
vn 0.9558 -0.1440 0.2565
vn -0.1601 0.0048 0.9871
vn -0.9372 -0.1208 0.3271
vn -0.4922 0.0810 -0.8667
vn 0.0562 0.8085 -0.5858
vn -0.2489 0.8157 0.5221
vn -0.7354 0.0429 -0.6762
vn 0.6537 0.1050 -0.7495
vn 0.6042 -0.2276 -0.7636
vn 0.1124 -0.3422 0.9329
vn 0.2704 -0.9499 0.1565
vn -0.8149 -0.5534 0.1723
vn -0.4293 -0.3017 -0.8513
vn 0.9220 0.1093 0.3714
vn 0.9267 0.2804 0.2502
vn 0.5911 -0.1491 -0.7927
vn -0.0883 -0.0669 -0.9938
vn -0.8076 -0.4851 -0.3354
vn 0.6227 0.2087 -0.7541
vn 0.6105 0.2679 -0.7453
vn 0.7949 0.6057 0.0368
vn -0.2730 0.6772 0.6832
vn -0.9623 0.2632 -0.0687
vn -0.3750 0.2409 0.8952
vn 0.7920 -0.3279 0.5151
vn 0.6916 0.7074 -0.1457
vn 0.2892 0.3254 -0.9003
vn 0.7345 0.6550 -0.1777
vn -0.6496 -0.3542 0.6727
vn 0.5850 0.4369 0.6833
vn -0.4950 -0.5393 -0.6812
vn 0.6746 0.2249 -0.7031
vn -0.7222 -0.4763 -0.5015
vn -0.7650 -0.0737 0.6397
vn -0.5409 -0.4811 -0.6899
vn -0.7438 -0.2801 0.6068
vn 0.4965 0.4077 0.7663
vn 0.7605 0.2491 -0.5996
vn -0.6278 -0.2994 -0.7185
vn -0.8544 -0.3979 0.3341
vn -0.6283 -0.3431 0.6982
vn 0.6516 0.4490 0.6115
vn -0.5627 -0.5923 -0.5766
vn 0.7478 0.1658 -0.6428
vn -0.6048 -0.5186 -0.6044
vn -0.7061 -0.0399 0.7070
vn 0.0753 -0.5708 -0.8176
vn -0.1490 0.6434 0.7509
s off
f 3/1/1 5/2/1 6/3/1
f 7/4/2 4/5/2 3/1/2
f 8/6/3 9/7/3 10/8/3
f 2/9/4 7/4/4 11/10/4
f 12/11/5 8/6/5 11/10/5
f 3/1/6 14/12/6 15/13/6
f 9/7/7 14/14/7 6/15/7
f 12/11/8 16/16/8 9/7/8
f 12/11/9 18/17/9 17/18/9
f 7/4/10 15/13/10 18/17/10
f 5/2/11 13/19/11 10/20/11
f 1/21/12 4/5/12 2/22/12
f 1/23/13 2/9/13 11/10/13
f 1/23/14 8/6/14 13/24/14
f 10/8/15 13/24/15 8/6/15
f 10/20/16 6/3/16 5/2/16
f 5/2/17 1/21/17 13/19/17
f 19/25/18 20/26/18 21/27/18
f 22/28/19 17/18/19 18/17/19
f 22/28/20 16/16/20 17/18/20
f 23/29/21 24/30/21 16/16/21
f 20/26/22 25/31/22 21/27/22
f 20/26/23 18/17/23 15/13/23
f 24/32/24 15/13/24 14/12/24
f 16/16/25 24/30/25 14/14/25
f 11/10/26 7/4/26 12/11/26
f 10/8/27 9/7/27 6/15/27
f 25/33/28 24/30/28 23/29/28
f 26/34/29 22/28/29 19/25/29
f 23/29/30 16/16/30 22/28/30
f 23/29/31 22/28/31 26/34/31
f 19/25/32 22/28/32 18/17/32
f 27/35/33 29/36/33 30/37/33
f 32/38/34 28/39/34 31/40/34
f 27/41/35 34/42/35 31/43/35
f 35/44/36 31/43/36 34/42/36
f 28/39/37 27/45/37 31/40/37
f 28/46/38 36/47/38 29/36/38
f 37/48/39 36/47/39 38/49/39
f 39/50/40 40/51/40 41/52/40
f 42/53/41 43/54/41 44/55/41
f 45/56/42 46/57/42 43/54/42
f 43/54/43 49/58/43 47/59/43
f 50/60/44 51/61/44 52/62/44
f 53/63/45 54/64/45 55/65/45
f 54/64/46 51/61/46 55/65/46
f 56/66/47 45/56/47 57/67/47
f 40/51/48 35/44/48 34/42/48
f 58/68/49 34/42/49 30/69/49
f 39/50/50 36/47/50 35/44/50
f 37/48/51 59/70/51 29/36/51
f 35/44/52 33/71/52 32/38/52
f 30/37/53 59/70/53 58/72/53
f 61/73/54 23/74/54 60/75/54
f 19/76/55 21/77/55 46/57/55
f 19/76/56 62/78/56 26/79/56
f 25/80/57 61/73/57 63/81/57
f 57/67/58 45/56/58 64/82/58
f 57/67/59 64/82/59 65/83/59
f 66/84/60 67/85/60 68/86/60
f 48/87/61 58/88/61 49/58/61
f 44/55/62 64/82/62 42/53/62
f 58/68/63 41/52/63 40/51/63
f 50/60/64 66/84/64 68/86/64
f 57/67/65 65/83/65 67/85/65
f 58/89/66 69/90/66 49/91/66
f 56/66/67 70/92/67 71/93/67
f 70/92/68 50/60/68 52/62/68
f 60/75/69 26/79/69 62/78/69
f 42/53/70 45/56/70 43/54/70
f 21/94/71 25/80/71 72/95/71
f 54/64/72 52/62/72 51/61/72
f 70/92/73 66/84/73 50/60/73
f 71/93/74 45/56/74 56/66/74
f 39/50/75 73/96/75 38/49/75
f 39/50/76 74/97/76 73/96/76
f 41/52/77 74/97/77 39/50/77
f 46/57/78 71/93/78 19/76/78
f 62/78/79 71/93/79 70/92/79
f 52/62/80 62/78/80 70/92/80
f 54/64/81 60/75/81 52/62/81
f 61/73/82 54/64/82 69/90/82
f 63/81/83 61/73/83 69/90/83
f 59/98/84 69/90/84 58/89/84
f 75/99/85 59/70/85 37/48/85
f 73/96/86 37/48/86 38/49/86
f 46/57/87 21/77/87 48/87/87
f 66/84/88 70/92/88 56/66/88
f 45/56/89 71/93/89 46/57/89
f 69/90/90 54/64/90 49/91/90
f 47/100/91 49/91/91 53/63/91
f 67/85/92 56/66/92 57/67/92
f 64/82/93 45/56/93 42/53/93
f 43/54/94 46/57/94 48/87/94
f 56/66/95 67/85/95 66/84/95
f 49/91/96 54/64/96 53/63/96
f 72/95/97 25/80/97 76/101/97
f 48/87/98 21/77/98 72/102/98
f 63/81/99 76/101/99 25/80/99
f 72/102/100 74/103/100 48/87/100
f 73/104/101 72/95/101 76/101/101
f 63/81/102 73/104/102 76/101/102
f 63/81/103 69/90/103 75/105/103
f 75/105/104 69/90/104 59/98/104
f 48/87/105 74/103/105 41/106/105
f 29/36/106 59/70/106 30/37/106
f 48/87/107 41/106/107 58/88/107
f 78/107/108 80/108/108 77/109/108
f 81/110/109 82/111/109 83/112/109
f 81/110/110 83/113/110 84/114/110
f 84/114/111 80/108/111 81/110/111
f 80/108/112 79/115/112 82/111/112
f 85/116/113 84/117/113 83/118/113
f 53/119/114 86/120/114 87/121/114
f 77/109/115 84/114/115 86/122/115
f 82/111/116 85/116/116 83/118/116
f 55/123/117 77/109/117 86/122/117
f 86/122/118 53/124/118 55/123/118
f 79/115/119 87/121/119 85/116/119
f 87/121/120 84/117/120 85/116/120
f 80/108/121 82/111/121 81/110/121
f 82/111/122 79/115/122 85/116/122
f 53/119/123 87/121/123 64/125/123
f 67/126/124 77/109/124 55/123/124
f 65/127/125 87/121/125 78/107/125
f 65/127/126 77/109/126 67/126/126
f 88/128/127 89/129/127 90/130/127
f 89/129/128 91/131/128 90/132/128
f 92/133/129 93/134/129 91/131/129
f 88/128/130 92/133/130 89/129/130
f 91/131/131 94/135/131 90/136/131
f 88/137/132 90/136/132 94/135/132
f 43/138/133 47/139/133 95/140/133
f 47/141/134 53/142/134 96/143/134
f 94/135/135 97/144/135 95/140/135
f 97/144/136 92/133/136 98/145/136
f 98/145/137 88/128/137 96/143/137
f 98/145/138 96/143/138 53/142/138
f 95/140/139 88/137/139 94/135/139
f 91/131/140 93/134/140 94/135/140
f 92/133/141 91/131/141 89/129/141
f 98/145/142 53/142/142 64/146/142
f 95/140/143 47/139/143 96/147/143
f 44/148/144 95/140/144 97/144/144
f 98/145/145 44/148/145 97/144/145
f 55/149/146 99/150/146 67/151/146
f 101/152/147 103/153/147 100/154/147
f 104/155/148 105/156/148 106/157/148
f 104/155/149 106/158/149 107/159/149
f 107/159/150 103/153/150 104/155/150
f 103/153/151 102/160/151 105/156/151
f 108/161/152 107/162/152 106/163/152
f 100/154/153 107/159/153 109/164/153
f 105/156/154 108/161/154 106/163/154
f 51/165/155 100/154/155 109/164/155
f 109/164/156 55/166/156 51/165/156
f 108/161/157 101/152/157 99/150/157
f 109/167/158 108/161/158 99/150/158
f 109/167/159 99/150/159 55/149/159
f 50/168/160 100/154/160 51/165/160
f 67/151/161 101/152/161 68/169/161
f 68/169/162 100/154/162 50/168/162
f 105/156/163 102/160/163 108/161/163
f 103/153/164 105/156/164 104/155/164
f 110/170/165 111/171/165 112/172/165
f 112/172/166 113/173/166 114/174/166
f 114/174/167 113/173/167 115/175/167
f 113/173/168 116/176/168 115/175/168
f 110/170/169 117/177/169 111/171/169
f 118/178/170 119/179/170 120/180/170
f 120/180/171 119/179/171 121/181/171
f 122/182/172 123/183/172 118/178/172
f 122/182/173 118/178/173 120/180/173
f 124/184/174 125/185/174 126/186/174
f 125/185/175 128/187/175 126/186/175
f 127/188/176 129/189/176 128/187/176
f 128/187/177 129/189/177 130/190/177
f 124/184/178 126/186/178 131/191/178
f 132/192/179 133/193/179 134/194/179
f 133/193/180 135/195/180 134/194/180
f 136/196/181 132/192/181 137/197/181
f 136/196/182 133/193/182 132/192/182
f 3/1/183 4/5/183 5/2/183
f 7/4/184 2/9/184 4/5/184
f 12/11/185 9/7/185 8/6/185
f 3/1/186 6/3/186 14/12/186
f 9/7/187 16/16/187 14/14/187
f 12/11/188 17/18/188 16/16/188
f 12/11/189 7/4/189 18/17/189
f 7/4/190 3/1/190 15/13/190
f 1/21/191 5/2/191 4/5/191
f 1/23/192 11/10/192 8/6/192
f 19/25/193 18/17/193 20/26/193
f 20/26/194 24/32/194 25/31/194
f 24/32/195 20/26/195 15/13/195
f 27/35/196 28/46/196 29/36/196
f 32/38/197 33/71/197 28/39/197
f 27/41/198 30/69/198 34/42/198
f 35/44/199 32/38/199 31/43/199
f 28/46/200 33/71/200 36/47/200
f 37/48/201 29/36/201 36/47/201
f 43/54/202 48/87/202 49/58/202
f 40/51/203 39/50/203 35/44/203
f 58/68/204 40/51/204 34/42/204
f 39/50/205 38/49/205 36/47/205
f 35/44/206 36/47/206 33/71/206
f 61/73/207 25/80/207 23/74/207
f 60/75/208 23/74/208 26/79/208
f 62/78/209 19/76/209 71/93/209
f 52/62/210 60/75/210 62/78/210
f 54/64/211 61/73/211 60/75/211
f 73/96/212 75/99/212 37/48/212
f 73/104/213 74/198/213 72/95/213
f 63/81/214 75/105/214 73/104/214
f 78/107/215 79/115/215 80/108/215
f 77/109/216 80/108/216 84/114/216
f 79/115/217 78/107/217 87/121/217
f 87/121/218 86/120/218 84/117/218
f 65/127/219 64/125/219 87/121/219
f 65/127/220 78/107/220 77/109/220
f 94/135/221 93/134/221 97/144/221
f 97/144/222 93/134/222 92/133/222
f 98/145/223 92/133/223 88/128/223
f 95/140/224 96/147/224 88/137/224
f 44/148/225 43/138/225 95/140/225
f 98/145/226 64/146/226 44/148/226
f 101/152/227 102/160/227 103/153/227
f 100/154/228 103/153/228 107/159/228
f 108/161/229 102/160/229 101/152/229
f 109/167/230 107/162/230 108/161/230
f 67/151/231 99/150/231 101/152/231
f 68/169/232 101/152/232 100/154/232
f 112/172/233 111/171/233 113/173/233
f 125/185/234 127/188/234 128/187/234
