# Blender v2.77 (sub 0) OBJ File: 'EnemyBody.blend'
# www.blender.org
v 0.276582 0.613588 0.007962
v 0.327178 0.606002 -0.005083
v 0.317801 0.638228 -0.043067
v 0.279468 0.637248 -0.028316
v 0.360271 0.622938 -0.053265
v 0.379156 0.600730 -0.028621
v 0.273193 0.537974 -0.008756
v 0.315971 0.522376 -0.014953
v 0.337150 0.571718 0.017135
v 0.301750 0.579856 0.028756
v 0.238579 0.600831 -0.083231
v 0.242395 0.572217 -0.023483
v 0.358917 0.524766 -0.038986
v 0.371318 0.570003 -0.001500
v 0.366507 0.544145 -0.085537
v 0.349530 0.581651 -0.118008
v 0.300034 0.606478 -0.111284
v -0.000000 0.145537 -0.269210
v -0.000000 -0.097134 -0.208506
v -0.200209 0.016828 -0.167186
v -0.234985 -0.076136 -0.154555
v -0.245190 -0.078243 -0.054949
v -0.000000 0.000737 0.104761
v 0.000000 0.056181 0.175420
v -0.167300 -0.054297 0.105570
v -0.140000 -0.060512 0.062670
v -0.295292 -0.009402 -0.029456
v -0.200358 0.513108 -0.203072
v -0.000000 0.549256 -0.146545
v -0.000000 0.421599 -0.277004
v -0.251251 0.348382 -0.248348
v -0.000000 0.272456 -0.289362
v 0.024638 0.380863 0.084617
v -0.221272 0.256048 0.129969
v -0.000000 0.222594 0.216513
v -0.281809 0.148699 -0.231059
v -0.069766 0.368440 0.083814
v -0.254160 0.349545 -0.008646
v -0.294710 0.304336 -0.117325
v -0.327646 0.151131 -0.012599
v -0.207923 0.417670 -0.023324
v -0.120372 0.488743 0.005575
v -0.207726 0.519410 -0.048627
v -0.318360 0.336007 -0.060163
v -0.105568 0.578485 -0.069471
v 0.200208 0.016828 -0.167186
v 0.245190 -0.078243 -0.054949
v 0.234985 -0.076136 -0.154555
v 0.281809 0.161963 -0.230193
v 0.301658 0.011712 -0.042538
v 0.140000 -0.060512 0.062670
v 0.167300 -0.053382 0.105630
v 0.327646 0.169065 -0.011428
v 0.200358 0.581240 -0.198624
v 0.276635 0.399078 -0.245641
v -0.002191 0.598722 -0.105819
v 0.132379 0.589299 -0.088599
v 0.221272 0.256053 0.129970
v 0.153794 0.422716 0.087374
v 0.254160 0.423501 -0.003818
v 0.294710 0.359085 -0.113750
v 0.207923 0.498618 -0.018039
v 0.180584 0.525229 0.011124
v 0.207726 0.582227 -0.065840
v 0.316013 0.419754 -0.054640
v -0.348177 0.527673 -0.106938
v -0.294734 0.456913 -0.010736
v -0.246023 0.517719 -0.086937
v -0.292204 0.506698 -0.181056
v -0.411404 0.374040 -0.055916
v -0.454026 0.453179 -0.119485
v -0.407691 0.444054 -0.196893
v -0.377969 0.360472 -0.224251
v 0.450028 0.538891 -0.113794
v 0.403693 0.529767 -0.191202
v 0.292545 0.587240 -0.175806
v 0.373971 0.446185 -0.218561
v 0.393858 0.475899 -0.048849
v -0.000000 -0.061786 0.082197
v 0.109080 -0.191778 0.047805
v -0.000000 -0.221019 0.081561
v 0.079869 -0.352160 -0.018010
v -0.000000 -0.336932 -0.028203
v -0.000000 -0.304035 -0.205416
v 0.253262 -0.204141 -0.208844
v 0.247950 -0.333549 -0.155435
v 0.290064 -0.192054 -0.093179
v -0.000000 -0.185803 -0.247760
v 0.122317 -0.335331 0.092000
v 0.303952 -0.336374 0.023063
v 0.228721 -0.298628 0.086869
v -0.109081 -0.191778 0.047805
v -0.087559 -0.352160 -0.018010
v -0.254932 -0.207329 -0.209590
v -0.247949 -0.333549 -0.155435
v -0.290064 -0.192055 -0.093179
v -0.121421 -0.317695 0.097991
v -0.220873 -0.283391 0.093194
v -0.291189 -0.318670 0.033556
v 0.260425 0.608518 -0.515970
v 0.365928 0.576514 -0.547439
v 0.464133 0.673814 -0.666575
v 0.358629 0.705818 -0.635107
v 0.353793 0.687098 -0.654382
v 0.255588 0.589798 -0.535246
v 0.239469 0.608850 -0.532972
v 0.257558 0.709506 -0.528154
v 0.355762 0.806805 -0.647290
v 0.337674 0.706150 -0.652108
v 0.359576 0.703794 -0.635980
v 0.261371 0.606493 -0.516843
v 0.257609 0.588914 -0.534302
v 0.227651 0.590729 -0.649811
v 0.325856 0.688029 -0.768948
v 0.355814 0.686214 -0.653438
v 0.338748 0.707291 -0.650291
v 0.240544 0.609991 -0.531155
v -0.200727 0.140314 -0.000893
v -0.216866 0.169784 0.009872
v 0.336374 0.717927 -0.661287
v 0.352513 0.688457 -0.672052
v -0.191888 0.174527 0.034335
v 0.361352 0.722670 -0.636824
v -0.175749 0.145057 0.023570
v 0.377491 0.693200 -0.647589
v 0.145237 0.860473 -0.524414
v 0.246627 0.873807 -0.555324
v 0.284519 1.014959 -0.664618
v 0.183129 1.001625 -0.633709
v 0.182079 0.985099 -0.655415
v 0.144188 0.843947 -0.546121
v 0.123040 0.855254 -0.538848
v 0.103385 0.953824 -0.501643
v 0.141276 1.094977 -0.610938
v 0.160932 0.996406 -0.648142
v 0.184567 1.000222 -0.635020
v 0.146675 0.859070 -0.525726
v 0.146513 0.843756 -0.545561
v 0.097548 0.849175 -0.638819
v 0.135440 0.990327 -0.748114
v 0.184405 0.984907 -0.654856
v 0.161819 0.997618 -0.646271
v 0.123927 0.856466 -0.536976
v -0.035866 0.192978 -0.056620
v -0.059292 0.212772 -0.039178
v 0.154172 1.007955 -0.654892
v 0.177598 0.988162 -0.672334
v -0.033948 0.223180 -0.016949
v 0.179517 1.018364 -0.632663
v -0.010521 0.203386 -0.034391
v 0.202943 0.998570 -0.650105
vt 0.3200 0.9022
vt 0.3359 0.8925
vt 0.3397 0.9018
vt 0.3038 0.8916
vt 0.2991 0.9032
vt 0.3196 0.9263
vt 0.3322 0.9148
vt 0.3363 0.9233
vt 0.3496 0.9043
vt 0.3499 0.8866
vt 0.3040 0.9145
vt 0.3198 0.9147
vt 0.2880 0.9101
vt 0.2990 0.9232
vt 0.3172 0.8773
vt 0.3206 0.8901
vt 0.1198 0.2431
vt 0.1198 0.1814
vt 0.1750 0.2129
vt 0.1714 0.1814
vt 0.1935 0.1839
vt 0.3492 0.2130
vt 0.2921 0.2171
vt 0.3024 0.1941
vt 0.2469 0.2331
vt 0.2619 0.1937
vt 0.1598 0.3415
vt 0.1184 0.3493
vt 0.1198 0.3109
vt 0.1783 0.3219
vt 0.1198 0.2788
vt 0.3492 0.3146
vt 0.2910 0.2946
vt 0.3492 0.2902
vt 0.1937 0.2573
vt 0.3492 0.2409
vt 0.3103 0.3296
vt 0.2599 0.3295
vt 0.2185 0.3017
vt 0.2347 0.2655
vt 0.2671 0.3482
vt 0.2925 0.3811
vt 0.2647 0.3732
vt 0.2158 0.2228
vt 0.2397 0.2736
vt 0.2324 0.3081
vt 0.2414 0.3151
vt 0.1268 0.3686
vt 0.1564 0.3710
vt 0.1369 0.3758
vt 0.0593 0.2129
vt 0.0327 0.1839
vt 0.0576 0.1814
vt 0.0466 0.2573
vt 0.0213 0.2227
vt 0.4021 0.2160
vt 0.4463 0.2318
vt 0.4530 0.2705
vt 0.0754 0.3498
vt 0.0613 0.3220
vt 0.1150 0.3736
vt 0.1033 0.3714
vt 0.4090 0.2929
vt 0.3890 0.3293
vt 0.4401 0.3299
vt 0.0305 0.3017
vt 0.0116 0.2609
vt 0.4385 0.3517
vt 0.0920 0.3885
vt 0.0880 0.3950
vt 0.0842 0.3790
vt 0.3912 0.1941
vt 0.4349 0.1941
vt 0.0158 0.3081
vt 0.4554 0.3236
vt 0.4342 0.3619
vt 0.7345 0.2566
vt 0.7587 0.2730
vt 0.7369 0.2780
vt 0.7470 0.3042
vt 0.7009 0.3013
vt 0.7142 0.2673
vt 0.7918 0.2516
vt 0.7880 0.2738
vt 0.7430 0.2221
vt 0.7078 0.2315
vt 0.6801 0.2686
vt 0.6758 0.2390
vt 0.5047 0.2420
vt 0.5976 0.2419
vt 0.5670 0.2318
vt 0.7757 0.2955
vt 0.7779 0.2380
vt 0.6407 0.2399
vt 0.5138 0.2701
vt 0.4888 0.2715
vt 0.4853 0.2516
vt 0.5407 0.2545
vt 0.5246 0.2504
vt 0.5338 0.2221
vt 0.5591 0.2638
vt 0.5977 0.2621
vt 0.5145 0.2746
vt 0.5025 0.2901
vt 0.6363 0.2399
vt 0.5718 0.2964
vt 0.5122 0.2576
vt 0.3937 0.9084
vt 0.3543 0.9084
vt 0.4011 0.8645
vt 0.4011 0.9523
vt 0.4580 0.9478
vt 0.4639 0.9084
vt 0.4009 0.8137
vt 0.4114 0.8290
vt 0.3884 0.8467
vt 0.4990 0.9084
vt 0.5075 0.9635
vt 0.3564 0.8319
vt 0.3528 0.8737
vt 0.3332 0.8456
vt 0.4381 0.9932
vt 0.3700 0.8143
vt 0.3467 0.8206
vt 0.3066 0.8325
vt 0.3727 0.8604
vt 0.3385 0.7801
vt 0.2739 0.8328
vt 0.3062 0.7800
vt 0.4580 0.8690
vt 0.0381 0.7645
vt 0.0505 0.7975
vt 0.0275 0.7799
vt 0.5075 0.8533
vt 0.0826 0.7827
vt 0.1058 0.7965
vt 0.0861 0.8245
vt 0.4381 0.8236
vt 0.0690 0.7652
vt 0.0922 0.7714
vt 0.1323 0.7833
vt 0.1328 0.7308
vt 0.1650 0.7836
vt 0.1005 0.7310
vt 0.0662 0.8112
vt 0.5436 0.2709
vt 0.5440 0.2777
vt 0.5330 0.2844
vt 0.5277 0.2964
vt 0.6413 0.2851
vt 0.6151 0.3388
vt 0.6151 0.2875
vt 0.6413 0.3411
vt 0.6151 0.3458
vt 0.6723 0.3388
vt 0.6723 0.2875
vt 0.6151 0.2805
vt 0.5813 0.3118
vt 0.5633 0.3487
vt 0.5633 0.3134
vt 0.5813 0.3503
vt 0.5633 0.3535
vt 0.6027 0.3487
vt 0.6027 0.3134
vt 0.5633 0.3086
vt 0.9599 0.9314
vt 0.9339 0.9844
vt 0.9339 0.9337
vt 0.9599 0.9867
vt 0.9339 0.9913
vt 0.9905 0.9844
vt 0.9905 0.9337
vt 0.9339 0.9268
vt 0.9894 0.3375
vt 0.9978 0.5812
vt 0.9894 0.5812
vt 0.9643 0.3375
vt 0.9726 0.5812
vt 0.9643 0.5812
vt 0.9726 0.3375
vt 0.9810 0.5812
vt 0.9810 0.3375
vt 0.9643 0.5894
vt 0.9726 0.5894
vt 0.4382 0.7601
vt 0.4134 0.8108
vt 0.4134 0.7623
vt 0.4382 0.8130
vt 0.4134 0.8174
vt 0.4675 0.8108
vt 0.4675 0.7623
vt 0.4134 0.7557
vt 0.0320 0.1209
vt 0.0059 0.1743
vt 0.0059 0.1233
vt 0.0320 0.1766
vt 0.0059 0.1812
vt 0.0628 0.1743
vt 0.0628 0.1233
vt 0.0059 0.1163
vt 0.1918 0.1259
vt 0.1690 0.1727
vt 0.1690 0.1280
vt 0.1918 0.1747
vt 0.1690 0.1788
vt 0.2188 0.1727
vt 0.2188 0.1280
vt 0.1690 0.1219
vt 0.8684 0.0043
vt 0.8600 0.2480
vt 0.8600 0.0043
vt 0.8349 0.0043
vt 0.8431 0.2480
vt 0.8349 0.2480
vt 0.8516 0.0043
vt 0.8431 0.0043
vt 0.8517 0.2480
vt 0.8517 0.2562
vt 0.8599 0.2562
vt 0.1580 0.7298
vt 0.2809 0.7790
vt 0.2917 0.8843
vt 0.9978 0.3375
vt 0.8684 0.2480
vn 0.2596 0.7993 0.5419
vn 0.3071 0.8120 0.4964
vn -0.1131 -0.6190 0.7772
vn -0.8228 0.4904 0.2874
vn 0.3548 -0.6120 0.7068
vn 0.8638 0.2480 -0.4385
vn -0.7219 -0.1184 0.6818
vn 0.2799 0.6464 0.7098
vn 0.3899 0.5515 0.7375
vn 0.9666 -0.2561 -0.0108
vn -0.2599 0.8826 -0.3918
vn 0.2025 0.8666 -0.4561
vn -0.3205 -0.2299 -0.9189
vn -0.9368 0.3384 -0.0888
vn -0.2275 -0.0470 -0.9726
vn 0.2975 -0.8996 0.3196
vn -0.6569 -0.6309 0.4129
vn 0.0682 0.7131 -0.6978
vn -0.1364 0.0818 -0.9873
vn -0.1915 0.6458 0.7391
vn -0.1342 -0.1554 -0.9787
vn -0.3090 -0.1278 0.9424
vn -0.3649 0.7295 0.5786
vn -0.9762 0.0693 -0.2056
vn -0.3841 -0.2214 0.8964
vn -0.0675 0.4555 0.8877
vn -0.4349 0.4618 0.7730
vn -0.9536 0.1221 -0.2753
vn -0.4592 0.2152 0.8619
vn -0.7466 -0.3293 -0.5781
vn 0.0038 -0.9893 0.1457
vn -0.7214 -0.1781 0.6693
vn -0.1222 -0.4929 -0.8615
vn -0.1778 -0.0578 -0.9824
vn -0.9318 -0.0458 -0.3601
vn -0.5692 0.6127 0.5483
vn -0.5130 0.3058 0.8021
vn -0.8461 0.1723 0.5045
vn -0.1980 0.3162 -0.9278
vn -0.2252 0.6466 0.7288
vn 0.3205 -0.2299 -0.9189
vn 0.9368 0.3384 -0.0888
vn 0.2275 -0.0470 -0.9726
vn 0.6208 -0.5787 -0.5290
vn -0.2495 -0.7618 0.5978
vn 0.7693 -0.2438 0.5905
vn -0.2837 0.6854 -0.6706
vn 0.1189 0.0820 -0.9895
vn 0.1417 0.6329 -0.7611
vn 0.2083 0.6068 0.7671
vn 0.1444 -0.1552 -0.9773
vn 0.3092 -0.1281 0.9423
vn 0.6089 0.4187 0.6737
vn 0.9767 0.0581 -0.2065
vn 0.3841 -0.2213 0.8964
vn -0.0896 0.2124 0.9731
vn 0.5864 0.4839 0.6496
vn 0.9912 0.0130 -0.1319
vn 0.8157 0.2886 0.5014
vn 0.0098 -0.9874 0.1576
vn 0.7301 -0.1792 0.6595
vn 0.1480 -0.4627 -0.8741
vn 0.1825 -0.0600 -0.9814
vn 0.9448 -0.0126 -0.3275
vn 0.5883 0.4311 0.6842
vn 0.8011 0.2080 0.5612
vn 0.8294 0.1320 0.5428
vn 0.1315 0.2990 -0.9451
vn -0.2041 0.9590 -0.1964
vn -0.0415 0.7937 0.6069
vn -0.0032 0.9992 -0.0409
vn 0.1299 0.9754 -0.1780
vn -0.5856 -0.2060 0.7840
vn -0.4755 0.5616 0.6772
vn -0.4987 0.7742 -0.3898
vn -0.1417 0.3560 -0.9237
vn 0.9463 -0.3185 -0.0551
vn 0.2422 0.2337 0.9417
vn 0.1817 0.0877 0.9794
vn -0.3784 -0.9256 -0.0005
vn -0.1564 -0.9194 -0.3609
vn -0.2418 0.3259 -0.9139
vn -0.0870 0.9935 -0.0736
vn -0.4217 0.8208 0.3854
vn -0.0323 0.3005 -0.9532
vn -0.5369 0.3334 0.7750
vn 0.5972 -0.2891 0.7482
vn 0.2687 0.6971 0.6647
vn 0.4017 0.8607 -0.3128
vn 0.0962 0.3392 -0.9358
vn -0.1833 0.0728 0.9804
vn 0.4830 -0.8174 -0.3140
vn 0.2072 0.3250 -0.9227
vn 0.0247 0.3030 -0.9527
vn 0.7964 0.5011 0.3385
vn -0.1331 -0.3364 0.9323
vn 0.1331 -0.3364 0.9323
vn 0.2966 -0.0038 0.9550
vn -0.1620 -0.9702 -0.1801
vn -0.2184 -0.6710 0.7086
vn 0.1700 0.4052 -0.8983
vn 0.7049 -0.2416 0.6669
vn 0.9458 -0.1563 -0.2846
vn 0.9106 0.2646 -0.3174
vn 0.9167 0.3902 -0.0857
vn 0.1194 -0.3348 -0.9347
vn 0.9276 0.2844 0.2422
vn 0.1935 0.5207 0.8316
vn 0.1674 0.3991 -0.9015
vn 0.3681 -0.4096 0.8347
vn -0.0716 -0.9730 -0.2193
vn -0.1380 -0.1435 0.9800
vn 0.1481 -0.9724 -0.1805
vn 0.2000 -0.6737 0.7114
vn -0.1704 0.4031 -0.8991
vn -0.7049 -0.2416 0.6669
vn -0.9499 -0.1662 -0.2649
vn -0.9118 0.2689 -0.3104
vn -0.9167 0.3902 -0.0857
vn -0.1357 -0.3970 -0.9077
vn -0.1373 0.5692 0.8107
vn -0.7019 0.3604 0.6143
vn -0.1686 0.3990 -0.9013
vn -0.3666 -0.3949 0.8424
vn 0.0723 -0.9737 -0.2162
vn -0.0957 0.8158 0.5704
vn 0.0973 0.9952 -0.0128
vn -0.3688 0.5810 -0.7255
vn -0.0482 0.9103 -0.4112
vn -0.5088 0.8589 -0.0593
vn 0.7337 -0.5208 0.4365
vn 0.7143 -0.3661 -0.5964
vn -0.7435 -0.2163 0.6328
vn -0.9643 -0.1733 -0.2004
vn 0.3937 0.8674 -0.3043
vn -0.2045 0.9443 -0.2578
vn -0.2764 0.8598 0.4294
vn -0.6766 0.3643 0.6399
vn -0.5072 0.8615 0.0217
vn 0.0463 -0.1657 0.9851
vn 0.4765 -0.3169 0.8200
vn 0.2997 0.5421 0.7850
vn 0.3813 0.8636 -0.3300
vn -0.0248 0.9869 -0.1593
vn 0.9723 -0.1211 -0.1998
vn -0.5877 -0.6171 -0.5233
vn -0.9239 0.2748 0.2663
vn 0.7018 0.3477 0.6218
vn 0.0863 0.6617 0.7448
vn 0.3862 0.5325 0.7532
vn 0.0091 0.7162 -0.6978
vn -0.1611 -0.6952 -0.7006
vn -0.0091 -0.7162 0.6978
vn -0.8249 0.1740 -0.5379
vn 0.5870 -0.0669 -0.8068
vn 0.7253 0.1016 0.6809
vn -0.5870 0.0669 0.8068
vn 0.5863 -0.7932 -0.1645
vn 0.7502 0.6349 -0.1846
vn -0.7235 0.6895 -0.0333
vn -0.7502 -0.6349 0.1846
vn -0.7079 -0.1344 -0.6934
vn -0.4574 0.8353 0.3051
vn 0.7079 0.1344 0.6934
vn 0.4574 -0.8353 -0.3051
vn 0.5381 0.5332 -0.6528
vn 0.1685 0.5748 0.8008
vn -0.2763 0.7711 -0.5737
vn 0.1136 -0.6271 -0.7706
vn 0.2763 -0.7711 0.5737
vn -0.9256 -0.0427 -0.3760
vn 0.3973 0.3923 -0.8296
vn 0.7970 0.2213 0.5621
vn -0.3973 -0.3923 0.8296
vn 0.7412 -0.5239 -0.4196
vn 0.4315 0.8850 -0.1751
vn -0.8948 0.3976 0.2033
vn -0.4315 -0.8850 0.1751
vn -0.7183 -0.2950 -0.6300
vn -0.6640 0.5610 0.4944
vn 0.7183 0.2950 0.6300
vn 0.6640 -0.5610 -0.4944
vn 0.2076 0.7735 -0.5989
vn 0.9611 0.0158 0.2759
vn -0.9592 -0.1957 -0.2040
vn -0.0097 -0.8556 0.5175
vn -0.9339 0.0237 0.3567
vn -0.0273 -0.8741 0.4849
vn 0.9428 -0.1494 -0.2981
vn 0.2117 0.7704 0.6014
vn 0.3970 0.7459 0.5348
vn 0.1309 -0.5794 0.8045
vn -0.8316 0.4931 0.2554
vn 0.3993 -0.6474 0.6492
vn 0.9426 0.1877 -0.2761
vn -0.5609 -0.1547 0.8133
vn 0.3714 0.5786 0.7261
vn 0.4132 0.5768 0.7046
vn 0.9636 -0.2632 0.0475
vn -0.1692 0.9097 -0.3793
vn 0.3148 0.7757 -0.5469
vn 0.2532 -0.7611 0.5972
vn -0.2917 -0.8963 0.3341
vn -0.1043 -0.3588 0.9276
vn -0.3605 0.7900 -0.4959
vn 0.5770 -0.7763 -0.2539
vn 0.5797 -0.8114 0.0741
vn 0.8370 -0.5032 0.2148
vn -0.6651 -0.7350 0.1320
vn -0.6891 -0.6417 -0.3368
vn -0.9451 -0.2821 -0.1650
vn 0.1497 0.0178 0.9886
vn 0.1380 -0.1435 0.9800
vn 0.1386 -0.3827 -0.9134
vn -0.0537 0.2893 0.9557
vn -0.2966 -0.0038 0.9550
vn -0.1118 -0.3351 -0.9355
vn 0.0802 0.3623 0.9286
vn -0.2475 0.1863 0.9508
vn -0.2165 0.6185 0.7554
vn -0.0109 0.8389 0.5442
vn 0.1496 0.6196 0.7705
vn -0.0758 0.5210 0.8502
vn -0.2266 0.6250 0.7470
vn 0.7184 0.2950 0.6300
vn -0.1515 -0.9875 0.0431
vn -0.3285 -0.9273 0.1796
vn 0.3268 -0.9449 0.0184
vn 0.0775 -0.9962 -0.0401
s off
f 2/1/1 4/2/1 1/3/1
f 5/4/2 2/1/2 6/5/2
f 8/6/3 10/7/3 7/8/3
f 12/9/4 4/2/4 11/10/4
f 8/6/5 14/11/5 9/12/5
f 15/13/6 5/4/6 6/5/6
f 1/3/7 7/8/7 10/7/7
f 10/7/8 2/1/8 1/3/8
f 2/1/9 14/11/9 6/5/9
f 13/14/10 6/5/10 14/11/10
f 4/2/11 17/15/11 11/10/11
f 5/4/12 17/15/12 3/16/12
f 18/17/13 19/18/13 20/19/13
f 20/19/14 21/20/14 22/21/14
f 19/18/15 21/20/15 20/19/15
f 23/22/16 25/23/16 26/24/16
f 25/23/17 27/25/17 22/26/17
f 28/27/18 29/28/18 30/29/18
f 31/30/19 30/29/19 32/31/19
f 33/32/20 34/33/20 35/34/20
f 18/17/21 36/35/21 32/31/21
f 24/36/22 34/33/22 25/23/22
f 37/37/23 38/38/23 34/33/23
f 39/39/24 36/35/24 40/40/24
f 24/36/25 35/34/25 34/33/25
f 33/32/26 37/37/26 34/33/26
f 41/41/27 38/38/27 37/37/27
f 31/30/28 36/35/28 39/39/28
f 42/42/29 43/43/29 41/41/29
f 22/21/30 27/44/30 20/19/30
f 26/24/31 25/23/31 22/26/31
f 40/45/32 25/23/32 34/33/32
f 18/17/33 20/19/33 36/35/33
f 31/30/34 32/31/34 36/35/34
f 44/46/35 39/39/35 40/40/35
f 38/38/36 44/47/36 34/33/36
f 37/37/37 42/42/37 41/41/37
f 34/33/38 44/47/38 40/45/38
f 28/27/39 30/29/39 31/30/39
f 45/48/40 43/49/40 42/50/40
f 18/17/41 46/51/41 19/18/41
f 46/51/42 47/52/42 48/53/42
f 19/18/43 46/51/43 48/53/43
f 46/51/44 49/54/44 50/55/44
f 23/22/45 52/56/45 24/36/45
f 52/56/46 50/57/46 53/58/46
f 54/59/47 30/29/47 29/28/47
f 55/60/48 32/31/48 30/29/48
f 29/28/49 56/61/49 57/62/49
f 33/32/50 35/34/50 58/63/50
f 18/17/51 32/31/51 49/54/51
f 24/36/52 52/56/52 58/63/52
f 59/64/53 58/63/53 60/65/53
f 61/66/54 53/67/54 49/54/54
f 24/36/55 58/63/55 35/34/55
f 33/32/56 58/63/56 59/64/56
f 62/68/57 59/64/57 60/65/57
f 55/60/58 61/66/58 49/54/58
f 63/69/59 62/70/59 64/71/59
f 51/72/60 47/73/60 52/56/60
f 53/58/61 58/63/61 52/56/61
f 18/17/62 49/54/62 46/51/62
f 55/60/63 49/54/63 32/31/63
f 65/74/64 53/67/64 61/66/64
f 60/65/65 58/63/65 65/75/65
f 59/64/66 62/68/66 63/76/66
f 58/63/67 53/58/67 65/75/67
f 54/59/68 55/60/68 30/29/68
f 29/28/69 57/62/69 54/59/69
f 66/77/70 67/78/70 68/79/70
f 68/79/71 43/80/71 28/81/71
f 69/82/72 66/77/72 68/79/72
f 67/78/73 44/83/73 38/84/73
f 67/78/74 66/77/74 71/85/74
f 66/77/75 72/86/75 71/85/75
f 69/82/76 31/87/76 73/88/76
f 78/89/77 77/90/77 75/91/77
f 43/80/78 67/78/78 41/92/78
f 41/92/79 67/78/79 38/84/79
f 70/93/80 73/88/80 44/46/80
f 31/87/81 39/94/81 73/88/81
f 28/81/82 31/87/82 69/82/82
f 68/79/83 28/81/83 69/82/83
f 43/80/84 68/79/84 67/78/84
f 69/82/85 73/88/85 72/86/85
f 67/78/86 71/85/86 70/93/86
f 8/95/87 60/96/87 65/97/87
f 16/98/88 15/99/88 74/100/88
f 16/98/89 75/91/89 76/101/89
f 76/101/90 77/90/90 55/102/90
f 60/96/91 7/103/91 62/104/91
f 55/102/92 77/90/92 61/105/92
f 54/106/93 76/101/93 55/102/93
f 76/101/94 75/91/94 77/90/94
f 13/107/95 78/89/95 15/99/95
f 79/108/96 23/109/96 26/110/96
f 79/108/97 51/111/97 23/109/97
f 80/112/98 79/108/98 81/113/98
f 82/114/99 83/115/99 84/116/99
f 83/117/100 82/118/100 81/113/100
f 85/119/101 19/120/101 48/121/101
f 47/122/102 51/111/102 80/112/102
f 86/123/103 85/119/103 87/124/103
f 48/121/104 87/124/104 85/119/104
f 47/125/105 87/124/105 48/121/105
f 85/119/106 84/116/106 88/126/106
f 47/125/107 90/127/107 87/124/107
f 80/128/108 91/129/108 47/125/108
f 88/126/109 19/120/109 85/119/109
f 82/118/110 80/112/110 81/113/110
f 82/114/111 84/116/111 86/123/111
f 92/130/112 79/108/112 26/110/112
f 93/131/113 84/132/113 83/133/113
f 83/117/114 81/113/114 93/134/114
f 94/135/115 21/136/115 19/137/115
f 22/138/116 92/130/116 26/110/116
f 95/139/117 96/140/117 94/135/117
f 21/136/118 94/135/118 96/140/118
f 22/141/119 21/136/119 96/140/119
f 94/135/120 84/132/120 95/139/120
f 98/142/121 92/143/121 22/141/121
f 98/142/122 22/141/122 99/144/122
f 88/145/123 94/135/123 19/137/123
f 93/134/124 81/113/124 92/130/124
f 93/131/125 95/139/125 84/132/125
f 63/69/126 64/71/126 57/62/126
f 54/59/127 57/62/127 64/71/127
f 29/28/128 45/48/128 56/61/128
f 29/28/129 28/27/129 45/48/129
f 45/48/130 28/27/130 43/49/130
f 52/56/131 47/73/131 50/57/131
f 47/52/132 46/51/132 50/55/132
f 25/23/133 40/45/133 27/25/133
f 36/35/134 27/44/134 40/40/134
f 76/101/135 17/146/135 16/98/135
f 11/147/136 17/146/136 76/101/136
f 12/148/137 11/147/137 64/149/137
f 62/104/138 12/148/138 64/149/138
f 64/149/139 11/147/139 54/106/139
f 13/107/140 65/97/140 78/89/140
f 8/95/141 65/97/141 13/107/141
f 15/99/142 78/89/142 74/100/142
f 16/98/143 74/100/143 75/91/143
f 11/147/144 76/101/144 54/106/144
f 50/55/145 49/54/145 53/67/145
f 20/19/146 27/44/146 36/35/146
f 99/144/147 22/141/147 96/140/147
f 91/129/148 90/127/148 47/125/148
f 42/50/149 33/32/149 56/61/149
f 101/150/150 103/151/150 100/152/150
f 103/151/151 102/153/151 104/154/151
f 104/155/152 101/150/152 105/156/152
f 105/157/153 101/150/153 100/152/153
f 107/158/154 109/159/154 106/160/154
f 109/159/155 108/161/155 110/162/155
f 110/163/156 107/158/156 111/164/156
f 111/165/157 107/158/157 106/160/157
f 113/166/158 115/167/158 112/168/158
f 115/167/159 114/169/159 116/170/159
f 116/171/160 113/166/160 117/172/160
f 117/173/161 113/166/161 112/168/161
f 118/174/162 120/175/162 121/176/162
f 119/177/163 123/178/163 120/179/163
f 122/180/164 125/181/164 123/178/164
f 118/174/165 125/181/165 124/182/165
f 123/178/166 121/183/166 120/179/166
f 121/183/166 123/178/166 125/184/166
f 127/185/167 129/186/167 126/187/167
f 129/186/168 128/188/168 130/189/168
f 130/190/169 127/185/169 131/191/169
f 131/192/170 127/185/170 126/187/170
f 133/193/171 135/194/171 132/195/171
f 135/194/172 134/196/172 136/197/172
f 136/198/173 133/193/173 137/199/173
f 137/200/174 133/193/174 132/195/174
f 139/201/175 141/202/175 138/203/175
f 141/202/176 140/204/176 142/205/176
f 142/206/177 139/201/177 143/207/177
f 143/208/178 139/201/178 138/203/178
f 145/209/179 147/210/179 144/211/179
f 145/212/180 149/213/180 146/214/180
f 150/215/181 149/213/181 148/216/181
f 144/211/182 151/217/182 150/215/182
f 149/218/183 147/210/183 146/219/183
f 147/210/183 149/218/183 151/217/183
f 93/134/184 92/143/184 97/220/184
f 96/140/185 95/139/185 99/144/185
f 93/134/186 98/142/186 99/144/186
f 82/118/187 89/221/187 80/128/187
f 90/127/188 91/129/188 82/118/188
f 87/124/189 90/127/189 86/123/189
f 2/1/190 3/16/190 4/2/190
f 5/4/191 3/16/191 2/1/191
f 8/6/192 9/12/192 10/7/192
f 12/9/193 1/3/193 4/2/193
f 8/6/194 13/14/194 14/11/194
f 15/13/195 16/222/195 5/4/195
f 1/3/196 12/9/196 7/8/196
f 10/7/197 9/12/197 2/1/197
f 2/1/198 9/12/198 14/11/198
f 13/14/199 15/13/199 6/5/199
f 4/2/200 3/16/200 17/15/200
f 5/4/201 16/222/201 17/15/201
f 23/22/202 24/36/202 25/23/202
f 23/22/203 51/72/203 52/56/203
f 67/78/204 70/93/204 44/83/204
f 66/77/205 69/82/205 72/86/205
f 75/91/206 74/100/206 78/89/206
f 78/89/207 65/74/207 77/90/207
f 61/105/208 77/90/208 65/74/208
f 39/39/209 44/46/209 73/88/209
f 70/93/210 71/85/210 72/86/210
f 72/86/211 73/88/211 70/93/211
f 60/96/212 8/95/212 7/103/212
f 80/112/213 51/111/213 79/108/213
f 85/119/214 86/123/214 84/116/214
f 80/128/215 89/221/215 91/129/215
f 92/130/216 81/113/216 79/108/216
f 94/135/217 88/145/217 84/132/217
f 98/142/218 97/220/218 92/143/218
f 62/104/219 7/103/219 12/148/219
f 59/64/220 63/69/220 33/32/220
f 57/62/221 56/61/221 63/69/221
f 45/48/222 42/50/222 56/61/222
f 37/37/223 33/32/223 42/50/223
f 63/69/224 56/61/224 33/32/224
f 101/150/150 102/153/150 103/151/150
f 104/155/152 102/153/152 101/150/152
f 107/158/154 108/161/154 109/159/154
f 110/163/156 108/161/156 107/158/156
f 113/166/158 114/169/158 115/167/158
f 116/171/160 114/169/160 113/166/160
f 118/174/162 119/223/162 120/175/162
f 119/177/163 122/180/163 123/178/163
f 122/180/164 124/182/164 125/181/164
f 118/174/165 121/176/165 125/181/165
f 127/185/167 128/188/167 129/186/167
f 130/190/169 128/188/169 127/185/169
f 133/193/171 134/196/171 135/194/171
f 136/198/173 134/196/173 133/193/173
f 139/201/175 140/204/175 141/202/175
f 142/206/177 140/204/177 139/201/177
f 145/209/179 146/224/179 147/210/179
f 145/212/180 148/216/180 149/213/180
f 150/215/225 151/217/225 149/213/225
f 144/211/182 147/210/182 151/217/182
f 99/144/226 95/139/226 93/134/226
f 93/134/227 97/220/227 98/142/227
f 89/221/228 82/118/228 91/129/228
f 86/123/229 90/127/229 82/118/229
