# Blender v2.77 (sub 0) OBJ File: 'enemyClub.blend'
# www.blender.org
v 0.089571 0.314563 -0.719061
v 0.056251 0.349401 -0.716482
v 0.065626 0.377369 -0.170503
v 0.105445 0.335387 -0.169054
v 0.008151 0.350847 -0.720329
v 0.007767 0.378916 -0.170574
v -0.026553 0.318056 -0.728349
v -0.034235 0.339123 -0.169130
v -0.027532 0.270235 -0.735844
v -0.035783 0.281301 -0.167153
v 0.005789 0.235397 -0.738424
v 0.004033 0.239321 -0.165704
v 0.053889 0.233951 -0.734577
v 0.061889 0.237775 -0.165633
v 0.088593 0.266743 -0.726557
v 0.103893 0.277568 -0.166981
v 0.139538 0.267194 0.259077
v 0.080929 0.211664 0.260870
v 0.000201 0.213819 0.260735
v -0.055355 0.272397 0.258749
v -0.053192 0.353082 0.256078
v 0.005419 0.408607 0.254284
v 0.086142 0.406451 0.254419
v 0.141695 0.347878 0.256404
v -0.015991 0.200685 0.621006
v 0.095238 0.197704 0.621007
v 0.098417 0.197095 1.029868
v -0.035921 0.200688 1.029743
v -0.092542 0.281384 0.618086
v -0.128371 0.298165 1.026339
v -0.089575 0.392532 0.613957
v -0.124778 0.432418 1.021651
v -0.008822 0.469023 0.611039
v -0.027245 0.524813 1.018424
v 0.102416 0.466042 0.611040
v 0.107095 0.521223 1.018549
v 0.178971 0.385335 0.613961
v 0.199544 0.423747 1.021953
v 0.175996 0.274187 0.618090
v 0.195951 0.289490 1.026642
v -0.030375 0.168673 0.611442
v -0.015034 0.200768 0.588977
v 0.094390 0.197836 0.588975
v 0.107194 0.164990 0.611934
v -0.125004 0.268459 0.606936
v -0.090344 0.280160 0.586141
v -0.121285 0.405838 0.601060
v -0.087425 0.389509 0.582129
v -0.021457 0.500365 0.597251
v -0.007981 0.464761 0.579291
v 0.116040 0.496729 0.597736
v 0.101453 0.461828 0.579290
v 0.210720 0.397017 0.602238
v 0.176764 0.382427 0.582126
v 0.207074 0.259590 0.608121
v 0.173836 0.273080 0.586138
v -0.024567 0.200686 0.796892
v -0.037795 0.168609 0.773268
v 0.108920 0.164682 0.773921
v 0.096607 0.197442 0.797096
v -0.107924 0.288589 0.793360
v -0.138687 0.275019 0.768219
v -0.104652 0.409616 0.788571
v -0.134693 0.421487 0.761739
v -0.016704 0.492892 0.785330
v -0.028246 0.522259 0.757617
v 0.104419 0.489670 0.785530
v 0.118349 0.518400 0.758259
v 0.187800 0.401821 0.789060
v 0.219310 0.412111 0.763300
v 0.184580 0.280771 0.793852
v 0.215436 0.265576 0.769791
v 0.037223 0.501508 0.630731
v 0.037224 0.682186 0.663383
v 0.093416 0.508918 0.686433
v 0.037224 0.516327 0.742135
v -0.018969 0.508917 0.686432
v -0.124199 0.340912 0.635461
v -0.298853 0.349864 0.691376
v -0.121950 0.398987 0.689661
v -0.124199 0.344835 0.747779
v -0.126447 0.286759 0.693580
v 0.204570 0.334641 0.635680
v 0.204571 0.392762 0.689878
v 0.379365 0.336603 0.691839
v 0.204571 0.338564 0.747998
v 0.204570 0.280444 0.693800
v 0.037224 0.170298 0.641419
v 0.093417 0.172259 0.697578
v 0.037224 -0.002429 0.703678
v 0.037224 0.174220 0.753737
v -0.018969 0.172259 0.697578
vt 0.9945 0.0032
vt 0.9793 0.1323
vt 0.9784 0.0032
vt 0.8720 0.0032
vt 0.8873 0.1308
vt 0.8720 0.1318
vt 0.8880 0.0032
vt 0.9026 0.1303
vt 0.9032 0.0032
vt 0.9180 0.1305
vt 0.9180 0.0032
vt 0.9334 0.1312
vt 0.9476 0.0032
vt 0.9328 0.0032
vt 0.9627 0.0032
vt 0.9488 0.1321
vt 0.9641 0.1325
vt 0.7743 0.3015
vt 0.7845 0.3262
vt 0.7743 0.3220
vt 0.7990 0.3117
vt 0.7948 0.3220
vt 0.7948 0.3015
vt 0.9641 0.2117
vt 0.9339 0.2108
vt 0.9490 0.2113
vt 0.9186 0.2105
vt 0.9030 0.2105
vt 0.8874 0.2108
vt 0.8720 0.2114
vt 0.9945 0.2113
vt 0.9792 0.2117
vt 0.9334 0.2650
vt 0.9485 0.3163
vt 0.9328 0.3163
vt 0.9180 0.2653
vt 0.9174 0.3163
vt 0.9026 0.2655
vt 0.9022 0.3163
vt 0.8873 0.2657
vt 0.8871 0.3163
vt 0.8720 0.3163
vt 0.8720 0.2655
vt 0.9945 0.2660
vt 0.9795 0.3163
vt 0.9793 0.2656
vt 0.9641 0.3163
vt 0.9641 0.2652
vt 0.9488 0.2650
vt 0.7701 0.3117
vt 0.7845 0.2973
vt 0.8131 0.3140
vt 0.8393 0.2514
vt 0.8393 0.3140
vt 0.8573 0.2956
vt 0.7947 0.2698
vt 0.8131 0.2514
vt 0.6278 0.0045
vt 0.6430 0.0094
vt 0.6278 0.0094
vt 0.6125 0.0045
vt 0.6125 0.0094
vt 0.5971 0.0045
vt 0.5971 0.0094
vt 0.5817 0.0045
vt 0.5817 0.0094
vt 0.5664 0.0094
vt 0.6735 0.0094
vt 0.6889 0.0045
vt 0.6889 0.0094
vt 0.6582 0.0094
vt 0.6734 0.0045
vt 0.6581 0.0045
vt 0.6275 0.0268
vt 0.6429 0.0314
vt 0.6274 0.0314
vt 0.6121 0.0268
vt 0.6121 0.0314
vt 0.5969 0.0268
vt 0.5968 0.0314
vt 0.5817 0.0268
vt 0.5817 0.0314
vt 0.5664 0.0314
vt 0.6738 0.0314
vt 0.6889 0.0268
vt 0.6889 0.0314
vt 0.6584 0.0314
vt 0.6737 0.0268
vt 0.6584 0.0268
vt 0.6429 0.0268
vt 0.5664 0.0268
vt 0.9718 0.6017
vt 0.9718 0.6205
vt 0.9797 0.6017
vt 0.9811 0.6017
vt 0.9890 0.6205
vt 0.9890 0.6017
vt 0.9970 0.6017
vt 0.9638 0.6017
vt 0.9718 0.6238
vt 0.9718 0.6425
vt 0.9797 0.6238
vt 0.9811 0.6238
vt 0.9890 0.6425
vt 0.9890 0.6238
vt 0.9970 0.6238
vt 0.9638 0.6238
vt 0.9718 0.6671
vt 0.9797 0.6671
vt 0.9718 0.6858
vt 0.9811 0.6671
vt 0.9890 0.6671
vt 0.9890 0.6858
vt 0.9970 0.6671
vt 0.9638 0.6671
vt 0.9718 0.6451
vt 0.9797 0.6451
vt 0.9718 0.6639
vt 0.9811 0.6451
vt 0.9890 0.6451
vt 0.9890 0.6639
vt 0.9970 0.6451
vt 0.9638 0.6451
vt 0.9945 0.1314
vt 0.9945 0.3163
vt 0.8573 0.2698
vt 0.7947 0.2956
vt 0.6430 0.0045
vt 0.5664 0.0045
vn 0.7201 0.6922 -0.0470
vn 0.0268 0.9983 -0.0516
vn -0.6880 0.7248 -0.0375
vn -0.9995 0.0263 -0.0147
vn -0.7256 -0.6881 0.0029
vn -0.0306 -0.9995 0.0068
vn 0.6874 -0.7263 -0.0048
vn 0.9995 -0.0162 -0.0270
vn 0.0834 0.1526 -0.9848
vn 0.0833 0.1526 -0.9848
vn 0.6845 -0.7251 -0.0749
vn -0.0265 -0.9979 -0.0599
vn -0.7239 -0.6882 -0.0477
vn -0.9987 0.0253 -0.0454
vn -0.6876 0.7240 -0.0544
vn 0.0268 0.9972 -0.0695
vn 0.7245 0.6844 -0.0818
vn 0.9960 -0.0294 -0.0840
vn -0.0267 -0.9996 -0.0013
vn -0.7245 -0.6884 -0.0353
vn -0.9958 0.0236 -0.0883
vn -0.6842 0.7177 -0.1292
vn 0.0265 0.9906 -0.1344
vn 0.7236 0.6828 -0.1008
vn 0.9985 -0.0285 -0.0477
vn 0.6875 -0.7262 -0.0064
vn -0.0268 -0.9989 -0.0376
vn -0.7233 -0.6882 -0.0576
vn -0.9944 0.0227 -0.1036
vn -0.6829 0.7153 -0.1484
vn 0.0266 0.9858 -0.1659
vn 0.7202 0.6782 -0.1461
vn 0.9945 -0.0299 -0.1004
vn 0.6858 -0.7256 -0.0554
vn 0.0000 0.0349 0.9994
vn -0.0123 -0.5694 -0.8219
vn -0.3727 -0.3914 -0.8414
vn -0.4965 -0.0237 -0.8677
vn -0.3364 0.3195 -0.8859
vn 0.0152 0.4549 -0.8904
vn 0.3678 0.3097 -0.8768
vn 0.5249 -0.0503 -0.8497
vn 0.3723 -0.4263 -0.8244
vn -0.0171 -0.5883 0.8084
vn -0.4633 -0.4077 0.7869
vn -0.6549 0.0475 0.7542
vn -0.4557 0.5096 0.7298
vn 0.0171 0.6898 0.7238
vn 0.4707 0.4766 0.7425
vn 0.6301 0.0140 0.7764
vn 0.4232 -0.4155 0.8051
vn -0.0268 -0.9996 -0.0016
vn -0.7245 -0.6885 -0.0335
vn -0.9961 0.0234 -0.0854
vn -0.6845 0.7179 -0.1270
vn 0.0267 0.9906 -0.1341
vn 0.7236 0.6825 -0.1025
vn 0.9983 -0.0286 -0.0506
vn 0.6875 -0.7261 -0.0087
vn 0.6895 0.1288 -0.7127
vn 0.6895 0.3107 0.6543
vn -0.6895 0.3107 0.6543
vn -0.6895 0.1288 -0.7127
vn -0.1939 0.6733 -0.7134
vn -0.1939 0.7215 0.6647
vn -0.2491 -0.6556 0.7128
vn -0.2491 -0.7037 -0.6654
vn 0.2217 0.6650 -0.7132
vn 0.2217 0.7132 0.6650
vn 0.2217 -0.6650 0.7132
vn 0.2217 -0.7132 -0.6650
vn 0.6895 -0.2456 -0.6814
vn 0.6895 -0.1975 0.6968
vn -0.6895 -0.1975 0.6968
vn -0.6895 -0.2456 -0.6814
vn 0.7255 0.6865 -0.0476
vn 0.0341 0.9981 -0.0509
vn -0.6818 0.7306 -0.0369
vn -0.9996 0.0228 -0.0149
vn -0.7226 -0.6913 0.0025
vn -0.0267 -0.9996 0.0071
vn 0.6877 -0.7260 -0.0048
vn 0.9992 -0.0278 -0.0278
vn 0.6846 -0.7250 -0.0749
vn -0.0266 -0.9978 -0.0599
vn -0.9987 0.0252 -0.0453
vn -0.6877 0.7239 -0.0544
vn 0.0267 0.9972 -0.0695
vn 0.9960 -0.0298 -0.0840
vn -0.0268 -0.9996 -0.0013
vn -0.7244 -0.6885 -0.0353
vn -0.9958 0.0233 -0.0884
vn -0.6844 0.7176 -0.1293
vn 0.0266 0.9906 -0.1345
vn 0.9985 -0.0284 -0.0477
vn 0.6876 -0.7261 -0.0064
vn -0.0266 -0.9989 -0.0377
vn -0.7234 -0.6880 -0.0576
vn -0.9944 0.0232 -0.1035
vn -0.6825 0.7157 -0.1483
vn 0.0264 0.9858 -0.1659
vn 0.7204 0.6780 -0.1462
vn 0.9945 -0.0304 -0.1005
vn 0.6855 -0.7259 -0.0555
vn -0.0155 -0.5769 -0.8167
vn -0.3874 -0.3972 -0.8320
vn -0.5099 -0.0179 -0.8600
vn -0.3381 0.3236 -0.8838
vn 0.0124 0.4632 -0.8862
vn 0.3749 0.3246 -0.8684
vn 0.5382 -0.0453 -0.8416
vn 0.3759 -0.4279 -0.8219
vn -0.0192 -0.5822 0.8128
vn -0.4583 -0.3968 0.7953
vn -0.6454 0.0513 0.7621
vn -0.4531 0.5085 0.7322
vn 0.0148 0.6846 0.7288
vn 0.4601 0.4727 0.7516
vn 0.6204 0.0183 0.7841
vn 0.4220 -0.4125 0.8073
vn -0.7244 -0.6885 -0.0335
vn -0.9961 0.0233 -0.0855
vn -0.6845 0.7178 -0.1270
vn 0.7237 0.6825 -0.1026
vn 0.9983 -0.0287 -0.0506
vn 0.6875 -0.7262 -0.0087
s off
f 2/1/1 4/2/1 1/3/1
f 2/4/2 6/5/2 3/6/2
f 5/7/3 8/8/3 6/5/3
f 7/9/4 10/10/4 8/8/4
f 9/11/5 12/12/5 10/10/5
f 13/13/6 12/12/6 11/14/6
f 15/15/7 14/16/7 13/13/7
f 1/3/8 16/17/8 15/15/8
f 5/18/9 11/19/9 9/20/9
f 15/21/10 13/22/10 1/23/10
f 17/24/11 14/16/11 16/17/11
f 19/25/12 14/16/12 18/26/12
f 20/27/13 12/12/13 19/25/13
f 21/28/14 10/10/14 20/27/14
f 22/29/15 8/8/15 21/28/15
f 3/6/16 22/29/16 23/30/16
f 4/2/17 23/31/17 24/32/17
f 16/17/18 24/32/18 17/24/18
f 25/33/19 27/34/19 28/35/19
f 29/36/20 28/35/20 30/37/20
f 31/38/21 30/37/21 32/39/21
f 33/40/22 32/39/22 34/41/22
f 33/40/23 36/42/23 35/43/23
f 35/44/24 38/45/24 37/46/24
f 37/46/25 40/47/25 39/48/25
f 39/48/26 27/34/26 26/49/26
f 19/25/27 26/49/27 25/33/27
f 20/27/28 25/33/28 29/36/28
f 21/28/29 29/36/29 31/38/29
f 22/29/30 31/38/30 33/40/30
f 22/29/31 35/43/31 23/30/31
f 23/31/32 37/46/32 24/32/32
f 24/32/33 39/48/33 17/24/33
f 17/24/34 26/49/34 18/26/34
f 9/20/10 7/50/10 5/18/10
f 1/23/9 11/19/9 2/51/9
f 34/52/35 27/53/35 36/54/35
f 27/53/35 38/55/35 36/54/35
f 34/52/35 30/56/35 28/57/35
f 42/58/36 44/59/36 41/60/36
f 46/61/37 41/60/37 45/62/37
f 48/63/38 45/62/38 47/64/38
f 50/65/39 47/64/39 49/66/39
f 51/67/40 50/65/40 49/66/40
f 53/68/41 52/69/41 51/70/41
f 55/71/42 54/72/42 53/68/42
f 44/59/43 56/73/43 55/71/43
f 58/74/44 60/75/44 57/76/44
f 62/77/45 57/76/45 61/78/45
f 64/79/46 61/78/46 63/80/46
f 66/81/47 63/80/47 65/82/47
f 67/83/48 66/81/48 65/82/48
f 69/84/49 68/85/49 67/86/49
f 71/87/50 70/88/50 69/84/50
f 60/75/51 72/89/51 71/87/51
f 41/60/52 59/90/52 58/74/52
f 45/62/53 58/74/53 62/77/53
f 47/64/54 62/77/54 64/79/54
f 49/66/55 64/79/55 66/81/55
f 68/91/56 49/66/56 66/81/56
f 70/88/57 51/70/57 68/85/57
f 72/89/58 53/68/58 70/88/58
f 59/90/59 55/71/59 72/89/59
f 73/92/60 74/93/60 75/94/60
f 75/95/61 74/96/61 76/97/61
f 76/97/62 74/96/62 77/98/62
f 77/99/63 74/93/63 73/92/63
f 78/100/64 79/101/64 80/102/64
f 80/103/65 79/104/65 81/105/65
f 81/105/66 79/104/66 82/106/66
f 82/107/67 79/101/67 78/100/67
f 83/108/68 84/109/68 85/110/68
f 84/111/69 86/112/69 85/113/69
f 86/112/70 87/114/70 85/113/70
f 87/115/71 83/108/71 85/110/71
f 88/116/72 89/117/72 90/118/72
f 89/119/73 91/120/73 90/121/73
f 91/120/74 92/122/74 90/121/74
f 92/123/75 88/116/75 90/118/75
f 2/1/76 3/124/76 4/2/76
f 2/4/77 5/7/77 6/5/77
f 5/7/78 7/9/78 8/8/78
f 7/9/79 9/11/79 10/10/79
f 9/11/80 11/14/80 12/12/80
f 13/13/81 14/16/81 12/12/81
f 15/15/82 16/17/82 14/16/82
f 1/3/83 4/2/83 16/17/83
f 5/18/10 2/51/10 11/19/10
f 17/24/84 18/26/84 14/16/84
f 19/25/85 12/12/85 14/16/85
f 20/27/13 10/10/13 12/12/13
f 21/28/86 8/8/86 10/10/86
f 22/29/87 6/5/87 8/8/87
f 3/6/88 6/5/88 22/29/88
f 4/2/17 3/124/17 23/31/17
f 16/17/89 4/2/89 24/32/89
f 25/33/90 26/49/90 27/34/90
f 29/36/91 25/33/91 28/35/91
f 31/38/92 29/36/92 30/37/92
f 33/40/93 31/38/93 32/39/93
f 33/40/94 34/41/94 36/42/94
f 35/44/24 36/125/24 38/45/24
f 37/46/95 38/45/95 40/47/95
f 39/48/96 40/47/96 27/34/96
f 19/25/97 18/26/97 26/49/97
f 20/27/98 19/25/98 25/33/98
f 21/28/99 20/27/99 29/36/99
f 22/29/100 21/28/100 31/38/100
f 22/29/101 33/40/101 35/43/101
f 23/31/102 35/44/102 37/46/102
f 24/32/103 37/46/103 39/48/103
f 17/24/104 39/48/104 26/49/104
f 1/23/9 13/22/9 11/19/9
f 34/52/35 28/57/35 27/53/35
f 27/53/35 40/126/35 38/55/35
f 34/52/35 32/127/35 30/56/35
f 42/58/105 43/128/105 44/59/105
f 46/61/106 42/58/106 41/60/106
f 48/63/107 46/61/107 45/62/107
f 50/65/108 48/63/108 47/64/108
f 51/67/109 52/129/109 50/65/109
f 53/68/110 54/72/110 52/69/110
f 55/71/111 56/73/111 54/72/111
f 44/59/112 43/128/112 56/73/112
f 58/74/113 59/90/113 60/75/113
f 62/77/114 58/74/114 57/76/114
f 64/79/115 62/77/115 61/78/115
f 66/81/116 64/79/116 63/80/116
f 67/83/117 68/91/117 66/81/117
f 69/84/118 70/88/118 68/85/118
f 71/87/119 72/89/119 70/88/119
f 60/75/120 59/90/120 72/89/120
f 41/60/52 44/59/52 59/90/52
f 45/62/121 41/60/121 58/74/121
f 47/64/122 45/62/122 62/77/122
f 49/66/123 47/64/123 64/79/123
f 68/91/56 51/67/56 49/66/56
f 70/88/124 53/68/124 51/70/124
f 72/89/125 55/71/125 53/68/125
f 59/90/126 44/59/126 55/71/126
