# Blender v2.77 (sub 0) OBJ File: ''
# www.blender.org
v 2.188693 -0.502882 0.415076
v 2.180791 -0.502882 -0.386933
v 2.065705 0.690962 -0.268439
v 2.071294 0.690962 0.298831
v 1.762943 0.690962 0.301817
v 1.757354 0.690962 -0.265453
v 1.861765 -0.502882 -0.383844
v 1.869666 -0.502882 0.418165
v 2.288368 -0.743014 0.938487
v 2.279227 -0.743014 0.010722
v 2.230418 -0.343878 0.010953
v 2.239043 -0.491234 0.886431
v 1.776095 -0.343878 0.015351
v 1.784720 -0.491234 0.890830
v 1.735530 -0.743014 0.015985
v 1.744670 -0.743014 0.943751
v 2.269499 -0.743014 -0.976762
v 1.725800 -0.743014 -0.971498
v 1.766955 -0.491234 -0.912294
v 2.221278 -0.491234 -0.916692
v -1.584182 -0.502882 -0.415076
v -1.576281 -0.502882 0.386933
v -1.461195 0.690962 0.268439
v -1.466783 0.690962 -0.298831
v -1.158432 0.690962 -0.301816
v -1.152844 0.690962 0.265454
v -1.257255 -0.502882 0.383844
v -1.265156 -0.502882 -0.418165
v -1.683857 -0.743014 -0.938487
v -1.674717 -0.743014 -0.010722
v -1.625908 -0.343878 -0.010952
v -1.634533 -0.491234 -0.886431
v -1.171584 -0.343878 -0.015351
v -1.180210 -0.491234 -0.890830
v -1.131019 -0.743014 -0.015985
v -1.140160 -0.743014 -0.943751
v -1.664988 -0.743014 0.976762
v -1.121291 -0.743014 0.971498
v -1.162445 -0.491234 0.912294
v -1.616768 -0.491234 0.916692
v -1.759197 -0.038863 -0.197130
v -1.755179 -0.038863 0.210735
v -1.699495 0.250372 0.210196
v -1.703514 0.250372 -0.197669
v 2.333226 0.250372 0.171153
v 2.329207 0.250372 -0.236712
v 2.377976 -0.038863 0.170719
v 2.373958 -0.038863 -0.237146
v -1.736591 0.661327 -1.019756
v -1.716342 0.661327 1.035564
v -1.668713 0.979587 1.035103
v -1.712257 0.979587 -1.019992
v 2.334296 0.979587 0.996347
v 2.314046 0.979587 -1.058973
v 2.334296 0.661327 0.996347
v 2.314046 0.661327 -1.058973
vt 0.2196 0.5773
vt 0.3217 0.4208
vt 0.3383 0.5773
vt 0.2378 0.4208
vt 0.3383 0.5773
vt 0.2196 0.5773
vt 0.1741 0.5662
vt 0.2378 0.4208
vt 0.3840 0.5673
vt 0.3659 0.4116
vt 0.0080 0.5659
vt 0.1400 0.5139
vt 0.1530 0.5475
vt 0.0080 0.5139
vt 0.1400 0.4473
vt 0.0080 0.3973
vt 0.1509 0.4120
vt 0.1729 0.4398
vt 0.1400 0.5139
vt 0.1729 0.5206
vt 0.1729 0.4398
vt 0.0080 0.4473
vt 0.1400 0.4473
vt 0.1509 0.4120
vt 0.2196 0.5773
vt 0.3217 0.4208
vt 0.3383 0.5773
vt 0.2378 0.4208
vt 0.3383 0.5773
vt 0.2196 0.5773
vt 0.1741 0.5662
vt 0.2378 0.4208
vt 0.3840 0.5673
vt 0.3659 0.4116
vt 0.0080 0.5659
vt 0.1400 0.5139
vt 0.1530 0.5475
vt 0.0080 0.5139
vt 0.1400 0.4473
vt 0.0080 0.3973
vt 0.1509 0.4120
vt 0.1729 0.4398
vt 0.1400 0.5139
vt 0.1729 0.5206
vt 0.1729 0.4398
vt 0.0080 0.4473
vt 0.1400 0.4473
vt 0.1509 0.4120
vt 0.3827 0.4611
vt 0.4188 0.4051
vt 0.3827 0.4051
vt 0.4188 0.4611
vt 0.9534 0.4051
vt 0.9534 0.4611
vt 0.9888 0.4051
vt 0.4188 0.4611
vt 0.9534 0.4051
vt 0.9534 0.4611
vt 0.9534 0.4960
vt 0.4188 0.4960
vt 0.9534 0.4960
vt 0.4188 0.4960
vt 0.3115 0.0507
vt 0.3494 0.3555
vt 0.3115 0.3555
vt 0.3494 0.0507
vt 0.9425 0.3555
vt 0.9840 0.0507
vt 0.9840 0.3555
vt 0.9425 0.0507
vt 0.3494 0.3555
vt 0.3494 0.0507
vt 0.9425 0.0095
vt 0.3494 0.0095
vt 0.9425 0.3953
vt 0.3217 0.4208
vt 0.1938 0.4107
vt 0.1729 0.5206
vt 0.1530 0.5475
vt 0.3217 0.4208
vt 0.1938 0.4107
vt 0.1729 0.5206
vt 0.1530 0.5475
vt 0.9888 0.4611
vt 0.4188 0.4051
vt 0.9425 0.0507
vt 0.9425 0.3555
vt 0.3494 0.3953
vn 0.9952 0.0969 -0.0098
vn -0.9961 -0.0881 0.0098
vn -0.0096 0.0978 -0.9952
vn 0.0096 0.0978 0.9952
vn 0.9910 0.1336 -0.0094
vn 0.9847 0.1744 -0.0050
vn 0.9817 0.1903 -0.0097
vn 0.0000 1.0000 0.0046
vn 0.0016 0.9861 0.1660
vn -0.9892 0.1457 0.0137
vn -0.9937 0.1113 0.0101
vn -0.9872 0.1591 0.0097
vn -0.0094 0.2303 -0.9731
vn 0.0095 0.2042 0.9789
vn 0.9844 0.1754 -0.0139
vn 0.9926 0.1214 -0.0093
vn -0.0015 0.9876 -0.1569
vn -0.9892 0.1465 0.0063
vn -0.9952 0.0969 0.0098
vn 0.9961 -0.0881 -0.0098
vn -0.9910 0.1336 0.0094
vn -0.9847 0.1744 0.0050
vn -0.9817 0.1903 0.0097
vn -0.0000 1.0000 -0.0046
vn -0.0016 0.9861 -0.1660
vn 0.9892 0.1457 -0.0137
vn 0.9937 0.1113 -0.0101
vn 0.9872 0.1591 -0.0097
vn 0.0094 0.2303 0.9731
vn -0.0095 0.2042 -0.9789
vn -0.9844 0.1754 0.0139
vn -0.9926 0.1214 0.0093
vn 0.0015 0.9876 0.1569
vn 0.9892 0.1465 -0.0063
vn -0.9819 0.1891 0.0097
vn 0.0000 1.0000 0.0000
vn 0.9882 0.1529 -0.0097
vn 0.0000 -1.0000 -0.0000
vn 0.0097 -0.0000 1.0000
vn -0.0097 0.0000 -1.0000
vn -0.9898 0.1410 0.0199
vn -0.9965 0.0834 0.0109
vn -0.9970 0.0762 0.0098
vn 1.0000 0.0000 -0.0099
vn -0.9948 0.1011 0.0102
vn 0.9948 0.1011 -0.0102
vn -0.9888 0.1480 0.0209
s 1
f 2/1/1 4/2/1 1/3/1
f 5/4/2 7/5/2 8/6/2
f 7/7/3 3/8/3 2/1/3
f 8/9/4 4/2/4 5/10/4
f 10/11/5 12/12/6 9/13/7
f 11/14/8 14/15/9 12/12/9
f 14/15/10 15/16/11 16/17/12
f 18/18/13 20/19/13 17/20/13
f 16/21/14 12/12/14 14/15/14
f 10/11/5 20/19/15 11/14/16
f 13/22/8 20/19/17 19/23/17
f 15/16/11 19/23/18 18/24/12
f 22/25/19 24/26/19 21/27/19
f 25/28/20 27/29/20 28/30/20
f 27/31/4 23/32/4 22/25/4
f 28/33/3 24/26/3 25/34/3
f 30/35/21 32/36/22 29/37/23
f 31/38/24 34/39/25 32/36/25
f 34/39/26 35/40/27 36/41/28
f 38/42/29 40/43/29 37/44/29
f 36/45/30 32/36/30 34/39/30
f 30/35/21 40/43/31 31/38/32
f 33/46/24 40/43/33 39/47/33
f 35/40/27 39/47/34 38/48/28
f 42/49/35 44/50/35 41/51/35
f 43/52/36 46/53/36 44/50/36
f 45/54/37 48/55/37 46/53/37
f 48/56/38 42/57/38 41/58/38
f 47/59/39 43/52/39 42/60/39
f 48/56/40 44/61/40 46/62/40
f 50/63/41 52/64/42 49/65/43
f 51/66/36 54/67/36 52/64/36
f 54/67/44 55/68/44 56/69/44
f 56/70/38 50/71/38 49/72/38
f 55/73/39 51/66/39 50/74/39
f 56/75/40 52/64/40 54/67/40
f 2/1/1 3/8/1 4/2/1
f 5/4/2 6/76/2 7/5/2
f 7/7/3 6/77/3 3/8/3
f 8/9/4 1/3/4 4/2/4
f 10/11/5 11/14/16 12/12/6
f 11/14/8 13/22/8 14/15/9
f 14/15/10 13/22/45 15/16/11
f 18/18/13 19/23/13 20/19/13
f 16/21/14 9/78/14 12/12/14
f 10/11/5 17/79/7 20/19/15
f 13/22/8 11/14/8 20/19/17
f 15/16/11 13/22/45 19/23/18
f 22/25/19 23/32/19 24/26/19
f 25/28/20 26/80/20 27/29/20
f 27/31/4 26/81/4 23/32/4
f 28/33/3 21/27/3 24/26/3
f 30/35/21 31/38/32 32/36/22
f 31/38/24 33/46/24 34/39/25
f 34/39/26 33/46/46 35/40/27
f 38/42/29 39/47/29 40/43/29
f 36/45/30 29/82/30 32/36/30
f 30/35/21 37/83/23 40/43/31
f 33/46/24 31/38/24 40/43/33
f 35/40/27 33/46/46 39/47/34
f 42/49/35 43/52/35 44/50/35
f 43/52/36 45/54/36 46/53/36
f 45/54/37 47/84/37 48/55/37
f 48/56/38 47/85/38 42/57/38
f 47/59/39 45/54/39 43/52/39
f 48/56/40 41/58/40 44/61/40
f 50/63/41 51/66/47 52/64/42
f 51/66/36 53/86/36 54/67/36
f 54/67/44 53/86/44 55/68/44
f 56/70/38 55/87/38 50/71/38
f 55/73/39 53/86/39 51/66/39
f 56/75/40 49/88/40 52/64/40
