# Blender v2.77 (sub 0) OBJ File: 'flag.blend'
# www.blender.org
v -0.262749 -1.251854 0.000187
v 0.469559 -1.229459 -0.033875
v -0.271553 -0.775782 -0.006184
v 0.469559 -0.747524 -0.020359
v -0.267494 0.604975 0.004833
v 0.469551 0.604976 0.004833
v -0.267494 0.846325 0.004169
v 0.469551 0.846325 0.004169
v -0.267494 0.766480 0.034721
v 0.469551 0.766480 0.034721
v -0.267494 0.844767 0.009007
v 0.469551 0.844766 0.009007
v 0.116547 0.846325 0.004169
v 0.116547 0.844766 0.009007
v 0.116547 0.766481 0.034721
v 0.116547 0.604975 0.004833
v 0.116539 -0.748161 -0.013508
v 0.116539 -1.511096 -0.017345
v -0.496437 0.842336 0.006744
v -0.362999 0.769217 -0.012489
v -0.362999 0.770559 0.030502
v 0.690613 0.842336 0.007748
v 0.557182 0.769217 0.026985
v 0.557182 0.770559 -0.016006
v 0.615486 0.716881 0.025349
v 0.615486 0.718223 -0.017643
v 0.723503 0.775878 0.005676
v -0.263428 -1.253808 -0.022514
v 0.469559 -1.227350 -0.056572
v -0.272232 -0.777736 -0.028881
v 0.469566 -0.745415 -0.043053
v -0.267487 0.609130 -0.017574
v 0.469559 0.609130 -0.017570
v -0.267487 0.846015 0.005383
v 0.469559 0.846015 0.005383
v -0.267487 0.783332 -0.030285
v 0.469559 0.783332 -0.030285
v -0.267487 0.847001 0.000401
v 0.469559 0.847001 0.000401
v 0.116547 0.846015 0.005383
v 0.116547 0.847001 0.000401
v 0.116547 0.783332 -0.030285
v 0.116547 0.609130 -0.017574
v 0.116547 -0.746052 -0.036205
v 0.116547 -1.508987 -0.040043
v -0.421303 0.716881 -0.010857
v -0.421303 0.718223 0.032139
v -0.529320 0.775878 0.008820
vt 0.4735 0.9466
vt 0.4735 0.8922
vt 0.5425 0.8922
vt 0.5425 0.8916
vt 0.5803 0.9467
vt 0.2834 0.9466
vt 0.2834 0.8915
vt 0.4735 0.8916
vt 0.2596 0.9466
vt 0.2596 0.8915
vt 0.2596 0.9972
vt 0.2488 0.9972
vt 0.2488 0.9466
vt 0.2416 0.9972
vt 0.2416 0.9466
vt 0.5425 0.9973
vt 0.4735 0.9973
vt 0.2834 0.9972
vt 0.2488 0.8915
vt 0.2416 0.8915
vt 0.9121 0.8740
vt 0.9126 0.6287
vt 0.9252 0.6281
vt 0.9258 0.8947
vt 0.9047 0.8727
vt 0.9053 0.6284
vt 0.9392 0.8738
vt 0.9382 0.6281
vt 0.9068 0.8872
vt 0.8965 0.9058
vt 0.9001 0.8847
vt 0.9260 0.9022
vt 0.9454 0.8869
vt 0.5425 0.8922
vt 0.4735 0.8922
vt 0.4735 0.9466
vt 0.5803 0.9467
vt 0.5425 0.8916
vt 0.4735 0.8916
vt 0.2834 0.8915
vt 0.2834 0.9466
vt 0.2596 0.8915
vt 0.2596 0.9466
vt 0.2488 0.9972
vt 0.2596 0.9972
vt 0.2488 0.9466
vt 0.2416 0.9972
vt 0.2416 0.9466
vt 0.5425 0.9973
vt 0.4735 0.9973
vt 0.2834 0.9972
vt 0.2488 0.8915
vt 0.2416 0.8915
vt 0.9068 0.8872
vt 0.8965 0.9058
vt 0.9001 0.8847
vt 0.9047 0.8727
vt 0.9121 0.8740
vt 0.9260 0.9022
vt 0.9258 0.8947
vt 0.9454 0.8869
vt 0.9392 0.8738
vn 0.0249 -0.0103 0.9996
vn 0.0171 0.0011 0.9999
vn 0.0352 0.0007 0.9994
vn 0.0466 -0.0050 0.9989
vn 0.0017 -0.0980 0.9952
vn 0.0000 -0.0953 0.9955
vn 0.0000 0.0671 0.9977
vn 0.0000 0.7091 0.7051
vn -0.0000 0.9518 0.3067
vn 0.0419 -0.0115 0.9991
vn 0.0179 -0.0212 0.9996
vn -0.0000 -0.1006 0.9949
vn 0.0000 0.9518 0.3066
vn 0.0007 0.3111 -0.9504
vn -0.0041 0.2474 -0.9689
vn -0.0034 0.2566 -0.9665
vn 0.0008 0.3128 -0.9498
vn -0.0015 -0.9996 -0.0293
vn -0.0016 -0.9995 -0.0312
vn 0.0015 -0.9996 0.0294
vn 0.0016 -0.9995 0.0312
vn -0.0007 0.2576 0.9662
vn -0.0008 0.2558 0.9667
vn 0.0034 0.3121 0.9500
vn 0.0041 0.3211 0.9470
vn 0.4753 -0.8794 -0.0275
vn -0.6682 -0.7436 -0.0232
vn 0.1222 0.1667 -0.9784
vn 0.1258 0.0930 -0.9877
vn 0.1547 0.0458 0.9869
vn 0.0993 0.0797 0.9919
vn -0.0351 -0.0007 -0.9994
vn -0.0171 -0.0011 -0.9999
vn -0.0249 0.0104 -0.9996
vn -0.0466 0.0050 -0.9989
vn -0.0000 -0.0323 -0.9995
vn -0.0017 -0.0296 -0.9996
vn 0.0000 0.1870 -0.9824
vn -0.0000 0.8947 -0.4468
vn 0.0000 0.8946 -0.4468
vn -0.0000 0.9810 0.1942
vn 0.0000 0.9810 0.1940
vn -0.0419 0.0115 -0.9991
vn -0.0179 0.0213 -0.9996
vn 0.0000 -0.0270 -0.9996
vn 0.0000 0.8947 -0.4467
vn -0.4753 -0.8794 0.0275
vn 0.6682 -0.7436 0.0232
vn -0.1222 0.1667 0.9784
vn -0.1258 0.0931 0.9877
vn -0.1548 0.0458 -0.9869
vn -0.0993 0.0797 -0.9919
s 1
f 17/1/1 3/2/2 1/3/3
f 1/4/3 18/5/4 17/1/1
f 16/6/5 5/7/6 3/8/2
f 3/8/2 17/1/1 16/6/5
f 15/9/7 9/10/7 5/7/6
f 5/7/6 16/6/5 15/9/7
f 15/9/7 10/11/7 12/12/8
f 12/12/8 14/13/8 15/9/7
f 14/13/8 12/12/8 8/14/9
f 8/14/9 13/15/9 14/13/8
f 17/1/1 18/5/4 2/16/10
f 2/16/10 4/17/11 17/1/1
f 16/6/5 17/1/1 4/17/11
f 4/17/11 6/18/12 16/6/5
f 15/9/7 16/6/5 6/18/12
f 6/18/12 10/11/7 15/9/7
f 15/9/7 14/13/8 11/19/8
f 11/19/8 9/10/7 15/9/7
f 14/13/8 13/15/9 7/20/13
f 7/20/13 11/19/8 14/13/8
f 24/21/14 20/22/15 19/23/16
f 19/23/16 22/24/17 24/21/14
f 24/21/18 23/25/19 21/26/20
f 21/26/20 20/22/21 24/21/18
f 23/27/22 22/24/23 19/23/24
f 19/23/24 21/28/25 23/27/22
f 26/29/26 27/30/26 25/31/26
f 26/29/27 25/31/27 23/25/27
f 23/25/27 24/21/27 26/29/27
f 27/32/28 26/29/28 24/21/28
f 24/21/29 22/24/29 27/32/29
f 25/33/30 27/32/30 22/24/30
f 22/24/31 23/27/31 25/33/31
f 28/34/32 30/35/33 44/36/34
f 44/36/34 45/37/35 28/38/32
f 30/39/33 32/40/36 43/41/37
f 43/41/37 44/36/34 30/39/33
f 32/40/36 36/42/38 42/43/38
f 42/43/38 43/41/37 32/40/36
f 39/44/39 37/45/38 42/43/38
f 42/43/38 41/46/40 39/44/39
f 35/47/41 39/44/39 41/46/40
f 41/46/40 40/48/42 35/47/41
f 29/49/43 45/37/35 44/36/34
f 44/36/34 31/50/44 29/49/43
f 31/50/44 44/36/34 43/41/37
f 43/41/37 33/51/45 31/50/44
f 33/51/45 43/41/37 42/43/38
f 42/43/38 37/45/38 33/51/45
f 38/52/46 41/46/40 42/43/38
f 42/43/38 36/42/38 38/52/46
f 34/53/41 40/48/42 41/46/40
f 41/46/40 38/52/46 34/53/41
f 47/54/47 48/55/47 46/56/47
f 47/54/48 46/56/48 20/57/48
f 20/57/48 21/58/48 47/54/48
f 48/59/49 47/54/49 21/58/49
f 21/58/50 19/60/50 48/59/50
f 46/61/51 48/59/51 19/60/51
f 19/60/52 20/62/52 46/61/52
