# Blender v2.77 (sub 0) OBJ File: 'foot.blend'
# www.blender.org
v -1.337672 -0.407528 0.505920
v -1.337672 0.536112 0.505920
v -1.337672 -0.407528 -0.523824
v -1.337672 0.536112 -0.523824
v -0.527970 -0.407528 0.505920
v -0.527970 0.536112 0.505920
v -0.527970 -0.407528 -0.523824
v -0.527970 0.536112 -0.523824
v 1.472460 -0.409868 -0.524819
v 1.472460 -0.409868 0.505140
v -0.527540 -0.409868 0.505140
v -0.527539 -0.409868 -0.524819
v 1.472461 0.112236 -0.524818
v 1.472460 0.112236 0.505141
v -0.527540 0.535169 0.505140
v -0.527540 0.535169 -0.524819
vt 0.9810 0.7403
vt 0.7466 0.4887
vt 0.9810 0.4887
vt 0.4570 0.7403
vt 0.2559 0.9709
vt 0.2559 0.7403
vt 0.5118 0.0000
vt 0.2559 0.4887
vt 0.2559 0.0000
vt 0.0000 1.0000
vt 0.1297 0.7484
vt 0.1297 1.0000
vt 0.8516 0.4887
vt 0.9813 0.0000
vt 0.9813 0.4887
vt 0.7466 0.7403
vt 0.4570 0.9709
vt 0.5118 0.4887
vt 0.0000 0.7484
vt 0.7466 0.0000
vt 0.0000 0.4968
vt 0.2344 0.7484
vt 0.0000 0.7484
vt 0.9466 0.7403
vt 0.7455 0.9708
vt 0.7455 0.7403
vt 0.5454 0.4887
vt 0.5454 0.7403
vt 0.7455 0.9919
vt 0.5454 0.9919
vt 0.2559 0.4968
vt 0.0000 0.0000
vt 0.2559 0.0000
vt 0.4907 0.7403
vt 0.2559 0.4887
vt 0.4907 0.4887
vt 0.6168 0.0000
vt 0.7466 0.4887
vt 0.5118 0.4887
vt 0.2344 0.4968
vt 0.9466 0.9708
vt 0.5454 0.7403
vt 0.7455 0.7403
vt 0.0000 0.4968
vt 0.2559 0.7403
vt 0.7466 0.0000
vn -1.0000 0.0000 0.0000
vn 0.0000 0.0000 -1.0000
vn 0.0000 -1.0000 0.0000
vn 1.0000 -0.0000 0.0000
vn -0.0000 -0.0000 1.0000
vn 0.0000 1.0000 0.0000
vn 0.2069 0.9784 0.0000
s off
f 4/1/1 1/2/1 2/3/1
f 8/4/2 3/5/2 4/6/2
f 10/7/3 12/8/3 9/9/3
f 13/10/4 10/11/4 9/12/4
f 14/13/5 11/14/5 10/15/5
f 4/1/1 3/16/1 1/2/1
f 8/4/2 7/17/2 3/5/2
f 10/7/3 11/18/3 12/8/3
f 13/10/4 14/19/4 10/11/4
f 14/13/5 15/20/5 11/14/5
f 6/21/4 7/22/4 8/23/4
f 2/24/5 5/25/5 6/26/5
f 3/16/3 5/27/3 1/2/3
f 8/28/6 2/29/6 6/30/6
f 16/31/7 14/32/7 13/33/7
f 11/34/1 16/35/1 12/36/1
f 13/37/2 12/38/2 16/39/2
f 6/21/4 5/40/4 7/22/4
f 2/24/5 1/41/5 5/25/5
f 3/16/3 7/42/3 5/27/3
f 8/28/6 4/43/6 2/29/6
f 16/31/7 15/44/7 14/32/7
f 11/34/1 15/45/1 16/35/1
f 13/37/2 9/46/2 12/38/2
