# Blender v2.77 (sub 0) OBJ File: 'footv2.blend'
# www.blender.org
v 0.221643 -0.272328 -0.193679
v 0.319724 -0.264417 0.998966
v -0.411088 -0.264417 1.000756
v -0.324435 -0.272328 -0.192342
v 0.221643 0.273914 -0.193679
v 0.319724 0.121508 0.998730
v -0.411089 0.121508 1.000521
v -0.324435 0.273914 -0.192341
v -0.252757 0.167061 1.000105
v -0.251588 0.167351 1.477134
v -0.045682 0.121508 0.999626
v -0.093257 0.121799 1.476774
v -0.044995 0.002251 0.999696
v -0.066137 0.002541 1.560681
v -0.044994 -0.145160 0.999786
v -0.066137 -0.144869 1.560771
v -0.045682 -0.264417 0.999861
v -0.093147 -0.264127 1.521402
v -0.252757 -0.262484 1.000396
v -0.251479 -0.262194 1.521817
v -0.409811 -0.264126 1.522178
v -0.436627 -0.145160 1.000746
v -0.435252 -0.144869 1.561675
v -0.436627 0.002251 1.000656
v -0.435253 0.002541 1.561586
v -0.409920 0.121799 1.477550
v 0.161392 0.167061 0.999090
v 0.162561 0.167351 1.476119
v 0.320893 0.121799 1.475759
v 0.346638 0.002251 0.998737
v 0.348012 0.002541 1.559667
v 0.346638 -0.145160 0.998827
v 0.348012 -0.144869 1.559756
v 0.321002 -0.264127 1.520387
v 0.161393 -0.262484 0.999381
v 0.162670 -0.262194 1.520802
v 0.004339 -0.264126 1.521163
v -0.021103 -0.144869 1.560661
v -0.021103 0.002541 1.560571
v 0.004230 0.121799 1.476535
v 0.099024 0.318756 -0.193379
v -0.200137 0.318756 -0.192646
v -0.081665 0.361819 -0.192936
v -0.017959 0.361819 -0.193092
v 0.374899 -0.258663 0.573922
v -0.475590 -0.258663 0.576006
v 0.374899 0.185328 0.573923
v -0.475590 0.185328 0.576006
v 0.183926 0.199419 0.574390
v -0.282003 0.199419 0.575532
v -0.097488 0.215911 0.575080
v 0.001732 0.215911 0.574837
v 0.299943 0.069877 -0.193871
v -0.402735 0.069877 -0.192150
v -0.475590 0.036439 0.576006
v 0.374899 0.036439 0.573922
v -0.475590 -0.141729 0.576006
v 0.374899 -0.141729 0.573922
v 0.299943 -0.174285 -0.193871
v -0.402735 -0.174285 -0.192150
v -0.044201 -0.264417 0.999857
v -0.048844 0.361819 -0.193016
v -0.046371 0.215911 0.574955
v -0.094761 0.130243 0.939219
v 0.002930 0.129814 0.956593
v -0.052107 -0.276343 -0.626462
v -0.052219 0.361717 -0.656981
v 0.123166 -0.276343 -0.546840
v 0.163564 0.361717 -0.540595
v -0.226987 -0.276343 -0.545982
v -0.267428 0.361717 -0.539540
v -0.052219 0.068209 -0.656981
v 0.163564 0.068209 -0.540595
v -0.267428 0.068209 -0.539540
v 0.163564 -0.179208 -0.540595
v -0.267428 -0.179208 -0.539540
v -0.052219 -0.179208 -0.656981
v -0.007333 -0.276343 -0.611271
v -0.002474 0.361717 -0.640102
v -0.002474 0.068209 -0.640102
v -0.002474 -0.179208 -0.640102
v -0.095119 -0.276343 -0.611633
v -0.100007 0.361717 -0.640505
v -0.100007 0.068209 -0.640505
v -0.100007 -0.179208 -0.640505
vt 0.6144 0.7883
vt 0.6649 0.8945
vt 0.6035 0.8873
vt 0.1797 0.2226
vt 0.1316 0.1305
vt 0.1985 0.1280
vt 0.8624 0.0996
vt 0.7191 0.1881
vt 0.7191 0.0996
vt 0.6236 0.2217
vt 0.5567 0.3996
vt 0.5398 0.2206
vt 0.5421 1.0000
vt 0.5232 0.8945
vt 0.9551 0.7502
vt 0.8568 0.8212
vt 0.8568 0.7496
vt 0.9746 0.8216
vt 0.8568 0.9098
vt 0.9646 0.9820
vt 0.8568 0.9814
vt 0.3715 0.0100
vt 0.4379 0.1265
vt 0.3705 0.1275
vt 0.5219 0.0011
vt 0.5209 0.1275
vt 0.9281 0.7496
vt 0.8568 0.6500
vt 1.0000 0.6500
vt 0.5887 0.0227
vt 0.5877 0.1303
vt 0.6649 1.0000
vt 0.4428 0.9928
vt 0.3814 0.8945
vt 0.4428 0.8873
vt 0.1307 0.0224
vt 0.1974 0.0009
vt 0.2815 0.1271
vt 0.3479 0.0099
vt 0.3488 0.1280
vt 0.1853 0.9829
vt 0.2467 0.8634
vt 0.2467 0.9829
vt 0.0246 0.9829
vt 0.0246 0.8634
vt 0.0861 0.8634
vt 0.8725 0.2326
vt 0.9793 0.1602
vt 0.9793 0.2318
vt 0.8624 0.0722
vt 0.9793 0.0716
vt 0.7910 0.0000
vt 0.8819 0.0007
vt 0.9793 0.0000
vt 0.5042 1.0000
vt 0.4337 0.7883
vt 0.3596 0.7905
vt 0.5421 0.8798
vt 0.5043 0.7857
vt 0.5043 0.8837
vt 0.4659 0.5996
vt 0.5360 0.5928
vt 0.5230 0.7857
vt 0.5232 0.5928
vt 0.5819 0.5996
vt 0.5428 0.7857
vt 0.4183 0.6066
vt 0.1626 0.4014
vt 0.0958 0.2235
vt 0.6302 0.6066
vt 0.3001 0.3998
vt 0.2800 0.2214
vt 0.4395 0.2194
vt 0.4192 0.3979
vt 0.3458 0.2207
vt 0.8568 0.5615
vt 0.9281 0.4913
vt 1.0000 0.5615
vt 0.3737 0.2186
vt 0.3633 0.4031
vt 0.8624 0.1881
vt 0.7910 0.2583
vt 0.3559 0.4042
vt 0.5048 0.4939
vt 0.5427 0.4938
vt 0.7539 0.8740
vt 0.6896 0.6970
vt 0.7539 0.6978
vt 0.1652 0.4886
vt 0.0484 0.4077
vt 0.6708 0.4069
vt 0.5539 0.4881
vt 0.7917 0.8740
vt 0.7732 0.6979
vt 0.7917 0.6978
vt 0.7732 0.5494
vt 0.7917 0.5492
vt 0.4146 0.4864
vt 0.3045 0.4871
vt 0.6896 0.5484
vt 0.7539 0.5492
vt 0.7052 0.4901
vt 0.7558 0.4907
vt 0.3596 0.4905
vt 0.3596 0.4901
vt 0.7732 0.4908
vt 0.7899 0.4907
vt 0.7732 0.8742
vt 0.8411 0.4901
vt 0.8568 0.6970
vt 0.8568 0.5484
vt 0.8568 0.8732
vt 0.0000 0.7660
vt 0.0594 0.5899
vt 0.3300 0.7660
vt 0.6896 0.7905
vt 0.6035 0.9928
vt 0.9746 0.9102
vt 0.4389 0.0000
vt 0.9896 0.7222
vt 0.8667 0.7222
vt 0.3814 1.0000
vt 0.2804 0.0000
vt 0.3082 0.9829
vt 0.1664 0.8634
vt 0.3082 0.8634
vt 0.1475 0.9829
vt 0.0861 0.9829
vt 0.8624 0.1608
vt 0.7296 0.0274
vt 0.8525 0.0274
vt 0.5112 0.5928
vt 0.9896 0.4901
vt 0.8667 0.4901
vt 0.7296 0.2594
vt 0.8525 0.2594
vt 0.6077 0.5160
vt 0.5241 0.4901
vt 0.4405 0.5160
vt 0.6896 0.8732
vt 0.0000 0.4905
vt 0.7191 0.4901
vt 0.2713 0.5899
vt 0.0975 0.5088
vt 0.1488 0.4939
vt 0.1655 0.4905
vt 0.1828 0.4940
vt 0.2334 0.5088
vn -0.2751 0.9570 0.0919
vn 0.9722 0.2194 0.0823
vn 0.0025 0.0006 1.0000
vn -0.9955 0.0000 -0.0944
vn 0.2148 0.9764 0.0208
vn 0.9950 0.0058 0.0992
vn 0.9993 0.0000 0.0377
vn 0.9959 -0.0057 0.0906
vn -0.9778 -0.2094 0.0025
vn -1.0000 -0.0000 0.0025
vn 0.0022 0.4541 0.8909
vn -0.9778 0.2094 0.0023
vn -0.2765 0.9610 0.0001
vn 0.2765 0.9610 -0.0013
vn 0.9755 0.2201 -0.0025
vn 1.0000 0.0000 -0.0025
vn 0.9755 -0.2201 -0.0023
vn 0.0122 -0.9999 0.0005
vn -0.9954 0.0058 0.0955
vn -0.9991 0.0000 0.0426
vn -0.9946 -0.0057 0.1041
vn -0.2147 0.9764 0.0219
vn 0.0731 0.9848 0.1574
vn 0.2473 0.9673 0.0567
vn 0.0885 0.9717 0.2189
vn 0.0896 0.9856 0.1433
vn 0.0005 0.9824 0.1867
vn -0.3363 0.9264 0.1691
vn 0.0735 0.9923 0.0998
vn -0.9723 0.2083 0.1060
vn 0.9953 -0.0000 -0.0972
vn -0.3371 0.9351 0.1093
vn -0.9958 0.0001 0.0914
vn 0.9978 0.0000 0.0664
vn 0.9681 -0.2183 0.1227
vn 0.0023 -0.3184 0.9480
vn -0.7737 -0.6176 -0.1412
vn -0.9676 -0.2072 0.1441
vn 0.7732 -0.6178 -0.1434
vn 0.0000 1.0000 -0.0002
vn 0.5141 0.0000 -0.8578
vn 0.8758 0.3364 -0.3461
vn -0.8770 0.3362 -0.3432
vn -0.3259 0.0000 -0.9454
vn -0.9318 0.0000 -0.3629
vn 0.9306 0.0000 -0.3660
vn 0.4254 -0.2770 -0.8616
vn 0.9003 -0.3585 -0.2470
vn -0.9009 -0.3589 -0.2442
vn -0.3124 -0.2851 -0.9062
vn 0.3080 -0.2848 -0.9077
vn 0.3213 0.0000 -0.9470
vn -0.4282 -0.2772 -0.8601
vn -0.5164 0.0000 -0.8563
vn 0.0000 -0.9998 0.0178
vn 0.0006 0.9734 0.2290
vn -0.0713 0.9847 0.1589
vn 0.9917 0.0000 0.1288
vn -0.9243 0.3546 -0.1410
vn 0.9686 0.2459 0.0364
vn 0.9720 -0.2323 0.0368
vn 0.1723 0.5927 0.7868
vn -0.1681 0.5914 0.7886
vn -0.9778 0.2093 0.0023
vn 0.9755 -0.2202 -0.0023
vn -0.0122 -0.9999 0.0006
vn 0.0093 -1.0000 -0.0003
vn -0.0093 -1.0000 -0.0003
vn -0.9742 -0.2216 0.0416
vn -0.9710 0.2353 0.0412
vn 0.2756 0.9573 0.0876
vn -0.0861 0.9697 0.2288
vn 0.2147 0.9761 -0.0333
vn -0.2438 0.9679 0.0608
vn -0.2147 0.9752 -0.0543
vn 0.3410 0.9251 0.1670
vn -0.0878 0.9857 0.1438
vn 0.3417 0.9337 0.1073
vn -0.9887 0.0000 0.1502
vn 0.9239 0.3547 -0.1435
vn -0.0720 0.9924 0.1003
vn -0.9958 0.0000 0.0914
vn -0.0013 -0.3132 0.9497
vn 0.0060 -0.3132 0.9497
vn -0.3335 0.9256 0.1793
vn -0.3357 0.9247 0.1796
vn 0.0000 1.0000 0.0000
vn 0.0001 1.0000 -0.0002
vn 0.3384 0.9242 0.1772
vn -0.0001 1.0000 -0.0002
vn 0.3403 0.9234 0.1775
vn 0.9863 0.0000 -0.1651
vn -0.9868 0.0000 -0.1620
vn 0.5077 -0.1567 -0.8472
vn 0.7485 -0.5983 -0.2859
vn -0.7496 -0.5981 -0.2835
vn -0.5101 -0.1563 -0.8458
vn -0.0122 -0.9998 -0.0151
vn -0.0093 -0.9999 -0.0041
vn 0.0122 -0.9998 -0.0154
vn 0.0000 -0.9999 0.0114
vn 0.0000 -1.0000 -0.0000
vn 0.0093 -0.9999 -0.0043
vn -0.0000 -0.9999 -0.0135
vn -0.0246 0.9864 0.1626
vn -0.0348 0.9749 0.2200
s off
f 50/1/1 7/2/1 9/3/1
f 56/4/2 6/5/2 30/6/2
f 39/7/3 33/8/3 31/9/3
f 48/10/4 54/11/4 55/12/4
f 9/3/5 12/13/5 11/14/5
f 12/15/6 13/16/6 11/17/6
f 14/18/7 15/19/7 13/16/7
f 15/19/8 18/20/8 17/21/8
f 21/22/9 22/23/9 3/24/9
f 22/23/10 25/25/10 24/26/10
f 10/27/11 25/28/11 14/29/11
f 24/26/12 26/30/12 7/31/12
f 26/32/13 9/3/13 7/2/13
f 28/33/14 6/34/14 27/35/14
f 29/36/15 30/6/15 6/5/15
f 31/37/16 32/38/16 30/6/16
f 32/38/17 34/39/17 2/40/17
f 37/41/18 35/42/18 36/43/18
f 21/44/18 3/45/18 19/46/18
f 37/47/19 15/48/19 17/49/19
f 15/48/20 39/50/20 13/51/20
f 28/52/11 39/7/11 31/9/11
f 13/51/21 40/53/21 11/54/21
f 40/55/22 27/35/22 11/14/22
f 49/56/23 6/34/23 47/57/23
f 50/1/24 9/3/24 64/58/24
f 52/59/25 65/60/25 49/56/25
f 41/61/26 52/59/26 49/56/26
f 43/62/27 63/63/27 62/64/27
f 42/65/28 51/66/28 43/62/28
f 5/67/29 49/56/29 47/57/29
f 7/31/30 55/12/30 24/26/30
f 53/68/31 47/69/31 56/4/31
f 8/70/32 50/1/32 42/65/32
f 59/71/31 56/4/31 58/72/31
f 24/26/33 57/73/33 22/23/33
f 55/12/4 60/74/4 57/73/4
f 58/72/34 30/6/34 32/38/34
f 45/75/35 32/38/35 2/40/35
f 23/76/36 20/77/36 16/78/36
f 46/79/37 60/74/37 4/80/37
f 14/29/3 23/76/3 16/78/3
f 38/81/36 36/82/36 33/8/36
f 22/23/38 46/79/38 3/24/38
f 59/71/39 45/75/39 1/83/39
f 79/84/40 83/85/40 62/64/40
f 79/86/41 73/87/41 80/88/41
f 73/89/42 5/90/42 53/68/42
f 8/91/43 74/92/43 54/11/43
f 83/93/44 72/94/44 84/95/44
f 84/95/44 77/96/44 85/97/44
f 60/74/45 74/92/45 76/98/45
f 73/89/46 59/71/46 75/99/46
f 80/88/41 75/100/41 81/101/41
f 81/101/47 68/102/47 78/103/47
f 75/99/48 1/83/48 68/104/48
f 4/80/49 76/98/49 70/105/49
f 85/97/50 66/106/50 82/107/50
f 66/106/51 81/101/51 78/103/51
f 72/94/52 81/101/52 77/96/52
f 67/108/52 80/88/52 72/94/52
f 70/109/53 85/97/53 82/107/53
f 74/110/54 85/97/54 76/111/54
f 71/112/54 84/95/54 74/110/54
f 46/113/55 4/114/55 45/115/55
f 52/59/56 63/63/56 64/58/56
f 50/1/57 48/116/57 7/2/57
f 56/4/58 47/69/58 6/5/58
f 39/7/3 38/81/3 33/8/3
f 48/10/59 8/91/59 54/11/59
f 9/3/14 10/117/14 12/13/14
f 12/15/60 14/18/60 13/16/60
f 14/18/7 16/118/7 15/19/7
f 15/19/61 16/118/61 18/20/61
f 21/22/9 23/119/9 22/23/9
f 22/23/10 23/119/10 25/25/10
f 14/29/62 12/120/62 10/27/62
f 10/27/63 26/121/63 25/28/63
f 24/26/64 25/25/64 26/30/64
f 26/32/13 10/117/13 9/3/13
f 28/33/14 29/122/14 6/34/14
f 29/36/15 31/37/15 30/6/15
f 31/37/16 33/123/16 32/38/16
f 32/38/65 33/123/65 34/39/65
f 34/124/66 36/43/66 35/42/66
f 37/41/67 17/125/67 35/42/67
f 35/42/66 2/126/66 34/124/66
f 17/125/68 18/127/68 19/46/68
f 20/128/18 21/44/18 19/46/18
f 19/46/66 18/127/66 20/128/66
f 37/47/69 38/129/69 15/48/69
f 15/48/20 38/129/20 39/50/20
f 31/9/62 29/130/62 28/52/62
f 28/52/63 40/131/63 39/7/63
f 13/51/70 39/50/70 40/53/70
f 40/55/13 28/33/13 27/35/13
f 49/56/71 27/35/71 6/34/71
f 64/58/72 51/66/72 50/1/72
f 9/3/73 11/14/73 64/58/73
f 27/35/74 49/56/74 65/60/74
f 65/60/75 11/14/75 27/35/75
f 41/61/76 44/132/76 52/59/76
f 44/132/27 62/64/27 63/63/27
f 43/62/27 51/66/27 63/63/27
f 63/63/27 52/59/27 44/132/27
f 42/65/77 50/1/77 51/66/77
f 5/67/78 41/61/78 49/56/78
f 7/31/79 48/10/79 55/12/79
f 53/68/80 5/90/80 47/69/80
f 8/70/81 48/116/81 50/1/81
f 59/71/31 53/68/31 56/4/31
f 24/26/82 55/12/82 57/73/82
f 55/12/4 54/11/4 60/74/4
f 58/72/34 56/4/34 30/6/34
f 45/75/34 58/72/34 32/38/34
f 18/133/83 16/78/83 20/77/83
f 23/76/84 21/134/84 20/77/84
f 46/79/4 57/73/4 60/74/4
f 14/29/3 25/28/3 23/76/3
f 34/135/83 33/8/83 36/82/83
f 38/81/84 37/136/84 36/82/84
f 22/23/82 57/73/82 46/79/82
f 59/71/31 58/72/31 45/75/31
f 71/137/85 8/70/85 42/65/85
f 43/62/40 62/64/40 83/85/40
f 71/137/86 42/65/86 43/62/86
f 67/138/87 83/85/87 79/84/87
f 69/139/88 79/84/88 44/132/88
f 41/61/89 5/67/89 69/139/89
f 71/137/90 43/62/90 83/85/90
f 44/132/91 41/61/91 69/139/91
f 79/84/40 62/64/40 44/132/40
f 79/86/41 69/140/41 73/87/41
f 73/89/92 69/141/92 5/90/92
f 8/91/93 71/142/93 74/92/93
f 83/93/44 67/108/44 72/94/44
f 84/95/44 72/94/44 77/96/44
f 60/74/45 54/11/45 74/92/45
f 73/89/46 53/68/46 59/71/46
f 80/88/41 73/87/41 75/100/41
f 81/101/94 75/100/94 68/102/94
f 75/99/95 59/71/95 1/83/95
f 4/80/96 60/74/96 76/98/96
f 85/97/50 77/96/50 66/106/50
f 66/106/51 77/96/51 81/101/51
f 72/94/52 80/88/52 81/101/52
f 67/108/52 79/86/52 80/88/52
f 70/109/97 76/111/97 85/97/97
f 74/110/54 84/95/54 85/97/54
f 71/112/54 83/93/54 84/95/54
f 1/143/55 45/115/55 4/114/55
f 2/126/98 35/42/98 45/115/98
f 17/125/99 19/46/99 46/113/99
f 3/45/100 46/113/100 19/46/100
f 4/114/101 70/144/101 1/143/101
f 82/145/102 66/146/102 78/147/102
f 78/147/102 68/148/102 70/144/102
f 45/115/103 35/42/103 17/125/103
f 17/125/104 46/113/104 45/115/104
f 70/144/102 82/145/102 78/147/102
f 68/148/101 1/143/101 70/144/101
f 64/58/105 11/14/105 65/60/105
f 65/60/106 52/59/106 64/58/106
f 63/63/56 51/66/56 64/58/56
l 61 17
