# Blender v2.77 (sub 0) OBJ File: 'grass.blend'
# www.blender.org
v 0.248701 -0.067071 -0.054516
v 0.199266 -0.021895 -0.050362
v 0.201965 -0.027354 0.041114
v 0.251399 -0.072531 0.036960
v 0.144330 0.007530 -0.046985
v 0.147028 0.002071 0.044491
v 0.088588 0.019180 -0.044646
v 0.091286 0.013721 0.046830
v 0.036558 0.013998 -0.043421
v 0.039257 0.008539 0.048056
v -0.007649 -0.006053 -0.043313
v -0.004951 -0.011512 0.048163
v -0.040551 -0.038112 -0.044256
v -0.037852 -0.043571 0.047220
v 0.139288 0.044370 -0.253325
v 0.099867 0.066970 -0.203957
v 0.167553 0.053299 -0.143651
v 0.206973 0.030699 -0.193019
v 0.059241 0.073084 -0.156973
v 0.126927 0.059413 -0.096667
v 0.020808 0.062636 -0.116204
v 0.088494 0.048965 -0.055899
v -0.012607 0.038201 -0.084239
v 0.055079 0.024530 -0.023934
v -0.038602 0.003129 -0.063013
v 0.029084 -0.010542 -0.002708
v -0.055325 -0.038644 -0.053713
v 0.012360 -0.052315 0.006592
v -0.102758 0.174536 -0.208781
v -0.075529 0.159630 -0.149297
v 0.003572 0.138832 -0.190717
v -0.023657 0.153738 -0.250201
v -0.055603 0.131640 -0.097192
v 0.023497 0.110843 -0.138612
v -0.044441 0.093231 -0.056590
v 0.034659 0.072434 -0.098010
v -0.042008 0.048552 -0.029511
v 0.037092 0.027755 -0.070931
v -0.047724 0.001988 -0.017045
v 0.031376 -0.018809 -0.058465
v -0.060500 -0.042090 -0.019312
v 0.018600 -0.062887 -0.060732
v -0.276376 0.109410 -0.080058
v -0.217714 0.118374 -0.048747
v -0.174303 0.116246 -0.129468
v -0.232965 0.107282 -0.160780
v -0.163184 0.111254 -0.019234
v -0.119773 0.109126 -0.099955
v -0.117195 0.089064 0.006084
v -0.073784 0.086936 -0.074637
v -0.082507 0.055153 0.025633
v -0.039095 0.053025 -0.055088
v -0.061061 0.013477 0.038265
v -0.017650 0.011349 -0.042456
v -0.053891 -0.031626 0.043310
v -0.010480 -0.033754 -0.037411
v -0.013540 0.000694 0.312353
v 0.008692 0.027985 0.255231
v -0.073652 0.065784 0.241243
v -0.095883 0.038494 0.298365
v 0.024303 0.040083 0.196026
v -0.058041 0.077883 0.182038
v 0.032174 0.036386 0.139699
v -0.050169 0.074186 0.125711
v 0.032494 0.018849 0.090427
v -0.049850 0.056648 0.076439
v 0.025917 -0.009780 0.051782
v -0.056427 0.028020 0.037793
v 0.013522 -0.046121 0.026545
v -0.068822 -0.008321 0.012556
v 0.123034 -0.018621 0.101331
v 0.101537 -0.005918 0.069579
v 0.053793 0.025532 0.114485
v 0.075290 0.012829 0.146237
v 0.077220 -0.002269 0.041169
v 0.029476 0.029181 0.086074
v 0.052170 -0.007740 0.018367
v 0.004426 0.023711 0.063272
v 0.028458 -0.020934 0.002397
v -0.019286 0.010516 0.047302
v 0.007988 -0.040029 -0.005994
v -0.039756 -0.008578 0.038911
v -0.007600 -0.062873 -0.006569
v -0.055344 -0.031422 0.038336
v -0.115697 0.049008 0.174071
v -0.081508 0.043335 0.153320
v -0.110227 0.078325 0.096435
v -0.144416 0.083999 0.117185
v -0.053980 0.030227 0.131361
v -0.082700 0.065218 0.074475
v -0.035221 0.010966 0.110043
v -0.063940 0.045957 0.053157
v -0.025800 -0.012268 0.090995
v -0.054519 0.022723 0.034109
v -0.025677 -0.037131 0.075639
v -0.054396 -0.002141 0.018753
v -0.034217 -0.061246 0.065118
v -0.062936 -0.026256 0.008232
v 0.299771 -0.082777 0.050834
v 0.155963 -0.001701 -0.036133
v 0.059375 -0.073283 0.075092
v 0.005413 -0.027088 -0.071957
v 0.221023 0.000630 -0.205681
vt 0.3330 0.0656
vt 0.3061 0.0168
vt 0.3330 0.0168
vt 0.3061 0.0656
vt 0.2793 0.0168
vt 0.2525 0.0656
vt 0.2793 0.0656
vt 0.2257 0.0168
vt 0.2525 0.0168
vt 0.1988 0.0656
vt 0.2257 0.0656
vt 0.1720 0.0656
vt 0.1988 0.0168
vt 0.3061 0.0656
vt 0.3330 0.0168
vt 0.3330 0.0656
vt 0.2793 0.0656
vt 0.3061 0.0168
vt 0.2525 0.0168
vt 0.2793 0.0168
vt 0.2257 0.0656
vt 0.2525 0.0656
vt 0.1988 0.0168
vt 0.2257 0.0168
vt 0.1720 0.0656
vt 0.1988 0.0656
vt 0.3061 0.0656
vt 0.3330 0.0168
vt 0.3330 0.0656
vt 0.2793 0.0656
vt 0.3061 0.0168
vt 0.2525 0.0168
vt 0.2793 0.0168
vt 0.2257 0.0656
vt 0.2525 0.0656
vt 0.1988 0.0656
vt 0.2257 0.0168
vt 0.1720 0.0168
vt 0.1988 0.0168
vt 0.3061 0.0656
vt 0.3330 0.0168
vt 0.3330 0.0656
vt 0.2793 0.0168
vt 0.3061 0.0168
vt 0.2525 0.0656
vt 0.2793 0.0656
vt 0.2257 0.0168
vt 0.2525 0.0168
vt 0.2257 0.0656
vt 0.1988 0.0168
vt 0.1720 0.0656
vt 0.1988 0.0656
vt 0.3330 0.0656
vt 0.3061 0.0168
vt 0.3330 0.0168
vt 0.3061 0.0656
vt 0.2793 0.0168
vt 0.2525 0.0656
vt 0.2793 0.0656
vt 0.2257 0.0168
vt 0.2525 0.0168
vt 0.1988 0.0656
vt 0.2257 0.0656
vt 0.1720 0.0168
vt 0.1988 0.0168
vt 0.3330 0.0656
vt 0.3061 0.0168
vt 0.3330 0.0168
vt 0.3061 0.0656
vt 0.2793 0.0168
vt 0.2525 0.0656
vt 0.2793 0.0656
vt 0.2257 0.0168
vt 0.2525 0.0168
vt 0.1988 0.0656
vt 0.2257 0.0656
vt 0.1720 0.0168
vt 0.1988 0.0168
vt 0.3330 0.0656
vt 0.3061 0.0168
vt 0.3330 0.0168
vt 0.3061 0.0656
vt 0.2793 0.0168
vt 0.2525 0.0656
vt 0.2793 0.0656
vt 0.2257 0.0656
vt 0.2525 0.0168
vt 0.1988 0.0168
vt 0.2257 0.0168
vt 0.1988 0.0656
vt 0.1720 0.0168
vt 0.2749 0.1820
vt 0.2044 0.1601
vt 0.1876 0.2208
vt 0.1481 0.1700
vt 0.2115 0.0910
vt 0.1720 0.0168
vt 0.1720 0.0168
vt 0.1720 0.0656
vt 0.1720 0.0168
vt 0.1720 0.0656
vt 0.1720 0.0656
vt 0.1720 0.0656
vn 0.6755 0.7370 0.0241
vn 0.5827 0.8121 0.0313
vn 0.3496 0.9358 0.0455
vn 0.0616 0.9964 0.0576
vn -0.2523 0.9655 0.0651
vn 0.0617 0.9964 0.0576
vn -0.5592 0.8264 0.0658
vn -0.2522 0.9655 0.0651
vn -0.6974 0.7139 0.0632
vn 0.2588 0.9633 -0.0721
vn 0.3313 0.9297 -0.1611
vn 0.0866 0.9881 0.1269
vn -0.1121 0.9346 0.3376
vn 0.0866 0.9881 0.1268
vn -0.3137 0.7874 0.5306
vn -0.1120 0.9346 0.3376
vn -0.4942 0.5440 0.6781
vn -0.5678 0.3889 0.7255
vn -0.4942 0.5441 0.6780
vn 0.3478 0.9149 0.2048
vn 0.3015 0.9483 0.0996
vn 0.4318 0.7956 0.4251
vn 0.4896 0.5974 0.6351
vn 0.4317 0.7956 0.4250
vn 0.5045 0.3280 0.7987
vn 0.4896 0.5975 0.6351
vn 0.4649 0.0047 0.8854
vn 0.4222 -0.1682 0.8908
vn 0.4649 0.0048 0.8854
vn -0.0016 0.9996 -0.0272
vn -0.1068 0.9908 -0.0836
vn 0.2291 0.9685 0.0977
vn 0.4669 0.8542 0.2286
vn 0.6764 0.6499 0.3466
vn 0.4669 0.8543 0.2286
vn 0.8254 0.3606 0.4344
vn 0.8669 0.1894 0.4612
vn 0.2890 0.8152 0.5019
vn 0.3265 0.8579 0.3967
vn 0.3922 0.9083 0.1458
vn 0.4330 0.8896 -0.1453
vn 0.3922 0.9083 0.1457
vn 0.4351 0.7840 -0.4427
vn 0.3895 0.5854 -0.7111
vn 0.3471 0.4522 -0.8216
vn 0.3895 0.5854 -0.7110
vn 0.5343 0.8450 -0.0237
vn 0.4669 0.8765 -0.1174
vn 0.2955 0.9012 -0.3170
vn 0.0806 0.8547 -0.5129
vn -0.1571 0.7227 -0.6731
vn 0.0807 0.8547 -0.5128
vn -0.3931 0.5026 -0.7700
vn -0.1570 0.7227 -0.6731
vn -0.5011 0.3617 -0.7861
vn 0.3572 0.8652 0.3519
vn 0.4557 0.8423 0.2880
vn 0.6487 0.7493 0.1334
vn 0.8101 0.5842 -0.0496
vn 0.9048 0.3515 -0.2406
vn 0.9063 0.0648 -0.4177
vn 0.9047 0.3516 -0.2405
vn 0.9063 0.0649 -0.4176
vn 0.8652 -0.0913 -0.4930
vn 0.2594 0.8820 0.3934
vn 0.0881 0.9598 0.2665
vn -0.0607 0.8625 0.5024
vn -0.2041 0.9631 0.1753
vn 0.1683 0.9826 0.0781
vn -0.5011 0.3618 -0.7861
s 1
f 1/1/1 3/2/2 4/3/1
f 2/4/2 6/5/3 3/2/2
f 7/6/4 6/5/3 5/7/3
f 7/6/4 10/8/5 8/9/6
f 11/10/7 10/8/5 9/11/8
f 13/12/9 12/13/7 11/10/7
f 16/14/10 18/15/11 15/16/11
f 19/17/12 17/18/10 16/14/10
f 19/17/12 22/19/13 20/20/14
f 23/21/15 22/19/13 21/22/16
f 23/21/15 26/23/17 24/24/15
f 27/25/18 26/23/17 25/26/19
f 30/27/20 32/28/21 29/29/21
f 33/30/22 31/31/20 30/27/20
f 33/30/22 36/32/23 34/33/24
f 37/34/25 36/32/23 35/35/26
f 39/36/27 38/37/25 37/34/25
f 39/36/27 42/38/28 40/39/29
f 44/40/30 46/41/31 43/42/31
f 44/40/30 48/43/32 45/44/30
f 49/45/33 48/43/32 47/46/32
f 49/45/33 52/47/34 50/48/35
f 51/49/34 54/50/36 52/47/34
f 55/51/37 54/50/36 53/52/36
f 57/53/38 59/54/39 60/55/38
f 58/56/39 62/57/40 59/54/39
f 63/58/41 62/57/40 61/59/42
f 63/58/41 66/60/43 64/61/41
f 67/62/44 66/60/43 65/63/43
f 67/62/44 70/64/45 68/65/46
f 71/66/47 73/67/48 74/68/47
f 72/69/48 76/70/49 73/67/48
f 77/71/50 76/70/49 75/72/49
f 77/71/50 80/73/51 78/74/52
f 81/75/53 80/73/51 79/76/54
f 81/75/53 84/77/55 82/78/53
f 85/79/56 87/80/57 88/81/56
f 86/82/57 90/83/58 87/80/57
f 91/84/59 90/83/58 89/85/58
f 93/86/60 92/87/59 91/84/59
f 93/86/60 96/88/61 94/89/62
f 95/90/63 98/91/64 96/88/61
f 99/92/65 100/93/66 101/94/67
f 100/93/66 102/95/68 101/94/67
f 103/96/69 102/95/68 100/93/66
f 99/92/65 103/96/69 100/93/66
f 1/1/1 2/4/2 3/2/2
f 2/4/2 5/7/3 6/5/3
f 7/6/4 8/9/6 6/5/3
f 7/6/4 9/11/8 10/8/5
f 11/10/7 12/13/7 10/8/5
f 13/12/9 14/97/9 12/13/7
f 16/14/10 17/18/10 18/15/11
f 19/17/12 20/20/14 17/18/10
f 19/17/12 21/22/16 22/19/13
f 23/21/15 24/24/15 22/19/13
f 23/21/15 25/26/19 26/23/17
f 27/25/18 28/98/18 26/23/17
f 30/27/20 31/31/20 32/28/21
f 33/30/22 34/33/24 31/31/20
f 33/30/22 35/35/26 36/32/23
f 37/34/25 38/37/25 36/32/23
f 39/36/27 40/39/29 38/37/25
f 39/36/27 41/99/28 42/38/28
f 44/40/30 45/44/30 46/41/31
f 44/40/30 47/46/32 48/43/32
f 49/45/33 50/48/35 48/43/32
f 49/45/33 51/49/34 52/47/34
f 51/49/34 53/52/36 54/50/36
f 55/51/37 56/100/37 54/50/36
f 57/53/38 58/56/39 59/54/39
f 58/56/39 61/59/42 62/57/40
f 63/58/41 64/61/41 62/57/40
f 63/58/41 65/63/43 66/60/43
f 67/62/44 68/65/46 66/60/43
f 67/62/44 69/101/45 70/64/45
f 71/66/47 72/69/48 73/67/48
f 72/69/48 75/72/49 76/70/49
f 77/71/50 78/74/52 76/70/49
f 77/71/50 79/76/54 80/73/51
f 81/75/53 82/78/53 80/73/51
f 81/75/53 83/102/70 84/77/55
f 85/79/56 86/82/57 87/80/57
f 86/82/57 89/85/58 90/83/58
f 91/84/59 92/87/59 90/83/58
f 93/86/60 94/89/62 92/87/59
f 93/86/60 95/90/63 96/88/61
f 95/90/63 97/103/64 98/91/64
