# Blender v2.78 (sub 0) OBJ File: 'invisibleCube.blend'
# www.blender.org
v -0.500818 0.914090 0.500818
v -0.500818 0.914090 -0.500818
v 0.500818 1.915726 -0.500818
v -0.500818 1.915726 0.500818
v 0.500818 1.915726 0.500818
v 0.500818 0.914090 0.500818
v -0.500818 1.915726 -0.500818
v -0.500818 -0.085910 0.500818
v -0.500818 -0.085910 -0.500818
v -0.500818 0.915726 0.500818
v 0.500818 0.915726 0.500818
v 0.500818 -0.085910 0.500818
v -0.500818 0.915726 -0.500818
v -0.500818 -1.085910 0.500818
v -0.500818 -1.085910 -0.500818
v -0.500818 -0.084274 0.500818
v 0.500818 -0.084274 0.500818
v 0.500818 -1.085910 0.500818
v -0.500818 -0.084274 -0.500818
v -0.500818 -2.085910 0.500818
v -0.500818 -2.085910 -0.500818
v -0.500818 -1.084274 0.500818
v 0.500818 -1.084274 0.500818
v 0.500818 -2.085910 0.500818
v -0.500818 -1.084274 -0.500818
v 0.499182 0.914090 0.500818
v 1.500818 1.915726 -0.500818
v 0.499182 1.915726 0.500818
v 1.500818 1.915726 0.500818
v 1.500818 0.914090 0.500818
v 0.499182 1.915726 -0.500818
v 0.499182 -0.085910 0.500818
v 0.499182 0.915726 0.500818
v 1.500818 0.915726 0.500818
v 1.500818 -0.085910 0.500818
v 0.499182 -1.085910 0.500818
v 0.499182 -0.084274 0.500818
v 1.500818 -0.084274 0.500818
v 1.500818 -1.085910 0.500818
v 0.499182 -2.085910 0.500818
v 0.499182 -1.084274 0.500818
v 1.500818 -1.084274 0.500818
v 1.500818 -2.085910 0.500818
vt 0.6669 0.7515
vt 0.3337 0.9999
vt 0.3337 0.7515
vt 0.6643 0.7513
vt 0.3347 0.5027
vt 0.6644 0.5027
vt 0.3319 0.7513
vt 0.0016 0.9994
vt 0.0011 0.7513
vt 0.6669 0.9999
vt 0.3346 0.7512
vt 0.3324 0.9994
vt 0.6643 0.7513
vt 0.3347 0.5027
vt 0.6644 0.5027
vt 0.3319 0.7513
vt 0.0016 0.9994
vt 0.0011 0.7513
vt 0.3346 0.7512
vt 0.3324 0.9994
vt 0.6643 0.7513
vt 0.3347 0.5027
vt 0.6644 0.5027
vt 0.3319 0.7513
vt 0.0016 0.9994
vt 0.0011 0.7513
vt 0.3346 0.7512
vt 0.3324 0.9994
vt 0.6643 0.7513
vt 0.3347 0.5027
vt 0.6644 0.5027
vt 0.3319 0.7513
vt 0.0016 0.9994
vt 0.0011 0.7513
vt 0.3346 0.7512
vt 0.3324 0.9994
vt 0.6669 0.7515
vt 0.3337 0.9999
vt 0.3337 0.7515
vt 0.6643 0.7513
vt 0.3347 0.5027
vt 0.6644 0.5027
vt 0.6669 0.9999
vt 0.3346 0.7512
vt 0.6643 0.7513
vt 0.3347 0.5027
vt 0.6644 0.5027
vt 0.3346 0.7512
vt 0.6643 0.7513
vt 0.3347 0.5027
vt 0.6644 0.5027
vt 0.3346 0.7512
vt 0.6643 0.7513
vt 0.3347 0.5027
vt 0.6644 0.5027
vt 0.3346 0.7512
vn 0.0000 1.0000 0.0000
vn 0.0000 -0.0000 1.0000
vn -1.0000 0.0000 0.0000
s 1
f 3/1/1 4/2/1 5/3/1
f 5/4/2 1/5/2 6/6/2
f 1/7/3 7/8/3 2/9/3
f 3/1/1 7/10/1 4/2/1
f 5/4/2 4/11/2 1/5/2
f 1/7/3 4/12/3 7/8/3
f 11/13/2 8/14/2 12/15/2
f 8/16/3 13/17/3 9/18/3
f 11/13/2 10/19/2 8/14/2
f 8/16/3 10/20/3 13/17/3
f 17/21/2 14/22/2 18/23/2
f 14/24/3 19/25/3 15/26/3
f 17/21/2 16/27/2 14/22/2
f 14/24/3 16/28/3 19/25/3
f 23/29/2 20/30/2 24/31/2
f 20/32/3 25/33/3 21/34/3
f 23/29/2 22/35/2 20/30/2
f 20/32/3 22/36/3 25/33/3
f 27/37/1 28/38/1 29/39/1
f 29/40/2 26/41/2 30/42/2
f 27/37/1 31/43/1 28/38/1
f 29/40/2 28/44/2 26/41/2
f 34/45/2 32/46/2 35/47/2
f 34/45/2 33/48/2 32/46/2
f 38/49/2 36/50/2 39/51/2
f 38/49/2 37/52/2 36/50/2
f 42/53/2 40/54/2 43/55/2
f 42/53/2 41/56/2 40/54/2
