# Blender v2.78 (sub 0) OBJ File: ''
# www.blender.org
v 0.500818 -0.500818 -0.500818
v -0.500818 -0.500818 0.500818
v 0.500818 -1.500818 -0.500818
v 0.500818 0.500818 -0.500818
v -0.500818 0.500818 0.500818
v 0.500818 0.500818 0.500818
v 0.500818 -0.500818 0.500818
v -0.500818 0.500818 -0.500818
v -0.500818 -1.500818 0.500818
v 0.500818 -0.499182 -0.500818
v -0.500818 -0.499182 0.500818
v 0.500818 -0.499182 0.500818
v 0.500818 -1.500818 0.500818
v 0.500818 -2.500818 -0.500818
v -0.500818 -2.500818 0.500818
v 0.500818 -3.500818 -0.500818
v 0.500818 -1.499182 -0.500818
v -0.500818 -1.499182 0.500818
v 0.500818 -1.499182 0.500818
v 0.500818 -2.500818 0.500818
v -0.500818 -3.500818 0.500818
v 0.500818 -2.499182 -0.500818
v -0.500818 -2.499182 0.500818
v 0.500818 -2.499182 0.500818
v 0.500818 -3.500818 0.500818
v -1.500818 -0.500818 0.500818
v -0.499182 0.500818 -0.500818
v -1.500818 0.500818 0.500818
v -0.499182 0.500818 0.500818
v -0.499182 -0.500818 0.500818
v -1.500818 0.500818 -0.500818
v -1.500818 -1.500818 0.500818
v -1.500818 -0.499182 0.500818
v -0.499182 -0.499182 0.500818
v -0.499182 -1.500818 0.500818
v -1.500818 -2.500818 0.500818
v -1.500818 -1.499182 0.500818
v -0.499182 -1.499182 0.500818
v -0.499182 -2.500818 0.500818
v -1.500818 -3.500818 0.500818
v -1.500818 -2.499182 0.500818
v -0.499182 -2.499182 0.500818
v -0.499182 -3.500818 0.500818
vt 0.6643 0.7513
vt 0.3346 0.7512
vt 0.3347 0.5027
vt 0.6669 0.7515
vt 0.3337 0.9999
vt 0.3337 0.7515
vt 0.9998 0.9995
vt 0.6659 0.7507
vt 1.0002 0.7501
vt 0.6643 0.7513
vt 0.3347 0.5027
vt 0.6644 0.5027
vt 0.9998 0.9995
vt 0.6655 0.9995
vt 0.6659 0.7507
vt 0.6644 0.5027
vt 0.6669 0.9999
vt 0.6655 0.9995
vt 0.3346 0.7512
vt 1.0002 0.7501
vt 0.6643 0.7513
vt 0.3346 0.7512
vt 0.3347 0.5027
vt 0.9998 0.9995
vt 0.6659 0.7507
vt 1.0002 0.7501
vt 0.6643 0.7513
vt 0.3347 0.5027
vt 0.6644 0.5027
vt 0.9998 0.9995
vt 0.6655 0.9995
vt 0.6659 0.7507
vt 0.6644 0.5027
vt 0.6655 0.9995
vt 0.3346 0.7512
vt 1.0002 0.7501
vt 0.6643 0.7513
vt 0.3346 0.7512
vt 0.3347 0.5027
vt 0.6669 0.7515
vt 0.3337 0.9999
vt 0.3337 0.7515
vt 0.6643 0.7513
vt 0.3347 0.5027
vt 0.6644 0.5027
vt 0.6644 0.5027
vt 0.6669 0.9999
vt 0.3346 0.7512
vt 0.6643 0.7513
vt 0.3346 0.7512
vt 0.3347 0.5027
vt 0.6643 0.7513
vt 0.3347 0.5027
vt 0.6644 0.5027
vt 0.6644 0.5027
vt 0.3346 0.7512
vn 0.0000 -0.0000 1.0000
vn 0.0000 1.0000 0.0000
vn 1.0000 0.0000 0.0000
s 1
f 12/1/1 11/2/1 9/3/1
f 4/4/2 5/5/2 6/6/2
f 4/7/3 7/8/3 1/9/3
f 6/10/1 2/11/1 7/12/1
f 10/13/3 12/14/3 13/15/3
f 12/1/1 9/3/1 13/16/1
f 4/4/2 8/17/2 5/5/2
f 4/7/3 6/18/3 7/8/3
f 6/10/1 5/19/1 2/11/1
f 10/13/3 13/15/3 3/20/3
f 24/21/1 23/22/1 21/23/1
f 17/24/3 20/25/3 14/26/3
f 19/27/1 15/28/1 20/29/1
f 22/30/3 24/31/3 25/32/3
f 24/21/1 21/23/1 25/33/1
f 17/24/3 19/34/3 20/25/3
f 19/27/1 18/35/1 15/28/1
f 22/30/3 25/32/3 16/36/3
f 34/37/1 33/38/1 32/39/1
f 27/40/2 28/41/2 29/42/2
f 29/43/1 26/44/1 30/45/1
f 34/37/1 32/39/1 35/46/1
f 27/40/2 31/47/2 28/41/2
f 29/43/1 28/48/1 26/44/1
f 42/49/1 41/50/1 40/51/1
f 38/52/1 36/53/1 39/54/1
f 42/49/1 40/51/1 43/55/1
f 38/52/1 37/56/1 36/53/1
