# Blender v2.77 (sub 0) OBJ File: 'mushromWhite.blend'
# www.blender.org
v 0.012078 -0.204241 -0.073385
v -0.063284 -0.043374 -0.080307
v 0.005474 -0.023551 0.022408
v 0.049600 -0.208686 -0.021805
v -0.048747 -0.204867 -0.053684
v -0.181044 -0.065856 -0.044286
v -0.048816 -0.209698 0.010072
v -0.185066 -0.059929 0.080694
v 0.011966 -0.212058 0.029774
v -0.069793 -0.033783 0.121908
v -0.171310 0.377162 -0.061666
v -0.132942 0.382290 0.001197
v -0.242531 0.368469 -0.044278
v -0.248181 0.368225 0.029330
v -0.180450 0.376766 0.057437
v -0.001500 0.488733 -0.230991
v 0.064319 0.484457 0.029670
v 0.102091 0.424279 0.032372
v 0.026967 0.413569 -0.199458
v -0.196901 0.463975 -0.330823
v -0.188886 0.386221 -0.309737
v -0.405236 0.438658 -0.262144
v -0.419025 0.358254 -0.233871
v -0.506653 0.413640 -0.014385
v -0.528635 0.346051 -0.016299
v -0.438647 0.423335 0.195480
v -0.445928 0.323322 0.170956
v -0.243244 0.448093 0.295312
v -0.230075 0.350669 0.281236
v -0.034910 0.473409 0.226631
v 0.000063 0.378636 0.205368
v -0.228864 0.519008 -0.011251
v -0.211198 0.373958 -0.007675
vt 0.0921 0.4805
vt 0.1001 0.5254
vt 0.0808 0.5277
vt 0.0765 0.4821
vt 0.1072 0.4769
vt 0.1236 0.5200
vt 0.0458 0.4809
vt 0.0428 0.5253
vt 0.0185 0.5224
vt 0.0306 0.4785
vt 0.0613 0.4821
vt 0.0626 0.5274
vt 0.1150 0.6222
vt 0.0908 0.6251
vt 0.1349 0.6190
vt 0.0398 0.6243
vt 0.0197 0.6224
vt 0.0644 0.6258
vt 0.1808 0.9524
vt 0.2395 0.8702
vt 0.2678 0.8772
vt 0.2056 0.9704
vt 0.1005 0.9628
vt 0.0911 0.9938
vt 0.0393 0.9110
vt 0.0076 0.9126
vt 0.0336 0.8105
vt 0.0061 0.7986
vt 0.0882 0.7494
vt 0.0627 0.7209
vt 0.1660 0.7408
vt 0.1773 0.7030
vt 0.2256 0.7897
vt 0.2629 0.7801
vt 0.1340 0.8485
vt 0.1425 0.5667
vt 0.1380 0.5253
vt 0.1897 0.5432
vt 0.1749 0.5930
vt 0.2164 0.5886
vt 0.2427 0.5563
vt 0.2362 0.5217
vt 0.2038 0.4955
vt 0.1623 0.4998
vn 0.4649 0.1326 -0.8754
vn 0.2965 0.0681 -0.9526
vn 0.9677 0.2451 0.0593
vn 0.9753 0.2180 -0.0363
vn -0.5585 -0.4712 -0.6827
vn -0.7632 -0.3453 -0.5462
vn -0.5688 -0.6835 0.4575
vn -0.7438 -0.3488 0.5702
vn 0.4944 -0.2235 0.8400
vn 0.2543 -0.0443 0.9661
vn 0.3451 0.1138 -0.9316
vn 0.9483 0.3155 0.0345
vn -0.7624 -0.1057 -0.6384
vn -0.8676 -0.0593 0.4937
vn 0.1606 0.2123 0.9639
vn 0.5382 0.6012 -0.5907
vn 0.6104 0.7846 0.1084
vn 0.8543 0.4894 0.1750
vn 0.8182 0.0614 -0.5717
vn 0.0325 0.4725 -0.8808
vn 0.1444 -0.2456 -0.9586
vn -0.5881 0.4521 -0.6706
vn -0.7581 -0.0726 -0.6480
vn -0.7895 0.6137 -0.0023
vn -0.9663 0.2574 -0.0045
vn -0.6517 0.4734 0.5927
vn -0.7559 -0.0887 0.6486
vn -0.1569 0.4881 0.8586
vn -0.0990 -0.1383 0.9854
vn 0.4322 0.5992 0.6740
vn 0.6640 0.1214 0.7379
vn -0.1370 0.9900 0.0348
vn 0.1640 -0.9860 -0.0313
vn 0.1863 -0.9772 -0.1018
vn 0.1432 -0.9867 -0.0773
vn 0.1374 -0.9895 -0.0439
vn 0.1101 -0.9934 -0.0329
vn 0.1033 -0.9903 -0.0934
vn 0.1399 -0.9812 -0.1333
vn 0.1410 -0.9863 -0.0856
vn 0.1574 -0.9786 -0.1327
s 1
f 1/1/1 2/2/2 3/3/3
f 3/3/3 4/4/4 1/1/1
f 5/5/5 6/6/6 2/2/2
f 2/2/2 1/1/1 5/5/5
f 7/7/7 8/8/8 6/9/6
f 6/9/6 5/10/5 7/7/7
f 9/11/9 10/12/10 8/8/8
f 8/8/8 7/7/7 9/11/9
f 4/4/4 3/3/3 10/12/10
f 10/12/10 9/11/9 4/4/4
f 11/13/11 12/14/12 3/3/3
f 3/3/3 2/2/2 11/13/11
f 13/15/13 11/13/11 2/2/2
f 2/2/2 6/6/6 13/15/13
f 8/8/8 14/16/14 13/17/13
f 13/17/13 6/9/6 8/8/8
f 15/18/15 14/16/14 8/8/8
f 8/8/8 10/12/10 15/18/15
f 12/14/12 15/18/15 10/12/10
f 10/12/10 3/3/3 12/14/12
f 16/19/16 17/20/17 18/21/18
f 18/21/18 19/22/19 16/19/16
f 20/23/20 16/19/16 19/22/19
f 19/22/19 21/24/21 20/23/20
f 22/25/22 20/23/20 21/24/21
f 21/24/21 23/26/23 22/25/22
f 24/27/24 22/25/22 23/26/23
f 23/26/23 25/28/25 24/27/24
f 26/29/26 24/27/24 25/28/25
f 25/28/25 27/30/27 26/29/26
f 28/31/28 26/29/26 27/30/27
f 27/30/27 29/32/29 28/31/28
f 30/33/30 28/31/28 29/32/29
f 29/32/29 31/34/31 30/33/30
f 17/20/17 30/33/30 31/34/31
f 31/34/31 18/21/18 17/20/17
f 17/20/17 16/19/16 32/35/32
f 19/36/33 18/37/34 33/38/35
f 16/19/16 20/23/20 32/35/32
f 21/39/36 19/36/33 33/38/35
f 20/23/20 22/25/22 32/35/32
f 23/40/37 21/39/36 33/38/35
f 22/25/22 24/27/24 32/35/32
f 25/41/38 23/40/37 33/38/35
f 24/27/24 26/29/26 32/35/32
f 27/42/39 25/41/38 33/38/35
f 26/29/26 28/31/28 32/35/32
f 29/43/40 27/42/39 33/38/35
f 28/31/28 30/33/30 32/35/32
f 31/44/41 29/43/40 33/38/35
f 30/33/30 17/20/17 32/35/32
f 18/37/34 31/44/41 33/38/35
