# Blender v2.77 (sub 0) OBJ File: 'hyrule.blend'
# www.blender.org
v -0.156219 2.387470 0.037259
v 0.167047 2.387470 0.032551
v -0.156219 4.023967 0.037259
v 0.167047 4.023967 0.032552
v 0.167047 2.387470 0.032551
v 0.324690 2.387470 -0.193417
v 0.167047 4.023967 0.032552
v 0.324690 4.023967 -0.193417
v -0.320320 0.031831 -0.184043
v -0.156219 0.031831 0.037258
v -0.320320 1.075043 -0.184043
v -0.156219 1.075043 0.037259
v -0.156219 1.075043 0.037259
v 0.167047 1.075043 0.032551
v -0.156219 2.387470 0.037259
v 0.167047 2.387470 0.032551
v -0.320321 2.387470 -0.184043
v -0.156219 2.387470 0.037259
v -0.320321 4.023967 -0.184042
v -0.156219 4.023967 0.037259
v 0.167047 1.075043 0.032551
v 0.324690 1.075043 -0.193417
v 0.167047 2.387470 0.032551
v 0.324690 2.387470 -0.193417
v -0.156219 0.031831 0.037258
v 0.167047 0.031831 0.032551
v -0.320321 2.387470 -0.184043
v -0.156219 2.387470 0.037259
v 0.167047 0.031831 0.032551
v 0.324690 0.031831 -0.193417
v -0.300624 0.031831 -0.171055
v -0.156219 4.023967 0.037259
v -0.320321 4.023967 -0.184042
v -0.156219 4.023967 0.037259
v 0.167047 4.023967 0.032552
v 0.167047 4.023967 0.032552
v 0.324690 4.023967 -0.193417
vt 0.0900 0.2311
vt 0.2500 0.2311
vt 0.0900 0.8546
vt 0.2500 0.8546
vt 0.0900 0.2311
vt 0.0453 0.2311
vt 0.0900 0.8546
vt 0.0453 0.8546
vt 0.0453 0.0584
vt 0.0900 0.0584
vt 0.0453 0.4901
vt 0.0900 0.4901
vt 0.0453 0.9697
vt 0.0900 0.9697
vt 0.0900 0.4901
vt 0.2500 0.4901
vt 0.0900 0.9697
vt 0.2500 0.0584
vt 0.0900 0.0584
vt 0.2500 0.9697
vt 0.0453 0.2311
vt 0.0900 0.2311
vt 0.0453 0.8546
vt 0.0900 0.8546
vt 0.0900 0.4901
vt 0.0453 0.4901
vt 0.0900 0.9697
vt 0.0453 0.0584
vt 0.0900 0.0584
vt 0.0453 0.9697
vn 0.0146 -0.0000 0.9999
vn 0.8201 -0.0000 0.5722
vn -0.8033 -0.0000 0.5956
s off
f 1/1/1 2/2/1 3/3/1
f 3/3/1 2/2/1 4/4/1
f 5/5/2 6/6/2 7/7/2
f 7/7/2 6/6/2 8/8/2
f 9/9/3 10/10/3 11/11/3
f 11/11/3 10/10/3 12/12/3
f 11/11/3 12/12/3 27/13/3
f 27/13/3 12/12/3 28/14/3
f 13/15/1 14/16/1 15/17/1
f 13/15/1 26/18/1 14/16/1
f 25/19/1 26/18/1 13/15/1
f 15/17/1 14/16/1 16/20/1
f 17/21/3 18/22/3 19/23/3
f 19/23/3 18/22/3 20/24/3
f 21/25/2 22/26/2 23/27/2
f 21/25/2 30/28/2 22/26/2
f 29/29/2 30/28/2 21/25/2
f 23/27/2 22/26/2 24/30/2
