# Blender v2.78 (sub 0) OBJ File: 'BARCO.blend'
# www.blender.org
v 0.196935 -0.719571 -0.011427
v 0.171152 -0.719571 -0.090778
v 0.103652 -0.719571 -0.139820
v 0.020218 -0.719571 -0.139820
v -0.047282 -0.719571 -0.090778
v -0.073065 -0.719571 -0.011427
v -0.047282 -0.719571 0.067924
v 0.020218 -0.719571 0.116966
v 0.103652 -0.719571 0.116966
v 0.171152 -0.719571 0.067924
v 0.341419 0.234076 -0.011427
v 0.288043 0.234076 -0.175704
v 0.148301 0.234076 -0.277233
v -0.024430 0.234076 -0.277233
v -0.164173 0.234076 -0.175704
v -0.217549 0.234076 -0.011427
v -0.164173 0.234076 0.152850
v -0.024430 0.234076 0.254378
v 0.148301 0.234076 0.254378
v 0.288043 0.234076 0.152850
v 0.326085 0.279864 -0.011427
v 0.275637 0.279864 -0.166691
v 0.143562 0.279864 -0.262649
v -0.019692 0.279864 -0.262649
v -0.151767 0.279864 -0.166691
v -0.202215 0.279864 -0.011427
v -0.151767 0.279864 0.143837
v -0.019692 0.279864 0.239795
v 0.143562 0.279864 0.239795
v 0.275637 0.279864 0.143836
v 0.219425 0.413899 -0.011427
v 0.189347 0.413899 -0.103998
v 0.110602 0.413899 -0.161209
v 0.013268 0.413899 -0.161209
v -0.065477 0.413899 -0.103998
v -0.095555 0.413899 -0.011427
v -0.065477 0.413899 0.081143
v 0.013268 0.413899 0.138355
v 0.110602 0.413899 0.138355
v 0.189347 0.413899 0.081143
v 0.236097 0.483384 -0.011427
v 0.202835 0.483384 -0.113797
v 0.115754 0.483384 -0.177065
v 0.008116 0.483384 -0.177065
v -0.078965 0.483384 -0.113797
v -0.112227 0.483384 -0.011427
v -0.078965 0.483384 0.090943
v 0.008116 0.483384 0.154211
v 0.115754 0.483384 0.154211
v 0.202835 0.483384 0.090943
v 0.194924 0.505622 -0.011427
v 0.169525 0.505622 -0.089596
v 0.103031 0.505622 -0.137907
v 0.020839 0.505622 -0.137907
v -0.045655 0.505622 -0.089596
v -0.071054 0.505622 -0.011427
v -0.045655 0.505622 0.066742
v 0.020839 0.505622 0.115052
v 0.103031 0.505622 0.115052
v 0.169525 0.505622 0.066742
v 0.061935 0.356758 -0.011427
v 0.218039 -0.648047 -0.124843
v 0.254890 -0.648047 -0.011427
v 0.121561 -0.648047 -0.194938
v 0.002309 -0.648047 -0.194938
v -0.094169 -0.648047 -0.124843
v -0.131020 -0.648047 -0.011427
v -0.094169 -0.648047 0.101989
v 0.002309 -0.648047 0.172083
v 0.121561 -0.648047 0.172083
v 0.218039 -0.648047 0.101989
v 0.314152 -0.206985 -0.011427
v 0.265983 -0.206985 -0.159677
v 0.139875 -0.206985 -0.251300
v -0.016004 -0.206985 -0.251300
v -0.142113 -0.206985 -0.159677
v -0.190282 -0.206985 -0.011427
v -0.142113 -0.206985 0.136823
v -0.016004 -0.206985 0.228446
v 0.139875 -0.206985 0.228446
v 0.265983 -0.206985 0.136823
vt 0.1269 0.3501
vt 0.1269 0.3524
vt 0.1011 0.3524
vt 0.1011 0.3501
vt 0.0268 0.3501
vt 0.0268 0.3524
vt 0.0023 0.3524
vt 0.0023 0.3501
vt 0.0506 0.3501
vt 0.0506 0.3524
vt 0.0751 0.3501
vt 0.0751 0.3524
vt 0.1010 0.3501
vt 0.1010 0.3524
vt 0.1268 0.3501
vt 0.1268 0.3524
vt 0.0269 0.3501
vt 0.0269 0.3524
vt 0.0024 0.3524
vt 0.0024 0.3501
vt 0.0507 0.3501
vt 0.0507 0.3524
vt 0.0752 0.3501
vt 0.0752 0.3524
vt 0.1011 0.4363
vt 0.1269 0.4363
vt 0.1269 0.4476
vt 0.1011 0.4476
vt 0.0023 0.4363
vt 0.0268 0.4363
vt 0.0268 0.4476
vt 0.0023 0.4476
vt 0.0506 0.4363
vt 0.0506 0.4476
vt 0.0751 0.4363
vt 0.0751 0.4476
vt 0.1010 0.4363
vt 0.1010 0.4476
vt 0.1268 0.4363
vt 0.1268 0.4476
vt 0.0024 0.4363
vt 0.0269 0.4363
vt 0.0269 0.4476
vt 0.0024 0.4476
vt 0.0507 0.4363
vt 0.0507 0.4476
vt 0.0752 0.4363
vt 0.0752 0.4476
vt 0.1269 0.4680
vt 0.1011 0.4680
vt 0.0268 0.4680
vt 0.0023 0.4680
vt 0.0506 0.4680
vt 0.0751 0.4680
vt 0.1010 0.4680
vt 0.1268 0.4680
vt 0.0269 0.4680
vt 0.0024 0.4680
vt 0.0507 0.4680
vt 0.0752 0.4680
vt 0.1269 0.4884
vt 0.1011 0.4884
vt 0.0268 0.4884
vt 0.0023 0.4884
vt 0.0506 0.4884
vt 0.0751 0.4884
vt 0.1010 0.4884
vt 0.1268 0.4884
vt 0.0269 0.4884
vt 0.0024 0.4884
vt 0.0507 0.4884
vt 0.0752 0.4884
vt 0.1269 0.4986
vt 0.1011 0.4986
vt 0.0268 0.4986
vt 0.0023 0.4986
vt 0.0506 0.4986
vt 0.0751 0.4986
vt 0.1010 0.4986
vt 0.1268 0.4986
vt 0.0269 0.4986
vt 0.0024 0.4986
vt 0.0507 0.4986
vt 0.0752 0.4986
vt 0.1687 0.0260
vt 0.1655 0.0364
vt 0.1518 0.0260
vt 0.1571 0.0428
vt 0.1466 0.0428
vt 0.1382 0.0364
vt 0.1350 0.0260
vt 0.1382 0.0155
vt 0.1466 0.0091
vt 0.1571 0.0091
vt 0.1655 0.0155
vt 0.1269 0.4225
vt 0.1011 0.4225
vt 0.0268 0.4225
vt 0.0023 0.4225
vt 0.0506 0.4225
vt 0.0751 0.4225
vt 0.1010 0.4225
vt 0.1268 0.4225
vt 0.0269 0.4225
vt 0.0024 0.4225
vt 0.0507 0.4225
vt 0.0752 0.4225
vn 0.6286 -0.6296 -0.4567
vn 0.7490 -0.3779 -0.5442
vn 0.9258 -0.3779 0.0000
vn 0.7770 -0.6296 0.0000
vn 0.2401 -0.6296 -0.7389
vn 0.2861 -0.3779 -0.8805
vn -0.2401 -0.6296 -0.7389
vn -0.2861 -0.3779 -0.8805
vn -0.6286 -0.6296 -0.4567
vn -0.7490 -0.3779 -0.5442
vn -0.7770 -0.6296 -0.0000
vn -0.9258 -0.3779 -0.0000
vn -0.6286 -0.6296 0.4567
vn -0.7490 -0.3779 0.5442
vn -0.2401 -0.6296 0.7389
vn -0.2861 -0.3779 0.8805
vn 0.2401 -0.6296 0.7389
vn 0.2861 -0.3779 0.8805
vn 0.6286 -0.6296 0.4567
vn 0.7490 -0.3779 0.5442
vn 0.9921 0.1257 -0.0000
vn 0.8026 0.1257 -0.5831
vn 0.7169 0.4635 -0.5208
vn 0.8861 0.4635 -0.0000
vn 0.3066 0.1257 -0.9435
vn 0.2738 0.4635 -0.8427
vn -0.3066 0.1257 -0.9435
vn -0.2738 0.4635 -0.8427
vn -0.8026 0.1257 -0.5831
vn -0.7169 0.4635 -0.5208
vn -0.9921 0.1257 -0.0000
vn -0.8861 0.4635 -0.0000
vn -0.8026 0.1257 0.5831
vn -0.7169 0.4635 0.5208
vn -0.3066 0.1257 0.9435
vn -0.2738 0.4635 0.8427
vn 0.3066 0.1257 0.9435
vn 0.2738 0.4635 0.8427
vn 0.8026 0.1257 0.5831
vn 0.7169 0.4635 0.5208
vn 0.6330 0.6227 -0.4599
vn 0.7825 0.6227 0.0000
vn 0.2418 0.6227 -0.7442
vn -0.2418 0.6227 -0.7442
vn -0.6330 0.6227 -0.4599
vn -0.7825 0.6227 -0.0000
vn -0.6330 0.6227 0.4599
vn -0.2418 0.6227 0.7442
vn 0.2418 0.6227 0.7442
vn 0.6330 0.6227 0.4599
vn 0.9724 -0.2333 -0.0000
vn 0.7867 -0.2333 -0.5716
vn 0.3005 -0.2333 -0.9248
vn -0.3005 -0.2333 -0.9248
vn -0.7867 -0.2333 -0.5716
vn -0.9724 -0.2333 0.0000
vn -0.7867 -0.2333 0.5716
vn -0.3005 -0.2333 0.9248
vn 0.3005 -0.2333 0.9248
vn 0.7867 -0.2333 0.5716
vn 0.4752 0.8799 -0.0000
vn 0.3845 0.8799 -0.2793
vn 0.1469 0.8799 -0.4520
vn -0.1469 0.8799 -0.4520
vn -0.3845 0.8799 -0.2793
vn -0.4752 0.8799 -0.0000
vn -0.3845 0.8799 0.2793
vn -0.1469 0.8799 0.4520
vn 0.1469 0.8799 0.4520
vn 0.3845 0.8799 0.2793
vn -0.7458 0.6662 0.0000
vn -0.6033 0.6662 0.4383
vn 0.0000 1.0000 -0.0000
vn -0.2305 0.6662 0.7093
vn 0.2305 0.6662 0.7093
vn 0.6033 0.6662 0.4383
vn 0.7458 0.6662 0.0000
vn 0.6033 0.6662 -0.4383
vn 0.2304 0.6662 -0.7093
vn -0.2304 0.6662 -0.7093
vn -0.6033 0.6662 -0.4383
vn 0.8052 -0.0968 -0.5850
vn 0.9953 -0.0968 -0.0000
vn 0.3076 -0.0968 -0.9466
vn -0.3076 -0.0968 -0.9466
vn -0.8052 -0.0968 -0.5850
vn -0.9953 -0.0968 -0.0000
vn -0.8052 -0.0968 0.5850
vn -0.3076 -0.0968 0.9466
vn 0.3076 -0.0968 0.9466
vn 0.8052 -0.0968 0.5850
s 1
f 2/1/1 62/2/2 63/3/3
f 63/3/3 1/4/4 2/1/1
f 3/5/5 64/6/6 62/7/2
f 62/7/2 2/8/1 3/5/5
f 4/9/7 65/10/8 64/6/6
f 64/6/6 3/5/5 4/9/7
f 5/11/9 66/12/10 65/10/8
f 65/10/8 4/9/7 5/11/9
f 6/13/11 67/14/12 66/12/10
f 66/12/10 5/11/9 6/13/11
f 7/15/13 68/16/14 67/14/12
f 67/14/12 6/13/11 7/15/13
f 8/17/15 69/18/16 68/19/14
f 68/19/14 7/20/13 8/17/15
f 9/21/17 70/22/18 69/18/16
f 69/18/16 8/17/15 9/21/17
f 10/23/19 71/24/20 70/22/18
f 70/22/18 9/21/17 10/23/19
f 1/4/4 63/3/3 71/24/20
f 71/24/20 10/23/19 1/4/4
f 11/25/21 12/26/22 22/27/23
f 22/27/23 21/28/24 11/25/21
f 12/29/22 13/30/25 23/31/26
f 23/31/26 22/32/23 12/29/22
f 13/30/25 14/33/27 24/34/28
f 24/34/28 23/31/26 13/30/25
f 14/33/27 15/35/29 25/36/30
f 25/36/30 24/34/28 14/33/27
f 15/35/29 16/37/31 26/38/32
f 26/38/32 25/36/30 15/35/29
f 16/37/31 17/39/33 27/40/34
f 27/40/34 26/38/32 16/37/31
f 17/41/33 18/42/35 28/43/36
f 28/43/36 27/44/34 17/41/33
f 18/42/35 19/45/37 29/46/38
f 29/46/38 28/43/36 18/42/35
f 19/45/37 20/47/39 30/48/40
f 30/48/40 29/46/38 19/45/37
f 20/47/39 11/25/21 21/28/24
f 21/28/24 30/48/40 20/47/39
f 21/28/24 22/27/23 32/49/41
f 32/49/41 31/50/42 21/28/24
f 22/32/23 23/31/26 33/51/43
f 33/51/43 32/52/41 22/32/23
f 23/31/26 24/34/28 34/53/44
f 34/53/44 33/51/43 23/31/26
f 24/34/28 25/36/30 35/54/45
f 35/54/45 34/53/44 24/34/28
f 25/36/30 26/38/32 36/55/46
f 36/55/46 35/54/45 25/36/30
f 26/38/32 27/40/34 37/56/47
f 37/56/47 36/55/46 26/38/32
f 27/44/34 28/43/36 38/57/48
f 38/57/48 37/58/47 27/44/34
f 28/43/36 29/46/38 39/59/49
f 39/59/49 38/57/48 28/43/36
f 29/46/38 30/48/40 40/60/50
f 40/60/50 39/59/49 29/46/38
f 30/48/40 21/28/24 31/50/42
f 31/50/42 40/60/50 30/48/40
f 31/50/51 32/49/52 42/61/52
f 42/61/52 41/62/51 31/50/51
f 32/52/52 33/51/53 43/63/53
f 43/63/53 42/64/52 32/52/52
f 33/51/53 34/53/54 44/65/54
f 44/65/54 43/63/53 33/51/53
f 34/53/54 35/54/55 45/66/55
f 45/66/55 44/65/54 34/53/54
f 35/54/55 36/55/56 46/67/56
f 46/67/56 45/66/55 35/54/55
f 36/55/56 37/56/57 47/68/57
f 47/68/57 46/67/56 36/55/56
f 37/58/57 38/57/58 48/69/58
f 48/69/58 47/70/57 37/58/57
f 38/57/58 39/59/59 49/71/59
f 49/71/59 48/69/58 38/57/58
f 39/59/59 40/60/60 50/72/60
f 50/72/60 49/71/59 39/59/59
f 40/60/60 31/50/51 41/62/51
f 41/62/51 50/72/60 40/60/60
f 41/62/61 42/61/62 52/73/62
f 52/73/62 51/74/61 41/62/61
f 42/64/62 43/63/63 53/75/63
f 53/75/63 52/76/62 42/64/62
f 43/63/63 44/65/64 54/77/64
f 54/77/64 53/75/63 43/63/63
f 44/65/64 45/66/65 55/78/65
f 55/78/65 54/77/64 44/65/64
f 45/66/65 46/67/66 56/79/66
f 56/79/66 55/78/65 45/66/65
f 46/67/66 47/68/67 57/80/67
f 57/80/67 56/79/66 46/67/66
f 47/70/67 48/69/68 58/81/68
f 58/81/68 57/82/67 47/70/67
f 48/69/68 49/71/69 59/83/69
f 59/83/69 58/81/68 48/69/68
f 49/71/69 50/72/70 60/84/70
f 60/84/70 59/83/69 49/71/69
f 50/72/70 41/62/61 51/74/61
f 51/74/61 60/84/70 50/72/70
f 51/85/71 52/86/72 61/87/73
f 52/86/72 53/88/74 61/87/73
f 53/88/74 54/89/75 61/87/73
f 54/89/75 55/90/76 61/87/73
f 55/90/76 56/91/77 61/87/73
f 56/91/77 57/92/78 61/87/73
f 57/92/78 58/93/79 61/87/73
f 58/93/79 59/94/80 61/87/73
f 59/94/80 60/95/81 61/87/73
f 60/95/81 51/85/71 61/87/73
f 73/96/82 72/97/83 63/3/3
f 63/3/3 62/2/2 73/96/82
f 74/98/84 73/99/82 62/7/2
f 62/7/2 64/6/6 74/98/84
f 75/100/85 74/98/84 64/6/6
f 64/6/6 65/10/8 75/100/85
f 76/101/86 75/100/85 65/10/8
f 65/10/8 66/12/10 76/101/86
f 77/102/87 76/101/86 66/12/10
f 66/12/10 67/14/12 77/102/87
f 78/103/88 77/102/87 67/14/12
f 67/14/12 68/16/14 78/103/88
f 79/104/89 78/105/88 68/19/14
f 68/19/14 69/18/16 79/104/89
f 80/106/90 79/104/89 69/18/16
f 69/18/16 70/22/18 80/106/90
f 81/107/91 80/106/90 70/22/18
f 70/22/18 71/24/20 81/107/91
f 72/97/83 81/107/91 71/24/20
f 71/24/20 63/3/3 72/97/83
f 12/26/22 11/25/21 72/97/83
f 72/97/83 73/96/82 12/26/22
f 13/30/25 12/29/22 73/99/82
f 73/99/82 74/98/84 13/30/25
f 14/33/27 13/30/25 74/98/84
f 74/98/84 75/100/85 14/33/27
f 15/35/29 14/33/27 75/100/85
f 75/100/85 76/101/86 15/35/29
f 16/37/31 15/35/29 76/101/86
f 76/101/86 77/102/87 16/37/31
f 17/39/33 16/37/31 77/102/87
f 77/102/87 78/103/88 17/39/33
f 18/42/35 17/41/33 78/105/88
f 78/105/88 79/104/89 18/42/35
f 19/45/37 18/42/35 79/104/89
f 79/104/89 80/106/90 19/45/37
f 20/47/39 19/45/37 80/106/90
f 80/106/90 81/107/91 20/47/39
f 11/25/21 20/47/39 81/107/91
f 81/107/91 72/97/83 11/25/21
