# Blender v2.78 (sub 0) OBJ File: 'BARCO.blend'
# www.blender.org
v 0.311461 -0.483963 0.035503
v 0.269772 -0.483963 -0.147148
v 0.152962 -0.483963 -0.293622
v -0.015833 -0.483963 -0.374910
v -0.203181 -0.483963 -0.374910
v -0.371976 -0.483963 -0.293622
v -0.488785 -0.483963 -0.147148
v -0.530474 -0.483963 0.035503
v -0.488785 -0.483963 0.218154
v -0.371976 -0.483963 0.364629
v -0.203181 -0.483963 0.445917
v -0.015832 -0.483963 0.445917
v 0.152962 -0.483963 0.364629
v 0.269772 -0.483963 0.218154
v 0.356262 -0.299088 0.035503
v 0.310137 -0.299088 -0.166586
v 0.180896 -0.299088 -0.328650
v -0.005863 -0.299088 -0.418588
v -0.213150 -0.299088 -0.418588
v -0.399909 -0.299088 -0.328650
v -0.529150 -0.299088 -0.166586
v -0.575276 -0.299088 0.035503
v -0.529150 -0.299088 0.237593
v -0.399909 -0.299088 0.399657
v -0.213150 -0.299088 0.489595
v -0.005863 -0.299088 0.489595
v 0.180896 -0.299088 0.399657
v 0.310137 -0.299088 0.237593
v 0.234131 -0.565060 0.035503
v 0.200099 -0.565060 -0.113595
v 0.104748 -0.565060 -0.233163
v -0.033040 -0.565060 -0.299518
v -0.185973 -0.565060 -0.299518
v -0.323761 -0.565060 -0.233163
v -0.419113 -0.565060 -0.113595
v -0.453144 -0.565060 0.035503
v -0.419113 -0.565060 0.184602
v -0.323761 -0.565060 0.304170
v -0.185973 -0.565060 0.370525
v -0.033040 -0.565060 0.370525
v 0.104748 -0.565060 0.304170
v 0.200100 -0.565060 0.184602
v 0.311461 -0.133587 0.035503
v 0.269772 -0.133587 -0.147148
v 0.152962 -0.133587 -0.293622
v -0.015833 -0.133587 -0.374910
v -0.203181 -0.133587 -0.374910
v -0.371976 -0.133587 -0.293622
v -0.488785 -0.133587 -0.147148
v -0.530474 -0.133587 0.035503
v -0.488785 -0.133587 0.218154
v -0.371976 -0.133587 0.364629
v -0.203181 -0.133587 0.445917
v -0.015832 -0.133587 0.445917
v 0.152962 -0.133587 0.364629
v 0.269772 -0.133587 0.218154
v 0.181810 0.042306 0.035503
v 0.152961 0.042306 -0.090894
v 0.072127 0.042306 -0.192257
v -0.044683 0.042306 -0.248510
v -0.174331 0.042306 -0.248510
v -0.291140 0.042306 -0.192257
v -0.371974 0.042306 -0.090894
v -0.400823 0.042306 0.035503
v -0.371974 0.042306 0.161901
v -0.291140 0.042306 0.263264
v -0.174331 0.042306 0.319516
v -0.044683 0.042306 0.319516
v 0.072127 0.042306 0.263264
v 0.152961 0.042306 0.161901
v 0.221269 0.058323 0.035503
v 0.188512 0.058323 -0.108015
v 0.096729 0.058323 -0.223108
v -0.035902 0.058323 -0.286979
v -0.183111 0.058323 -0.286979
v -0.315742 0.058323 -0.223108
v -0.407525 0.058323 -0.108015
v -0.440283 0.058323 0.035503
v -0.407525 0.058323 0.179022
v -0.315742 0.058323 0.294114
v -0.183111 0.058323 0.357986
v -0.035902 0.058323 0.357986
v 0.096729 0.058323 0.294114
v 0.188512 0.058323 0.179022
v 0.230870 0.190501 0.035503
v 0.197162 0.190501 -0.112180
v 0.102715 0.190501 -0.230614
v -0.033766 0.190501 -0.296339
v -0.185248 0.190501 -0.296339
v -0.321728 0.190501 -0.230614
v -0.416175 0.190501 -0.112180
v -0.449884 0.190501 0.035503
v -0.416175 0.190501 0.183187
v -0.321728 0.190501 0.301621
v -0.185248 0.190501 0.367346
v -0.033766 0.190501 0.367346
v 0.102715 0.190501 0.301621
v 0.197162 0.190501 0.183187
v 0.138055 0.214508 0.035503
v 0.113539 0.214508 -0.071910
v 0.044846 0.214508 -0.158048
v -0.054419 0.214508 -0.205852
v -0.164594 0.214508 -0.205852
v -0.263859 0.214508 -0.158048
v -0.332552 0.214508 -0.071910
v -0.357068 0.214508 0.035503
v -0.332552 0.214508 0.142916
v -0.263859 0.214508 0.229055
v -0.164594 0.214508 0.276858
v -0.054419 0.214508 0.276858
v 0.044846 0.214508 0.229055
v 0.113539 0.214508 0.142916
v 0.138055 0.022549 0.035503
v 0.113539 0.022549 -0.071910
v 0.044846 0.022549 -0.158048
v -0.054419 0.022549 -0.205852
v -0.164594 0.022549 -0.205852
v -0.263859 0.022549 -0.158048
v -0.332552 0.022549 -0.071910
v -0.357068 0.022549 0.035503
v -0.332552 0.022549 0.142916
v -0.263859 0.022549 0.229055
v -0.164594 0.022549 0.276858
v -0.054419 0.022549 0.276858
v 0.044846 0.022549 0.229055
v 0.113539 0.022549 0.142916
v -0.109507 -0.189633 0.035503
vt 0.0195 0.2135
vt 0.0374 0.2135
vt 0.0374 0.2467
vt 0.0195 0.2467
vt 0.0554 0.2135
vt 0.0554 0.2467
vt 0.0734 0.2135
vt 0.0734 0.2467
vt 0.0914 0.2135
vt 0.0914 0.2467
vt 0.1091 0.2135
vt 0.1091 0.2467
vt 0.1268 0.2135
vt 0.1268 0.2467
vt 0.0016 0.2135
vt 0.0194 0.2135
vt 0.0194 0.2467
vt 0.0016 0.2467
vt 0.0372 0.2135
vt 0.0372 0.2467
vt 0.0553 0.2135
vt 0.0553 0.2467
vt 0.0733 0.2135
vt 0.0733 0.2467
vt 0.0913 0.2135
vt 0.0913 0.2467
vt 0.1090 0.2135
vt 0.1090 0.2467
vt 0.1267 0.2135
vt 0.1267 0.2467
vt 0.0017 0.2135
vt 0.0017 0.2467
vt 0.0195 0.1990
vt 0.0374 0.1990
vt 0.0554 0.1990
vt 0.0734 0.1990
vt 0.0914 0.1990
vt 0.1091 0.1990
vt 0.1268 0.1990
vt 0.0016 0.1990
vt 0.0194 0.1990
vt 0.0372 0.1990
vt 0.0553 0.1990
vt 0.0733 0.1990
vt 0.0913 0.1990
vt 0.1090 0.1990
vt 0.1267 0.1990
vt 0.0017 0.1990
vt 0.0374 0.2763
vt 0.0195 0.2763
vt 0.0554 0.2763
vt 0.0734 0.2763
vt 0.0914 0.2763
vt 0.1091 0.2763
vt 0.1268 0.2763
vt 0.0194 0.2763
vt 0.0016 0.2763
vt 0.0372 0.2763
vt 0.0553 0.2763
vt 0.0733 0.2763
vt 0.0913 0.2763
vt 0.1090 0.2763
vt 0.1267 0.2763
vt 0.0017 0.2763
vt 0.0374 0.3165
vt 0.0195 0.3165
vt 0.0554 0.3165
vt 0.0734 0.3165
vt 0.0914 0.3165
vt 0.1091 0.3165
vt 0.1268 0.3165
vt 0.0194 0.3165
vt 0.0016 0.3165
vt 0.0372 0.3165
vt 0.0553 0.3165
vt 0.0733 0.3165
vt 0.0913 0.3165
vt 0.1090 0.3165
vt 0.1267 0.3165
vt 0.0017 0.3165
vt 0.0374 0.3234
vt 0.0195 0.3234
vt 0.0554 0.3234
vt 0.0734 0.3234
vt 0.0914 0.3234
vt 0.1091 0.3234
vt 0.1268 0.3234
vt 0.0194 0.3234
vt 0.0016 0.3234
vt 0.0372 0.3234
vt 0.0553 0.3234
vt 0.0733 0.3234
vt 0.0913 0.3234
vt 0.1090 0.3234
vt 0.1267 0.3234
vt 0.0017 0.3234
vt 0.0374 0.3410
vt 0.0195 0.3410
vt 0.0554 0.3410
vt 0.0734 0.3410
vt 0.0914 0.3410
vt 0.1091 0.3410
vt 0.1268 0.3410
vt 0.0194 0.3410
vt 0.0016 0.3410
vt 0.0372 0.3410
vt 0.0553 0.3410
vt 0.0733 0.3410
vt 0.0913 0.3410
vt 0.1090 0.3410
vt 0.1267 0.3410
vt 0.0017 0.3410
vt 0.0374 0.3484
vt 0.0195 0.3484
vt 0.0554 0.3484
vt 0.0734 0.3484
vt 0.0914 0.3484
vt 0.1091 0.3484
vt 0.1268 0.3484
vt 0.0194 0.3484
vt 0.0016 0.3484
vt 0.0372 0.3484
vt 0.0553 0.3484
vt 0.0733 0.3484
vt 0.0913 0.3484
vt 0.1090 0.3484
vt 0.1267 0.3484
vt 0.0017 0.3484
vt 0.0195 0.3015
vt 0.0374 0.3015
vt 0.0374 0.3216
vt 0.0195 0.3216
vt 0.0554 0.3015
vt 0.0554 0.3216
vt 0.0734 0.3015
vt 0.0734 0.3216
vt 0.0914 0.3015
vt 0.0914 0.3216
vt 0.1091 0.3015
vt 0.1091 0.3216
vt 0.1268 0.3015
vt 0.1268 0.3216
vt 0.0016 0.3015
vt 0.0194 0.3015
vt 0.0194 0.3216
vt 0.0016 0.3216
vt 0.0372 0.3015
vt 0.0372 0.3216
vt 0.0553 0.3015
vt 0.0553 0.3216
vt 0.0733 0.3015
vt 0.0733 0.3216
vt 0.0913 0.3015
vt 0.0913 0.3216
vt 0.1090 0.3015
vt 0.1090 0.3216
vt 0.1267 0.3015
vt 0.1267 0.3216
vt 0.0017 0.3015
vt 0.0017 0.3216
vt 0.2086 0.0794
vt 0.2024 0.0850
vt 0.1932 0.0688
vt 0.1944 0.0873
vt 0.1861 0.0860
vt 0.1793 0.0812
vt 0.1752 0.0740
vt 0.1747 0.0658
vt 0.1778 0.0581
vt 0.1840 0.0526
vt 0.1920 0.0502
vt 0.2003 0.0516
vt 0.2071 0.0563
vt 0.2112 0.0635
vt 0.2118 0.0718
vn 0.8857 -0.4643 0.0000
vn 0.7980 -0.4643 -0.3843
vn 0.9009 0.0129 -0.4338
vn 0.9999 0.0129 -0.0000
vn 0.5522 -0.4643 -0.6924
vn 0.6234 0.0129 -0.7818
vn 0.1971 -0.4643 -0.8635
vn 0.2225 0.0129 -0.9748
vn -0.1971 -0.4643 -0.8635
vn -0.2225 0.0129 -0.9748
vn -0.5522 -0.4643 -0.6924
vn -0.6234 0.0129 -0.7818
vn -0.7980 -0.4643 -0.3843
vn -0.9009 0.0129 -0.4338
vn -0.8857 -0.4643 -0.0000
vn -0.9999 0.0129 0.0000
vn -0.7980 -0.4643 0.3843
vn -0.9009 0.0129 0.4338
vn -0.5522 -0.4643 0.6924
vn -0.6234 0.0129 0.7818
vn -0.1971 -0.4643 0.8635
vn -0.2225 0.0129 0.9748
vn 0.1971 -0.4643 0.8635
vn 0.2225 0.0129 0.9748
vn 0.5522 -0.4643 0.6924
vn 0.6234 0.0129 0.7818
vn 0.7980 -0.4643 0.3843
vn 0.9009 0.0129 0.4338
vn 0.7237 -0.6901 0.0000
vn 0.6520 -0.6901 -0.3140
vn 0.4512 -0.6901 -0.5658
vn 0.1610 -0.6901 -0.7056
vn -0.1610 -0.6901 -0.7056
vn -0.4512 -0.6901 -0.5658
vn -0.6520 -0.6901 -0.3140
vn -0.7237 -0.6901 -0.0000
vn -0.6520 -0.6901 0.3140
vn -0.4512 -0.6901 0.5658
vn -0.1610 -0.6901 0.7056
vn 0.1610 -0.6901 0.7056
vn 0.4512 -0.6901 0.5658
vn 0.6520 -0.6901 0.3140
vn 0.8156 0.4248 -0.3928
vn 0.9053 0.4248 -0.0000
vn 0.5644 0.4248 -0.7078
vn 0.2014 0.4248 -0.8826
vn -0.2014 0.4248 -0.8826
vn -0.5644 0.4248 -0.7078
vn -0.8156 0.4248 -0.3928
vn -0.9053 0.4248 0.0000
vn -0.8156 0.4248 0.3928
vn -0.5644 0.4248 0.7078
vn -0.2014 0.4248 0.8826
vn 0.2014 0.4248 0.8826
vn 0.5644 0.4248 0.7078
vn 0.8156 0.4248 0.3928
vn 0.7252 0.5933 -0.3493
vn 0.8050 0.5933 0.0000
vn 0.5019 0.5933 -0.6293
vn 0.1791 0.5933 -0.7848
vn -0.1791 0.5933 -0.7848
vn -0.5019 0.5933 -0.6293
vn -0.7252 0.5933 -0.3493
vn -0.8050 0.5933 -0.0000
vn -0.7252 0.5933 0.3493
vn -0.5019 0.5933 0.6293
vn -0.1791 0.5933 0.7848
vn 0.1791 0.5933 0.7848
vn 0.5019 0.5933 0.6293
vn 0.7252 0.5933 0.3493
vn 0.3761 -0.9266 -0.0000
vn 0.3389 -0.9266 -0.1632
vn 0.2345 -0.9266 -0.2941
vn 0.0837 -0.9266 -0.3667
vn -0.0837 -0.9266 -0.3667
vn -0.2345 -0.9266 -0.2941
vn -0.3389 -0.9266 -0.1632
vn -0.3761 -0.9266 0.0000
vn -0.3389 -0.9266 0.1632
vn -0.2345 -0.9266 0.2941
vn -0.0837 -0.9266 0.3667
vn 0.0837 -0.9266 0.3667
vn 0.2345 -0.9266 0.2941
vn 0.3389 -0.9266 0.1632
vn 0.9974 -0.0724 0.0000
vn 0.8986 -0.0724 -0.4327
vn 0.6219 -0.0724 -0.7798
vn 0.2219 -0.0724 -0.9724
vn -0.2219 -0.0724 -0.9724
vn -0.6219 -0.0724 -0.7798
vn -0.8986 -0.0724 -0.4327
vn -0.9974 -0.0724 0.0000
vn -0.8986 -0.0724 0.4327
vn -0.6219 -0.0724 0.7798
vn -0.2219 -0.0724 0.9724
vn 0.2219 -0.0724 0.9724
vn 0.6219 -0.0724 0.7798
vn 0.8986 -0.0724 0.4327
vn 0.2504 0.9681 0.0000
vn 0.2256 0.9681 -0.1087
vn 0.1561 0.9681 -0.1958
vn 0.0557 0.9681 -0.2441
vn -0.0557 0.9681 -0.2441
vn -0.1561 0.9681 -0.1958
vn -0.2256 0.9681 -0.1087
vn -0.2504 0.9681 -0.0000
vn -0.2256 0.9681 0.1087
vn -0.1561 0.9681 0.1958
vn -0.0557 0.9681 0.2441
vn 0.0557 0.9681 0.2441
vn 0.1561 0.9681 0.1958
vn 0.2256 0.9681 0.1087
vn -1.0000 0.0000 0.0000
vn -0.9010 0.0000 0.4339
vn -0.8270 0.3969 0.3982
vn -0.9179 0.3969 -0.0000
vn -0.6235 0.0000 0.7818
vn -0.5723 0.3969 0.7176
vn -0.2225 0.0000 0.9749
vn -0.2042 0.3969 0.8948
vn 0.2225 0.0000 0.9749
vn 0.2042 0.3969 0.8948
vn 0.6235 0.0000 0.7818
vn 0.5723 0.3969 0.7176
vn 0.9010 0.0000 0.4339
vn 0.8270 0.3969 0.3982
vn 1.0000 0.0000 0.0000
vn 0.9179 0.3969 -0.0000
vn 0.9010 0.0000 -0.4339
vn 0.8270 0.3969 -0.3982
vn 0.6235 0.0000 -0.7818
vn 0.5723 0.3969 -0.7176
vn 0.2225 0.0000 -0.9749
vn 0.2042 0.3969 -0.8948
vn -0.2225 0.0000 -0.9749
vn -0.2042 0.3969 -0.8948
vn -0.6235 0.0000 -0.7818
vn -0.5723 0.3969 -0.7176
vn -0.9010 0.0000 -0.4339
vn -0.8270 0.3969 -0.3982
vn -0.0000 1.0000 0.0000
s 1
f 1/1/1 2/2/2 16/3/3
f 16/3/3 15/4/4 1/1/1
f 2/2/2 3/5/5 17/6/6
f 17/6/6 16/3/3 2/2/2
f 3/5/5 4/7/7 18/8/8
f 18/8/8 17/6/6 3/5/5
f 4/7/7 5/9/9 19/10/10
f 19/10/10 18/8/8 4/7/7
f 5/9/9 6/11/11 20/12/12
f 20/12/12 19/10/10 5/9/9
f 6/11/11 7/13/13 21/14/14
f 21/14/14 20/12/12 6/11/11
f 7/15/13 8/16/15 22/17/16
f 22/17/16 21/18/14 7/15/13
f 8/16/15 9/19/17 23/20/18
f 23/20/18 22/17/16 8/16/15
f 9/19/17 10/21/19 24/22/20
f 24/22/20 23/20/18 9/19/17
f 10/21/19 11/23/21 25/24/22
f 25/24/22 24/22/20 10/21/19
f 11/23/21 12/25/23 26/26/24
f 26/26/24 25/24/22 11/23/21
f 12/25/23 13/27/25 27/28/26
f 27/28/26 26/26/24 12/25/23
f 13/27/25 14/29/27 28/30/28
f 28/30/28 27/28/26 13/27/25
f 14/31/27 1/1/1 15/4/4
f 15/4/4 28/32/28 14/31/27
f 2/2/2 1/1/1 29/33/29
f 29/33/29 30/34/30 2/2/2
f 3/5/5 2/2/2 30/34/30
f 30/34/30 31/35/31 3/5/5
f 4/7/7 3/5/5 31/35/31
f 31/35/31 32/36/32 4/7/7
f 5/9/9 4/7/7 32/36/32
f 32/36/32 33/37/33 5/9/9
f 6/11/11 5/9/9 33/37/33
f 33/37/33 34/38/34 6/11/11
f 7/13/13 6/11/11 34/38/34
f 34/38/34 35/39/35 7/13/13
f 8/16/15 7/15/13 35/40/35
f 35/40/35 36/41/36 8/16/15
f 9/19/17 8/16/15 36/41/36
f 36/41/36 37/42/37 9/19/17
f 10/21/19 9/19/17 37/42/37
f 37/42/37 38/43/38 10/21/19
f 11/23/21 10/21/19 38/43/38
f 38/43/38 39/44/39 11/23/21
f 12/25/23 11/23/21 39/44/39
f 39/44/39 40/45/40 12/25/23
f 13/27/25 12/25/23 40/45/40
f 40/45/40 41/46/41 13/27/25
f 14/29/27 13/27/25 41/46/41
f 41/46/41 42/47/42 14/29/27
f 1/1/1 14/31/27 42/48/42
f 42/48/42 29/33/29 1/1/1
f 15/4/4 16/3/3 44/49/43
f 44/49/43 43/50/44 15/4/4
f 16/3/3 17/6/6 45/51/45
f 45/51/45 44/49/43 16/3/3
f 17/6/6 18/8/8 46/52/46
f 46/52/46 45/51/45 17/6/6
f 18/8/8 19/10/10 47/53/47
f 47/53/47 46/52/46 18/8/8
f 19/10/10 20/12/12 48/54/48
f 48/54/48 47/53/47 19/10/10
f 20/12/12 21/14/14 49/55/49
f 49/55/49 48/54/48 20/12/12
f 21/18/14 22/17/16 50/56/50
f 50/56/50 49/57/49 21/18/14
f 22/17/16 23/20/18 51/58/51
f 51/58/51 50/56/50 22/17/16
f 23/20/18 24/22/20 52/59/52
f 52/59/52 51/58/51 23/20/18
f 24/22/20 25/24/22 53/60/53
f 53/60/53 52/59/52 24/22/20
f 25/24/22 26/26/24 54/61/54
f 54/61/54 53/60/53 25/24/22
f 26/26/24 27/28/26 55/62/55
f 55/62/55 54/61/54 26/26/24
f 27/28/26 28/30/28 56/63/56
f 56/63/56 55/62/55 27/28/26
f 28/32/28 15/4/4 43/50/44
f 43/50/44 56/64/56 28/32/28
f 43/50/44 44/49/43 58/65/57
f 58/65/57 57/66/58 43/50/44
f 44/49/43 45/51/45 59/67/59
f 59/67/59 58/65/57 44/49/43
f 45/51/45 46/52/46 60/68/60
f 60/68/60 59/67/59 45/51/45
f 46/52/46 47/53/47 61/69/61
f 61/69/61 60/68/60 46/52/46
f 47/53/47 48/54/48 62/70/62
f 62/70/62 61/69/61 47/53/47
f 48/54/48 49/55/49 63/71/63
f 63/71/63 62/70/62 48/54/48
f 49/57/49 50/56/50 64/72/64
f 64/72/64 63/73/63 49/57/49
f 50/56/50 51/58/51 65/74/65
f 65/74/65 64/72/64 50/56/50
f 51/58/51 52/59/52 66/75/66
f 66/75/66 65/74/65 51/58/51
f 52/59/52 53/60/53 67/76/67
f 67/76/67 66/75/66 52/59/52
f 53/60/53 54/61/54 68/77/68
f 68/77/68 67/76/67 53/60/53
f 54/61/54 55/62/55 69/78/69
f 69/78/69 68/77/68 54/61/54
f 55/62/55 56/63/56 70/79/70
f 70/79/70 69/78/69 55/62/55
f 56/64/56 43/50/44 57/66/58
f 57/66/58 70/80/70 56/64/56
f 57/66/71 58/65/72 72/81/72
f 72/81/72 71/82/71 57/66/71
f 58/65/72 59/67/73 73/83/73
f 73/83/73 72/81/72 58/65/72
f 59/67/73 60/68/74 74/84/74
f 74/84/74 73/83/73 59/67/73
f 60/68/74 61/69/75 75/85/75
f 75/85/75 74/84/74 60/68/74
f 61/69/75 62/70/76 76/86/76
f 76/86/76 75/85/75 61/69/75
f 62/70/76 63/71/77 77/87/77
f 77/87/77 76/86/76 62/70/76
f 63/73/77 64/72/78 78/88/78
f 78/88/78 77/89/77 63/73/77
f 64/72/78 65/74/79 79/90/79
f 79/90/79 78/88/78 64/72/78
f 65/74/79 66/75/80 80/91/80
f 80/91/80 79/90/79 65/74/79
f 66/75/80 67/76/81 81/92/81
f 81/92/81 80/91/80 66/75/80
f 67/76/81 68/77/82 82/93/82
f 82/93/82 81/92/81 67/76/81
f 68/77/82 69/78/83 83/94/83
f 83/94/83 82/93/82 68/77/82
f 69/78/83 70/79/84 84/95/84
f 84/95/84 83/94/83 69/78/83
f 70/80/84 57/66/71 71/82/71
f 71/82/71 84/96/84 70/80/84
f 71/82/85 72/81/86 86/97/86
f 86/97/86 85/98/85 71/82/85
f 72/81/86 73/83/87 87/99/87
f 87/99/87 86/97/86 72/81/86
f 73/83/87 74/84/88 88/100/88
f 88/100/88 87/99/87 73/83/87
f 74/84/88 75/85/89 89/101/89
f 89/101/89 88/100/88 74/84/88
f 75/85/89 76/86/90 90/102/90
f 90/102/90 89/101/89 75/85/89
f 76/86/90 77/87/91 91/103/91
f 91/103/91 90/102/90 76/86/90
f 77/89/91 78/88/92 92/104/92
f 92/104/92 91/105/91 77/89/91
f 78/88/92 79/90/93 93/106/93
f 93/106/93 92/104/92 78/88/92
f 79/90/93 80/91/94 94/107/94
f 94/107/94 93/106/93 79/90/93
f 80/91/94 81/92/95 95/108/95
f 95/108/95 94/107/94 80/91/94
f 81/92/95 82/93/96 96/109/96
f 96/109/96 95/108/95 81/92/95
f 82/93/96 83/94/97 97/110/97
f 97/110/97 96/109/96 82/93/96
f 83/94/97 84/95/98 98/111/98
f 98/111/98 97/110/97 83/94/97
f 84/96/98 71/82/85 85/98/85
f 85/98/85 98/112/98 84/96/98
f 85/98/99 86/97/100 100/113/100
f 100/113/100 99/114/99 85/98/99
f 86/97/100 87/99/101 101/115/101
f 101/115/101 100/113/100 86/97/100
f 87/99/101 88/100/102 102/116/102
f 102/116/102 101/115/101 87/99/101
f 88/100/102 89/101/103 103/117/103
f 103/117/103 102/116/102 88/100/102
f 89/101/103 90/102/104 104/118/104
f 104/118/104 103/117/103 89/101/103
f 90/102/104 91/103/105 105/119/105
f 105/119/105 104/118/104 90/102/104
f 91/105/105 92/104/106 106/120/106
f 106/120/106 105/121/105 91/105/105
f 92/104/106 93/106/107 107/122/107
f 107/122/107 106/120/106 92/104/106
f 93/106/107 94/107/108 108/123/108
f 108/123/108 107/122/107 93/106/107
f 94/107/108 95/108/109 109/124/109
f 109/124/109 108/123/108 94/107/108
f 95/108/109 96/109/110 110/125/110
f 110/125/110 109/124/109 95/108/109
f 96/109/110 97/110/111 111/126/111
f 111/126/111 110/125/110 96/109/110
f 97/110/111 98/111/112 112/127/112
f 112/127/112 111/126/111 97/110/111
f 98/112/112 85/98/99 99/114/99
f 99/114/99 112/128/112 98/112/112
f 99/129/113 100/130/114 114/131/115
f 114/131/115 113/132/116 99/129/113
f 100/130/114 101/133/117 115/134/118
f 115/134/118 114/131/115 100/130/114
f 101/133/117 102/135/119 116/136/120
f 116/136/120 115/134/118 101/133/117
f 102/135/119 103/137/121 117/138/122
f 117/138/122 116/136/120 102/135/119
f 103/137/121 104/139/123 118/140/124
f 118/140/124 117/138/122 103/137/121
f 104/139/123 105/141/125 119/142/126
f 119/142/126 118/140/124 104/139/123
f 105/143/125 106/144/127 120/145/128
f 120/145/128 119/146/126 105/143/125
f 106/144/127 107/147/129 121/148/130
f 121/148/130 120/145/128 106/144/127
f 107/147/129 108/149/131 122/150/132
f 122/150/132 121/148/130 107/147/129
f 108/149/131 109/151/133 123/152/134
f 123/152/134 122/150/132 108/149/131
f 109/151/133 110/153/135 124/154/136
f 124/154/136 123/152/134 109/151/133
f 110/153/135 111/155/137 125/156/138
f 125/156/138 124/154/136 110/153/135
f 111/155/137 112/157/139 126/158/140
f 126/158/140 125/156/138 111/155/137
f 112/159/139 99/129/113 113/132/116
f 113/132/116 126/160/140 112/159/139
f 113/161/116 114/162/115 127/163/141
f 114/162/115 115/164/118 127/163/141
f 115/164/118 116/165/120 127/163/141
f 116/165/120 117/166/122 127/163/141
f 117/166/122 118/167/124 127/163/141
f 118/167/124 119/168/126 127/163/141
f 119/168/126 120/169/128 127/163/141
f 120/169/128 121/170/130 127/163/141
f 121/170/130 122/171/132 127/163/141
f 122/171/132 123/172/134 127/163/141
f 123/172/134 124/173/136 127/163/141
f 124/173/136 125/174/138 127/163/141
f 125/174/138 126/175/140 127/163/141
f 126/175/140 113/161/116 127/163/141
