# Blender v2.77 (sub 0) OBJ File: 'rangedHand.blend'
# www.blender.org
v -0.027916 -0.063578 0.181755
v 0.074844 -0.075785 0.133962
v 0.057119 -0.087082 0.215008
v 0.033245 -0.227779 0.168194
v -0.013070 0.104617 0.145107
v -0.075019 -0.065032 0.091651
v -0.067789 0.089479 0.025646
v 0.001978 -0.233756 -0.030052
v -0.029110 -0.231192 -0.096510
v 0.159183 -0.315183 -0.073137
v 0.049044 -0.193851 -0.128630
v 0.027190 -0.038255 -0.140690
v 0.078487 -0.185474 -0.053258
v 0.144594 -0.325295 0.114714
v -0.032536 -0.255784 0.115524
v 0.000304 -0.242115 0.065504
v 0.087167 -0.009918 0.266179
v 0.202059 -0.156337 0.249205
v 0.145236 0.000713 0.180488
v 0.108012 -0.079170 0.138754
v 0.070523 -0.206280 0.098316
v 0.048134 -0.054599 0.015795
v -0.005055 0.086155 -0.124296
v -0.070855 -0.061380 -0.044997
v 0.049715 0.091016 -0.042509
v 0.072724 0.092715 0.076542
v 0.063021 -0.191683 0.015828
v 0.149257 -0.343924 0.025992
v -0.040026 -0.255026 0.022525
v -0.085768 -0.071669 0.025328
v -0.004027 0.146170 0.017271
v 0.062646 0.214196 0.032756
v -0.075430 0.226082 0.090863
v -0.018865 0.109415 0.127494
v 0.066634 0.115725 0.006252
v -0.000306 0.079138 -0.108602
v -0.085314 0.124406 0.018214
v -0.066711 0.196606 -0.035358
v 0.051811 0.189036 -0.115332
v 0.033767 0.356546 0.029290
v -0.072211 0.348086 0.055166
v -0.087754 0.335959 -0.048852
v 0.002753 0.328608 -0.126275
v -0.075388 0.395432 0.048194
v 0.047377 0.402135 0.048304
v -0.091829 0.383145 -0.080678
v 0.028581 0.376072 -0.114372
v -0.036167 0.446754 -0.045269
vt 0.6017 0.4585
vt 0.5835 0.4521
vt 0.5834 0.4670
vt 0.5943 0.4211
vt 0.6206 0.4882
vt 0.6211 0.4519
vt 0.6421 0.4780
vt 0.6389 0.4088
vt 0.6503 0.4125
vt 0.6641 0.3797
vt 0.6648 0.4129
vt 0.6705 0.4448
vt 0.6781 0.4095
vt 0.5862 0.3914
vt 0.6065 0.4176
vt 0.6157 0.4125
vt 0.5844 0.4833
vt 0.5518 0.4710
vt 0.7642 0.4297
vt 0.7401 0.4541
vt 0.7541 0.4643
vt 0.7337 0.4393
vt 0.7226 0.4862
vt 0.6902 0.4018
vt 0.7406 0.3838
vt 0.7279 0.4096
vt 0.7415 0.4118
vt 0.7001 0.4374
vt 0.7253 0.4390
vt 0.6717 0.4701
vt 0.6462 0.4462
vt 0.6894 0.4690
vt 0.7128 0.4701
vt 0.5764 0.4531
vt 0.7165 0.4030
vt 0.7024 0.4058
vt 0.7064 0.3702
vt 0.6208 0.3740
vt 0.6263 0.4118
vt 0.6331 0.4473
vt 0.6477 0.4905
vt 0.6975 0.4842
vt 0.7316 0.5156
vt 0.7615 0.5153
vt 0.7659 0.4904
vt 0.7343 0.4983
vt 0.7018 0.4921
vt 0.6743 0.5049
vt 0.6771 0.5238
vt 0.6475 0.5018
vt 0.6524 0.5293
vt 0.7039 0.5187
vt 0.7344 0.5466
vt 0.7506 0.5411
vt 0.6684 0.5542
vt 0.6852 0.5526
vt 0.7067 0.5484
vt 0.7579 0.5483
vt 0.7377 0.5605
vt 0.6858 0.5664
vt 0.6609 0.5621
vt 0.7071 0.5588
vt 0.7624 0.5707
vt 0.6739 0.5807
vt 0.6977 0.5803
vt 0.7192 0.5789
vt 0.6716 0.4742
vn -0.1971 -0.9642 -0.1775
vn 0.4285 0.0853 0.8995
vn -0.8735 0.1760 0.4538
vn -0.8992 0.2068 0.3856
vn -0.4187 -0.8937 0.1614
vn 0.9229 0.1008 -0.3717
vn -0.3284 -0.1187 -0.9371
vn -0.3291 -0.8335 -0.4438
vn -0.7782 -0.2457 -0.5780
vn -0.6412 0.2170 0.7361
vn -0.3872 -0.4001 0.8307
vn 0.6953 0.4840 0.5312
vn 0.7573 -0.0117 -0.6530
vn 0.4396 0.8053 0.3978
vn 0.2760 0.0245 0.9608
vn 0.6899 0.5013 0.5223
vn 0.9761 0.0266 -0.2159
vn -0.9028 0.1973 -0.3821
vn 0.7907 0.2769 -0.5460
vn 0.1035 -0.3197 -0.9419
vn -0.3453 -0.8816 -0.3219
vn 0.5875 0.0640 0.8067
vn 0.4314 0.3011 0.8504
vn -0.3397 -0.7457 -0.5731
vn -0.4260 -0.3789 0.8215
vn 0.7953 -0.0552 -0.6037
vn 0.9706 -0.0666 -0.2313
vn -0.1154 -0.4979 -0.8595
vn 0.7669 0.5321 -0.3587
vn 0.4856 0.2185 -0.8464
vn 0.3756 0.1069 -0.9206
vn -0.2625 -0.6769 0.6877
vn -0.5316 -0.2645 0.8046
vn -0.7030 0.0426 -0.7100
vn -0.3601 -0.7449 0.5617
vn 0.5720 0.0619 -0.8179
vn 0.5352 -0.3413 -0.7727
vn 0.8908 -0.1470 0.4300
vn 0.4582 -0.3293 0.8256
vn 0.9565 0.2743 -0.0994
vn -0.0782 -0.9849 -0.1544
vn -0.8769 -0.1376 0.4606
vn -0.7341 -0.1731 -0.6566
vn -0.8851 -0.3953 -0.2455
vn -0.6890 -0.1826 0.7014
vn -0.8940 -0.4077 0.1857
vn -0.8600 -0.3296 0.3896
vn -0.9755 0.1092 -0.1909
vn -0.9829 0.1094 0.1483
vn -0.6860 -0.0826 -0.7229
vn 0.4362 0.8029 0.4064
vn -0.6569 0.6959 -0.2903
vn 0.6337 0.7620 -0.1333
vn 0.3698 0.8756 0.3108
vn 0.9880 -0.0665 -0.1392
vn 0.9784 -0.0859 -0.1879
vn -0.6368 0.7454 0.1972
vn 0.4514 0.8204 -0.3511
vn 0.3803 0.4398 0.8136
vn 0.8143 -0.1199 0.5680
vn -0.8454 -0.1602 -0.5095
vn -0.8408 -0.2582 0.4758
vn 0.9945 0.0627 -0.0834
vn 0.8364 -0.4183 -0.3542
vn 0.2080 0.2696 0.9402
vn 0.3933 0.1020 0.9137
vn -0.9780 -0.1320 0.1615
vn -0.9975 0.0058 -0.0703
vn -0.6370 -0.2802 -0.7181
vn -0.5590 -0.1631 -0.8130
vn 0.9561 0.1885 -0.2245
vn 0.9392 0.3205 -0.1232
vn 0.2224 0.1566 0.9623
vn 0.0205 -0.3901 0.9206
vn -0.9892 0.0132 0.1463
vn -0.9903 -0.0472 0.1308
vn -0.2327 0.3538 -0.9059
vn -0.5907 -0.4856 -0.6444
vn 0.9627 -0.2241 -0.1517
vn 0.8808 -0.4728 -0.0260
vn -0.0487 0.8840 0.4650
vn -0.7618 0.6468 0.0355
vn -0.1837 0.5959 -0.7817
vn 0.6219 0.7588 -0.1934
vn -0.9791 0.1723 -0.1079
vn -0.5384 0.2053 -0.8173
vn -0.0644 -0.9932 -0.0971
vn -0.0290 -0.9474 0.3187
s off
f 1/1/1 2/2/1 3/3/1
f 1/1/2 4/4/2 2/2/2
f 5/5/3 6/6/3 1/1/3
f 6/6/4 5/5/4 7/7/4
f 8/8/5 9/9/5 10/10/5
f 11/11/6 12/12/6 13/13/6
f 12/12/7 11/11/7 9/9/7
f 14/14/8 15/15/8 16/16/8
f 15/15/9 6/6/9 16/16/9
f 5/5/10 1/1/10 17/17/10
f 17/17/11 3/3/11 18/18/11
f 18/19/12 19/20/12 17/21/12
f 18/19/13 20/22/13 19/20/13
f 17/21/14 19/20/14 5/23/14
f 10/10/15 13/13/15 8/24/15
f 14/25/16 21/26/16 4/27/16
f 22/28/17 2/29/17 21/26/17
f 7/7/18 23/30/18 24/31/18
f 12/12/19 23/30/19 25/32/19
f 20/22/20 2/29/20 26/33/20
f 20/34/21 18/18/21 3/3/21
f 16/35/22 27/36/22 22/28/22
f 16/35/23 28/37/23 27/36/23
f 8/8/24 28/38/24 29/39/24
f 17/17/25 1/1/25 3/3/25
f 20/22/26 26/33/26 19/20/26
f 26/33/27 2/29/27 22/28/27
f 10/10/28 9/9/28 11/11/28
f 13/13/29 10/10/29 11/11/29
f 27/36/30 28/37/30 8/24/30
f 21/26/31 14/25/31 16/35/31
f 15/15/32 14/14/32 4/4/32
f 1/1/33 15/15/33 4/4/33
f 12/12/34 9/9/34 24/31/34
f 29/39/35 28/38/35 16/16/35
f 22/28/36 27/36/36 8/24/36
f 22/28/37 21/26/37 16/35/37
f 21/26/38 2/29/38 4/27/38
f 13/13/39 22/28/39 8/24/39
f 13/13/40 12/12/40 22/28/40
f 3/3/41 2/2/41 20/34/41
f 6/6/42 15/15/42 1/1/42
f 30/40/43 8/8/43 29/39/43
f 8/8/44 30/40/44 24/31/44
f 16/16/45 30/40/45 29/39/45
f 30/40/46 16/16/46 6/6/46
f 24/31/47 9/9/47 8/8/47
f 7/7/48 24/31/48 30/40/48
f 6/6/49 7/7/49 30/40/49
f 24/31/50 23/30/50 12/12/50
f 5/23/51 19/20/51 26/33/51
f 7/7/52 31/41/52 23/30/52
f 25/32/53 31/42/53 26/33/53
f 26/33/54 31/42/54 5/23/54
f 12/12/55 25/32/55 22/28/55
f 22/28/56 25/32/56 26/33/56
f 5/5/57 31/41/57 7/7/57
f 23/30/58 31/42/58 25/32/58
f 32/43/59 33/44/59 34/45/59
f 34/45/60 35/46/60 32/43/60
f 36/47/61 37/48/61 38/49/61
f 37/48/62 34/50/62 33/51/62
f 39/52/63 32/43/63 35/46/63
f 35/46/64 36/47/64 39/52/64
f 40/53/65 41/54/65 33/44/65
f 33/44/66 32/43/66 40/53/66
f 41/55/67 42/56/67 38/49/67
f 38/49/68 33/51/68 41/55/68
f 42/56/69 43/57/69 39/52/69
f 39/52/70 38/49/70 42/56/70
f 43/57/71 40/53/71 32/43/71
f 32/43/72 39/52/72 43/57/72
f 44/58/73 41/54/73 40/53/73
f 40/53/74 45/59/74 44/58/74
f 46/60/75 42/56/75 41/55/75
f 41/55/76 44/61/76 46/60/76
f 46/60/77 47/62/77 43/57/77
f 43/57/78 42/56/78 46/60/78
f 45/59/79 40/53/79 43/57/79
f 43/57/80 47/62/80 45/59/80
f 45/59/81 48/63/81 44/58/81
f 44/61/82 48/64/82 46/60/82
f 46/60/83 48/65/83 47/62/83
f 47/62/84 48/66/84 45/59/84
f 37/48/85 33/51/85 38/49/85
f 36/47/86 38/49/86 39/52/86
f 35/67/87 34/50/87 37/48/87
f 35/67/88 37/48/88 36/47/88
