# Blender v2.77 (sub 0) OBJ File: 'EPICRUG.blend'
# www.blender.org
v -0.000000 0.000000 1.699520
v 1.201741 0.000000 1.201743
v 1.374939 0.000000 0.998954
v 1.514283 0.000000 0.771567
v 1.616339 0.000000 0.525182
v 1.678596 0.000000 0.265865
v 1.699520 0.000000 0.000001
v 1.678596 0.000000 -0.265862
v 1.616340 0.000000 -0.525179
v 1.514284 0.000000 -0.771565
v 1.374941 0.000000 -0.998952
v 1.201743 0.000000 -1.201741
v 0.998953 0.000000 -1.374940
v 0.771566 0.000000 -1.514283
v 0.525181 0.000000 -1.616339
v 0.265864 0.000000 -1.678596
v 0.000000 0.000000 -1.699520
v -0.265863 -0.000000 -1.678596
v -0.525180 -0.000000 -1.616339
v -0.771566 -0.000000 -1.514283
v -0.998953 -0.000000 -1.374940
v -0.000000 0.031022 1.699520
v 0.265863 0.031022 1.678596
v 0.525180 0.031022 1.616340
v 0.771566 0.031022 1.514283
v 0.998952 0.031022 1.374941
v 1.201742 0.031022 1.201742
v 1.374940 0.031022 0.998953
v 1.514283 0.031022 0.771566
v 1.616339 0.031022 0.525181
v 1.678596 0.031022 0.265864
v 1.699520 0.031022 0.000000
v 1.678596 0.031022 -0.265864
v 1.616339 0.031022 -0.525181
v 1.514283 0.031022 -0.771566
v 1.374940 0.031022 -0.998953
v 1.201741 0.031022 -1.201742
v 0.998952 0.031022 -1.374941
v 0.771565 0.031022 -1.514284
v 0.525180 0.031022 -1.616340
v 0.265862 0.031022 -1.678596
v -0.000001 0.031022 -1.699520
v -0.265865 0.031022 -1.678596
v -0.525182 0.031022 -1.616339
v -0.771567 0.031022 -1.514282
v -0.998954 0.031022 -1.374939
v -1.201743 0.031022 -1.201741
v -1.374941 0.031022 -0.998951
v -1.514284 0.031022 -0.771564
v -1.616340 0.031021 -0.525179
v -1.678596 0.031021 -0.265861
v -1.699520 0.031021 0.000002
v -1.678595 0.031021 0.265866
v -1.616339 0.031021 0.525183
v -1.514282 0.031022 0.771568
v -1.374939 0.031022 0.998955
v -1.201740 0.031022 1.201744
v -0.998950 0.031022 1.374942
v -0.771563 0.031022 1.514284
v -0.525178 0.031022 1.616340
v -0.265860 0.031022 1.678596
v -0.000000 0.031022 0.000001
v -0.265862 -0.000000 1.678596
v -0.525179 -0.000000 1.616340
v -0.771565 -0.000000 1.514284
v -0.998952 -0.000000 1.374941
v -1.201741 -0.000000 1.201743
v -1.374940 -0.000000 0.998954
v -1.514283 -0.000000 0.771567
v -1.616339 -0.000000 0.525181
v -1.678596 -0.000000 0.265864
v -1.699520 -0.000000 0.000001
v -1.678596 -0.000000 -0.265863
v -1.616340 -0.000000 -0.525180
v -1.514284 -0.000000 -0.771565
v -1.374941 -0.000000 -0.998952
v -1.201742 -0.000000 -1.201742
v 0.998951 0.000000 1.374941
v 0.771564 0.000000 1.514284
v 0.525179 0.000000 1.616340
v 0.265862 0.000000 1.678596
v 0.000000 0.000000 0.000001
vt 0.4877 0.0357
vt 0.5609 0.0399
vt 0.4976 0.5024
vt 0.6325 0.0555
vt 0.7007 0.0821
vt 0.7640 0.1190
vt 0.8207 0.1654
vt 0.8694 0.2201
vt 0.9090 0.2818
vt 0.9385 0.3489
vt 0.9571 0.4197
vt 0.9643 0.4926
vt 0.9601 0.5658
vt 0.9445 0.6373
vt 0.9179 0.7056
vt 0.8810 0.7689
vt 0.8346 0.8256
vt 0.7799 0.8743
vt 0.7182 0.9139
vt 0.6511 0.9433
vt 0.5803 0.9619
vt 0.5074 0.9692
vt 0.4342 0.9650
vt 0.3626 0.9494
vt 0.2944 0.9228
vt 0.2311 0.8858
vt 0.1744 0.8394
vt 0.1257 0.7847
vt 0.0861 0.7231
vt 0.0567 0.6560
vt 0.0381 0.5851
vt 0.0308 0.5122
vt 0.0350 0.4391
vt 0.0506 0.3675
vt 0.0772 0.2993
vt 0.1142 0.2360
vt 0.1606 0.1793
vt 0.2153 0.1306
vt 0.2769 0.0910
vt 0.3440 0.0615
vt 0.4148 0.0429
vt 0.4877 0.0357
vt 0.5609 0.0399
vt 0.4976 0.5024
vt 0.6325 0.0555
vt 0.7007 0.0821
vt 0.7640 0.1190
vt 0.8207 0.1654
vt 0.8694 0.2201
vt 0.9090 0.2818
vt 0.9385 0.3489
vt 0.9571 0.4197
vt 0.9643 0.4926
vt 0.9601 0.5658
vt 0.9445 0.6373
vt 0.9179 0.7056
vt 0.8810 0.7689
vt 0.8346 0.8256
vt 0.7799 0.8743
vt 0.7182 0.9139
vt 0.6511 0.9433
vt 0.5803 0.9619
vt 0.5074 0.9692
vt 0.4342 0.9650
vt 0.3626 0.9494
vt 0.2944 0.9228
vt 0.2311 0.8858
vt 0.1744 0.8394
vt 0.1257 0.7847
vt 0.0861 0.7231
vt 0.0567 0.6560
vt 0.0381 0.5851
vt 0.0308 0.5122
vt 0.0350 0.4391
vt 0.0506 0.3675
vt 0.0772 0.2993
vt 0.1142 0.2360
vt 0.1606 0.1793
vt 0.2153 0.1306
vt 0.2769 0.0910
vt 0.3440 0.0615
vt 0.4148 0.0429
vt 0.5634 0.0212
vt 0.4874 0.0168
vt 0.6379 0.0374
vt 0.7089 0.0651
vt 0.7747 0.1036
vt 0.8337 0.1518
vt 0.8844 0.2087
vt 0.9256 0.2729
vt 0.9563 0.3427
vt 0.9756 0.4164
vt 0.9832 0.4922
vt 0.9788 0.5683
vt 0.9626 0.6428
vt 0.9349 0.7138
vt 0.8964 0.7796
vt 0.8482 0.8386
vt 0.7913 0.8893
vt 0.7271 0.9305
vt 0.6573 0.9611
vt 0.5836 0.9805
vt 0.5078 0.9881
vt 0.4317 0.9837
vt 0.3572 0.9674
vt 0.2862 0.9398
vt 0.2204 0.9013
vt 0.1614 0.8530
vt 0.1107 0.7961
vt 0.0695 0.7320
vt 0.0389 0.6622
vt 0.0195 0.5885
vt 0.0119 0.5126
vt 0.0163 0.4366
vt 0.0325 0.3621
vt 0.0602 0.2911
vt 0.0987 0.2253
vt 0.1470 0.1663
vt 0.2039 0.1156
vt 0.2680 0.0744
vt 0.3378 0.0437
vt 0.4115 0.0244
vn -0.0000 1.0000 0.0000
vn 0.0000 -1.0000 -0.0000
vn 0.1564 0.0000 0.9877
vn -0.0000 0.0000 1.0000
vn 0.3090 -0.0000 0.9511
vn 0.4540 -0.0000 0.8910
vn 0.5878 -0.0000 0.8090
vn 0.7071 -0.0000 0.7071
vn 0.8090 -0.0000 0.5878
vn 0.8910 0.0000 0.4540
vn 0.9511 -0.0000 0.3090
vn 0.9877 0.0000 0.1564
vn 1.0000 -0.0000 0.0000
vn 0.9877 -0.0000 -0.1564
vn 0.9511 -0.0000 -0.3090
vn 0.8910 -0.0000 -0.4540
vn 0.8090 0.0000 -0.5878
vn 0.7071 0.0000 -0.7071
vn 0.5878 -0.0000 -0.8090
vn 0.4540 -0.0000 -0.8910
vn 0.3090 -0.0000 -0.9511
vn 0.1564 -0.0000 -0.9877
vn 0.0000 -0.0000 -1.0000
vn -0.1564 -0.0000 -0.9877
vn -0.3090 -0.0000 -0.9511
vn -0.4540 -0.0000 -0.8910
vn -0.5878 0.0000 -0.8090
vn -0.7071 0.0000 -0.7071
vn -0.8090 -0.0000 -0.5878
vn -0.8910 0.0000 -0.4540
vn -0.9511 0.0000 -0.3090
vn -0.9877 -0.0000 -0.1564
vn -1.0000 -0.0000 -0.0000
vn -0.9877 0.0000 0.1564
vn -0.9511 -0.0000 0.3090
vn -0.8910 0.0000 0.4540
vn -0.8090 -0.0000 0.5878
vn -0.7071 0.0000 0.7071
vn -0.5878 0.0000 0.8090
vn -0.4540 -0.0000 0.8910
vn -0.3090 0.0000 0.9511
vn -0.1564 0.0000 0.9877
s off
f 22/1/1 23/2/1 62/3/1
f 23/2/1 24/4/1 62/3/1
f 24/4/1 25/5/1 62/3/1
f 25/5/1 26/6/1 62/3/1
f 26/6/1 27/7/1 62/3/1
f 27/7/1 28/8/1 62/3/1
f 28/8/1 29/9/1 62/3/1
f 29/9/1 30/10/1 62/3/1
f 30/10/1 31/11/1 62/3/1
f 31/11/1 32/12/1 62/3/1
f 32/12/1 33/13/1 62/3/1
f 33/13/1 34/14/1 62/3/1
f 34/14/1 35/15/1 62/3/1
f 35/15/1 36/16/1 62/3/1
f 36/16/1 37/17/1 62/3/1
f 37/17/1 38/18/1 62/3/1
f 38/18/1 39/19/1 62/3/1
f 39/19/1 40/20/1 62/3/1
f 40/20/1 41/21/1 62/3/1
f 41/21/1 42/22/1 62/3/1
f 42/22/1 43/23/1 62/3/1
f 43/23/1 44/24/1 62/3/1
f 44/24/1 45/25/1 62/3/1
f 45/25/1 46/26/1 62/3/1
f 46/26/1 47/27/1 62/3/1
f 47/27/1 48/28/1 62/3/1
f 48/28/1 49/29/1 62/3/1
f 49/29/1 50/30/1 62/3/1
f 50/30/1 51/31/1 62/3/1
f 51/31/1 52/32/1 62/3/1
f 52/32/1 53/33/1 62/3/1
f 53/33/1 54/34/1 62/3/1
f 54/34/1 55/35/1 62/3/1
f 55/35/1 56/36/1 62/3/1
f 56/36/1 57/37/1 62/3/1
f 57/37/1 58/38/1 62/3/1
f 58/38/1 59/39/1 62/3/1
f 59/39/1 60/40/1 62/3/1
f 60/40/1 61/41/1 62/3/1
f 61/41/1 22/1/1 62/3/1
f 1/42/2 63/43/2 82/44/2
f 63/43/2 64/45/2 82/44/2
f 64/45/2 65/46/2 82/44/2
f 65/46/2 66/47/2 82/44/2
f 66/47/2 67/48/2 82/44/2
f 67/48/2 68/49/2 82/44/2
f 68/49/2 69/50/2 82/44/2
f 69/50/2 70/51/2 82/44/2
f 70/51/2 71/52/2 82/44/2
f 71/52/2 72/53/2 82/44/2
f 72/53/2 73/54/2 82/44/2
f 73/54/2 74/55/2 82/44/2
f 74/55/2 75/56/2 82/44/2
f 75/56/2 76/57/2 82/44/2
f 76/57/2 77/58/2 82/44/2
f 77/58/2 21/59/2 82/44/2
f 21/59/2 20/60/2 82/44/2
f 20/60/2 19/61/2 82/44/2
f 19/61/2 18/62/2 82/44/2
f 18/62/2 17/63/2 82/44/2
f 17/63/2 16/64/2 82/44/2
f 16/64/2 15/65/2 82/44/2
f 15/65/2 14/66/2 82/44/2
f 14/66/2 13/67/2 82/44/2
f 13/67/2 12/68/2 82/44/2
f 12/68/2 11/69/2 82/44/2
f 11/69/2 10/70/2 82/44/2
f 10/70/2 9/71/2 82/44/2
f 9/71/2 8/72/2 82/44/2
f 8/72/2 7/73/2 82/44/2
f 7/73/2 6/74/2 82/44/2
f 6/74/2 5/75/2 82/44/2
f 5/75/2 4/76/2 82/44/2
f 4/76/2 3/77/2 82/44/2
f 3/77/2 2/78/2 82/44/2
f 2/78/2 78/79/2 82/44/2
f 78/79/2 79/80/2 82/44/2
f 79/80/2 80/81/2 82/44/2
f 80/81/2 81/82/2 82/44/2
f 81/82/2 1/42/2 82/44/2
s 1
f 81/83/3 22/1/4 1/84/4
f 80/85/5 23/2/3 81/83/3
f 79/86/6 24/4/5 80/85/5
f 78/87/7 25/5/6 79/86/6
f 2/88/8 26/6/7 78/87/7
f 3/89/9 27/7/8 2/88/8
f 4/90/10 28/8/9 3/89/9
f 5/91/11 29/9/10 4/90/10
f 6/92/12 30/10/11 5/91/11
f 7/93/13 31/11/12 6/92/12
f 8/94/14 32/12/13 7/93/13
f 9/95/15 33/13/14 8/94/14
f 10/96/16 34/14/15 9/95/15
f 11/97/17 35/15/16 10/96/16
f 12/98/18 36/16/17 11/97/17
f 13/99/19 37/17/18 12/98/18
f 14/100/20 38/18/19 13/99/19
f 15/101/21 39/19/20 14/100/20
f 16/102/22 40/20/21 15/101/21
f 17/103/23 41/21/22 16/102/22
f 18/104/24 42/22/23 17/103/23
f 19/105/25 43/23/24 18/104/24
f 20/106/26 44/24/25 19/105/25
f 21/107/27 45/25/26 20/106/26
f 77/108/28 46/26/27 21/107/27
f 76/109/29 47/27/28 77/108/28
f 75/110/30 48/28/29 76/109/29
f 74/111/31 49/29/30 75/110/30
f 73/112/32 50/30/31 74/111/31
f 72/113/33 51/31/32 73/112/32
f 71/114/34 52/32/33 72/113/33
f 70/115/35 53/33/34 71/114/34
f 69/116/36 54/34/35 70/115/35
f 68/117/37 55/35/36 69/116/36
f 67/118/38 56/36/37 68/117/37
f 66/119/39 57/37/38 67/118/38
f 65/120/40 58/38/39 66/119/39
f 64/121/41 59/39/40 65/120/40
f 63/122/42 60/40/41 64/121/41
f 1/84/4 61/41/42 63/122/42
f 81/83/3 23/2/3 22/1/4
f 80/85/5 24/4/5 23/2/3
f 79/86/6 25/5/6 24/4/5
f 78/87/7 26/6/7 25/5/6
f 2/88/8 27/7/8 26/6/7
f 3/89/9 28/8/9 27/7/8
f 4/90/10 29/9/10 28/8/9
f 5/91/11 30/10/11 29/9/10
f 6/92/12 31/11/12 30/10/11
f 7/93/13 32/12/13 31/11/12
f 8/94/14 33/13/14 32/12/13
f 9/95/15 34/14/15 33/13/14
f 10/96/16 35/15/16 34/14/15
f 11/97/17 36/16/17 35/15/16
f 12/98/18 37/17/18 36/16/17
f 13/99/19 38/18/19 37/17/18
f 14/100/20 39/19/20 38/18/19
f 15/101/21 40/20/21 39/19/20
f 16/102/22 41/21/22 40/20/21
f 17/103/23 42/22/23 41/21/22
f 18/104/24 43/23/24 42/22/23
f 19/105/25 44/24/25 43/23/24
f 20/106/26 45/25/26 44/24/25
f 21/107/27 46/26/27 45/25/26
f 77/108/28 47/27/28 46/26/27
f 76/109/29 48/28/29 47/27/28
f 75/110/30 49/29/30 48/28/29
f 74/111/31 50/30/31 49/29/30
f 73/112/32 51/31/32 50/30/31
f 72/113/33 52/32/33 51/31/32
f 71/114/34 53/33/34 52/32/33
f 70/115/35 54/34/35 53/33/34
f 69/116/36 55/35/36 54/34/35
f 68/117/37 56/36/37 55/35/36
f 67/118/38 57/37/38 56/36/37
f 66/119/39 58/38/39 57/37/38
f 65/120/40 59/39/40 58/38/39
f 64/121/41 60/40/41 59/39/40
f 63/122/42 61/41/42 60/40/41
f 1/84/4 22/1/4 61/41/42
