# Blender v2.77 (sub 0) OBJ File: ''
# www.blender.org
v -1.488576 0.000000 -2.500000
v -1.488576 -0.000000 2.500000
v 1.488576 0.000000 -2.500000
v 1.488576 -0.000000 2.500000
v -1.488576 0.013981 -2.500000
v -1.488576 0.013980 2.500000
v 1.488576 0.013981 -2.500000
v 1.488576 0.013980 2.500000
v 1.500000 0.021466 0.000000
v 1.500000 0.000000 0.000000
v -1.500000 -0.000000 -0.000000
v -1.500000 0.021466 0.000000
v 0.000000 0.013980 2.500000
v 0.000000 0.021466 0.000000
v 0.000000 0.013981 -2.500000
v 0.000000 0.000000 -2.500000
v 0.000000 -0.000000 2.500000
v 0.000000 0.021466 2.487500
v -1.500000 0.021466 2.487500
v -1.500000 -0.000000 2.487500
v 1.500000 -0.000000 2.487500
v 1.500000 0.021466 2.487500
v -1.500000 0.000000 -2.487500
v -1.500000 0.021467 -2.487500
v 0.000000 0.021467 -2.487500
v 1.500000 0.021467 -2.487500
v 1.500000 0.000000 -2.487500
vt 0.0148 0.9692
vt 0.2984 0.9638
vt 0.2984 0.9692
vt 0.0113 0.9693
vt 0.0091 0.9638
vt 0.0137 0.9638
vt 0.0148 0.0264
vt 0.2984 0.0328
vt 0.0148 0.0328
vt 0.0148 0.9759
vt 0.5852 0.9693
vt 0.5873 0.9638
vt 0.5873 0.9692
vt 0.5852 0.0328
vt 0.5873 0.0379
vt 0.5832 0.0380
vt 0.0091 0.0379
vt 0.0113 0.0328
vt 0.0137 0.0380
vt 0.2984 0.0380
vt 0.5821 0.0328
vt 0.5821 0.9692
vt 0.5832 0.9638
vt 0.5821 0.9759
vt 0.2984 0.9759
vt 0.2984 0.0264
vt 0.0136 0.5009
vt 0.2984 0.5009
vt 0.5873 0.5009
vt 0.5831 0.5009
vt 0.0091 0.5009
vt 0.0091 0.9693
vt 0.5873 0.0328
vt 0.0091 0.0328
vt 0.5821 0.0264
vn 0.0000 1.0000 0.0000
vn -0.8971 -0.0000 -0.4419
vn -1.0000 0.0000 -0.0024
vn 0.0000 0.0000 1.0000
vn -0.0000 0.0000 -1.0000
vn 0.8971 -0.0000 -0.4419
vn 1.0000 0.0000 -0.0024
vn 0.8971 -0.0000 0.4419
vn 1.0000 0.0000 0.0025
vn -1.0000 0.0000 0.0025
vn -1.0000 0.0000 0.0000
vn -1.0000 0.0000 0.0024
vn 1.0000 -0.0000 0.0024
vn 1.0000 -0.0000 0.0000
s 1
f 5/1/1 25/2/1 15/3/1
f 5/4/2 23/5/3 24/6/3
f 2/7/4 13/8/4 6/9/4
f 15/3/5 1/10/2 5/1/2
f 7/11/6 27/12/7 3/13/6
f 8/14/8 21/15/9 22/16/9
f 20/17/10 6/18/4 19/19/10
f 18/20/1 6/9/1 13/8/1
f 18/20/1 8/21/1 22/16/1
f 7/22/1 25/2/1 26/23/1
f 15/3/5 3/24/6 16/25/5
f 17/26/4 8/21/8 13/8/4
f 12/27/1 18/20/1 14/28/1
f 12/27/11 20/17/12 19/19/12
f 22/16/13 10/29/14 9/30/14
f 14/28/1 22/16/1 9/30/1
f 24/6/3 11/31/11 12/27/11
f 24/6/1 14/28/1 25/2/1
f 25/2/1 9/30/1 26/23/1
f 26/23/7 10/29/14 27/12/7
f 5/1/1 24/6/1 25/2/1
f 5/4/2 1/32/2 23/5/3
f 2/7/4 17/26/4 13/8/4
f 15/3/5 16/25/5 1/10/2
f 7/11/6 26/23/7 27/12/7
f 8/14/8 4/33/8 21/15/9
f 20/17/10 2/34/4 6/18/4
f 18/20/1 19/19/1 6/9/1
f 18/20/1 13/8/1 8/21/1
f 7/22/1 15/3/1 25/2/1
f 15/3/5 7/22/6 3/24/6
f 17/26/4 4/35/8 8/21/8
f 12/27/1 19/19/1 18/20/1
f 12/27/11 11/31/11 20/17/12
f 22/16/13 21/15/13 10/29/14
f 14/28/1 18/20/1 22/16/1
f 24/6/3 23/5/3 11/31/11
f 24/6/1 12/27/1 14/28/1
f 25/2/1 14/28/1 9/30/1
f 26/23/7 9/30/14 10/29/14
