# Blender v2.77 (sub 0) OBJ File: 'shield.blend'
# www.blender.org
v -0.055536 -0.170943 -0.272873
v -0.020042 -0.295887 -0.334474
v -0.055543 -0.250873 -0.191687
v -0.020064 -0.401692 -0.244332
v -0.054973 0.502906 -0.181384
v -0.055014 0.447260 -0.180730
v -0.054865 0.499764 -0.010076
v -0.054904 0.448451 -0.010076
v -0.020026 -0.552758 -0.010098
v -0.055517 -0.371714 -0.010075
v -0.020057 -0.498896 -0.121265
v -0.055537 -0.324799 -0.095014
v -0.023279 0.575017 -0.010096
v -0.023350 0.573258 -0.118066
v -0.030073 0.364163 -0.240946
v -0.029939 0.345657 -0.010092
v -0.029891 0.409258 -0.010092
v -0.030000 0.409108 -0.179408
v -0.055132 0.499387 -0.425940
v -0.055066 0.442497 -0.256219
v -0.055157 0.434006 -0.387836
v -0.055174 0.374470 -0.345008
v -0.055133 0.372233 -0.278385
v -0.055302 0.220982 -0.365735
v -0.055260 0.218214 -0.296627
v -0.055411 0.068335 -0.357559
v -0.055362 0.069742 -0.283148
v -0.055486 -0.059876 -0.324510
v -0.055423 -0.031486 -0.259330
v -0.055484 -0.199404 -0.159294
v -0.055465 -0.119613 -0.222412
v -0.055445 -0.275622 -0.010076
v -0.055472 -0.252995 -0.078312
v -0.030394 -0.218613 -0.061196
v -0.030404 -0.170979 -0.133177
v -0.030387 -0.100070 -0.189269
v -0.030349 -0.019687 -0.222943
v -0.030292 0.075845 -0.245421
v -0.030194 0.217670 -0.258296
v -0.030033 0.406059 -0.227729
v -0.030367 -0.226747 -0.010092
v -0.000271 -0.069598 -0.351592
v -0.000314 -0.168510 -0.303162
v -0.000080 0.222100 -0.394480
v -0.000193 0.063915 -0.386007
v 0.000055 0.418374 -0.411895
v 0.000040 0.366969 -0.374917
v 0.000275 0.527293 -0.196714
v 0.000096 0.527245 -0.475345
v 0.000352 0.575983 -0.132531
v 0.000432 0.577892 -0.010111
v -0.000480 -0.535245 -0.133910
v -0.000443 -0.591603 -0.010111
v -0.000480 -0.427081 -0.260362
v -0.000438 -0.295755 -0.348148
v 0.054943 -0.171026 -0.272943
v 0.054935 -0.250955 -0.191758
v 0.019183 -0.295916 -0.334499
v 0.019162 -0.401722 -0.244357
v 0.054942 -0.324882 -0.095085
v 0.054961 -0.371797 -0.010146
v 0.019168 -0.498926 -0.121290
v 0.019199 -0.552788 -0.010123
v 0.024140 0.574982 -0.010127
v 0.055613 0.499681 -0.010147
v 0.024069 0.573222 -0.118097
v 0.055505 0.502823 -0.181455
v 0.054993 -0.059958 -0.324581
v 0.055176 0.220900 -0.365806
v 0.055067 0.068252 -0.357630
v 0.055304 0.374387 -0.345079
v 0.055321 0.433923 -0.387907
v 0.055346 0.499304 -0.426011
v 0.055101 -0.184289 -0.010146
v 0.055288 0.065273 -0.010147
v -0.055198 -0.170943 0.252721
v -0.055310 -0.250873 0.171536
v -0.019626 -0.295887 0.314277
v -0.019763 -0.401692 0.224135
v -0.054753 0.502906 0.161232
v -0.054795 0.447260 0.160578
v -0.055428 -0.324799 0.074863
v -0.019915 -0.498896 0.101068
v -0.023211 0.573258 0.097874
v -0.029783 0.409108 0.159224
v -0.029777 0.364163 0.220762
v -0.029754 0.406059 0.207545
v -0.054750 0.442497 0.236067
v -0.054599 0.499387 0.405788
v -0.054672 0.434006 0.367684
v -0.054744 0.374470 0.324856
v -0.054789 0.372233 0.258233
v -0.054892 0.218214 0.276475
v -0.054846 0.220982 0.345584
v -0.054965 0.068335 0.337407
v -0.055012 0.069742 0.262997
v -0.055082 -0.059876 0.304359
v -0.055103 -0.031486 0.239179
v -0.055192 -0.119613 0.202261
v -0.055293 -0.199404 0.139142
v -0.055385 -0.252995 0.058161
v -0.030246 -0.170979 0.112994
v -0.030328 -0.218613 0.041013
v -0.030157 -0.100070 0.169086
v -0.030076 -0.019687 0.202760
v -0.029990 0.075845 0.225238
v -0.029875 0.217670 0.238113
v 0.000062 -0.168510 0.282940
v 0.000167 -0.069598 0.331370
v 0.000413 0.222100 0.374258
v 0.000289 0.063915 0.365785
v 0.000509 0.366969 0.354694
v 0.000571 0.418374 0.391673
v 0.000514 0.527293 0.176492
v 0.000693 0.527245 0.455123
v 0.000509 0.575983 0.112308
v -0.000321 -0.535245 0.113689
v -0.000159 -0.427081 0.240141
v -0.000004 -0.295755 0.327926
v 0.055280 -0.171026 0.252650
v 0.019600 -0.295916 0.314252
v 0.055168 -0.250955 0.171465
v 0.019463 -0.401722 0.224110
v 0.019311 -0.498926 0.101043
v 0.055051 -0.324882 0.074792
v 0.024207 0.573222 0.097843
v 0.055725 0.502823 0.161162
v 0.055396 -0.059958 0.304288
v 0.055633 0.220900 0.345513
v 0.055513 0.068252 0.337336
v 0.055806 0.433923 0.367613
v 0.055734 0.374387 0.324785
v 0.055879 0.499304 0.405717
v -0.030199 -0.002365 -0.010092
v -0.030127 0.093799 -0.010092
v -0.030024 0.231176 -0.010092
v -0.030317 -0.159433 -0.010092
v -0.030266 -0.092118 -0.010092
vt 0.2412 0.3601
vt 0.1982 0.2567
vt 0.3087 0.2983
vt 0.2674 0.1761
vt 0.3117 0.8943
vt 0.3127 0.8487
vt 0.4468 0.8906
vt 0.4470 0.8504
vt 0.4507 0.0590
vt 0.4516 0.2038
vt 0.3638 0.1013
vt 0.3849 0.2406
vt 0.4483 0.9594
vt 0.3640 0.9598
vt 0.4477 0.7685
vt 0.3140 0.8168
vt 0.2665 0.7808
vt 0.1309 0.8829
vt 0.2538 0.8427
vt 0.1508 0.8339
vt 0.1803 0.7862
vt 0.2348 0.7867
vt 0.1700 0.6659
vt 0.2237 0.6654
vt 0.1778 0.5483
vt 0.2353 0.5497
vt 0.2032 0.4493
vt 0.2540 0.4707
vt 0.3333 0.3387
vt 0.2821 0.4011
vt 0.4510 0.2792
vt 0.3974 0.2968
vt 0.4111 0.3249
vt 0.3545 0.3619
vt 0.3099 0.4175
vt 0.2835 0.4805
vt 0.2656 0.5549
vt 0.2548 0.6656
vt 0.2765 0.8139
vt 0.4473 0.8185
vt 0.4511 0.3185
vt 0.1572 0.4346
vt 0.1904 0.3557
vt 0.1212 0.6653
vt 0.1298 0.5405
vt 0.1069 0.8180
vt 0.1298 0.7765
vt 0.2940 0.9426
vt 0.0766 0.9179
vt 0.3533 0.9750
vt 0.4486 0.9743
vt 0.3520 0.0697
vt 0.4488 0.0250
vt 0.2518 0.1528
vt 0.1798 0.2524
vt 0.7441 0.3648
vt 0.6797 0.3038
vt 0.7884 0.2571
vt 0.7193 0.1766
vt 0.6051 0.2472
vt 0.5260 0.2113
vt 0.6231 0.1020
vt 0.5260 0.0597
vt 0.5260 0.9587
vt 0.5260 0.8828
vt 0.6229 0.9591
vt 0.6747 0.8858
vt 0.7962 0.3559
vt 0.7826 0.4512
vt 0.8293 0.4348
vt 0.8149 0.6653
vt 0.8078 0.5490
vt 0.8653 0.6650
vt 0.8567 0.5404
vt 0.8020 0.7832
vt 0.8567 0.7760
vt 0.8329 0.8295
vt 0.8796 0.8175
vt 0.8573 0.8786
vt 0.6928 0.9419
vt 0.9098 0.9173
vt 0.6336 0.9742
vt 0.5260 0.9735
vt 0.6349 0.0704
vt 0.5260 0.0258
vt 0.7349 0.1534
vt 0.8068 0.2528
vt 0.5260 0.3597
vt 0.5260 0.5480
vt 0.2412 0.3601
vt 0.3087 0.2983
vt 0.1982 0.2567
vt 0.2674 0.1761
vt 0.3117 0.8943
vt 0.3127 0.8487
vt 0.3849 0.2406
vt 0.3638 0.1013
vt 0.3640 0.9598
vt 0.3140 0.8168
vt 0.2665 0.7808
vt 0.2765 0.8139
vt 0.2538 0.8427
vt 0.1309 0.8829
vt 0.1508 0.8339
vt 0.1803 0.7862
vt 0.2348 0.7867
vt 0.2237 0.6654
vt 0.1700 0.6659
vt 0.1778 0.5483
vt 0.2353 0.5497
vt 0.2032 0.4493
vt 0.2540 0.4707
vt 0.2821 0.4011
vt 0.3333 0.3387
vt 0.3974 0.2968
vt 0.3545 0.3619
vt 0.4111 0.3249
vt 0.3099 0.4175
vt 0.2835 0.4805
vt 0.2656 0.5549
vt 0.2548 0.6656
vt 0.1904 0.3557
vt 0.1572 0.4346
vt 0.1212 0.6653
vt 0.1298 0.5405
vt 0.1298 0.7765
vt 0.1069 0.8180
vt 0.2940 0.9426
vt 0.0766 0.9179
vt 0.3533 0.9750
vt 0.3520 0.0697
vt 0.2518 0.1528
vt 0.1798 0.2524
vt 0.7441 0.3648
vt 0.7884 0.2571
vt 0.6797 0.3038
vt 0.7193 0.1766
vt 0.6231 0.1020
vt 0.6051 0.2472
vt 0.6229 0.9591
vt 0.6747 0.8858
vt 0.8293 0.4348
vt 0.7962 0.3559
vt 0.7826 0.4512
vt 0.8149 0.6653
vt 0.8653 0.6650
vt 0.8078 0.5490
vt 0.8567 0.5404
vt 0.8796 0.8175
vt 0.8567 0.7760
vt 0.8329 0.8295
vt 0.8020 0.7832
vt 0.6928 0.9419
vt 0.8573 0.8786
vt 0.9098 0.9173
vt 0.6336 0.9742
vt 0.6349 0.0704
vt 0.7349 0.1534
vt 0.8068 0.2528
vt 0.4498 0.4949
vt 0.4492 0.5705
vt 0.4484 0.6785
vt 0.4507 0.3714
vt 0.4503 0.4243
vn -0.9231 -0.0881 -0.3744
vn -0.9090 -0.1532 -0.3876
vn -0.9835 -0.1314 -0.1243
vn -0.9508 -0.2212 -0.2171
vn -0.8754 0.4790 -0.0654
vn -0.9692 -0.2460 0.0060
vn -0.9760 0.2179 0.0006
vn -0.9644 -0.2644 0.0006
vn -0.9619 -0.2735 0.0006
vn -0.9884 -0.1521 0.0006
vn -0.9597 -0.2357 -0.1532
vn -0.9863 -0.1349 -0.0952
vn -0.8151 0.5794 0.0005
vn -0.8006 0.5930 -0.0861
vn -1.0000 0.0007 0.0006
vn -0.9925 -0.1226 0.0029
vn -0.9955 -0.0144 0.0940
vn -0.7670 0.5878 -0.2572
vn -0.9980 -0.0497 0.0394
vn -0.9341 -0.1933 -0.3000
vn -0.9324 -0.0367 -0.3595
vn -0.9773 -0.0352 0.2087
vn -0.8610 0.0205 -0.5082
vn -0.9780 -0.0025 0.2088
vn -0.8602 -0.0736 -0.5046
vn -0.9808 0.0294 0.1927
vn -0.8430 -0.1805 -0.5068
vn -0.9783 0.0633 0.1974
vn -0.9780 0.1531 0.1417
vn -0.9825 0.0946 0.1602
vn -0.9919 0.1269 0.0006
vn -0.9847 0.1568 0.0762
vn -0.9709 0.2187 0.0971
vn -0.9824 0.1371 0.1269
vn -0.9911 0.0677 0.1147
vn -0.9942 0.0329 0.1021
vn -0.9952 0.0150 0.0965
vn -0.9947 -0.0009 0.1027
vn -0.9305 -0.2917 0.2216
vn -0.9506 -0.2774 0.1390
vn -0.9640 0.2660 0.0006
vn -0.0009 -0.3369 -0.9416
vn -0.0007 -0.0647 -0.9979
vn -0.0006 0.0379 -0.9993
vn -0.0007 -0.1455 -0.9894
vn -0.0009 -0.5357 -0.8444
vn -0.0007 -0.0948 -0.9955
vn 0.0006 0.9882 -0.1533
vn 0.0003 0.8905 -0.4550
vn 0.0004 0.9334 -0.3587
vn 0.0007 1.0000 -0.0000
vn -0.0010 -0.8385 -0.5449
vn -0.0007 -1.0000 0.0000
vn -0.0010 -0.6944 -0.7196
vn -0.0008 -0.1599 -0.9871
vn 0.9799 -0.0466 -0.1941
vn 0.9925 -0.0890 -0.0841
vn 0.9083 -0.1545 -0.3888
vn 0.9502 -0.2226 -0.2183
vn 0.9924 -0.1004 -0.0710
vn 0.9915 -0.1301 -0.0006
vn 0.9591 -0.2371 -0.1544
vn 0.9615 -0.2750 -0.0006
vn 0.8159 0.5782 -0.0005
vn 0.9994 0.0339 -0.0006
vn 0.8013 0.5918 -0.0871
vn 0.9821 0.1865 -0.0264
vn 0.9903 -0.0473 -0.1310
vn 0.9949 0.0032 -0.1010
vn 0.9866 -0.0243 -0.1614
vn 0.9819 -0.0202 -0.1882
vn 0.9739 -0.1232 -0.1905
vn 0.8120 0.5342 -0.2352
vn 1.0000 -0.0007 -0.0006
vn -0.9226 -0.0881 0.3756
vn -0.9834 -0.1314 0.1256
vn -0.9085 -0.1531 0.3888
vn -0.9505 -0.2212 0.2183
vn -0.8753 0.4790 0.0665
vn -0.9692 -0.2460 -0.0048
vn -0.9862 -0.1349 0.0964
vn -0.9595 -0.2357 0.1544
vn -0.8005 0.5930 0.0871
vn -0.9925 -0.1226 -0.0016
vn -0.9956 -0.0144 -0.0927
vn -0.9308 -0.2917 -0.2204
vn -0.9980 -0.0497 -0.0381
vn -0.7667 0.5878 0.2582
vn -0.9337 -0.1933 0.3012
vn -0.9320 -0.0367 0.3607
vn -0.9776 -0.0352 -0.2075
vn -0.9782 -0.0025 -0.2075
vn -0.8603 0.0205 0.5093
vn -0.8596 -0.0736 0.5057
vn -0.9811 0.0294 -0.1914
vn -0.8423 -0.1805 0.5078
vn -0.9785 0.0633 -0.1961
vn -0.9827 0.0946 -0.1590
vn -0.9782 0.1531 -0.1405
vn -0.9848 0.1568 -0.0749
vn -0.9826 0.1371 -0.1256
vn -0.9711 0.2187 -0.0958
vn -0.9912 0.0677 -0.1134
vn -0.9944 0.0329 -0.1009
vn -0.9953 0.0150 -0.0952
vn -0.9948 -0.0009 -0.1014
vn 0.0006 -0.0647 0.9979
vn 0.0004 -0.3369 0.9416
vn 0.0007 0.0379 0.9993
vn 0.0005 -0.1455 0.9894
vn 0.0006 -0.0948 0.9955
vn 0.0001 -0.5357 0.8444
vn 0.0008 0.9882 0.1533
vn 0.0010 0.8905 0.4550
vn 0.0009 0.9334 0.3587
vn -0.0003 -0.8385 0.5449
vn -0.0001 -0.6944 0.7196
vn 0.0005 -0.1599 0.9871
vn 0.9801 -0.0466 0.1929
vn 0.9088 -0.1545 0.3876
vn 0.9926 -0.0890 0.0829
vn 0.9504 -0.2226 0.2171
vn 0.9593 -0.2371 0.1532
vn 0.9925 -0.1004 0.0698
vn 0.8015 0.5918 0.0861
vn 0.9821 0.1865 0.0252
vn 0.9904 -0.0473 0.1297
vn 0.9950 0.0031 0.0997
vn 0.9868 -0.0244 0.1601
vn 0.9742 -0.1233 0.1892
vn 0.9822 -0.0202 0.1870
vn 0.8123 0.5342 0.2342
s 1
f 1/1/1 2/2/2 3/3/3
f 3/3/3 2/2/2 4/4/4
f 5/5/5 6/6/6 7/7/7
f 7/7/7 6/6/6 8/8/8
f 9/9/9 10/10/10 11/11/11
f 11/11/11 10/10/10 12/12/12
f 11/11/11 12/12/12 4/4/4
f 4/4/4 12/12/12 3/3/3
f 13/13/13 14/14/14 7/7/7
f 7/7/7 14/14/14 5/5/5
f 16/15/15 18/16/16 15/17/17
f 19/18/18 20/19/19 5/5/5
f 5/5/5 20/19/19 6/6/6
f 21/20/20 22/21/21 20/19/19
f 20/19/19 22/21/21 23/22/22
f 19/18/18 21/20/20 20/19/19
f 24/23/23 25/24/24 22/21/21
f 22/21/21 25/24/24 23/22/22
f 24/23/23 26/25/25 25/24/24
f 25/24/24 26/25/25 27/26/26
f 26/25/25 28/27/27 27/26/26
f 27/26/26 28/27/27 29/28/28
f 3/3/3 30/29/29 1/1/1
f 1/1/1 30/29/29 31/30/30
f 1/1/1 31/30/30 28/27/27
f 28/27/27 31/30/30 29/28/28
f 10/10/10 32/31/31 12/12/12
f 12/12/12 32/31/31 33/32/32
f 12/12/12 33/32/32 3/3/3
f 3/3/3 33/32/32 30/29/29
f 34/33/33 35/34/34 33/32/32
f 33/32/32 35/34/34 30/29/29
f 30/29/29 35/34/34 31/30/30
f 31/30/30 35/34/34 36/35/35
f 31/30/30 36/35/35 29/28/28
f 29/28/28 36/35/35 37/36/36
f 29/28/28 37/36/36 27/26/26
f 27/26/26 37/36/36 38/37/37
f 38/37/37 39/38/38 27/26/26
f 27/26/26 39/38/38 25/24/24
f 25/24/24 39/38/38 23/22/22
f 23/22/22 39/38/38 15/17/17
f 15/17/17 40/39/39 23/22/22
f 23/22/22 40/39/39 20/19/19
f 20/19/19 40/39/39 6/6/6
f 6/6/6 40/39/39 18/16/16
f 17/40/40 8/8/8 18/16/16
f 18/16/16 8/8/8 6/6/6
f 34/33/33 33/32/32 41/41/41
f 41/41/41 33/32/32 32/31/31
f 42/42/42 43/43/43 28/27/27
f 28/27/27 43/43/43 1/1/1
f 24/23/23 44/44/44 26/25/25
f 26/25/25 44/44/44 45/45/45
f 46/46/46 47/47/47 21/20/20
f 21/20/20 47/47/47 22/21/21
f 5/5/5 48/48/48 19/18/18
f 19/18/18 48/48/48 49/49/49
f 50/50/50 48/48/48 14/14/14
f 14/14/14 48/48/48 5/5/5
f 13/13/13 51/51/51 14/14/14
f 14/14/14 51/51/51 50/50/50
f 11/11/11 52/52/52 9/9/9
f 9/9/9 52/52/52 53/53/53
f 4/4/4 54/54/54 11/11/11
f 11/11/11 54/54/54 52/52/52
f 2/2/2 55/55/55 4/4/4
f 4/4/4 55/55/55 54/54/54
f 1/1/1 43/43/43 2/2/2
f 2/2/2 43/43/43 55/55/55
f 45/45/45 42/42/42 26/25/25
f 26/25/25 42/42/42 28/27/27
f 22/21/21 47/47/47 24/23/23
f 24/23/23 47/47/47 44/44/44
f 49/49/49 46/46/46 19/18/18
f 19/18/18 46/46/46 21/20/20
f 56/56/56 57/57/57 58/58/58
f 58/58/58 57/57/57 59/59/59
f 60/60/60 61/61/61 62/62/62
f 62/62/62 61/61/61 63/63/63
f 57/57/57 60/60/60 59/59/59
f 59/59/59 60/60/60 62/62/62
f 64/64/64 65/65/65 66/66/66
f 66/66/66 65/65/65 67/67/67
f 56/56/56 43/68/43 68/69/68
f 68/69/68 43/68/43 42/70/42
f 69/71/69 70/72/70 44/73/44
f 44/73/44 70/72/70 45/74/45
f 71/75/71 47/76/47 72/77/72
f 72/77/72 47/76/47 46/78/46
f 67/67/67 73/79/73 48/80/48
f 48/80/48 73/79/73 49/81/49
f 67/67/67 48/80/48 66/66/66
f 66/66/66 48/80/48 50/82/50
f 64/64/64 66/66/66 51/83/51
f 51/83/51 66/66/66 50/82/50
f 62/62/62 63/63/63 52/84/52
f 52/84/52 63/63/63 53/85/53
f 59/59/59 62/62/62 54/86/54
f 54/86/54 62/62/62 52/84/52
f 58/58/58 59/59/59 55/87/55
f 55/87/55 59/59/59 54/86/54
f 56/56/56 58/58/58 43/68/43
f 43/68/43 58/58/58 55/87/55
f 68/69/68 42/70/42 70/72/70
f 70/72/70 42/70/42 45/74/45
f 71/75/71 69/71/69 47/76/47
f 47/76/47 69/71/69 44/73/44
f 72/77/72 46/78/46 73/79/73
f 73/79/73 46/78/46 49/81/49
f 61/61/61 60/60/60 74/88/74
f 74/88/74 60/60/60 57/57/57
f 68/69/68 74/88/74 56/56/56
f 74/88/74 57/57/57 56/56/56
f 74/88/74 68/69/68 75/89/74
f 75/89/74 68/69/68 70/72/70
f 65/65/65 75/89/74 69/71/69
f 69/71/69 75/89/74 70/72/70
f 73/79/73 67/67/67 72/77/72
f 67/67/67 71/75/71 72/77/72
f 65/65/65 69/71/69 67/67/67
f 67/67/67 69/71/69 71/75/71
f 76/90/75 77/91/76 78/92/77
f 78/92/77 77/91/76 79/93/78
f 80/94/79 7/7/7 81/95/80
f 81/95/80 7/7/7 8/8/8
f 82/96/81 10/10/10 83/97/82
f 83/97/82 10/10/10 9/9/9
f 77/91/76 82/96/81 79/93/78
f 79/93/78 82/96/81 83/97/82
f 13/13/13 7/7/7 84/98/83
f 84/98/83 7/7/7 80/94/79
f 85/99/84 86/100/85 87/101/86
f 81/95/80 88/102/87 80/94/79
f 80/94/79 88/102/87 89/103/88
f 90/104/89 88/102/87 91/105/90
f 91/105/90 88/102/87 92/106/91
f 89/103/88 88/102/87 90/104/89
f 92/106/91 93/107/92 91/105/90
f 91/105/90 93/107/92 94/108/93
f 94/108/93 93/107/92 95/109/94
f 95/109/94 93/107/92 96/110/95
f 95/109/94 96/110/95 97/111/96
f 97/111/96 96/110/95 98/112/97
f 99/113/98 100/114/99 76/90/75
f 76/90/75 100/114/99 77/91/76
f 98/112/97 99/113/98 97/111/96
f 97/111/96 99/113/98 76/90/75
f 101/115/100 32/31/31 82/96/81
f 82/96/81 32/31/31 10/10/10
f 100/114/99 101/115/100 77/91/76
f 77/91/76 101/115/100 82/96/81
f 100/114/99 102/116/101 101/115/100
f 101/115/100 102/116/101 103/117/102
f 100/114/99 99/113/98 102/116/101
f 102/116/101 99/113/98 104/118/103
f 99/113/98 98/112/97 104/118/103
f 104/118/103 98/112/97 105/119/104
f 98/112/97 96/110/95 105/119/104
f 105/119/104 96/110/95 106/120/105
f 93/107/92 107/121/106 96/110/95
f 96/110/95 107/121/106 106/120/105
f 93/107/92 92/106/91 107/121/106
f 107/121/106 92/106/91 86/100/85
f 88/102/87 87/101/86 92/106/91
f 92/106/91 87/101/86 86/100/85
f 88/102/87 81/95/80 87/101/86
f 87/101/86 81/95/80 85/99/84
f 81/95/80 8/8/8 85/99/84
f 85/99/84 8/8/8 17/40/40
f 103/117/102 41/41/41 101/115/100
f 101/115/100 41/41/41 32/31/31
f 76/90/75 108/122/107 97/111/96
f 97/111/96 108/122/107 109/123/108
f 94/108/93 95/109/94 110/124/109
f 110/124/109 95/109/94 111/125/110
f 91/105/90 112/126/111 90/104/89
f 90/104/89 112/126/111 113/127/112
f 80/94/79 89/103/88 114/128/113
f 114/128/113 89/103/88 115/129/114
f 80/94/79 114/128/113 84/98/83
f 84/98/83 114/128/113 116/130/115
f 13/13/13 84/98/83 51/51/51
f 51/51/51 84/98/83 116/130/115
f 83/97/82 9/9/9 117/131/116
f 117/131/116 9/9/9 53/53/53
f 79/93/78 83/97/82 118/132/117
f 118/132/117 83/97/82 117/131/116
f 78/92/77 79/93/78 119/133/118
f 119/133/118 79/93/78 118/132/117
f 76/90/75 78/92/77 108/122/107
f 108/122/107 78/92/77 119/133/118
f 97/111/96 109/123/108 95/109/94
f 95/109/94 109/123/108 111/125/110
f 91/105/90 94/108/93 112/126/111
f 112/126/111 94/108/93 110/124/109
f 90/104/89 113/127/112 89/103/88
f 89/103/88 113/127/112 115/129/114
f 120/134/119 121/135/120 122/136/121
f 122/136/121 121/135/120 123/137/122
f 63/63/63 61/61/61 124/138/123
f 124/138/123 61/61/61 125/139/124
f 124/138/123 125/139/124 123/137/122
f 123/137/122 125/139/124 122/136/121
f 64/64/64 126/140/125 65/65/65
f 65/65/65 126/140/125 127/141/126
f 109/142/108 108/143/107 128/144/127
f 128/144/127 108/143/107 120/134/119
f 129/145/128 110/146/109 130/147/129
f 130/147/129 110/146/109 111/148/110
f 113/149/112 112/150/111 131/151/130
f 131/151/130 112/150/111 132/152/131
f 127/141/126 114/153/113 133/154/132
f 133/154/132 114/153/113 115/155/114
f 116/156/115 114/153/113 126/140/125
f 126/140/125 114/153/113 127/141/126
f 64/64/64 51/83/51 126/140/125
f 126/140/125 51/83/51 116/156/115
f 124/138/123 117/157/116 63/63/63
f 63/63/63 117/157/116 53/85/53
f 123/137/122 118/158/117 124/138/123
f 124/138/123 118/158/117 117/157/116
f 121/135/120 119/159/118 123/137/122
f 123/137/122 119/159/118 118/158/117
f 120/134/119 108/143/107 121/135/120
f 121/135/120 108/143/107 119/159/118
f 111/148/110 109/142/108 130/147/129
f 130/147/129 109/142/108 128/144/127
f 132/152/131 112/150/111 129/145/128
f 129/145/128 112/150/111 110/146/109
f 115/155/114 113/149/112 133/154/132
f 133/154/132 113/149/112 131/151/130
f 61/61/61 74/88/74 125/139/124
f 125/139/124 74/88/74 122/136/121
f 128/144/127 120/134/119 74/88/74
f 74/88/74 120/134/119 122/136/121
f 74/88/74 75/89/74 128/144/127
f 128/144/127 75/89/74 130/147/129
f 65/65/65 129/145/128 75/89/74
f 75/89/74 129/145/128 130/147/129
f 133/154/132 131/151/130 127/141/126
f 127/141/126 131/151/130 132/152/131
f 65/65/65 127/141/126 129/145/128
f 129/145/128 127/141/126 132/152/131
f 134/160/15 135/161/15 37/36/36
f 37/36/36 135/161/15 38/37/37
f 134/160/15 105/119/104 135/161/15
f 135/161/15 105/119/104 106/120/105
f 107/121/106 86/100/85 136/162/15
f 136/162/15 86/100/85 16/15/15
f 39/38/38 136/162/15 15/17/17
f 15/17/17 136/162/15 16/15/15
f 106/120/105 107/121/106 135/161/15
f 135/161/15 107/121/106 136/162/15
f 38/37/37 135/161/15 39/38/38
f 39/38/38 135/161/15 136/162/15
f 137/163/15 138/164/15 35/34/34
f 35/34/34 138/164/15 36/35/35
f 137/163/15 102/116/101 138/164/15
f 138/164/15 102/116/101 104/118/103
f 138/164/15 104/118/103 134/160/15
f 134/160/15 104/118/103 105/119/104
f 138/164/15 134/160/15 36/35/35
f 36/35/35 134/160/15 37/36/36
f 41/41/41 137/163/15 34/33/33
f 34/33/33 137/163/15 35/34/34
f 102/116/101 137/163/15 103/117/102
f 103/117/102 137/163/15 41/41/41
f 15/17/17 18/16/16 40/39/39
f 16/15/15 85/99/84 17/40/40
f 16/15/15 17/40/40 18/16/16
f 16/15/15 86/100/85 85/99/84
