# Blender v2.77 (sub 0) OBJ File: ''
# www.blender.org
v 0.836866 0.448603 -0.590969
v 0.340699 0.448603 -0.951456
v 0.340699 0.718713 -0.951456
v 0.836866 0.718713 -0.590969
v -0.272597 0.448603 -0.951456
v -0.272597 0.718713 -0.951456
v -0.768764 0.448603 -0.590969
v -0.768764 0.718713 -0.590969
v -0.958283 0.448603 -0.007689
v -0.958283 0.718713 -0.007689
v -0.768764 0.448603 0.575591
v -0.768764 0.718713 0.575591
v -0.272597 0.448603 0.936077
v -0.272597 0.718713 0.936077
v 0.340700 0.448603 0.936077
v 0.340700 0.718713 0.936077
v 0.836866 0.448603 0.575591
v 0.836866 0.718713 0.575591
v 1.026385 0.448603 -0.007689
v 1.026385 0.718713 -0.007689
v 0.034051 0.345003 -0.007689
v 0.034051 0.615114 -0.007689
v 0.089192 -0.751507 1.099068
v 0.537371 -0.751507 0.944233
v 0.343185 0.608247 0.713637
v 0.105387 0.608247 0.795791
v 0.014228 0.608247 0.531928
v 0.252025 0.608247 0.449773
v 0.386692 -0.751507 0.508087
v -0.061486 -0.751507 0.662921
v -0.917763 -0.751507 -0.444526
v -1.007760 -0.751507 0.021025
v -0.710966 0.608247 -0.031847
v -0.663214 0.608247 -0.278862
v -0.389122 0.608247 -0.225876
v -0.436873 0.608247 0.021140
v -0.554707 -0.751507 0.108608
v -0.464709 -0.751507 -0.356944
v 0.820500 -0.751507 -0.626030
v 0.462320 -0.751507 -0.936746
v 0.359711 0.608247 -0.653279
v 0.549757 0.608247 -0.488416
v 0.366824 0.608247 -0.277539
v 0.176778 0.608247 -0.442400
v 0.159945 -0.751507 -0.588182
v 0.518125 -0.751507 -0.277465
vt 0.4692 0.0112
vt 0.5280 0.0501
vt 0.4692 0.0501
vt 0.5868 0.0112
vt 0.5280 0.0112
vt 0.6456 0.0112
vt 0.5868 0.0501
vt 0.7044 0.0112
vt 0.6456 0.0501
vt 0.7632 0.0112
vt 0.7044 0.0501
vt 0.8220 0.0501
vt 0.7632 0.0501
vt 0.8809 0.0112
vt 0.8220 0.0112
vt 0.9397 0.0501
vt 0.8809 0.0501
vt 0.4104 0.0112
vt 0.3517 0.0501
vt 0.3517 0.0112
vt 0.4104 0.0501
vt 0.2991 0.8709
vt 0.3613 0.9161
vt 0.2607 0.9892
vt 0.2222 0.8709
vt 0.1600 0.9161
vt 0.1363 0.9892
vt 0.1600 0.9161
vt 0.2222 0.8709
vt 0.2991 0.8709
vt 0.3613 0.9161
vt 0.3851 0.9892
vt 0.3613 0.9161
vt 0.2991 0.8709
vt 0.2607 0.9892
vt 0.2222 0.8709
vt 0.1600 0.9161
vt 0.1363 0.9892
vt 0.1600 0.9161
vt 0.2222 0.8709
vt 0.2991 0.8709
vt 0.3613 0.9161
vt 0.3851 0.9892
vt 0.4112 0.9969
vt 0.4701 0.7791
vt 0.4701 0.9969
vt 0.5117 0.7737
vt 0.4701 0.9969
vt 0.5235 0.9969
vt 0.4275 0.7763
vt 0.4112 0.9969
vt 0.4701 0.7791
vt 0.4701 0.9969
vt 0.5117 0.7737
vt 0.4701 0.9969
vt 0.5235 0.9969
vt 0.4275 0.7763
vt 0.4112 0.9969
vt 0.4701 0.7791
vt 0.4701 0.9969
vt 0.5117 0.7737
vt 0.4701 0.9969
vt 0.5235 0.9969
vt 0.4275 0.7763
vt 0.4701 0.7791
vt 0.9397 0.0112
vt 0.4701 0.7791
vt 0.4701 0.7791
vn 0.8090 0.0000 -0.5878
vn 0.3090 0.0000 -0.9511
vn -0.3090 0.0000 -0.9511
vn -0.8090 0.0000 -0.5878
vn -1.0000 -0.0000 0.0000
vn -0.8090 0.0000 0.5878
vn -0.3090 -0.0000 0.9511
vn 0.3090 -0.0000 0.9511
vn 0.8090 -0.0000 0.5878
vn 1.0000 -0.0000 -0.0000
vn 0.0321 -0.9946 -0.0988
vn 0.0840 -0.9946 -0.0610
vn 0.0000 -1.0000 -0.0000
vn -0.0321 -0.9946 -0.0988
vn -0.0840 -0.9946 -0.0610
vn -0.1038 -0.9946 -0.0000
vn -0.0840 -0.9946 0.0610
vn -0.0321 -0.9946 0.0988
vn 0.0321 -0.9946 0.0988
vn 0.0840 -0.9946 0.0610
vn 0.1038 -0.9946 -0.0000
vn -0.0840 0.9946 0.0610
vn -0.0321 0.9946 0.0988
vn -0.0000 1.0000 0.0000
vn 0.0321 0.9946 0.0988
vn 0.0840 0.9946 0.0610
vn 0.1038 0.9946 0.0000
vn 0.0840 0.9946 -0.0610
vn 0.0321 0.9946 -0.0988
vn -0.0321 0.9946 -0.0988
vn -0.0840 0.9946 -0.0610
vn -0.1038 0.9946 0.0000
vn 0.3198 0.2026 0.9256
vn -0.3257 -0.0727 -0.9427
vn 0.9422 0.0794 -0.3255
vn -0.9419 0.0838 0.3254
vn -0.9615 0.2026 -0.1859
vn 0.9792 -0.0727 0.1893
vn -0.1892 0.0794 0.9787
vn 0.1891 0.0838 -0.9784
vn 0.6417 0.2026 -0.7397
vn -0.6535 -0.0727 0.7534
vn -0.6536 -0.0727 0.7534
vn -0.7530 0.0794 -0.6532
vn 0.7527 0.0838 0.6530
s 1
f 1/1/1 3/2/2 4/3/1
f 5/4/3 3/2/2 2/5/2
f 7/6/4 6/7/3 5/4/3
f 9/8/5 8/9/4 7/6/4
f 11/10/6 10/11/5 9/8/5
f 11/10/6 14/12/7 12/13/6
f 15/14/8 14/12/7 13/15/7
f 15/14/8 18/16/9 16/17/8
f 19/18/10 18/19/9 17/20/9
f 1/1/1 20/21/10 19/18/10
f 2/22/11 1/23/12 21/24/13
f 5/25/14 2/22/11 21/24/13
f 7/26/15 5/25/14 21/24/13
f 9/27/16 7/26/15 21/24/13
f 11/28/17 9/27/16 21/24/13
f 13/29/18 11/28/17 21/24/13
f 15/30/19 13/29/18 21/24/13
f 17/31/20 15/30/19 21/24/13
f 19/32/21 17/31/20 21/24/13
f 1/23/12 19/32/21 21/24/13
f 4/33/22 3/34/23 22/35/24
f 3/34/23 6/36/25 22/35/24
f 6/36/25 8/37/26 22/35/24
f 8/37/26 10/38/27 22/35/24
f 10/38/27 12/39/28 22/35/24
f 12/39/28 14/40/29 22/35/24
f 14/40/29 16/41/30 22/35/24
f 16/41/30 18/42/31 22/35/24
f 18/42/31 20/43/32 22/35/24
f 20/43/32 4/33/22 22/35/24
f 24/44/33 26/45/33 23/46/33
f 27/47/34 29/48/34 30/49/34
f 29/48/35 25/50/35 24/44/35
f 30/49/36 26/45/36 27/47/36
f 25/50/24 27/47/24 26/45/24
f 32/51/37 34/52/37 31/53/37
f 35/54/38 37/55/38 38/56/38
f 37/55/39 33/57/39 32/51/39
f 38/56/40 34/52/40 35/54/40
f 33/57/24 35/54/24 34/52/24
f 40/58/41 42/59/41 39/60/41
f 43/61/42 45/62/43 46/63/43
f 45/62/44 41/64/44 40/58/44
f 46/63/45 42/59/45 43/61/45
f 42/59/24 44/65/24 43/61/24
f 1/1/1 2/5/2 3/2/2
f 5/4/3 6/7/3 3/2/2
f 7/6/4 8/9/4 6/7/3
f 9/8/5 10/11/5 8/9/4
f 11/10/6 12/13/6 10/11/5
f 11/10/6 13/15/7 14/12/7
f 15/14/8 16/17/8 14/12/7
f 15/14/8 17/66/9 18/16/9
f 19/18/10 20/21/10 18/19/9
f 1/1/1 4/3/1 20/21/10
f 24/44/33 25/50/33 26/45/33
f 27/47/34 28/67/34 29/48/34
f 29/48/35 28/67/35 25/50/35
f 30/49/36 23/46/36 26/45/36
f 25/50/24 28/67/24 27/47/24
f 32/51/37 33/57/37 34/52/37
f 35/54/38 36/68/38 37/55/38
f 37/55/39 36/68/39 33/57/39
f 38/56/40 31/53/40 34/52/40
f 33/57/24 36/68/24 35/54/24
f 40/58/41 41/64/41 42/59/41
f 43/61/42 44/65/42 45/62/43
f 45/62/44 44/65/44 41/64/44
f 46/63/45 39/60/45 42/59/45
f 42/59/24 41/64/24 44/65/24
