# Blender v2.77 (sub 0) OBJ File: 'shoulder.blend'
# www.blender.org
v -0.275388 -0.913961 0.000669
v -0.275388 0.912820 0.000669
v -0.223187 -0.913961 -0.161327
v -0.223187 0.913016 -0.161327
v -0.085736 -0.913961 -0.261703
v -0.085736 0.916704 -0.261703
v 0.084463 -0.913961 -0.262116
v 0.084463 0.913961 -0.262116
v 0.222400 -0.913961 -0.162410
v 0.222400 0.913961 -0.162410
v 0.275388 -0.913961 -0.000669
v 0.275388 0.913961 -0.000669
v 0.223187 -0.913961 0.161328
v 0.223187 0.913961 0.161328
v 0.085736 -0.913961 0.261703
v 0.085736 0.913961 0.261703
v -0.084463 -0.913961 0.262116
v -0.084463 0.916704 0.262116
v -0.222400 -0.913961 0.162410
v -0.222400 0.913016 0.162410
vt 0.7766 0.3258
vt 0.6792 0.0002
vt 0.7766 0.0003
vt 0.2582 0.6784
vt 0.1784 0.3529
vt 0.2582 0.3528
vt 0.0798 0.6786
vt 0.0798 0.3529
vt 0.0000 0.3528
vt 0.6436 0.3502
vt 0.7337 0.6733
vt 0.6436 0.6755
vt 0.7337 0.3480
vt 0.8302 0.6744
vt 0.8302 0.3491
vt 0.8962 0.6785
vt 0.3981 0.3507
vt 0.3183 0.0250
vt 0.3981 0.0250
vt 0.2197 0.3506
vt 0.2197 0.0250
vt 0.8645 0.0000
vt 0.4918 0.3480
vt 0.5856 0.6426
vt 0.3400 0.4605
vt 0.6792 0.3258
vt 0.1784 0.6791
vt 0.0000 0.6786
vt 0.8962 0.3532
vt 0.3183 0.3512
vt 0.8645 0.3256
vt 0.3980 0.6426
vt 0.3400 0.5612
vt 0.3980 0.3791
vt 0.5856 0.3791
vt 0.6436 0.4605
vt 0.6436 0.5612
vt 0.4918 0.6737
vn -0.9518 0.0000 -0.3067
vn -0.5897 0.0000 -0.8076
vn -0.0024 0.0000 -1.0000
vn 0.5858 0.0000 -0.8104
vn 0.9503 0.0000 -0.3113
vn 0.9518 0.0000 0.3067
vn 0.5897 0.0000 0.8076
vn 0.0024 0.0000 1.0000
vn -0.5858 0.0000 0.8104
vn -0.9503 0.0000 0.3113
vn 0.0000 -1.0000 0.0000
s off
f 2/1/1 3/2/1 1/3/1
f 4/4/2 5/5/2 3/6/2
f 5/5/3 8/7/3 7/8/3
f 8/7/4 9/9/4 7/8/4
f 10/10/5 11/11/5 9/12/5
f 12/13/6 13/14/6 11/11/6
f 14/15/7 15/16/7 13/14/7
f 16/17/8 17/18/8 15/19/8
f 17/18/9 20/20/9 19/21/9
f 19/22/10 2/1/10 1/3/10
f 7/23/11 15/24/11 3/25/11
f 2/1/1 4/26/1 3/2/1
f 4/4/2 6/27/2 5/5/2
f 5/5/3 6/27/3 8/7/3
f 8/7/4 10/28/4 9/9/4
f 10/10/5 12/13/5 11/11/5
f 12/13/6 14/15/6 13/14/6
f 14/15/7 16/29/7 15/16/7
f 16/17/8 18/30/8 17/18/8
f 17/18/9 18/30/9 20/20/9
f 19/22/10 20/31/10 2/1/10
f 19/32/11 1/33/11 3/25/11
f 3/25/11 5/34/11 7/23/11
f 7/23/11 9/35/11 11/36/11
f 11/36/11 13/37/11 7/23/11
f 15/24/11 17/38/11 19/32/11
f 19/32/11 3/25/11 15/24/11
f 7/23/11 13/37/11 15/24/11
