# Blender v2.77 (sub 0) OBJ File: 'tree.blend'
# www.blender.org
v 0.758611 -1.191329 -0.650279
v 0.287481 -1.203198 -0.689956
v 0.351360 -0.532425 -0.518153
v 0.687001 -0.523969 -0.489888
v -0.216432 -1.323929 0.032223
v -0.037986 -0.635896 0.111933
v -0.277489 -1.382034 0.427427
v -0.479159 -1.437415 0.766447
v -0.422943 -1.267950 0.858481
v -0.289947 -1.046228 0.474873
v -0.920412 -1.471792 0.893898
v -0.844102 -1.474132 1.050496
v -0.603624 -1.336567 1.126484
v -0.681321 -1.339723 0.976618
v 0.495813 -1.057103 0.529819
v 0.592295 -1.341541 0.656511
v 1.140129 -1.289750 0.146469
v 0.958802 -0.594086 0.077732
v 0.221485 0.147857 -0.464526
v 0.538595 0.155847 -0.437822
v -0.117690 0.066594 0.021560
v 0.012508 -0.590452 0.408658
v 0.013046 0.190410 0.329381
v 0.299921 -0.788637 0.493799
v 0.302375 0.182421 0.461894
v 0.795387 0.089601 0.098456
v 0.277785 0.922836 -0.114221
v 0.571626 0.947245 -0.083923
v -0.023524 0.674579 0.283141
v 0.109993 0.566895 0.524869
v 0.414097 0.561629 0.516074
v 0.677051 0.744865 0.332179
v 0.273141 1.469985 -0.003482
v 0.528519 1.476420 0.018025
v -0.000009 1.404542 0.387980
v 0.110029 1.376156 0.617779
v 0.343035 1.369721 0.724498
v 0.628627 1.423070 0.421894
v -0.159147 -0.949317 0.577039
v -0.249461 -1.289153 1.040923
v -0.143920 -1.463945 1.042233
v -0.331829 -1.279086 0.954302
v -2.043079 1.034772 -1.387674
v 1.718189 0.461547 -1.665124
v 0.310843 1.781874 0.173646
v 2.732408 1.163342 2.036822
v -1.179981 0.453294 2.537453
v -2.165949 0.647962 -1.342178
v -0.350924 1.122713 -2.167020
v 0.331910 2.450389 0.041140
v 2.304857 0.941263 -0.105808
v 1.487536 1.659161 1.887112
v -2.003537 1.873483 1.358018
v 2.154361 2.060447 -0.976012
v 0.125683 2.966589 -0.218324
v 0.815785 2.200289 1.692105
v -1.143393 2.265230 1.255572
v -1.249194 1.687941 -1.827649
v 0.984393 2.898960 -0.647834
v -0.039509 3.130546 -0.215264
v 0.351779 2.745406 0.705649
v -0.618897 2.622784 0.526030
v -0.684012 2.454786 -1.016265
v 0.879024 3.212381 -0.655646
v -0.027804 3.417484 -0.272538
v 0.318743 3.076383 0.543073
v -0.540945 2.967783 0.383996
v -0.598612 2.818994 -0.981954
v 0.508542 1.612045 0.675925
v -0.512510 1.713656 1.155331
v -0.143011 0.965717 2.004237
v -1.112893 0.984863 1.800112
v -1.163881 1.454595 0.219567
v -0.219071 0.885609 -1.361781
v -1.004181 1.392066 -0.674752
v -0.386779 0.996431 0.097922
v -1.366051 1.083738 0.225106
v -1.950804 0.797401 -1.181287
vt 0.9029 0.0240
vt 0.9151 0.0886
vt 0.9011 0.0846
vt 0.9216 0.0295
vt 0.9544 0.0835
vt 0.7421 0.0327
vt 0.7585 0.0454
vt 0.7487 0.0624
vt 0.7642 0.0151
vt 0.7617 0.0356
vt 0.7518 0.0176
vt 0.8345 0.0440
vt 0.8658 0.0111
vt 0.8729 0.0755
vt 0.9039 0.1474
vt 0.9441 0.1479
vt 0.9179 0.1510
vt 0.9951 0.0955
vt 0.8097 0.0768
vt 0.8485 0.1566
vt 0.8758 0.1389
vt 0.9005 0.2200
vt 0.8897 0.2180
vt 0.9119 0.2162
vt 0.9940 0.1568
vt 0.8366 0.1946
vt 0.8155 0.1596
vt 0.8524 0.1883
vt 0.8702 0.1980
vt 0.8936 0.2692
vt 0.8868 0.2660
vt 0.9126 0.2695
vt 0.9783 0.2695
vt 0.8487 0.2529
vt 0.8424 0.2474
vt 0.8670 0.2607
vt 0.6956 0.0977
vt 0.7641 0.0680
vt 0.7772 0.0965
vt 0.7089 0.0387
vt 0.7757 0.0213
vt 0.8271 0.0175
vt 0.7736 0.0387
vt 0.7675 0.0299
vt 0.7669 0.0465
vt 0.7468 0.0300
vt 0.1722 0.5595
vt 0.1022 0.4888
vt 0.1774 0.4071
vt 0.0179 0.4059
vt 0.0174 0.5624
vt 0.1052 0.3975
vt 0.1736 0.3477
vt 0.2213 0.3925
vt 0.2406 0.3189
vt 0.1317 0.2633
vt 0.3352 0.5186
vt 0.2527 0.4614
vt 0.2926 0.4026
vt 0.2078 0.4029
vt 0.1828 0.5199
vt 0.1712 0.5775
vt 0.2115 0.5916
vt 0.1953 0.6316
vt 0.2500 0.6144
vt 0.2353 0.5567
vt 0.3145 0.3227
vt 0.2777 0.3532
vt 0.2499 0.3221
vt 0.2384 0.3636
vt 0.2973 0.3962
vt 0.3763 0.7928
vt 0.4020 0.7559
vt 0.4315 0.7732
vt 0.4297 0.7337
vt 0.3686 0.7234
vt 0.2733 0.7115
vt 0.2320 0.6789
vt 0.2577 0.6386
vt 0.2081 0.6367
vt 0.1851 0.7113
vt 0.9509 0.0406
vt 0.9828 0.2135
vn 0.6908 0.2382 -0.6826
vn -0.5988 0.1172 -0.7923
vn 0.7097 0.2253 -0.6675
vn -0.6222 0.2703 -0.7347
vn -0.9127 0.0925 -0.3981
vn -0.9686 0.0649 -0.2399
vn -0.7005 0.7136 -0.0084
vn -0.9439 0.2962 -0.1462
vn -0.4623 0.5336 0.7082
vn -0.3841 0.8787 -0.2834
vn -0.4143 0.8703 -0.2662
vn 0.5196 0.4034 0.7532
vn 0.9377 0.3036 0.1687
vn 0.9383 0.2213 0.2657
vn 0.6382 0.2544 -0.7267
vn -0.9397 0.0736 -0.3338
vn -0.4661 0.3629 -0.8069
vn -0.6637 0.1403 0.7347
vn -0.0279 0.2801 0.9596
vn 0.2873 -0.0214 0.9576
vn 0.9477 0.1617 0.2753
vn -0.5804 0.2829 -0.7636
vn 0.7689 0.2537 -0.5869
vn -0.9686 0.1586 -0.1913
vn -0.7398 -0.0622 0.6700
vn -0.5190 -0.1697 0.8377
vn 0.3021 -0.1410 0.9428
vn 0.9556 0.0380 0.2923
vn -0.6050 0.1519 -0.7816
vn 0.7813 0.1775 -0.5984
vn -0.9780 0.0612 -0.1995
vn -0.6859 -0.0776 0.7235
vn 0.2590 -0.1166 0.9588
vn 0.9568 0.0365 0.2885
vn -0.4504 0.7442 0.4932
vn -0.8731 0.2224 -0.4340
vn 0.4090 0.3241 0.8531
vn 0.4757 0.4765 0.7394
vn 0.1150 0.6531 0.7485
vn 0.1298 0.3717 0.9193
vn -0.4338 0.8317 0.3465
vn -0.6790 0.5144 -0.5237
vn 0.2207 0.8644 -0.4518
vn -0.0645 0.9962 -0.0584
vn 0.1405 0.9797 0.1427
vn -0.3088 0.8990 0.3105
vn -0.3195 0.9314 -0.1746
vn 0.0280 0.8528 -0.5214
vn 0.0775 0.9767 -0.2001
vn 0.5566 0.7603 -0.3350
vn 0.3211 0.9265 0.1961
vn -0.2513 0.9677 -0.0218
vn 0.2960 0.9087 -0.2942
vn -0.0274 0.9808 -0.1931
vn 0.2295 0.9292 0.2898
vn -0.3626 0.9232 0.1271
vn -0.2546 0.8513 -0.4588
vn 0.1230 0.9663 -0.2261
vn -0.1930 0.9749 -0.1110
vn 0.0639 0.9301 0.3618
vn -0.4944 0.8473 0.1939
vn -0.4282 0.8305 -0.3561
vn 0.1872 0.9629 0.1946
vn -0.1329 0.9541 0.2683
vn 0.0929 0.7668 0.6352
vn -0.3858 0.7689 0.5099
vn -0.3787 0.9255 0.0074
vn 0.2232 0.8888 -0.4002
vn -0.0386 0.9804 -0.1934
vn 0.3662 0.9139 0.1753
vn -0.2504 0.9423 0.2222
vn -0.3481 0.8640 -0.3638
s 1
f 1/1/1 3/2/2 4/3/3
f 2/4/4 6/5/5 3/2/2
f 7/6/6 9/7/7 10/8/8
f 12/9/9 14/10/10 11/11/11
f 15/12/12 17/13/13 18/14/14
f 18/14/14 1/1/1 4/3/3
f 3/2/2 20/15/15 4/3/3
f 3/2/2 21/16/16 19/17/17
f 22/18/18 21/16/16 6/5/5
f 24/19/19 15/12/12 25/20/20
f 25/20/20 18/14/14 26/21/21
f 26/21/21 4/3/3 20/15/15
f 20/15/15 27/22/22 28/23/23
f 19/17/17 29/24/24 27/22/22
f 23/25/25 29/24/24 21/16/16
f 25/20/20 30/26/26 23/27/25
f 31/28/27 26/21/21 32/29/28
f 26/21/21 28/23/23 32/29/28
f 28/23/23 33/30/29 34/31/30
f 35/32/31 27/22/22 29/24/24
f 29/24/24 36/33/32 35/32/31
f 30/26/26 37/34/33 36/35/32
f 37/34/33 32/29/28 38/36/34
f 38/36/34 28/23/23 34/31/30
f 6/37/5 39/38/35 22/39/18
f 5/40/36 10/8/8 6/37/5
f 15/12/12 41/41/37 16/42/38
f 24/19/19 40/43/39 15/12/12
f 41/41/37 13/44/40 12/9/9
f 42/45/41 13/44/40 40/43/39
f 8/46/42 14/10/10 9/7/7
f 22/39/18 25/20/20 23/27/25
f 39/38/35 24/19/19 22/39/18
f 14/10/10 42/45/41 9/7/7
f 39/38/35 10/8/8 9/7/7
f 42/45/41 39/38/35 9/7/7
f 44/47/43 45/48/44 46/49/45
f 45/48/44 47/50/46 46/49/45
f 48/51/47 47/50/46 45/48/44
f 44/47/43 48/51/47 45/48/44
f 49/52/48 50/53/49 51/54/50
f 50/53/49 52/55/51 51/54/50
f 53/56/52 52/55/51 50/53/49
f 49/52/48 53/56/52 50/53/49
f 54/57/53 55/58/54 56/59/55
f 55/58/54 57/60/56 56/59/55
f 58/61/57 57/60/56 55/58/54
f 54/57/53 58/61/57 55/58/54
f 59/62/58 60/63/59 61/64/60
f 60/63/59 62/65/61 61/64/60
f 63/66/62 62/65/61 60/63/59
f 59/62/58 63/66/62 60/63/59
f 64/67/58 65/68/59 66/69/60
f 65/68/59 67/70/61 66/69/60
f 68/71/62 67/70/61 65/68/59
f 64/67/58 68/71/62 65/68/59
f 69/72/63 70/73/64 71/74/65
f 70/73/64 72/75/66 71/74/65
f 73/76/67 72/75/66 70/73/64
f 69/72/63 73/76/67 70/73/64
f 74/77/68 75/78/69 76/79/70
f 75/78/69 77/80/71 76/79/70
f 78/81/72 77/80/71 75/78/69
f 74/77/68 78/81/72 75/78/69
f 1/1/1 2/4/4 3/2/2
f 2/4/4 5/82/36 6/5/5
f 7/6/6 8/46/42 9/7/7
f 12/9/9 13/44/40 14/10/10
f 15/12/12 16/42/38 17/13/13
f 18/14/14 17/13/13 1/1/1
f 3/2/2 19/17/17 20/15/15
f 3/2/2 6/5/5 21/16/16
f 22/18/18 23/25/25 21/16/16
f 25/20/20 15/12/12 18/14/14
f 26/21/21 18/14/14 4/3/3
f 20/15/15 19/17/17 27/22/22
f 19/17/17 21/16/16 29/24/24
f 23/25/25 30/83/26 29/24/24
f 25/20/20 31/28/27 30/26/26
f 31/28/27 25/20/20 26/21/21
f 26/21/21 20/15/15 28/23/23
f 28/23/23 27/22/22 33/30/29
f 35/32/31 33/30/29 27/22/22
f 29/24/24 30/83/26 36/33/32
f 30/26/26 31/28/27 37/34/33
f 37/34/33 31/28/27 32/29/28
f 38/36/34 32/29/28 28/23/23
f 6/37/5 10/8/8 39/38/35
f 5/40/36 7/6/6 10/8/8
f 15/12/12 40/43/39 41/41/37
f 24/19/19 42/45/41 40/43/39
f 41/41/37 40/43/39 13/44/40
f 42/45/41 14/10/10 13/44/40
f 8/46/42 11/11/11 14/10/10
f 22/39/18 24/19/19 25/20/20
f 42/45/41 24/19/19 39/38/35
